<?xml version="1.0" encoding="UTF-8"?> <svg xmlns="http://www.w3.org/2000/svg" viewBox="0 0 64 64"><defs><style>.cls-1{fill:none;}.cls-2{fill:#fcd370;}.cls-3{fill:#cc9629;}.cls-4{fill:#fff;}</style></defs><title>communities-day</title><g id="invisi-border"><rect class="cls-1" width="64" height="64"></rect></g><g id="icon"><path class="cls-2" d="M30,34A11,11,0,0,0,8,34v6H30Z"></path><path class="cls-3" d="M30,42H8a2,2,0,0,1-2-2V34a13,13,0,0,1,26,0v6A2,2,0,0,1,30,42ZM10,38H28V34a9,9,0,0,0-18,0Z"></path><circle class="cls-4" cx="19" cy="15" r="8"></circle><path class="cls-3" d="M19,25A10,10,0,1,1,29,15,10,10,0,0,1,19,25ZM19,9a6,6,0,1,0,6,6A6,6,0,0,0,19,9Z"></path><circle class="cls-2" cx="45" cy="15" r="8"></circle><path class="cls-3" d="M45,25A10,10,0,1,1,55,15,10,10,0,0,1,45,25ZM45,9a6,6,0,1,0,6,6A6,6,0,0,0,45,9Z"></path><path class="cls-4" d="M56,34a11,11,0,0,0-22,0v6H56Z"></path><path class="cls-3" d="M56,42H34a2,2,0,0,1-2-2V34a13,13,0,0,1,26,0v6A2,2,0,0,1,56,42ZM36,38H54V34a9,9,0,0,0-18,0Z"></path><circle class="cls-2" cx="32" cy="32" r="8"></circle><path class="cls-3" d="M32,42A10,10,0,1,1,42,32,10,10,0,0,1,32,42Zm0-16a6,6,0,1,0,6,6A6,6,0,0,0,32,26Z"></path><path class="cls-2" d="M43,51a11,11,0,0,0-22,0v6H43Z"></path><path class="cls-3" d="M43,59H21a2,2,0,0,1-2-2V51a13,13,0,0,1,26,0v6A2,2,0,0,1,43,59ZM23,55H41V51a9,9,0,0,0-18,0Z"></path></g></svg> 