<?xml version="1.0" encoding="UTF-8"?> <!-- Generator: Adobe Illustrator 23.0.3, SVG Export Plug-In . SVG Version: 6.00 Build 0) --> <svg xmlns="http://www.w3.org/2000/svg" xmlns:xlink="http://www.w3.org/1999/xlink" id="Слой_1" x="0px" y="0px" viewBox="0 0 396.5 109" style="enable-background:new 0 0 396.5 109;" xml:space="preserve"> <style type="text/css"> .st0{fill:#64C0C3;} </style> <title>Ресурс 2</title> <path class="st0" d="M54.5,7.3C28.4,7.3,7.2,28.4,7.2,54.5s21.2,47.2,47.2,47.2c26.1,0,47.2-21.1,47.2-47.2 C101.7,28.4,80.5,7.3,54.5,7.3L54.5,7.3z M39.2,74.6C29.2,74.7,19,67.9,19,54.5s10.2-20.2,20.2-20.2c8.2,0,17,4.6,18.5,15.1h-9.9 c-1.4-4-4.4-6-8.6-6c-5.9,0-9.8,4.5-9.8,11c0,5.8,3.8,10.9,9.8,10.9c4.2,0,7.9-2.9,8.8-7h9.9C56.5,69.7,47.6,74.6,39.2,74.6z M80.5,43.5v31h-10v-31h-10v-9h29v9H80.5z"></path> <path class="st0" d="M342,1.8c29.1,0,52.7,23.6,52.7,52.7l0,0l0,0c0,29.1-23.6,52.7-52.7,52.7l0,0H54.5c-29.1,0-52.7-23.6-52.7-52.7 l0,0l0,0c0-29.1,23.6-52.7,52.7-52.7l0,0L342,1.8 M342,0H54.5C24.4,0,0,24.4,0,54.5S24.4,109,54.5,109H342 c30.1,0,54.5-24.4,54.5-54.5S372.1,0,342,0z"></path> <path d="M135.4,34.5c2.5,0,4.6,0.4,6.4,1.1c1.8,0.7,3.2,1.7,4.3,2.9c1.1,1.2,1.9,2.6,2.4,4.1c0.5,1.5,0.8,3.1,0.8,4.8 c0,1.6-0.3,3.2-0.8,4.7c-0.5,1.5-1.3,2.9-2.4,4.1c-1.1,1.2-2.5,2.2-4.3,2.9c-1.8,0.7-3.9,1.1-6.4,1.1h-9.2v14.3h-8.8V34.5H135.4z M133,53.3c1,0,2-0.1,2.9-0.2c0.9-0.1,1.8-0.4,2.5-0.9c0.7-0.4,1.3-1,1.7-1.8c0.4-0.8,0.6-1.8,0.6-3.1c0-1.3-0.2-2.3-0.6-3.1 c-0.4-0.8-1-1.4-1.7-1.8c-0.7-0.4-1.5-0.7-2.5-0.9c-0.9-0.1-1.9-0.2-2.9-0.2h-6.8v12H133z"></path> <path d="M163.5,34.5v15.3h16.2V34.5h8.8v39.9h-8.8V57.2h-16.2v17.2h-8.8V34.5H163.5z"></path> <path d="M216.1,34.5L231,74.5h-9.1l-3-8.9H204l-3.1,8.9H192l15.1-39.9H216.1z M216.6,59l-5-14.7h-0.1L206.3,59H216.6z"></path> <path d="M256.1,34.5c1.8,0,3.4,0.3,4.8,0.9c1.4,0.6,2.7,1.4,3.7,2.4c1,1,1.8,2.2,2.4,3.5c0.5,1.3,0.8,2.8,0.8,4.3 c0,2.3-0.5,4.4-1.5,6.1s-2.6,3-4.8,3.9v0.1c1.1,0.3,2,0.8,2.7,1.4c0.7,0.6,1.3,1.3,1.7,2.2c0.4,0.8,0.8,1.8,1,2.8c0.2,1,0.3,2,0.4,3 c0,0.6,0.1,1.4,0.1,2.2c0,0.9,0.1,1.7,0.2,2.6c0.1,0.9,0.2,1.7,0.4,2.5c0.2,0.8,0.5,1.5,0.9,2h-8.8c-0.5-1.3-0.8-2.8-0.9-4.5 c-0.1-1.8-0.3-3.4-0.5-5c-0.3-2.1-0.9-3.6-1.9-4.6c-1-1-2.6-1.5-4.8-1.5h-8.8v15.6h-8.8V34.5H256.1z M252.9,52.6 c2,0,3.5-0.4,4.5-1.3c1-0.9,1.5-2.3,1.5-4.4c0-1.9-0.5-3.3-1.5-4.2c-1-0.9-2.5-1.3-4.5-1.3h-9.6v11.2H252.9z"></path> <path d="M287.3,34.5l9.3,27.5h0.1l8.8-27.5h12.4v39.9h-8.2V46.1h-0.1l-9.8,28.3H293l-9.8-28h-0.1v28h-8.2V34.5H287.3z"></path> <path d="M345.6,34.5l14.9,39.9h-9.1l-3-8.9h-14.9l-3.1,8.9h-8.8l15.1-39.9H345.6z M346.1,59l-5-14.7h-0.1L335.7,59H346.1z"></path> </svg> 