<?xml version="1.0" encoding="UTF-8"?> <svg xmlns="http://www.w3.org/2000/svg" width="198" height="81" viewBox="0 0 198 81" fill="none"><path d="M157.978 0.666549H40.549C18.5198 0.666549 0.597137 18.6105 0.597137 40.6665C0.597137 62.7224 18.5198 80.6664 40.549 80.6664H157.978C180.007 80.6664 197.93 62.7224 197.93 40.6665C197.93 18.6105 180.007 0.666549 157.978 0.666549ZM157.978 1.99988C179.307 1.99988 196.598 19.3105 196.598 40.6665C196.598 62.0224 179.306 79.333 157.978 79.333H40.549C19.2198 79.333 1.92913 62.0224 1.92913 40.6665C1.92913 19.3105 19.2198 1.99988 40.549 1.99988H157.978Z" fill="#64C0C3"></path><path d="M75.325 40.8678C75.325 60.0144 59.805 75.5344 40.6584 75.5344C21.5131 75.5344 5.99179 60.0144 5.99179 40.8678C5.99179 21.7225 21.5131 6.2012 40.6584 6.2012C59.805 6.2012 75.325 21.7225 75.325 40.8678Z" fill="#64C0C3"></path><path d="M29.4731 32.8238C25.1344 32.8238 22.2784 36.0878 22.2784 40.8904C22.2784 45.1451 25.0931 48.8678 29.4731 48.9091C32.6131 48.9091 35.1397 47.3384 35.9197 44.2358H43.1984C42.1224 52.4251 35.6331 55.6504 29.4731 55.6504C22.1131 55.6904 14.6758 50.7318 14.6304 40.8904C14.6758 31.0438 22.1131 26.0851 29.4731 26.0851C35.4704 26.0851 41.957 29.3518 43.0744 37.0865H35.7984C34.7664 34.1465 32.5717 32.8238 29.4731 32.8238V32.8238ZM59.617 33.0305V55.3597H52.2997V33.0305H45.189V26.4185H66.6876V33.0318L59.617 33.0305Z" fill="white"></path><path d="M109.556 43.3948C109.329 46.5363 108.166 49.0093 106.067 50.814C103.982 52.6187 101.228 53.521 97.8057 53.521C94.0627 53.521 91.115 52.2645 88.9628 49.7513C86.8239 47.2247 85.7545 43.7624 85.7545 39.3643V37.5797C85.7545 34.7724 86.2491 32.2993 87.2383 30.1604C88.2275 28.0215 89.6379 26.384 91.4693 25.2477C93.3141 24.098 95.453 23.5232 97.8859 23.5232C101.255 23.5232 103.968 24.4256 106.027 26.2302C108.086 28.0349 109.275 30.5682 109.596 33.83H103.581C103.434 31.9451 102.906 30.5815 101.997 29.7393C101.101 28.8838 99.7307 28.456 97.8859 28.456C95.8807 28.456 94.3768 29.1779 93.3742 30.6216C92.385 32.052 91.877 34.2778 91.8503 37.299V39.5047C91.8503 42.6595 92.3248 44.9655 93.274 46.4226C94.2365 47.8797 95.7471 48.6083 97.8057 48.6083C99.6639 48.6083 101.047 48.1872 101.956 47.345C102.879 46.4895 103.407 45.1727 103.541 43.3948H109.556Z" fill="black"></path><path d="M119.522 42.8333V53.12H113.506V23.9242H124.896C127.088 23.9242 129.013 24.3253 130.671 25.1274C132.342 25.9295 133.625 27.0724 134.521 28.5563C135.417 30.0268 135.864 31.7044 135.864 33.5893C135.864 36.4501 134.882 38.7093 132.917 40.3669C130.965 42.0112 128.258 42.8333 124.796 42.8333H119.522ZM119.522 37.9607H124.896C126.487 37.9607 127.697 37.5864 128.525 36.8378C129.368 36.0892 129.789 35.0197 129.789 33.6294C129.789 32.1991 129.368 31.0427 128.525 30.1604C127.683 29.2781 126.52 28.8236 125.036 28.7969H119.522V37.9607Z" fill="black"></path><path d="M163.115 49.4304C162.032 50.7271 160.502 51.7364 158.523 52.4583C156.545 53.1668 154.352 53.521 151.946 53.521C149.42 53.521 147.201 52.973 145.289 51.8768C143.391 50.7672 141.92 49.1631 140.877 47.0643C139.848 44.9655 139.32 42.4991 139.293 39.6651V37.6799C139.293 34.7657 139.781 32.2458 140.757 30.1203C141.746 27.9814 143.163 26.3505 145.008 25.2276C146.866 24.0913 149.039 23.5232 151.525 23.5232C154.987 23.5232 157.694 24.352 159.646 26.0097C161.598 27.6539 162.754 30.0535 163.115 33.2083H157.26C156.993 31.5373 156.398 30.3142 155.475 29.5388C154.566 28.7635 153.31 28.3758 151.706 28.3758C149.66 28.3758 148.103 29.1445 147.033 30.6818C145.964 32.2191 145.423 34.505 145.409 37.5396V39.4044C145.409 42.4657 145.991 44.7784 147.154 46.3424C148.317 47.9065 150.021 48.6885 152.267 48.6885C154.526 48.6885 156.137 48.2073 157.1 47.2448V42.2117H151.625V37.7802H163.115V49.4304Z" fill="black"></path></svg> 