<?xml version="1.0" encoding="UTF-8"?> <svg xmlns="http://www.w3.org/2000/svg" id="Слой_1" viewBox="0 0 367 109"><style>.st0{fill:#64c0c3}</style><path class="st0" d="M312.5 2c29-.1 52.6 23.4 52.7 52.4v.1c0 29-23.5 52.5-52.6 52.5H54.5c-29 .1-52.6-23.4-52.7-52.4v-.1C1.8 25.5 25.4 2 54.4 2h258.1zm0-2h-258C24.4 0 0 24.4 0 54.5S24.4 109 54.5 109h258c30.1 0 54.5-24.4 54.5-54.5S342.6 0 312.5 0z"></path><path d="M129.8 35l9.3 27.5h.1L148 35h12.4v40h-8V46.7h-.4L142.5 75h-6.9l-9.9-28h-.3v28h-8V35h12.4zM167.7 46.9c.8-2.5 2.2-4.7 3.9-6.7 1.7-1.9 3.8-3.4 6.2-4.5 5.3-2.2 11.2-2.2 16.5 0 2.3 1 4.4 2.6 6.1 4.5 1.7 2 3 4.2 3.9 6.7.9 2.7 1.4 5.5 1.3 8.3 0 2.8-.4 5.5-1.3 8.1-.8 2.4-2.1 4.7-3.9 6.6-1.7 1.9-3.8 3.4-6.1 4.4-5.3 2.1-11.2 2.1-16.5 0-2.4-1-4.5-2.5-6.2-4.4s-3-4.1-3.9-6.6c-.9-2.6-1.4-5.4-1.3-8.1 0-2.8.4-5.6 1.3-8.3zm8 13.2c.4 1.5 1 3 1.9 4.3s2 2.3 3.4 3c3.2 1.5 6.9 1.5 10.1 0 1.3-.7 2.5-1.7 3.4-3 .9-1.3 1.5-2.8 1.9-4.3.4-1.6.6-3.2.6-4.9s-.2-3.4-.6-5.1c-.4-1.6-1-3-1.9-4.4-.8-1.3-2-2.3-3.4-3.1-3.2-1.5-6.9-1.5-10.1 0-1.3.7-2.5 1.8-3.4 3.1s-1.5 2.8-1.9 4.4c-.4 1.7-.6 3.4-.6 5.1 0 1.6.3 3.3.6 4.9zM230.4 35c1.7 0 3.5.2 5.2.5 1.4.3 2.8.8 4 1.7 1.1.8 2 1.8 2.6 3 .7 1.5 1 3.1.9 4.7.1 1.8-.4 3.5-1.4 5-1 1.4-2.4 2.6-4 3.3 2.2.5 4.2 1.9 5.5 3.7 2.2 3.5 2.4 7.9.6 11.6-.8 1.4-1.8 2.7-3.2 3.6-1.4 1-2.9 1.7-4.5 2.1-1.7.4-3.5.7-5.2.7h-19.5V35h19zm-1.1 16c1.4.1 2.7-.2 3.9-.9 1.1-.9 1.6-2.3 1.5-3.6 0-.8-.1-1.6-.5-2.3-.3-.6-.8-1.1-1.3-1.4-.6-.3-1.3-.6-1.9-.7-.7-.1-1.5-.2-2.3-.2h-8.1V51h8.7zm.5 17.2c.8 0 1.7-.1 2.5-.3.7-.1 1.4-.4 2.1-.8.6-.4 1.1-.9 1.4-1.6.4-.8.6-1.7.5-2.6 0-2-.6-3.6-1.7-4.5-1.3-.9-2.9-1.4-4.6-1.4h-9.5v11.1h9.3v.1zM259.5 35v40h-9V35h9zM276.5 35v33h19v7h-28V35h9zM330.5 35v7h-21v9h19v7h-19v10h22v7h-31V35h30z"></path><path class="st0" d="M54.5 7.8C28.4 7.8 7.2 28.9 7.2 55s21.2 47.2 47.2 47.2c26.1 0 47.2-21.1 47.2-47.2.1-26.1-21.1-47.2-47.1-47.2zM39.2 75.1C29.2 75.2 19 68.4 19 55s10.2-20.1 20.2-20.1c8.2 0 17 4.6 18.5 15.1h-9.9c-1.4-4-4.4-6-8.6-6-5.9 0-9.8 4.5-9.8 11 0 5.8 3.8 10.9 9.8 10.9 4.2.1 7.9-2.8 8.8-6.9h9.9c-1.4 11.2-10.3 16.1-18.7 16.1zM80.5 44v31h-10V44h-10v-9h29v9h-9z"></path></svg> 