<?xml version="1.0" encoding="UTF-8"?> <svg xmlns="http://www.w3.org/2000/svg" viewBox="0 0 242.827 132.753" height="132.753" width="242.827"><defs><clipPath id="a"><path d="M0 99.564h182.12V0H0z"></path></clipPath></defs><g clip-path="url(#a)" transform="matrix(1.33333 0 0 -1.33333 0 132.753)"><path d="M161.069 40.349c-4.772 0-8.642 3.772-8.642 8.425 0 4.653 3.87 8.426 8.642 8.426 4.773 0 8.643-3.773 8.643-8.426 0-4.653-3.87-8.425-8.643-8.425m-27.744 35.02v-1.408H110.78V57.479h16.907v5.21l-12.68 5.637v.425h18.317V55.63c0-1.174-.411-2.17-1.234-2.987-.822-.817-1.82-1.226-2.995-1.226h-19.724c-1.175 0-2.173.41-2.994 1.233-.823.822-1.234 1.82-1.234 2.994v20.151c0 1.174.411 2.172 1.234 2.993.821.823 1.82 1.233 2.994 1.233h19.724c1.175 0 2.173-.41 2.994-1.233.823-.821 1.234-1.82 1.234-2.993zm-10.172-28.88v-.212l-10.952-3.72H68.848l-10.951 3.72v.425h65.257zM96.22 33.97v1.365c0 .783.275 1.449.823 1.996a2.715 2.715 0 0 0 1.996.822h9.392c.783 0 1.449-.274 1.997-.822a2.715 2.715 0 0 0 .821-1.996v-6.061c0-.782-.273-1.448-.821-1.996a2.719 2.719 0 0 0-1.997-.822H99.98v-3.332h11.271V18.94H96.222V27.82c0 .782.274 1.448.822 1.996a2.715 2.715 0 0 0 1.996.822h8.453v3.332zm-14.09-7.514c-.781 0-1.447.274-1.995.822a2.722 2.722 0 0 0-.821 1.996V38.152h15.028V33.97H83.072v-3.332h8.454c.782 0 1.447-.274 1.995-.822a2.715 2.715 0 0 0 .822-1.996v-6.061c0-.783-.273-1.448-.822-1.996a2.716 2.716 0 0 0-1.995-.822h-9.394c-.782 0-1.448.274-1.996.822a2.72 2.72 0 0 0-.821 1.996v1.364h11.272v3.332zm-12.21 7.515v.425l7.515 3.757V18.94h-3.759V33.97zm53.232-22.805v-.212H57.895v.425l10.951 3.72h43.355l10.951-3.72zM48.788 51.843v28.179H72.74c1.174 0 2.172-.41 2.994-1.233.82-.821 1.232-1.82 1.232-2.993V55.645c0-1.174-.411-2.172-1.232-2.994-.822-.822-1.82-1.233-2.994-1.233H48.788zm52.13 16.908V62.69h-14.09v6.061zM79.784 51.843v28.179h22.544V73.96H85.42V51.418h-5.637zm89.554 43.302c-1.67 2.732-4.693 4.42-7.956 4.42H20.738c-3.263 0-6.284-1.688-7.955-4.42C4.665 81.865 0 66.34 0 49.757S4.665 17.67 12.783 4.39C14.454 1.659 17.475 0 20.738 0h140.643c3.263 0 6.285 1.656 7.956 4.389 8.118 13.279 12.783 28.795 12.783 45.378 0 16.582-4.665 32.098-12.783 45.378" fill="#0f5281"></path><path d="M54.423 57.479H71.33v16.482H54.423z" fill="#0f5281"></path></g></svg> 