<?xml version="1.0" encoding="UTF-8"?> <svg xmlns="http://www.w3.org/2000/svg" viewBox="0 0 6000 2000"><path d="M5552.3 675.6l-461.1 461.1h-514.7l-310.6 310.6v193l366.8-366.7h514.4l405.3-405.1-.1-192.9zm-881.1 688.3L4266 1768.4V1962l461.1-461.1h514.5l310.8-310.8V997.2l-366.6 366.7h-514.6z" fill="#f48120"></path><path d="M447.6 684.8h352.2v140.9H611.9v88H782v135H611.9v223.1H447.6zM827 1068.9c0-114.1 74.6-217.2 242.2-217.2 167.8 0 242.4 103.1 242.4 217.2 0 115.6-74.6 217.9-242.4 217.9-167.6 0-242.2-102.2-242.2-217.9zm333 0c0-66.2-31.9-111.5-90.6-111.5-58.6 0-90.4 45.3-90.4 111.5 0 67 31.8 112.4 90.4 112.4 58.6-.1 90.6-45.4 90.6-112.4zm223.8-202.1h140.9v52.8c4.2-5.8 8.3-10.8 12.5-15.9 34.5-37.8 78-46 102.4-46 10.9 0 32.8 2.6 37.7 3.3v129.2c-13.4-5.9-23.5-6.7-37.7-6.7-107.4 0-109 102.3-109 115.7v172.6h-146.7l-.1-405zm767.1 281.8c-47 138.3-182.8 138.3-218 138.3-125.9 0-224.7-76.3-224.7-217.9 0-128.3 84.8-217.2 223-217.2 192.9 0 226.3 159.3 223.1 249.9h-308.5c-1.8 51.2 28.6 97.2 87.1 97.2 40.2 0 69.6-17.5 77.1-50.3h140.9zm-137.6-126.7c-2.5-41.9-29.2-82.1-82.1-82.1-49.4 0-79.6 38.6-82.1 82.1h164.2zm337.9 33.5l-148.3-188.6h179.3l64.6 108.1 66.3-108.1h171l-152.6 190.3 158.5 214.7h-170.3l-82-132.5-86.5 132.5h-177.7zm842.2-238.7c-62.8-61.1-128.2-66.3-160.4-66.3-129 0-213.2 96-213.2 226.7 0 126.6 87.5 221.6 213.2 221.6 27.9 0 93.4-5 160.4-68.7v108.8c-18.6 11.8-73.9 45-163 45-50.9 0-134.2-10.2-210.6-82.4-57.8-55.2-95-127.4-95-224.2 0-77.2 23.7-164.6 95-232.6 61.9-59.5 133.3-79 214.8-79 76.4 0 122.3 19.5 158.7 44.2l.1 106.9zm395.4 51.3v232c0 24.7 0 51 17.4 73 12.8 16.5 32.9 27.5 62.2 27.5 29.2 0 49.3-11 62.1-27.5 17.4-22 17.4-48.4 17.4-73V868h93.2v233.8c0 47.6-2.7 91.4-42.9 132.5-42 43.9-103.3 50.3-131.6 50.3-24.7 0-85-6.4-127.8-50.3-40.3-41.1-42.9-85-42.9-132.5V868h92.9zm-299.6-183.3v587.1h93.2V684.7zM4168.9 857c-30.1 0-83 6.4-121.4 58.5V684.7h-93.3v587h93.3v-42c17.4 20.2 53 54.8 121.4 54.8 101.5 0 196.5-80.5 196.5-214.7.1-108.7-69.4-212.8-196.5-212.8zm-12.7 343.6c-73.3 0-114.2-56.7-114.2-128 0-89.4 55.6-131.5 114.2-131.5 67.6 0 112.5 57.5 112.5 130.6-.1 69.5-41.2 128.9-112.5 128.9z" fill="#231f20"></path></svg> 