<?xml version="1.0" encoding="UTF-8"?> <svg xmlns="http://www.w3.org/2000/svg" viewBox="0 0 64 64"><defs><style>.cls-1{fill:none;}.cls-2{fill:#d3679d;}.cls-3{fill:#812124;}.cls-4{fill:#fff;}</style></defs><title>service-day</title><g id="invisi-border"><rect class="cls-1" width="64" height="64"></rect></g><g id="icon"><path class="cls-2" d="M54.41,13.92h0a12.26,12.26,0,0,0-17.33,0L32,19l-5.08-5.08a12.26,12.26,0,0,0-17.33,0h0a12.26,12.26,0,0,0,0,17.33L32,53.67,54.41,31.26A12.26,12.26,0,0,0,54.41,13.92Z"></path><path class="cls-3" d="M32,55.67a2,2,0,0,1-1.41-.59L8.18,32.67A14.26,14.26,0,0,1,28.34,12.51L32,16.17l3.66-3.66a14.27,14.27,0,0,1,20.16,0h0a14.27,14.27,0,0,1,0,20.16L33.41,55.08A2,2,0,0,1,32,55.67ZM18.26,12.34A10.25,10.25,0,0,0,11,29.84l21,21,21-21A10.26,10.26,0,0,0,38.49,15.34l-5.08,5.08a2.06,2.06,0,0,1-2.83,0l-5.08-5.08A10.23,10.23,0,0,0,18.26,12.34Z"></path><path class="cls-4" d="M14,25.33a2,2,0,0,1-2-2,7,7,0,0,1,7-7,2,2,0,0,1,0,4,3,3,0,0,0-3,3A2,2,0,0,1,14,25.33Z"></path></g></svg> 