<?xml version="1.0" encoding="UTF-8" standalone="no"?>
<svg
   xmlns:dc="http://purl.org/dc/elements/1.1/"
   xmlns:cc="http://creativecommons.org/ns#"
   xmlns:rdf="http://www.w3.org/1999/02/22-rdf-syntax-ns#"
   xmlns:svg="http://www.w3.org/2000/svg"
   xmlns="http://www.w3.org/2000/svg"
   viewBox="0 0 133.33333 166.66667"
   height="166.66667"
   width="133.33333"
   xml:space="preserve"
   id="svg2"
   version="1.1"><metadata
     id="metadata8"><rdf:RDF><cc:Work
         rdf:about=""><dc:format>image/svg+xml</dc:format><dc:type
           rdf:resource="http://purl.org/dc/dcmitype/StillImage" /></cc:Work></rdf:RDF></metadata><defs
     id="defs6"><clipPath
       id="clipPath18"
       clipPathUnits="userSpaceOnUse"><path
         id="path16"
         d="M 0,125 H 100 V 0 H 0 Z" /></clipPath></defs><g
     transform="matrix(1.3333333,0,0,-1.3333333,0,166.66667)"
     id="g10"><g
       id="g12"><g
         clip-path="url(#clipPath18)"
         id="g14"><g
           transform="translate(90.8096,65.7601)"
           id="g20"><path
             id="path22"
             style="fill:#418fde;fill-opacity:1;fill-rule:nonzero;stroke:none"
             d="M 0,0 C 1.891,1.68 2.7,4.77 2.681,4.76 2.671,4.77 0.771,4.54 -0.949,2.83 -2.189,1.59 -3.1,-0.04 -3.54,-0.86 c 0.65,1.97 1.15,4 1.48,6.05 0.38,0.05 2.071,0.28 3.43,2.02 1.58,1.98 1.851,5.17 1.83,5.16 C 3.19,12.38 1.351,11.82 -0.05,9.82 -1.06,8.38 -1.68,6.61 -1.97,5.73 c 0.281,1.92 0.43,3.85 0.43,5.79 0.37,0.11 2,0.62 3.061,2.56 1.24,2.22 0.979,5.43 0.959,5.41 -0.009,0.01 -1.73,-0.86 -2.79,-3.07 -0.769,-1.59 -1.089,-3.44 -1.24,-4.36 -0.029,1.97 -0.2,3.93 -0.529,5.88 0.34,0.17 1.869,0.95 2.59,3.06 0.849,2.41 0.029,5.55 0.01,5.53 C 0.5,26.54 -1.04,25.39 -1.699,23.01 -2.18,21.3 -2.18,19.41 -2.18,18.48 c -0.349,1.91 -0.849,3.81 -1.5,5.66 0.311,0.23 1.68,1.26 2.031,3.47 0.42,2.54 -0.97,5.53 -0.991,5.51 -0.019,0.01 -1.33,-1.4 -1.559,-3.87 -0.17,-1.78 0.159,-3.66 0.33,-4.59 -0.731,1.98 -1.631,3.9 -2.71,5.76 0.26,0.28 1.42,1.55 1.319,3.82 -0.09,2.61 -2.12,5.36 -2.13,5.33 -0.019,0 -1.019,-1.64 -0.729,-4.15 0.21,-1.81 0.909,-3.63 1.26,-4.52 -1.04,1.72 -2.231,3.37 -3.59,4.93 0.199,0.32 1.109,1.78 0.54,4.04 -0.62,2.6 -3.271,5.04 -3.28,5.01 -0.021,0 -0.67,-1.81 0.149,-4.29 0.591,-1.79 1.671,-3.49 2.2,-4.33 -0.67,0.75 -1.37,1.48 -2.109,2.18 -0.441,0.89 -1.46,2.51 -3.221,3.8 -2.64,1.94 -5.659,2.2 -5.63,2.19 0.01,-0.01 1.851,-2.23 4.271,-4.01 1.649,-1.2 3.279,-1.98 4.189,-2.39 0.731,-0.69 1.431,-1.41 2.08,-2.15 -0.75,0.62 -2.429,1.75 -4.2,2 -2.449,0.35 -3.93,-0.97 -3.92,-0.96 0.021,0 2.271,-1.4 4.551,-1.85 2.019,-0.39 3.59,0.2 3.949,0.36 1.33,-1.54 2.511,-3.17 3.53,-4.86 -0.599,0.72 -2,2.08 -3.65,2.59 -2.279,0.71 -3.96,-0.33 -3.949,-0.32 0.019,0 1.88,-1.69 4,-2.48 1.87,-0.69 3.51,-0.38 3.889,-0.27 1.071,-1.83 1.951,-3.72 2.67,-5.67 -0.45,0.8 -1.549,2.36 -3.04,3.13 -2.07,1.08 -3.899,0.35 -3.889,0.36 0.019,0 1.469,-1.94 3.37,-3.08 1.689,-0.99 3.349,-0.97 3.739,-0.94 0.641,-1.82 1.131,-3.69 1.481,-5.57 -0.3,0.86 -1.111,2.56 -2.43,3.56 -1.83,1.39 -3.75,0.98 -3.74,0.99 0.019,-0.01 1.08,-2.13 2.759,-3.55 1.491,-1.25 3.12,-1.5 3.51,-1.53 0.32,-1.92 0.5,-3.85 0.521,-5.79 -0.161,0.9 -0.67,2.7 -1.8,3.9 -1.57,1.66 -3.521,1.58 -3.511,1.6 0.011,-0.01 0.691,-2.26 2.101,-3.94 1.25,-1.47 2.819,-2 3.2,-2.1 0,-1.91 -0.141,-3.82 -0.421,-5.71 -0.01,0.91 -0.22,2.77 -1.14,4.14 -1.269,1.9 -3.21,2.14 -3.189,2.15 0.01,-0.01 0.309,-2.34 1.43,-4.22 1,-1.66 2.46,-2.44 2.82,-2.6 -0.33,-2.02 -0.82,-4.01 -1.46,-5.96 0.14,0.9 0.25,2.77 -0.421,4.28 -0.93,2.09 -2.79,2.68 -2.77,2.69 0.01,-0.01 -0.089,-2.35 0.691,-4.42 0.699,-1.81 2,-2.85 2.329,-3.07 -0.619,-1.8 -1.38,-3.56 -2.27,-5.26 0.291,0.87 0.701,2.7 0.291,4.31 C -6.81,0.02 -8.55,0.9 -8.529,0.91 -8.52,0.9 -9,-1.4 -8.569,-3.57 c 0.389,-1.91 1.509,-3.15 1.79,-3.42 -0.95,-1.76 -2.05,-3.44 -3.281,-5.03 0.441,0.81 1.17,2.55 1.04,4.22 -0.179,2.3 -1.75,3.48 -1.73,3.49 0.011,-0.01 -0.859,-2.21 -0.81,-4.43 0.05,-1.96 0.93,-3.38 1.161,-3.7 -1.21,-1.51 -2.54,-2.93 -3.991,-4.25 0.59,0.73 1.63,2.33 1.79,4 0.22,2.31 -1.129,3.74 -1.11,3.74 0,-0.02 -1.229,-2.04 -1.579,-4.25 -0.301,-1.95 0.31,-3.5 0.489,-3.86 -1.59,-1.39 -3.309,-2.65 -5.179,-3.76 0.75,0.61 2.12,2.02 2.61,3.64 0.68,2.25 -0.391,3.9 -0.37,3.9 0,-0.02 -1.62,-1.801 -2.431,-3.93 -0.699,-1.871 -0.409,-3.52 -0.3,-3.9 -1.759,-1.02 -3.639,-1.9 -5.639,-2.63 0.889,0.48 2.58,1.64 3.399,3.159 1.131,2.111 0.37,3.921 0.391,3.921 0,-0.02 -1.981,-1.51 -3.241,-3.48 -1.099,-1.731 -1.139,-3.41 -1.11,-3.8 -2.229,-0.78 -4.6,-1.37 -7.109,-1.76 -0.271,-0.04 -0.471,-0.2 -0.45,-0.35 0.019,-0.16 0.259,-0.25 0.54,-0.21 2.549,0.389 4.96,0.99 7.219,1.78 0.241,-0.3 1.34,-1.66 3.7,-1.93 2.72,-0.34 5.781,1.13 5.76,1.14 0,0.02 -1.42,1.31 -3.99,1.47 -1.85,0.12 -3.869,-0.281 -4.89,-0.47 2.031,0.75 3.93,1.64 5.72,2.67 0.28,-0.26 1.58,-1.4 3.881,-1.3 2.64,0.109 5.31,2.04 5.279,2.05 0,0.019 -1.62,1.05 -4.099,0.79 -1.79,-0.18 -3.63,-0.89 -4.55,-1.25 1.889,1.13 3.649,2.41 5.25,3.82 0.319,-0.2 1.79,-1.1 3.979,-0.591 2.51,0.561 4.731,2.921 4.701,2.921 0,0.02 -1.771,0.74 -4.13,0.06 -1.701,-0.49 -3.321,-1.5 -4.13,-2.01 1.479,1.33 2.83,2.779 4.05,4.31 0.349,-0.15 1.939,-0.781 3.979,0.07 2.351,0.96 4.12,3.63 4.101,3.63 0,0.019 -1.87,0.44 -4.061,-0.62 -1.58,-0.76 -2.979,-2.02 -3.68,-2.651 1.25,1.621 2.361,3.33 3.33,5.111 0.371,-0.08 2.041,-0.43 3.89,0.75 2.141,1.34 3.431,4.27 3.41,4.27 -0.009,0.01 -1.92,0.11 -3.889,-1.3 -1.42,-1.02 -2.58,-2.49 -3.151,-3.22 0.901,1.719 1.67,3.51 2.311,5.34 C -3.34,-1.4 -1.64,-1.47 0,0" /></g><g
           transform="translate(11.3472,65.7601)"
           id="g24"><path
             id="path26"
             style="fill:#418fde;fill-opacity:1;fill-rule:nonzero;stroke:none"
             d="M 0,0 C -1.89,1.68 -2.7,4.77 -2.68,4.76 -2.67,4.77 -0.77,4.54 0.95,2.83 2.19,1.59 3.1,-0.04 3.54,-0.86 2.89,1.11 2.39,3.14 2.06,5.19 1.68,5.24 -0.01,5.47 -1.37,7.21 -2.95,9.19 -3.22,12.38 -3.2,12.37 -3.19,12.38 -1.35,11.82 0.05,9.82 1.06,8.38 1.68,6.61 1.97,5.73 1.69,7.65 1.54,9.58 1.54,11.52 c -0.37,0.11 -2,0.62 -3.06,2.56 -1.24,2.22 -0.98,5.43 -0.96,5.41 0.01,0.01 1.73,-0.86 2.79,-3.07 0.77,-1.59 1.09,-3.44 1.24,-4.36 0.03,1.97 0.2,3.93 0.53,5.88 -0.34,0.17 -1.87,0.95 -2.59,3.06 -0.85,2.41 -0.03,5.55 -0.01,5.53 0.02,0.01 1.56,-1.14 2.22,-3.52 0.48,-1.71 0.48,-3.6 0.48,-4.53 0.35,1.91 0.85,3.81 1.5,5.66 -0.31,0.23 -1.68,1.26 -2.03,3.47 -0.42,2.54 0.97,5.53 0.99,5.51 0.02,0.01 1.33,-1.4 1.56,-3.87 0.17,-1.78 -0.16,-3.66 -0.33,-4.59 0.73,1.98 1.63,3.9 2.71,5.76 -0.26,0.28 -1.42,1.55 -1.32,3.82 0.09,2.61 2.12,5.36 2.13,5.33 0.02,0 1.02,-1.64 0.73,-4.15 -0.21,-1.81 -0.91,-3.63 -1.26,-4.52 1.04,1.72 2.23,3.37 3.59,4.93 -0.2,0.32 -1.11,1.78 -0.54,4.04 0.62,2.6 3.27,5.04 3.28,5.01 0.02,0 0.67,-1.81 -0.15,-4.29 -0.59,-1.79 -1.67,-3.49 -2.2,-4.33 0.67,0.75 1.37,1.48 2.11,2.18 0.44,0.89 1.46,2.51 3.22,3.8 2.64,1.94 5.66,2.2 5.63,2.19 -0.01,-0.01 -1.85,-2.23 -4.27,-4.01 -1.65,-1.2 -3.28,-1.98 -4.19,-2.39 -0.73,-0.69 -1.43,-1.41 -2.08,-2.15 0.75,0.62 2.43,1.75 4.2,2 2.45,0.35 3.93,-0.97 3.92,-0.96 -0.02,0 -2.27,-1.4 -4.55,-1.85 -2.02,-0.39 -3.59,0.2 -3.95,0.36 -1.33,-1.54 -2.51,-3.17 -3.53,-4.86 0.6,0.72 2,2.08 3.65,2.59 2.28,0.71 3.96,-0.33 3.95,-0.32 -0.02,0 -1.88,-1.69 -4,-2.48 C 9.08,29.67 7.44,29.98 7.06,30.09 5.99,28.26 5.11,26.37 4.39,24.42 c 0.45,0.8 1.55,2.36 3.04,3.13 2.07,1.08 3.9,0.35 3.89,0.36 -0.02,0 -1.47,-1.94 -3.37,-3.08 C 6.26,23.84 4.6,23.86 4.21,23.89 3.57,22.07 3.08,20.2 2.73,18.32 c 0.3,0.86 1.11,2.56 2.43,3.56 1.83,1.39 3.75,0.98 3.74,0.99 C 8.88,22.86 7.82,20.74 6.14,19.32 4.65,18.07 3.02,17.82 2.63,17.79 2.31,15.87 2.13,13.94 2.11,12 c 0.16,0.9 0.67,2.7 1.8,3.9 1.57,1.66 3.52,1.58 3.51,1.6 -0.01,-0.01 -0.69,-2.26 -2.1,-3.94 -1.25,-1.47 -2.82,-2 -3.2,-2.1 0,-1.91 0.14,-3.82 0.42,-5.71 0.01,0.91 0.22,2.77 1.14,4.14 1.27,1.9 3.21,2.14 3.19,2.15 C 6.86,12.03 6.56,9.7 5.44,7.82 4.44,6.16 2.98,5.38 2.62,5.22 2.95,3.2 3.44,1.21 4.08,-0.74 3.94,0.16 3.83,2.03 4.5,3.54 5.43,5.63 7.29,6.22 7.27,6.23 7.26,6.22 7.36,3.88 6.58,1.81 5.88,0 4.58,-1.04 4.25,-1.26 4.87,-3.06 5.63,-4.82 6.52,-6.52 6.23,-5.65 5.82,-3.82 6.23,-2.21 6.81,0.02 8.55,0.9 8.53,0.91 8.52,0.9 9,-1.4 8.57,-3.57 8.18,-5.48 7.06,-6.72 6.78,-6.99 c 0.95,-1.76 2.05,-3.44 3.28,-5.03 -0.44,0.81 -1.17,2.55 -1.04,4.22 0.18,2.3 1.75,3.48 1.73,3.49 -0.01,-0.01 0.86,-2.21 0.81,-4.43 -0.05,-1.96 -0.93,-3.38 -1.16,-3.7 1.21,-1.51 2.54,-2.93 3.99,-4.25 -0.59,0.73 -1.63,2.33 -1.79,4 -0.22,2.31 1.13,3.74 1.11,3.74 0,-0.02 1.23,-2.04 1.58,-4.25 0.3,-1.95 -0.31,-3.5 -0.49,-3.86 1.59,-1.39 3.31,-2.65 5.18,-3.76 -0.75,0.61 -2.12,2.02 -2.61,3.64 -0.68,2.25 0.39,3.9 0.37,3.9 0,-0.02 1.62,-1.801 2.43,-3.93 0.7,-1.871 0.41,-3.52 0.3,-3.9 1.76,-1.02 3.64,-1.9 5.64,-2.63 -0.89,0.48 -2.58,1.64 -3.4,3.159 -1.13,2.111 -0.37,3.921 -0.39,3.921 0,-0.02 1.98,-1.51 3.24,-3.48 1.1,-1.731 1.14,-3.41 1.11,-3.8 2.23,-0.78 4.6,-1.37 7.11,-1.76 0.27,-0.04 0.47,-0.2 0.45,-0.35 -0.02,-0.16 -0.26,-0.25 -0.54,-0.21 -2.55,0.389 -4.96,0.99 -7.22,1.78 -0.24,-0.3 -1.34,-1.66 -3.7,-1.93 -2.72,-0.34 -5.78,1.13 -5.76,1.14 0,0.02 1.42,1.31 3.99,1.47 1.85,0.12 3.87,-0.281 4.89,-0.47 -2.03,0.75 -3.93,1.64 -5.72,2.67 -0.28,-0.26 -1.58,-1.4 -3.88,-1.3 -2.64,0.109 -5.31,2.04 -5.28,2.05 0,0.019 1.62,1.05 4.1,0.79 1.79,-0.18 3.63,-0.89 4.55,-1.25 -1.89,1.13 -3.65,2.41 -5.25,3.82 -0.32,-0.2 -1.79,-1.1 -3.98,-0.591 -2.51,0.561 -4.73,2.921 -4.7,2.921 0,0.02 1.77,0.74 4.13,0.06 1.7,-0.49 3.32,-1.5 4.13,-2.01 -1.48,1.33 -2.83,2.779 -4.05,4.31 -0.35,-0.15 -1.94,-0.781 -3.98,0.07 -2.35,0.96 -4.12,3.63 -4.1,3.63 0,0.019 1.87,0.44 4.06,-0.62 1.58,-0.76 2.98,-2.02 3.68,-2.651 -1.25,1.621 -2.36,3.33 -3.33,5.111 -0.37,-0.08 -2.04,-0.43 -3.89,0.75 -2.14,1.34 -3.43,4.27 -3.41,4.27 0.01,0.01 1.92,0.11 3.89,-1.3 C 4.28,-4.56 5.44,-6.03 6.01,-6.76 5.11,-5.041 4.34,-3.25 3.7,-1.42 3.34,-1.4 1.64,-1.47 0,0" /></g></g></g></g></svg>