<?xml version="1.0" encoding="UTF-8" standalone="no"?>
<svg
   xmlns:dc="http://purl.org/dc/elements/1.1/"
   xmlns:cc="http://creativecommons.org/ns#"
   xmlns:rdf="http://www.w3.org/1999/02/22-rdf-syntax-ns#"
   xmlns:svg="http://www.w3.org/2000/svg"
   xmlns="http://www.w3.org/2000/svg"
   viewBox="0 0 682.66669 682.66669"
   height="682.66669"
   width="682.66669"
   xml:space="preserve"
   id="svg2"
   version="1.1"><metadata
     id="metadata8"><rdf:RDF><cc:Work
         rdf:about=""><dc:format>image/svg+xml</dc:format><dc:type
           rdf:resource="http://purl.org/dc/dcmitype/StillImage" /></cc:Work></rdf:RDF></metadata><defs
     id="defs6"><clipPath
       id="clipPath18"
       clipPathUnits="userSpaceOnUse"><path
         id="path16"
         d="M 0,512 H 512 V 0 H 0 Z" /></clipPath></defs><g
     transform="matrix(1.3333333,0,0,-1.3333333,0,682.66667)"
     id="g10"><g
       id="g12"><g
         clip-path="url(#clipPath18)"
         id="g14"><g
           transform="translate(321.0977,268.6605)"
           id="g20"><path
             id="path22"
             style="fill:#00a1e0;fill-opacity:1;fill-rule:nonzero;stroke:none"
             d="m 0,0 c 0,-36.23 -29.37,-65.6 -65.601,-65.6 -36.23,0 -65.6,29.37 -65.6,65.6 0,36.23 29.37,65.601 65.6,65.601 C -29.37,65.601 0,36.23 0,0" /></g><g
           transform="translate(255.2871,206.0604)"
           id="g24"><path
             id="path26"
             style="fill:#032e61;fill-opacity:1;fill-rule:nonzero;stroke:none"
             d="m 0,0 c -33.867,0 -61.391,28.031 -61.391,62.484 0,34.453 27.524,62.522 61.391,62.522 33.83,0 61.391,-28.069 61.391,-62.522 C 61.391,28.031 33.83,0 0,0 M 100.936,-27.469 59.239,13.033 C 70.07,26.481 76.6,43.708 76.6,62.484 c 0,43.066 -34.313,78.011 -76.6,78.011 -42.324,0 -76.599,-34.945 -76.599,-78.011 0,-43.066 34.275,-78.01 76.599,-78.01 18.436,0 35.313,6.61 48.519,17.641 l 41.697,-40.464 c 2.968,-3.022 7.753,-3.022 10.72,0 2.967,2.985 2.967,7.896 0,10.88" /></g><g
           transform="translate(276.9121,290.7919)"
           id="g28"><path
             id="path30"
             style="fill:#ffffff;fill-opacity:1;fill-rule:nonzero;stroke:none"
             d="m 0,0 c 0,-8.306 -6.733,-15.039 -15.039,-15.039 -8.306,0 -15.039,6.733 -15.039,15.039 0,8.306 6.733,15.039 15.039,15.039 C -6.733,15.039 0,8.306 0,0" /></g></g></g></g></svg>