<svg width="241" height="243" viewBox="0 0 241 243" fill="none" xmlns="http://www.w3.org/2000/svg">
<path d="M190.464 104.453C190.464 152.759 151.304 191.919 102.996 191.919C54.6893 191.919 15.5293 152.759 15.5293 104.453C15.5293 56.1461 54.6893 16.9848 102.996 16.9848C151.304 16.9848 190.464 56.1461 190.464 104.453Z" fill="#00A1E0"/>
<path d="M102.716 187.919C57.5605 187.919 20.8618 150.545 20.8618 104.607C20.8618 58.6702 57.5605 21.2448 102.716 21.2448C147.823 21.2448 184.571 58.6702 184.571 104.607C184.571 150.545 147.823 187.919 102.716 187.919ZM237.298 224.545L181.702 170.542C196.143 152.611 204.85 129.642 204.85 104.607C204.85 47.1862 159.099 0.592849 102.716 0.592849C46.2845 0.592849 0.584473 47.1862 0.584473 104.607C0.584473 162.029 46.2845 208.621 102.716 208.621C127.298 208.621 149.8 199.807 167.408 185.099L223.004 239.051C226.962 243.081 233.342 243.081 237.298 239.051C241.254 235.071 241.254 228.523 237.298 224.545" fill="#032E61"/>
<path d="M131.55 74.9442C131.55 86.0189 122.572 94.9962 111.498 94.9962C100.423 94.9962 91.4458 86.0189 91.4458 74.9442C91.4458 63.8696 100.423 54.8922 111.498 54.8922C122.572 54.8922 131.55 63.8696 131.55 74.9442Z" fill="white"/>
</svg>
