<svg width="225" height="244" viewBox="0 0 225 244" fill="none" xmlns="http://www.w3.org/2000/svg">
<path d="M116.764 17.2079C147.978 17.2079 173.282 38.6026 173.282 64.9932C173.282 91.3852 147.978 112.78 116.764 112.78C85.549 112.78 60.245 91.3852 60.245 64.9932C60.245 38.6026 85.549 17.2079 116.764 17.2079Z" fill="#FCD370"/>
<path d="M205.908 185.146C205.908 145.173 161.722 112.767 107.217 112.767C52.7116 112.767 8.52625 145.173 8.52625 185.146V224.626H205.908V185.146Z" fill="#FCD370"/>
<path d="M205.908 224.626H19.4769V196.661C19.4769 160.689 48.7462 131.41 84.7275 131.41H140.657C176.638 131.41 205.908 160.689 205.908 196.661V224.626ZM66.0849 66.1584C66.0849 40.4597 86.9929 19.5517 112.692 19.5517C138.392 19.5517 159.301 40.4597 159.301 66.1584C159.301 91.8584 138.392 112.766 112.692 112.766C86.9929 112.766 66.0849 91.8584 66.0849 66.1584V66.1584ZM156.56 114.324C169.657 102.382 177.942 85.2411 177.942 66.1584C177.942 30.1864 148.673 0.907729 112.692 0.907729C76.7115 0.907729 47.4409 30.1864 47.4409 66.1584C47.4409 85.2411 55.7276 102.382 68.8249 114.324C30.1502 121.781 0.832886 155.842 0.832886 196.661V233.948C0.832886 239.102 5.00889 243.269 10.1556 243.269H215.229C220.376 243.269 224.55 239.102 224.55 233.948V196.661C224.55 155.842 195.234 121.781 156.56 114.324" fill="#CC9629"/>
</svg>
