<svg width="213" height="288" viewBox="0 0 213 288" fill="none" xmlns="http://www.w3.org/2000/svg">
<path d="M74.5176 256.332L36.3923 241.824L54.4736 194.308L92.5989 208.815L74.5176 256.332Z" fill="#FCAC63"/>
<path d="M179.569 235.641L133.034 256.113L112.561 209.577L159.097 189.105L179.569 235.641Z" fill="#FCAC63"/>
<path d="M199.66 107.061C199.66 156.904 159.255 197.311 109.411 197.311C59.5695 197.311 19.1628 156.904 19.1628 107.061C19.1628 57.2187 59.5695 16.812 109.411 16.812C159.255 16.812 199.66 57.2187 199.66 107.061Z" fill="#FCAC63"/>
<path d="M140.516 106.54C140.516 125.427 125.206 140.736 106.32 140.736C87.4329 140.736 72.1235 125.427 72.1235 106.54C72.1235 87.6532 87.4329 72.3439 106.32 72.3439C125.206 72.3439 140.516 87.6532 140.516 106.54Z" fill="white"/>
<path d="M140.516 106.54C140.516 125.427 125.206 140.736 106.32 140.736C87.4329 140.736 72.1235 125.427 72.1235 106.54C72.1235 87.6532 87.4329 72.3439 106.32 72.3439C125.206 72.3439 140.516 87.6532 140.516 106.54Z" stroke="#CE6200" stroke-width="7" stroke-miterlimit="10"/>
<path d="M63.8424 239.982C62.4371 236.802 58.7704 235.301 55.5424 236.578L34.4091 244.934L55.7491 192.881L56.9357 193.173C59.5317 193.811 61.9584 195.086 63.9584 196.857L69.0797 201.394C74.5371 206.23 81.5184 208.817 88.649 208.815C90.625 208.815 92.6117 208.605 94.581 208.199L73.0317 260.767L63.8424 239.982ZM157.094 236.578C153.865 235.301 150.201 236.802 148.796 239.982L139.606 260.767L118.057 208.201C127.138 210.066 136.59 207.569 143.558 201.395L148.681 196.857C150.68 195.085 153.108 193.811 155.704 193.173L156.889 192.879L178.229 244.933L157.094 236.578ZM186.345 146.195L181.224 150.731C177.661 153.887 174.886 157.906 173.2 162.357L170.773 168.755C168.842 173.845 164.534 177.663 159.248 178.965L152.602 180.603C147.982 181.741 143.658 184.01 140.096 187.167L134.976 191.705C130.898 195.314 125.309 196.691 120.025 195.389L113.381 193.751C108.761 192.613 103.876 192.614 99.2571 193.751L92.6117 195.39C87.3251 196.693 81.7371 195.314 77.6624 191.705L72.5411 187.167C68.9784 184.01 64.6544 181.742 60.0357 180.603L53.3904 178.965C48.1037 177.663 43.7957 173.845 41.8651 168.755L39.4384 162.357C37.7517 157.906 34.9771 153.887 31.4144 150.733L26.2931 146.195C22.2171 142.586 20.1771 137.203 20.8331 131.799L21.6584 125.007C22.2317 120.283 21.6424 115.434 19.9557 110.983L17.5291 104.587C15.5984 99.4967 16.2917 93.7834 19.3864 89.302L23.2704 83.6714C25.9757 79.7554 27.7077 75.1887 28.2824 70.462L29.1064 63.6714C29.7624 58.2647 33.0331 53.5274 37.8531 50.998L43.9117 47.818C48.1237 45.6074 51.7811 42.3687 54.4851 38.4514L58.3704 32.8207C61.4637 28.3407 66.5611 25.6647 72.0051 25.6647H78.8477C83.6051 25.6647 88.3477 24.4954 92.5624 22.2847L98.621 19.1047C103.441 16.574 109.197 16.5754 114.018 19.1047L120.077 22.2847C124.292 24.4954 129.034 25.6647 133.792 25.6647H140.634C146.078 25.6647 151.174 28.3407 154.266 32.8194L158.153 38.4527C160.858 42.3687 164.514 45.6074 168.728 47.818L174.786 50.998C179.606 53.5274 182.876 58.2647 183.533 63.67L184.357 70.462C184.93 75.1874 186.662 79.754 189.368 83.67L193.254 89.302C196.346 93.7834 197.04 99.4967 195.11 104.586L192.682 110.983C190.996 115.434 190.408 120.283 190.981 125.005L191.806 131.798C192.461 137.203 190.421 142.585 186.345 146.194V146.195ZM207.213 109.177C210.652 100.109 209.416 89.9287 203.906 81.9474L200.02 76.3154C198.501 74.118 197.53 71.554 197.208 68.902L196.384 62.1087C195.213 52.4807 189.389 44.042 180.801 39.5354L174.742 36.3554C172.377 35.114 170.325 33.2954 168.808 31.0967L164.921 25.466C159.412 17.4834 150.332 12.718 140.633 12.718H133.79C131.118 12.718 128.457 12.062 126.092 10.8207L120.034 7.6407C111.446 3.13404 101.193 3.1327 92.6037 7.6407L86.545 10.8207C84.1784 12.062 81.5171 12.718 78.8464 12.718H72.0037C62.3064 12.718 53.2251 17.4834 47.7157 25.466L43.8304 31.0954C42.3117 33.2954 40.2597 35.1127 37.8944 36.3554L31.8357 39.5354C23.2491 44.042 17.4237 52.4807 16.2531 62.11L15.4277 68.9007C15.1064 71.554 14.1344 74.1167 12.6171 76.3154L8.73039 81.9474C3.22106 89.9287 1.98506 100.109 5.42372 109.177L7.85039 115.573C8.79706 118.071 9.12772 120.793 8.80506 123.445L7.98106 130.237C6.81039 139.865 10.4477 149.453 17.7077 155.883L22.8291 160.421C24.8291 162.191 26.3864 164.449 27.3344 166.947L29.7597 173.343C32.3117 180.071 37.1997 185.547 43.3971 188.875L16.6664 254.082C15.6824 256.482 16.2264 259.238 18.0491 261.086C19.8731 262.933 22.6224 263.51 25.0344 262.557L54.5157 250.902L67.3344 279.898C68.3717 282.243 70.6944 283.753 73.2531 283.753H73.3424C75.9357 283.718 78.2584 282.137 79.2424 279.735L106.317 213.693L133.392 279.735C134.376 282.137 136.7 283.718 139.293 283.753H139.381C141.941 283.753 144.262 282.242 145.301 279.898L158.118 250.902L187.601 262.557C190.012 263.51 192.762 262.933 194.586 261.086C196.409 259.238 196.954 256.482 195.969 254.082L169.238 188.875C175.436 185.547 180.324 180.071 182.874 173.343L185.301 166.947C186.249 164.449 187.806 162.19 189.806 160.419L194.926 155.883C202.188 149.451 205.822 139.863 204.654 130.237L203.829 123.443C203.506 120.791 203.838 118.069 204.784 115.573L207.213 109.177Z" fill="#CE6200"/>
<path d="M63.8424 239.982C62.4371 236.802 58.7704 235.301 55.5424 236.578L34.4091 244.934L55.7491 192.881L56.9357 193.173C59.5317 193.811 61.9584 195.086 63.9584 196.857L69.0797 201.394C74.5371 206.23 81.5184 208.817 88.649 208.815C90.625 208.815 92.6117 208.605 94.581 208.199L73.0317 260.767L63.8424 239.982ZM157.094 236.578C153.865 235.301 150.201 236.802 148.796 239.982L139.606 260.767L118.057 208.201C127.138 210.066 136.59 207.569 143.558 201.395L148.681 196.857C150.68 195.085 153.108 193.811 155.704 193.173L156.889 192.879L178.229 244.933L157.094 236.578ZM186.345 146.195L181.224 150.731C177.661 153.887 174.886 157.906 173.2 162.357L170.773 168.755C168.842 173.845 164.534 177.663 159.248 178.965L152.602 180.603C147.982 181.741 143.658 184.01 140.096 187.167L134.976 191.705C130.898 195.314 125.309 196.691 120.025 195.389L113.381 193.751C108.761 192.613 103.876 192.614 99.2571 193.751L92.6117 195.39C87.3251 196.693 81.7371 195.314 77.6624 191.705L72.5411 187.167C68.9784 184.01 64.6544 181.742 60.0357 180.603L53.3904 178.965C48.1037 177.663 43.7957 173.845 41.8651 168.755L39.4384 162.357C37.7517 157.906 34.9771 153.887 31.4144 150.733L26.2931 146.195C22.2171 142.586 20.1771 137.203 20.8331 131.799L21.6584 125.007C22.2317 120.283 21.6424 115.434 19.9557 110.983L17.5291 104.587C15.5984 99.4967 16.2917 93.7834 19.3864 89.302L23.2704 83.6714C25.9757 79.7554 27.7077 75.1887 28.2824 70.462L29.1064 63.6714C29.7624 58.2647 33.0331 53.5274 37.8531 50.998L43.9117 47.818C48.1237 45.6074 51.7811 42.3687 54.4851 38.4514L58.3704 32.8207C61.4637 28.3407 66.5611 25.6647 72.0051 25.6647H78.8477C83.6051 25.6647 88.3477 24.4954 92.5624 22.2847L98.621 19.1047C103.441 16.574 109.197 16.5754 114.018 19.1047L120.077 22.2847C124.292 24.4954 129.034 25.6647 133.792 25.6647H140.634C146.078 25.6647 151.174 28.3407 154.266 32.8194L158.153 38.4527C160.858 42.3687 164.514 45.6074 168.728 47.818L174.786 50.998C179.606 53.5274 182.876 58.2647 183.533 63.67L184.357 70.462C184.93 75.1874 186.662 79.754 189.368 83.67L193.254 89.302C196.346 93.7834 197.04 99.4967 195.11 104.586L192.682 110.983C190.996 115.434 190.408 120.283 190.981 125.005L191.806 131.798C192.461 137.203 190.421 142.585 186.345 146.194V146.195ZM207.213 109.177C210.652 100.109 209.416 89.9287 203.906 81.9474L200.02 76.3154C198.501 74.118 197.53 71.554 197.208 68.902L196.384 62.1087C195.213 52.4807 189.389 44.042 180.801 39.5354L174.742 36.3554C172.377 35.114 170.325 33.2954 168.808 31.0967L164.921 25.466C159.412 17.4834 150.332 12.718 140.633 12.718H133.79C131.118 12.718 128.457 12.062 126.092 10.8207L120.034 7.6407C111.446 3.13404 101.193 3.1327 92.6037 7.6407L86.545 10.8207C84.1784 12.062 81.5171 12.718 78.8464 12.718H72.0037C62.3064 12.718 53.2251 17.4834 47.7157 25.466L43.8304 31.0954C42.3117 33.2954 40.2597 35.1127 37.8944 36.3554L31.8357 39.5354C23.2491 44.042 17.4237 52.4807 16.2531 62.11L15.4277 68.9007C15.1064 71.554 14.1344 74.1167 12.6171 76.3154L8.73039 81.9474C3.22106 89.9287 1.98506 100.109 5.42372 109.177L7.85039 115.573C8.79706 118.071 9.12772 120.793 8.80506 123.445L7.98106 130.237C6.81039 139.865 10.4477 149.453 17.7077 155.883L22.8291 160.421C24.8291 162.191 26.3864 164.449 27.3344 166.947L29.7597 173.343C32.3117 180.071 37.1997 185.547 43.3971 188.875L16.6664 254.082C15.6824 256.482 16.2264 259.238 18.0491 261.086C19.8731 262.933 22.6224 263.51 25.0344 262.557L54.5157 250.902L67.3344 279.898C68.3717 282.243 70.6944 283.753 73.2531 283.753H73.3424C75.9357 283.718 78.2584 282.137 79.2424 279.735L106.317 213.693L133.392 279.735C134.376 282.137 136.7 283.718 139.293 283.753H139.381C141.941 283.753 144.262 282.242 145.301 279.898L158.118 250.902L187.601 262.557C190.012 263.51 192.762 262.933 194.586 261.086C196.409 259.238 196.954 256.482 195.969 254.082L169.238 188.875C175.436 185.547 180.324 180.071 182.874 173.343L185.301 166.947C186.249 164.449 187.806 162.19 189.806 160.419L194.926 155.883C202.188 149.451 205.822 139.863 204.654 130.237L203.829 123.443C203.506 120.791 203.838 118.069 204.784 115.573L207.213 109.177Z" stroke="#C96200" stroke-width="5" stroke-miterlimit="10"/>
<path d="M106.319 72.3432C125.175 72.3432 140.515 87.6832 140.515 106.539C140.515 125.397 125.176 140.735 106.319 140.735C87.4631 140.735 72.1231 125.397 72.1231 106.539C72.1231 87.6832 87.4631 72.3432 106.319 72.3432ZM106.319 148.363C129.382 148.363 148.143 129.601 148.143 106.539C148.143 83.4779 129.382 64.7152 106.319 64.7152C83.2577 64.7152 64.4951 83.4779 64.4951 106.539C64.4951 129.601 83.2577 148.363 106.319 148.363Z" fill="#CE6200"/>
<path d="M106.319 72.3432C125.175 72.3432 140.515 87.6832 140.515 106.539C140.515 125.397 125.176 140.735 106.319 140.735C87.4631 140.735 72.1231 125.397 72.1231 106.539C72.1231 87.6832 87.4631 72.3432 106.319 72.3432ZM106.319 148.363C129.382 148.363 148.143 129.601 148.143 106.539C148.143 83.4779 129.382 64.7152 106.319 64.7152C83.2577 64.7152 64.4951 83.4779 64.4951 106.539C64.4951 129.601 83.2577 148.363 106.319 148.363Z" stroke="#CE6200" stroke-width="7" stroke-miterlimit="10"/>
</svg>
