<svg width="267" height="250" viewBox="0 0 267 250" fill="none" xmlns="http://www.w3.org/2000/svg">
<path d="M11.0842 91.048H72.9562V241.188H11.0842V91.048Z" fill="#D3679D"/>
<path d="M102.6 48.7908H164.472V241.187H102.6V48.7908Z" fill="#D3679D"/>
<path d="M202.028 13.2535H263.899V233.114H202.028V13.2535Z" fill="#D3679D"/>
<path d="M155.75 233.544H111.323V56.1975H155.75V233.544ZM163.275 41.0748H103.798C99.3109 41.0748 96.2722 44.8375 96.2722 48.6002V241.069C96.2722 245.628 100.035 248.594 103.798 248.594H163.275C167.036 248.594 170.8 245.555 170.8 241.069V48.6002C170.8 44.1149 167.036 41.0748 163.275 41.0748Z" fill="#812124"/>
<path d="M251.477 234.436H207.051V15.1227H251.477V234.436ZM259.003 1.48705e-05H199.525C195.039 1.48705e-05 192 3.7627 192 7.52536V241.961C192 246.52 195.763 249.485 199.525 249.485H259.003C262.765 249.485 266.528 246.447 266.528 241.961V7.52536C266.528 3.0387 262.765 1.48705e-05 259.003 1.48705e-05Z" fill="#812124"/>
<path d="M59.9482 233.544H15.5215V98.4534H59.9482V233.544ZM67.4735 83.4041H7.9975C3.51083 83.4041 0.472168 87.1668 0.472168 90.9281V241.143C0.472168 245.701 4.2335 248.667 7.9975 248.667H67.4735C71.2362 248.667 74.9988 245.628 74.9988 241.143V90.9281C74.9988 86.3708 71.2362 83.4041 67.4735 83.4041" fill="#812124"/>
</svg>
