<svg width="259" height="260" viewBox="0 0 259 260" fill="none" xmlns="http://www.w3.org/2000/svg">
<path d="M245.146 131.853C245.146 194.724 194.181 245.692 131.313 245.692C68.4448 245.692 17.4795 194.724 17.4795 131.853C17.4795 68.9826 68.4448 18.0146 131.313 18.0146C194.181 18.0146 245.146 68.9826 245.146 131.853Z" fill="#13CEC0"/>
<path d="M208.667 50.6129C188.347 30.2942 160.286 17.8075 129.322 17.8075C98.3577 17.8075 70.2963 30.2876 49.9763 50.6129C29.7537 70.9329 17.171 98.9942 17.171 129.958C17.171 160.922 29.7483 188.984 49.9763 209.309C70.2963 229.629 98.3577 242.114 129.322 242.114C160.286 242.114 188.347 229.629 208.667 209.309C228.986 188.99 241.57 160.929 241.57 129.958C241.57 98.9942 228.992 70.9329 208.667 50.6129ZM193.48 123.088C197.254 123.088 200.254 126.184 200.254 129.958C200.254 133.732 197.254 136.829 193.48 136.829H129.516H129.322C126.804 136.829 124.579 135.378 123.419 133.348L123.322 133.25L123.226 133.056V132.957L123.128 132.762L123.03 132.568V132.47L122.932 132.276L122.835 132.177V131.982L122.738 131.786V131.689L122.639 131.496V131.3V131.202V131.105L122.542 131.006V130.812V130.616V130.446V130.348V130.154V129.958V47.9982C122.542 44.2236 125.542 41.2236 129.315 41.2236C133.088 41.2236 136.187 44.2236 136.187 47.9982V123.088H193.48ZM129.322 4.06622C164.059 4.06622 195.511 18.1929 218.342 40.9316C241.082 63.7689 255.207 95.2209 255.207 129.958C255.207 164.696 241.082 196.148 218.342 218.985C195.504 241.724 164.059 255.849 129.322 255.849C94.583 255.849 63.139 241.724 40.399 218.985C17.5617 196.148 3.52832 164.702 3.52832 129.958C3.52832 95.2209 17.5563 63.7689 40.3923 40.9316C63.139 18.1929 94.583 4.06622 129.322 4.06622" fill="#067065"/>
<path d="M208.667 50.6129C188.347 30.2942 160.286 17.8075 129.322 17.8075C98.3577 17.8075 70.2963 30.2876 49.9763 50.6129C29.7537 70.9329 17.171 98.9942 17.171 129.958C17.171 160.922 29.7483 188.984 49.9763 209.309C70.2963 229.629 98.3577 242.114 129.322 242.114C160.286 242.114 188.347 229.629 208.667 209.309C228.986 188.99 241.57 160.929 241.57 129.958C241.57 98.9942 228.992 70.9329 208.667 50.6129ZM193.48 123.088C197.254 123.088 200.254 126.184 200.254 129.958C200.254 133.732 197.254 136.829 193.48 136.829H129.516H129.322C126.804 136.829 124.579 135.378 123.419 133.348L123.322 133.25L123.226 133.056V132.957L123.128 132.762L123.03 132.568V132.47L122.932 132.276L122.835 132.177V131.982L122.738 131.786V131.689L122.639 131.496V131.3V131.202V131.105L122.542 131.006V130.812V130.616V130.446V130.348V130.154V129.958V47.9982C122.542 44.2236 125.542 41.2236 129.315 41.2236C133.088 41.2236 136.187 44.2236 136.187 47.9982V123.088H193.48ZM129.322 4.06622C164.059 4.06622 195.511 18.1929 218.342 40.9316C241.082 63.7689 255.207 95.2209 255.207 129.958C255.207 164.696 241.082 196.148 218.342 218.985C195.504 241.724 164.059 255.849 129.322 255.849C94.583 255.849 63.139 241.724 40.399 218.985C17.5617 196.148 3.52832 164.702 3.52832 129.958C3.52832 95.2209 17.5563 63.7689 40.3923 40.9316C63.139 18.1929 94.583 4.06622 129.322 4.06622V4.06622Z" stroke="#067065" stroke-width="5" stroke-miterlimit="10"/>
</svg>
