<svg width="329" height="357" viewBox="0 0 329 357" fill="none" xmlns="http://www.w3.org/2000/svg">
<path d="M167.105 14.5451C189.148 14.5451 207.019 29.6544 207.019 48.2904C207.019 66.9278 189.148 82.0358 167.105 82.0358C145.063 82.0358 127.193 66.9278 127.193 48.2904C127.193 29.6544 145.063 14.5451 167.105 14.5451Z" fill="white"/>
<path d="M230.057 133.14C230.057 104.912 198.855 82.0275 160.363 82.0275C121.873 82.0275 90.6692 104.912 90.6692 133.14V161.02H230.057V133.14Z" fill="#00A1E0"/>
<path d="M230.057 161.019H98.4026V141.271C98.4026 115.868 119.073 95.1925 144.481 95.1925H183.977C209.387 95.1925 230.057 115.868 230.057 141.271V161.019ZM131.316 49.1138C131.316 30.9645 146.083 16.2005 164.231 16.2005C182.379 16.2005 197.143 30.9645 197.143 49.1138C197.143 67.2618 182.379 82.0271 164.231 82.0271C146.083 82.0271 131.316 67.2618 131.316 49.1138ZM195.208 83.1271C204.457 74.6938 210.308 62.5885 210.308 49.1138C210.308 23.7111 189.64 3.03513 164.231 3.03513C138.821 3.03513 118.151 23.7111 118.151 49.1138C118.151 62.5885 124.003 74.6938 133.252 83.1271C105.94 88.3925 85.2373 112.446 85.2373 141.271V167.602C85.2373 171.242 88.1866 174.184 91.82 174.184H236.64C240.273 174.184 243.223 171.242 243.223 167.602V141.271C243.223 112.446 222.52 88.3925 195.208 83.1271Z" fill="#032E61"/>
<path d="M230.057 161.019H98.4026V141.271C98.4026 115.868 119.073 95.1925 144.481 95.1925H183.977C209.387 95.1925 230.057 115.868 230.057 141.271V161.019ZM131.316 49.1138C131.316 30.9645 146.083 16.2005 164.231 16.2005C182.379 16.2005 197.143 30.9645 197.143 49.1138C197.143 67.2618 182.379 82.0271 164.231 82.0271C146.083 82.0271 131.316 67.2618 131.316 49.1138ZM195.208 83.1271C204.457 74.6938 210.308 62.5885 210.308 49.1138C210.308 23.7111 189.64 3.03513 164.231 3.03513C138.821 3.03513 118.151 23.7111 118.151 49.1138C118.151 62.5885 124.003 74.6938 133.252 83.1271C105.94 88.3925 85.2373 112.446 85.2373 141.271V167.602C85.2373 171.242 88.1866 174.184 91.82 174.184H236.64C240.273 174.184 243.223 171.242 243.223 167.602V141.271C243.223 112.446 222.52 88.3925 195.208 83.1271Z" stroke="#032E61" stroke-width="4" stroke-miterlimit="10"/>
<path d="M22.1867 265.419L27.1961 251.251L38.2294 237.901L46.3094 230.23L60.4334 240.291L76.7187 217.791L106.723 201.542L141.328 197.85L184.7 201.27L219.419 193.081L236.237 197.813L245.808 200.35L265.277 179.305C265.277 179.305 275.601 163.657 276.356 162.39C277.111 161.123 291.756 151.047 291.756 151.047C291.756 151.047 305.991 156.581 306.868 156.477C307.747 156.373 315.325 166.242 315.325 166.242L306.829 192.25L287.208 214.073L269.247 245.901L250.836 259.606L210.821 268.203C210.821 268.203 164.292 274.11 163.02 273.301C161.747 272.494 122.548 277.617 122.548 277.617L116.911 280.382L128.433 293.862L112.535 316.301L92.4654 337.613L80.0547 335.275L46.7987 309.902L19.3187 288.627L15.8694 272.629L22.1867 265.419Z" fill="white"/>
<path d="M9.61377 281.15L35.5671 304.266C35.5671 304.266 67.9578 326.045 74.0058 330.661C80.0551 335.275 90.6698 343.787 90.6698 343.787L123.459 297.777L116.911 280.382L74.0058 251.01L46.3098 230.231L27.1964 251.251" fill="#00A1E0"/>
<path d="M310.031 179.699L263.831 247.489C262.364 249.639 260.63 251.598 258.67 253.309C252.647 258.086 244.447 261.061 234.287 262.145L155.89 270.505C149.992 271.135 144.066 272.117 138.303 273.419L119.043 277.685L74.0058 242.433C76.3938 237.925 80.8844 230.571 87.7804 223.599C102.116 209.105 119.53 203.429 139.532 206.733C149.938 208.45 160.734 208.734 171.624 207.573L223.151 202.077C232.404 201.09 235.728 208.843 236.234 213.578C236.604 217.039 235.843 220.45 234.15 222.941C232.312 225.637 229.458 227.209 225.668 227.613L180.814 232.395C177.218 232.781 174.614 236.007 174.998 239.605C175.382 243.201 178.607 245.805 182.203 245.421L227.058 240.637C234.628 239.83 240.991 236.162 244.975 230.311C248.29 225.449 249.827 219.353 249.339 213.065L287.256 166.597C292.67 159.891 302.298 160.402 308.115 164.722C311.122 166.955 315.37 171.869 310.031 179.699ZM91.8751 337.947L18.5564 281.67L50.4418 240.621L123.459 297.777L91.8751 337.947ZM315.923 154.205C310.48 150.163 303.439 148.058 296.602 148.43C288.838 148.854 281.898 152.378 277.087 158.342L244.164 198.689C243.302 197.506 242.344 196.406 241.294 195.401C236.192 190.507 229.255 188.254 221.762 189.054L170.235 194.55C160.519 195.585 150.907 195.337 141.667 193.811C117.574 189.834 95.7218 196.946 78.4684 214.389C71.4524 221.481 66.5738 228.902 63.5591 234.257L53.3644 226.277C52.0231 225.227 50.3058 224.733 48.6111 224.913C48.5951 224.915 48.5831 224.917 48.5671 224.918C46.8138 225.117 45.1938 226.029 44.1111 227.422L4.17244 278.837C3.10311 280.213 2.62845 281.958 2.85111 283.687C3.07378 285.418 3.97378 286.987 5.35644 288.049L89.0324 352.277C90.4204 353.341 92.1004 353.767 93.7151 353.595C95.4098 353.414 97.0338 352.574 98.1698 351.13L137.794 300.737C138.875 299.361 139.367 297.583 139.148 295.845C138.934 294.13 138.036 292.551 136.676 291.485L132.402 288.141L141.163 286.197C146.459 285.002 151.882 284.103 157.28 283.527L235.676 275.166C248.416 273.807 258.939 269.867 266.954 263.454C267.02 263.401 267.086 263.345 267.151 263.29C270.003 260.821 272.528 257.983 274.654 254.863L320.854 187.077C328.762 175.477 326.78 162.266 315.923 154.205" fill="#032E61"/>
<path d="M310.031 179.699L263.831 247.489C262.364 249.639 260.63 251.598 258.67 253.309C252.647 258.086 244.447 261.061 234.287 262.145L155.89 270.505C149.992 271.135 144.066 272.117 138.303 273.419L119.043 277.685L74.0058 242.433C76.3938 237.925 80.8844 230.571 87.7804 223.599C102.116 209.105 119.53 203.429 139.532 206.733C149.938 208.45 160.734 208.734 171.624 207.573L223.151 202.077C232.404 201.09 235.728 208.843 236.234 213.578C236.604 217.039 235.843 220.45 234.15 222.941C232.312 225.637 229.458 227.209 225.668 227.613L180.814 232.395C177.218 232.781 174.614 236.007 174.998 239.605C175.382 243.201 178.607 245.805 182.203 245.421L227.058 240.637C234.628 239.83 240.991 236.162 244.975 230.311C248.29 225.449 249.827 219.353 249.339 213.065L287.256 166.597C292.67 159.891 302.298 160.402 308.115 164.722C311.122 166.955 315.37 171.869 310.031 179.699ZM91.8751 337.947L18.5564 281.67L50.4418 240.621L123.459 297.777L91.8751 337.947ZM315.923 154.205C310.48 150.163 303.439 148.058 296.602 148.43C288.838 148.854 281.898 152.378 277.087 158.342L244.164 198.689C243.302 197.506 242.344 196.406 241.294 195.401C236.192 190.507 229.255 188.254 221.762 189.054L170.235 194.55C160.519 195.585 150.907 195.337 141.667 193.811C117.574 189.834 95.7218 196.946 78.4684 214.389C71.4524 221.481 66.5738 228.902 63.5591 234.257L53.3644 226.277C52.0231 225.227 50.3058 224.733 48.6111 224.913C48.5951 224.915 48.5831 224.917 48.5671 224.918C46.8138 225.117 45.1938 226.029 44.1111 227.422L4.17244 278.837C3.10311 280.213 2.62845 281.958 2.85111 283.687C3.07378 285.418 3.97378 286.987 5.35644 288.049L89.0324 352.277C90.4204 353.341 92.1004 353.767 93.7151 353.595C95.4098 353.414 97.0338 352.574 98.1698 351.13L137.794 300.737C138.875 299.361 139.367 297.583 139.148 295.845C138.934 294.13 138.036 292.551 136.676 291.485L132.402 288.141L141.163 286.197C146.459 285.002 151.882 284.103 157.28 283.527L235.676 275.166C248.416 273.807 258.939 269.867 266.954 263.454C267.02 263.401 267.086 263.345 267.151 263.29C270.003 260.821 272.528 257.983 274.654 254.863L320.854 187.077C328.762 175.477 326.78 162.266 315.923 154.205V154.205Z" stroke="#032E61" stroke-width="4" stroke-miterlimit="10"/>
</svg>
