<svg width="291" height="267" viewBox="0 0 291 267" fill="none" xmlns="http://www.w3.org/2000/svg">
<path d="M10.3328 75.284L36.8768 53.3413L56.7888 30.3373L85.2088 13.5253L92.4954 21.5907L118.277 30.5453C118.277 30.5453 136.897 23.9053 145.282 31.776C153.669 39.6453 178.443 34.1733 178.443 34.1733L202.451 13.5253L246.121 48.9173L278.425 75.284L248.77 106.181L254.535 142.829L242.149 162.171L246.121 174.557L243.63 183.085C243.63 183.085 250.997 183.479 250.997 189.193C250.997 194.908 239.494 210.373 239.494 210.373L241.263 222.481L232.415 241.801L212.97 247.259L189.569 262.633L169.309 252.929L145.278 249.296L103.761 254.189L70.8301 245.584L49.2634 228.903L38.6461 197.581L36.8768 180.805L52.8114 168.364L35.9914 142.948L31.5674 102.567L10.3328 87.8866V75.284Z" fill="#FCD370"/>
<path d="M251.243 98.9097C249.309 100.8 248.389 103.502 248.77 106.182C251.161 123.007 247.794 140.287 239.483 154.907L180.159 95.5843C184.075 93.183 187.755 90.3123 191.098 86.9683C194.415 83.651 194.415 78.2723 191.098 74.955C187.781 71.6377 182.401 71.6377 179.083 74.955C166.374 87.6643 146.943 91.003 130.733 83.2603C127.486 81.7097 123.609 82.3723 121.063 84.919L82.9701 123.012C79.6581 126.326 74.2701 126.326 70.9555 123.012C69.3515 121.408 68.4661 119.275 68.4661 117.006C68.4661 114.736 69.3515 112.603 70.9555 110.998C80.8928 101.062 109.181 72.7723 119.013 62.9417C119.013 62.9403 119.014 62.939 119.014 62.939C136.07 45.8857 159.694 37.8723 183.901 41.3123C186.543 41.687 189.214 40.7977 191.103 38.9083L209.143 20.867L269.662 80.915L251.243 98.9097ZM243.63 195.098C240.318 198.41 234.929 198.41 231.617 195.098H231.615L171.546 135.026C168.227 131.708 162.849 131.708 159.531 135.026C156.214 138.344 156.214 143.723 159.531 147.04L231.617 219.126C234.93 222.438 234.93 227.827 231.617 231.139C228.305 234.454 222.915 234.452 219.602 231.139C215.63 227.168 151.759 163.296 147.517 159.055C144.199 155.738 138.821 155.738 135.502 159.055C132.185 162.372 132.185 167.75 135.502 171.068L195.579 231.144C198.893 234.466 198.894 239.834 195.574 243.154C192.254 246.474 186.881 246.474 183.558 243.154L123.489 183.083C120.171 179.766 114.793 179.766 111.474 183.083C108.157 186.402 108.157 191.78 111.474 195.098L157.293 240.915C154.535 243.675 155.778 242.452 151.382 246.712C151.349 246.743 151.318 246.775 151.286 246.806C149.681 248.411 147.547 249.296 145.278 249.296C143.009 249.296 140.877 248.411 139.273 246.807C139.241 246.775 139.21 246.744 139.177 246.714C134.123 241.816 68.8368 176.488 63.4168 171.07C46.2501 153.903 38.3675 130.252 41.7888 106.183C42.1688 103.503 41.2501 100.802 39.3141 98.9097L20.8955 80.915L81.4155 20.867L99.4554 38.9083C101.345 40.7977 104.013 41.6883 106.658 41.3123C110.831 40.719 115.05 40.483 119.258 40.5817C114.926 43.6443 110.831 47.0923 106.998 50.927C96.5128 61.4123 68.1421 89.783 58.9408 98.9843C48.9808 108.944 48.9794 125.066 58.9408 135.026C63.9101 139.995 70.4368 142.479 76.9621 142.479C83.4888 142.479 90.0155 139.995 94.9835 135.026L129.066 100.944C140.181 104.904 152.059 105.382 163.201 102.654L243.63 183.084C246.951 186.406 246.951 191.778 243.63 195.098ZM106.998 243.154C103.685 246.466 98.2968 246.466 94.9835 243.154C93.3795 241.55 92.4955 239.416 92.4955 237.147C92.4955 234.878 93.3795 232.744 94.9835 231.14C94.9848 231.14 94.9848 231.139 94.9848 231.139L97.2221 228.903L109.237 240.915L106.998 243.154ZM70.9555 231.14C67.6355 234.46 62.2621 234.46 58.9408 231.14C55.6208 227.819 55.6208 222.447 58.9408 219.126L73.1941 204.872L85.2088 216.887L70.9555 231.14ZM46.9275 195.098C43.6141 191.784 43.6141 186.395 46.9275 183.082L49.2048 180.804C49.9248 181.574 50.6554 182.334 51.4034 183.082L61.1794 192.859L58.9408 195.098C55.6288 198.41 50.2408 198.41 46.9275 195.098ZM290.266 80.995C290.274 78.7177 289.37 76.535 287.754 74.931L215.103 2.84568C211.781 -0.448988 206.421 -0.439668 203.111 2.86966L181.999 23.983C169.665 22.8137 157.082 24.1123 145.282 27.775C133.466 24.1083 120.907 22.811 108.558 23.983L87.4461 2.87099C84.1368 -0.438346 78.7768 -0.448999 75.4555 2.847L2.80346 74.931C1.18746 76.535 0.283463 78.719 0.292796 80.995C0.300796 83.271 1.22345 85.4483 2.85145 87.0376L24.4528 108.143C23.2608 120.826 24.6688 133.775 28.5795 145.858C31.0515 153.492 34.4381 160.652 38.6874 167.295L34.9128 171.068C24.9768 181.006 24.9768 197.174 34.9128 207.111C37.2581 209.458 39.9541 211.242 42.8301 212.479C37.2661 222.211 38.6288 234.854 46.9275 243.154C55.2755 251.502 67.9008 252.823 77.5928 247.264C78.8528 250.178 80.6595 252.856 82.9701 255.168C92.9141 265.112 109.083 265.098 119.013 255.168L121.251 252.93L126.438 258.118C126.723 258.403 127.026 258.664 127.339 258.9C132.143 263.663 138.51 266.286 145.279 266.286C152.063 266.286 158.441 263.652 163.25 258.872C167.999 254.27 166.317 255.922 169.309 252.93C172.259 255.88 178.191 262.632 189.569 262.632C196.377 262.632 202.775 259.982 207.59 255.168C209.902 252.855 211.711 250.174 212.97 247.259C222.738 252.835 235.358 251.428 243.633 243.154C251.933 234.854 253.294 222.211 247.73 212.479C250.606 211.242 253.301 209.458 255.647 207.111C265.607 197.151 265.607 181.03 255.647 171.068L251.855 167.278C262.962 149.839 268.049 128.844 266.105 108.143L287.71 87.0376C289.335 85.4483 290.258 83.271 290.266 80.995" fill="#CC9629"/>
</svg>
