<svg width="58" height="57" viewBox="0 0 58 57" fill="none" xmlns="http://www.w3.org/2000/svg">
<path d="M3 47C10.7215 52.1021 19.746 54.8788 29 55C38.254 54.8788 47.2785 52.1021 55 47V43C55 23 43 9 29 3C15 9 3 23 3 43V47Z" fill="#00A1E0"/>
<path d="M38 37L25 18L12 37" fill="white"/>
<path d="M38.0001 39C37.6751 39 37.3549 38.9207 37.0674 38.7691C36.7799 38.6176 36.5337 38.3982 36.3501 38.13L25.0001 21.54L13.6501 38.13C13.3475 38.5605 12.8874 38.8543 12.3696 38.9479C11.8518 39.0415 11.318 38.9272 10.8838 38.6299C10.4497 38.3326 10.1502 37.8762 10.0503 37.3596C9.9504 36.8429 10.0581 36.3078 10.3501 35.87L23.3501 16.87C23.5337 16.6019 23.78 16.3826 24.0675 16.231C24.355 16.0795 24.6751 16.0003 25.0001 16.0003C25.3251 16.0003 25.6452 16.0795 25.9327 16.231C26.2202 16.3826 26.4664 16.6019 26.6501 16.87L39.6501 35.87C39.8558 36.1704 39.9756 36.5213 39.9966 36.8848C40.0176 37.2483 39.9389 37.6106 39.7691 37.9327C39.5993 38.2548 39.3448 38.5244 39.0331 38.7125C38.7214 38.9006 38.3642 39 38.0001 39Z" fill="#032E61"/>
<path d="M46 37L37 24L28 37" fill="white"/>
<path d="M46.0001 39C45.6759 39.0011 45.3564 38.9234 45.069 38.7736C44.7815 38.6238 44.5348 38.4064 44.3501 38.14L37.0001 27.51L29.6401 38.14C29.4904 38.3561 29.2996 38.5405 29.0786 38.6828C28.8576 38.8251 28.6108 38.9224 28.3521 38.9693C28.0935 39.0162 27.8282 39.0117 27.5713 38.9561C27.3145 38.9004 27.0711 38.7947 26.8551 38.645C26.639 38.4953 26.4546 38.3045 26.3123 38.0836C26.17 37.8626 26.0727 37.6157 26.0258 37.3571C25.9789 37.0985 25.9834 36.8332 26.039 36.5763C26.0947 36.3194 26.2004 36.0761 26.3501 35.86L35.3501 22.86C35.5341 22.5939 35.7799 22.3765 36.0664 22.2263C36.3529 22.076 36.6716 21.9976 36.9951 21.9976C37.3186 21.9976 37.6372 22.076 37.9237 22.2263C38.2103 22.3765 38.4561 22.5939 38.6401 22.86L47.6401 35.86C47.848 36.1598 47.97 36.5108 47.9929 36.8749C48.0157 37.2391 47.9384 37.6025 47.7695 37.9259C47.6006 38.2493 47.3465 38.5204 47.0346 38.7097C46.7227 38.899 46.3649 38.9994 46.0001 39V39Z" fill="#032E61"/>
<path d="M30.0001 57C29.6492 56.9997 29.3046 56.907 29.0009 56.7313C28.6971 56.5556 28.4449 56.3031 28.2696 55.9991C28.0943 55.6952 28.0021 55.3504 28.0022 54.9995C28.0023 54.6486 28.0947 54.3039 28.2701 54L30.5001 50.1C30.5864 49.9504 30.6402 49.7842 30.658 49.6124C30.6758 49.4406 30.6572 49.267 30.6034 49.1028C30.5496 48.9387 30.4619 48.7877 30.3459 48.6597C30.2299 48.5317 30.0882 48.4296 29.9301 48.36L28.1001 47.55C27.361 47.2213 26.7082 46.7256 26.193 46.1019C25.6778 45.4782 25.3144 44.7435 25.1312 43.9555C24.948 43.1676 24.9501 42.3479 25.1373 41.5609C25.3246 40.7739 25.6918 40.0411 26.2101 39.42L28.4701 36.71C28.6346 36.4974 28.8403 36.3201 29.0748 36.1888C29.3093 36.0574 29.568 35.9747 29.8352 35.9455C30.1024 35.9164 30.3728 35.9414 30.6301 36.0191C30.8875 36.0968 31.1265 36.2255 31.333 36.3977C31.5394 36.5698 31.709 36.7819 31.8317 37.021C31.9544 37.2602 32.0276 37.5217 32.0469 37.7898C32.0663 38.0579 32.0313 38.3272 31.9443 38.5815C31.8572 38.8359 31.7198 39.07 31.5401 39.27L29.2701 42C29.1488 42.1464 29.0631 42.319 29.0196 42.5041C28.9762 42.6892 28.9763 42.8819 29.0199 43.067C29.0635 43.2521 29.1495 43.4245 29.271 43.5708C29.3925 43.7171 29.5462 43.8332 29.7201 43.91L31.5501 44.72C32.222 45.0137 32.8246 45.4454 33.3189 45.9871C33.8131 46.5288 34.1879 47.1684 34.4189 47.8643C34.6499 48.5603 34.7321 49.297 34.6599 50.0267C34.5878 50.7564 34.363 51.4628 34.0001 52.1L31.7401 56C31.5639 56.3052 31.3102 56.5585 31.0047 56.7341C30.6991 56.9097 30.3526 57.0014 30.0001 57Z" fill="white"/>
<path d="M54 40H4C3.46957 40 2.96086 39.7893 2.58579 39.4142C2.21071 39.0391 2 38.5304 2 38C2 37.4696 2.21071 36.9609 2.58579 36.5858C2.96086 36.2107 3.46957 36 4 36H54C54.5304 36 55.0391 36.2107 55.4142 36.5858C55.7893 36.9609 56 37.4696 56 38C56 38.5304 55.7893 39.0391 55.4142 39.4142C55.0391 39.7893 54.5304 40 54 40Z" fill="#032E61"/>
<path d="M29.0001 57C19.3199 56.8968 9.87782 53.9857 1.82011 48.62C1.56532 48.4338 1.3582 48.19 1.21568 47.9084C1.07316 47.6269 0.999295 47.3156 1.00011 47V43C0.867312 34.1121 3.38442 25.3861 8.2305 17.9344C13.0766 10.4827 20.0321 4.64306 28.2101 1.16001C28.4597 1.05271 28.7285 0.997375 29.0001 0.997375C29.2718 0.997375 29.5406 1.05271 29.7901 1.16001C37.9682 4.64306 44.9236 10.4827 49.7697 17.9344C54.6158 25.3861 57.1329 34.1121 57.0001 43V47C57.0009 47.3156 56.9271 47.6269 56.7845 47.9084C56.642 48.19 56.4349 48.4338 56.1801 48.62C48.1224 53.9857 38.6803 56.8968 29.0001 57V57ZM5.00011 45.93C12.2144 50.4118 20.5083 52.8551 29.0001 53C37.492 52.8551 45.7858 50.4118 53.0001 45.93V43C53.1237 35.0437 50.9175 27.2249 46.6531 20.5068C42.3887 13.7886 36.2525 8.46444 29.0001 5.19001C21.7478 8.46444 15.6115 13.7886 11.3471 20.5068C7.08276 27.2249 4.87651 35.0437 5.00011 43V45.93Z" fill="#032E61"/>
</svg>
