<svg width="36" height="56" viewBox="0 0 36 56" fill="none" xmlns="http://www.w3.org/2000/svg">
<path d="M9 2H31L23 20H34L6 54L12 28H2L9 2Z" fill="#00A1E0"/>
<path d="M6 56C5.69901 56.0002 5.40184 55.9324 5.13067 55.8018C4.8595 55.6712 4.62132 55.481 4.43387 55.2455C4.24643 55.01 4.11456 54.7352 4.04809 54.4416C3.98162 54.1481 3.98228 53.8433 4.05 53.55L9.49 30H2C1.69312 29.9998 1.3904 29.929 1.11528 29.7931C0.840148 29.6571 0.599993 29.4597 0.4134 29.2161C0.226807 28.9724 0.0987814 28.6891 0.0392341 28.3881C-0.0203131 28.087 -0.00978512 27.7763 0.0700035 27.48L7.07 1.48C7.18431 1.05548 7.43531 0.680449 7.78419 0.41292C8.13306 0.14539 8.56036 0.000268062 9 4.67171e-07H31C31.3331 -0.000227198 31.661 0.082759 31.954 0.241424C32.2469 0.400089 32.4955 0.629408 32.6773 0.908556C32.8591 1.18771 32.9683 1.50784 32.995 1.8399C33.0216 2.17196 32.9649 2.50542 32.83 2.81L26.08 18H34C34.3786 18.001 34.7491 18.1093 35.0685 18.3125C35.3879 18.5157 35.6431 18.8054 35.8044 19.1479C35.9657 19.4904 36.0264 19.8716 35.9796 20.2472C35.9328 20.6229 35.7804 20.9776 35.54 21.27L7.54 55.27C7.35292 55.4976 7.11787 55.681 6.85165 55.8072C6.58543 55.9334 6.29462 55.9993 6 56ZM4.61 26H12C12.301 25.9998 12.5982 26.0676 12.8693 26.1982C13.1405 26.3288 13.3787 26.519 13.5661 26.7545C13.7536 26.99 13.8855 27.2648 13.9519 27.5584C14.0184 27.8519 14.0177 28.1567 13.95 28.45L9.86 46.17L29.76 22H23C22.6669 22.0002 22.339 21.9172 22.0461 21.7586C21.7531 21.5999 21.5045 21.3706 21.3227 21.0914C21.1409 20.8123 21.0317 20.4922 21.0051 20.1601C20.9784 19.828 21.0351 19.4946 21.17 19.19L27.92 4H10.53L4.61 26Z" fill="#032E61"/>
<path d="M12 22C11.6921 22.0002 11.3882 21.9293 11.1121 21.7928C10.836 21.6563 10.5952 21.4579 10.4084 21.213C10.2216 20.9682 10.0939 20.6835 10.0352 20.3811C9.9765 20.0788 9.98842 19.767 10.07 19.47L13.07 8.47C13.139 8.21655 13.2572 7.97916 13.4179 7.77139C13.5785 7.56361 13.7786 7.38952 14.0066 7.25906C14.2345 7.12859 14.486 7.0443 14.7465 7.01101C15.007 6.97771 15.2716 6.99606 15.525 7.065C15.7785 7.13395 16.0159 7.25214 16.2237 7.41283C16.4314 7.57351 16.6055 7.77355 16.736 8.00152C16.8665 8.22949 16.9507 8.48092 16.984 8.74146C17.0173 9.002 16.999 9.26655 16.93 9.52L13.93 20.52C13.8157 20.9445 13.5647 21.3196 13.2159 21.5871C12.867 21.8546 12.4397 21.9997 12 22V22Z" fill="white"/>
</svg>
