<?xml version="1.0" encoding="UTF-8" standalone="no"?>
<svg
   xmlns:dc="http://purl.org/dc/elements/1.1/"
   xmlns:cc="http://creativecommons.org/ns#"
   xmlns:rdf="http://www.w3.org/1999/02/22-rdf-syntax-ns#"
   xmlns:svg="http://www.w3.org/2000/svg"
   xmlns="http://www.w3.org/2000/svg"
   viewBox="0 0 682.66669 682.66669"
   height="682.66669"
   width="682.66669"
   xml:space="preserve"
   id="svg2"
   version="1.1"><metadata
     id="metadata8"><rdf:RDF><cc:Work
         rdf:about=""><dc:format>image/svg+xml</dc:format><dc:type
           rdf:resource="http://purl.org/dc/dcmitype/StillImage" /></cc:Work></rdf:RDF></metadata><defs
     id="defs6"><clipPath
       id="clipPath18"
       clipPathUnits="userSpaceOnUse"><path
         id="path16"
         d="M 0,512 H 512 V 0 H 0 Z" /></clipPath></defs><g
     transform="matrix(1.3333333,0,0,-1.3333333,0,682.66667)"
     id="g10"><g
       id="g12"><g
         clip-path="url(#clipPath18)"
         id="g14"><g
           transform="translate(253.3228,290.5941)"
           id="g20"><path
             id="path22"
             style="fill:#fcd370;fill-opacity:1;fill-rule:nonzero;stroke:none"
             d="m 0,0 c 23.411,0 42.389,-16.046 42.389,-35.839 0,-19.794 -18.978,-35.84 -42.389,-35.84 -23.411,0 -42.389,16.046 -42.389,35.84 C -42.389,-16.046 -23.411,0 0,0" /></g><g
           transform="translate(320.1807,164.6405)"
           id="g24"><path
             id="path26"
             style="fill:#fcd370;fill-opacity:1;fill-rule:nonzero;stroke:none"
             d="M 0,0 C 0,29.98 -33.139,54.284 -74.018,54.284 -114.897,54.284 -148.036,29.98 -148.036,0 V -29.61 H 0 Z" /></g><g
           transform="translate(320.1807,135.0302)"
           id="g28"><path
             id="path30"
             style="fill:#cc9629;fill-opacity:1;fill-rule:nonzero;stroke:none"
             d="m 0,0 h -139.823 v 20.974 c 0,26.979 21.952,48.938 48.938,48.938 h 41.947 C -21.952,69.912 0,47.953 0,20.974 Z m -104.867,118.851 c 0,19.274 15.681,34.955 34.955,34.955 19.275,0 34.957,-15.681 34.957,-34.955 0,-19.275 -15.682,-34.956 -34.957,-34.956 -19.274,0 -34.955,15.681 -34.955,34.956 m 67.856,-36.124 c 9.823,8.956 16.037,21.812 16.037,36.124 0,26.979 -21.952,48.938 -48.938,48.938 -26.985,0 -48.938,-21.959 -48.938,-48.938 0,-14.312 6.215,-27.168 16.038,-36.124 -29.006,-5.593 -50.994,-31.139 -50.994,-61.753 V -6.991 c 0,-3.866 3.132,-6.991 6.992,-6.991 H 6.991 c 3.86,0 6.991,3.125 6.991,6.991 v 27.965 c 0,30.614 -21.987,56.16 -50.993,61.753" /></g></g></g></g></svg>