<svg xmlns="http://www.w3.org/2000/svg" viewBox="0 0 64 64"><defs><style>.cls-1{fill:none;}.cls-2{fill:#00a1e0;}.cls-3{fill:#032e61;}.cls-4{fill:#fff;}</style></defs><title>platform-day</title><g id="invisi-border"><rect class="cls-1" width="64" height="64"/></g><g id="icon"><polygon class="cls-2" points="23 6 45 6 37 24 48 24 20 58 26 32 16 32 23 6"/><path class="cls-3" d="M20,60a2,2,0,0,1-1.95-2.45L23.49,34H16a2,2,0,0,1-1.93-2.52l7-26A2,2,0,0,1,23,4H45a2,2,0,0,1,1.83,2.81L40.08,22H48a2,2,0,0,1,1.54,3.27l-28,34A2,2,0,0,1,20,60ZM18.61,30H26a2,2,0,0,1,1.95,2.45L23.86,50.17,43.76,26H37a2,2,0,0,1-1.83-2.81L41.92,8H24.53Z"/><path class="cls-4" d="M26,26a2,2,0,0,1-1.93-2.53l3-11a2,2,0,1,1,3.86,1.05l-3,11A2,2,0,0,1,26,26Z"/></g></svg>