<?xml version="1.0" encoding="UTF-8" standalone="no"?>
<svg
   xmlns:dc="http://purl.org/dc/elements/1.1/"
   xmlns:cc="http://creativecommons.org/ns#"
   xmlns:rdf="http://www.w3.org/1999/02/22-rdf-syntax-ns#"
   xmlns:svg="http://www.w3.org/2000/svg"
   xmlns="http://www.w3.org/2000/svg"
   viewBox="0 0 682.66669 682.66669"
   height="682.66669"
   width="682.66669"
   xml:space="preserve"
   id="svg2"
   version="1.1"><metadata
     id="metadata8"><rdf:RDF><cc:Work
         rdf:about=""><dc:format>image/svg+xml</dc:format><dc:type
           rdf:resource="http://purl.org/dc/dcmitype/StillImage" /></cc:Work></rdf:RDF></metadata><defs
     id="defs6"><clipPath
       id="clipPath24"
       clipPathUnits="userSpaceOnUse"><path
         id="path22"
         d="M 0,512 H 512 V 0 H 0 Z" /></clipPath></defs><g
     transform="matrix(1.3333333,0,0,-1.3333333,0,682.66667)"
     id="g10"><path
       id="path12"
       style="fill:#d3679d;fill-opacity:1;fill-rule:nonzero;stroke:none"
       d="m 168.563,259.214 h 46.404 V 146.609 h -46.404 z" /><path
       id="path14"
       style="fill:#d3679d;fill-opacity:1;fill-rule:nonzero;stroke:none"
       d="m 237.2,290.907 h 46.404 V 146.61 H 237.2 Z" /><path
       id="path16"
       style="fill:#d3679d;fill-opacity:1;fill-rule:nonzero;stroke:none"
       d="m 311.771,317.56 h 46.403 V 152.665 h -46.403 z" /><g
       id="g18"><g
         clip-path="url(#clipPath24)"
         id="g20"><path
           id="path26"
           style="fill:#812124;fill-opacity:1;fill-rule:nonzero;stroke:none"
           d="m 277.062,152.342 h -33.32 v 133.01 h 33.32 z m 5.644,144.352 h -44.608 c -3.365,0 -5.644,-2.822 -5.644,-5.644 V 146.698 c 0,-3.419 2.822,-5.643 5.644,-5.643 h 44.608 c 2.821,0 5.644,2.279 5.644,5.643 V 291.05 c 0,3.364 -2.823,5.644 -5.644,5.644" /><path
           id="path28"
           style="fill:#812124;fill-opacity:1;fill-rule:nonzero;stroke:none"
           d="m 348.912,152.342 h -33.32 v 164.485 h 33.32 z m 5.644,175.827 h -44.608 c -3.365,0 -5.644,-2.822 -5.644,-5.644 V 146.698 c 0,-3.419 2.822,-5.643 5.644,-5.643 h 44.608 c 2.822,0 5.644,2.279 5.644,5.643 v 175.827 c 0,3.365 -2.822,5.644 -5.644,5.644" /><path
           id="path30"
           style="fill:#812124;fill-opacity:1;fill-rule:nonzero;stroke:none"
           d="m 205.211,152.342 h -33.32 V 253.66 h 33.32 z m 5.644,112.605 h -44.607 c -3.365,0 -5.644,-2.822 -5.644,-5.643 V 146.643 c 0,-3.419 2.821,-5.643 5.644,-5.643 h 44.607 c 2.822,0 5.644,2.279 5.644,5.643 v 112.661 c 0,3.418 -2.822,5.643 -5.644,5.643" /></g></g></g></svg>