<?xml version="1.0" encoding="UTF-8" standalone="no"?>
<svg
   xmlns:dc="http://purl.org/dc/elements/1.1/"
   xmlns:cc="http://creativecommons.org/ns#"
   xmlns:rdf="http://www.w3.org/1999/02/22-rdf-syntax-ns#"
   xmlns:svg="http://www.w3.org/2000/svg"
   xmlns="http://www.w3.org/2000/svg"
   viewBox="0 0 682.66669 682.66669"
   height="682.66669"
   width="682.66669"
   xml:space="preserve"
   id="svg2"
   version="1.1"><metadata
     id="metadata8"><rdf:RDF><cc:Work
         rdf:about=""><dc:format>image/svg+xml</dc:format><dc:type
           rdf:resource="http://purl.org/dc/dcmitype/StillImage" /></cc:Work></rdf:RDF></metadata><defs
     id="defs6"><clipPath
       id="clipPath18"
       clipPathUnits="userSpaceOnUse"><path
         id="path16"
         d="M 0,512 H 512 V 0 H 0 Z" /></clipPath></defs><g
     transform="matrix(1.3333333,0,0,-1.3333333,0,682.66667)"
     id="g10"><g
       id="g12"><g
         clip-path="url(#clipPath18)"
         id="g14"><g
           transform="translate(277.5791,378.8412)"
           id="g20"><path
             id="path22"
             style="fill:#ffffff;fill-opacity:1;fill-rule:nonzero;stroke:none"
             d="m 0,0 c 16.532,0 29.935,-11.332 29.935,-25.309 0,-13.978 -13.403,-25.309 -29.935,-25.309 -16.532,0 -29.934,11.331 -29.934,25.309 C -29.934,-11.332 -16.532,0 0,0" /></g><g
           transform="translate(324.793,289.8954)"
           id="g24"><path
             id="path26"
             style="fill:#00a1e0;fill-opacity:1;fill-rule:nonzero;stroke:none"
             d="m 0,0 c 0,21.171 -23.402,38.334 -52.271,38.334 -28.867,0 -52.27,-17.163 -52.27,-38.334 V -20.91 H 0 Z" /></g><g
           transform="translate(324.793,268.9857)"
           id="g28"><path
             id="path30"
             style="fill:#032e61;fill-opacity:1;fill-rule:nonzero;stroke:none"
             d="m 0,0 h -98.741 v 14.811 c 0,19.052 15.503,34.559 34.559,34.559 H -34.56 C -15.503,49.37 0,33.863 0,14.811 Z m -74.056,83.929 c 0,13.612 11.075,24.685 24.686,24.685 13.611,0 24.684,-11.073 24.684,-24.685 0,-13.611 -11.073,-24.685 -24.684,-24.685 -13.611,0 -24.686,11.074 -24.686,24.685 m 47.919,-25.51 c 6.937,6.325 11.325,15.404 11.325,25.51 0,19.052 -15.501,34.559 -34.558,34.559 -19.057,0 -34.56,-15.507 -34.56,-34.559 0,-10.106 4.389,-19.185 11.326,-25.51 C -93.088,54.47 -108.615,36.43 -108.615,14.811 V -4.937 c 0,-2.73 2.212,-4.937 4.937,-4.937 H 4.937 c 2.725,0 4.937,2.207 4.937,4.937 v 19.748 c 0,21.619 -15.527,39.659 -36.011,43.608" /></g><g
           transform="translate(324.793,268.9857)"
           id="g32"><path
             id="path34"
             style="fill:none;stroke:#032e61;stroke-width:4;stroke-linecap:butt;stroke-linejoin:miter;stroke-miterlimit:10;stroke-dasharray:none;stroke-opacity:1"
             d="m 0,0 h -98.741 v 14.811 c 0,19.052 15.503,34.559 34.559,34.559 H -34.56 C -15.503,49.37 0,33.863 0,14.811 Z m -74.056,83.929 c 0,13.612 11.075,24.685 24.686,24.685 13.611,0 24.684,-11.073 24.684,-24.685 0,-13.611 -11.073,-24.685 -24.684,-24.685 -13.611,0 -24.686,11.074 -24.686,24.685 z m 47.919,-25.51 c 6.937,6.325 11.325,15.404 11.325,25.51 0,19.052 -15.501,34.559 -34.558,34.559 -19.057,0 -34.56,-15.507 -34.56,-34.559 0,-10.106 4.389,-19.185 11.326,-25.51 C -93.088,54.47 -108.615,36.43 -108.615,14.811 V -4.937 c 0,-2.73 2.212,-4.937 4.937,-4.937 H 4.937 c 2.725,0 4.937,2.207 4.937,4.937 v 19.748 c 0,21.619 -15.527,39.659 -36.011,43.608 z" /></g><g
           transform="translate(168.8901,190.6854)"
           id="g36"><path
             id="path38"
             style="fill:#ffffff;fill-opacity:1;fill-rule:nonzero;stroke:none"
             d="m 0,0 3.757,10.626 8.275,10.013 6.06,5.753 10.593,-7.546 12.214,16.875 22.503,12.187 25.954,2.769 32.529,-2.565 26.039,6.142 12.614,-3.549 7.178,-1.903 14.602,15.784 c 0,0 7.743,11.736 8.309,12.686 0.566,0.95 11.55,8.507 11.55,8.507 0,0 10.676,-4.15 11.334,-4.072 0.659,0.078 6.343,-7.324 6.343,-7.324 L 213.482,54.877 198.766,38.51 185.295,14.639 171.487,4.36 141.476,-2.088 c 0,0 -34.897,-4.43 -35.851,-3.823 -0.955,0.605 -30.354,-3.237 -30.354,-3.237 l -4.228,-2.074 8.642,-10.11 -11.924,-16.829 -15.052,-15.984 -9.308,1.753 -24.942,19.03 -20.61,15.956 -2.587,11.999 z" /></g><g
           transform="translate(159.4604,178.8876)"
           id="g40"><path
             id="path42"
             style="fill:#00a1e0;fill-opacity:1;fill-rule:nonzero;stroke:none"
             d="m 0,0 19.465,-17.337 c 0,0 24.293,-16.334 28.829,-19.796 4.537,-3.461 12.498,-9.845 12.498,-9.845 L 85.384,-12.47 80.473,0.576 48.294,22.605 27.522,38.189 13.187,22.424" /></g><g
           transform="translate(384.7734,254.9755)"
           id="g44"><path
             id="path46"
             style="fill:#032e61;fill-opacity:1;fill-rule:nonzero;stroke:none"
             d="m 0,0 -34.65,-50.842 c -1.1,-1.613 -2.401,-3.082 -3.871,-4.365 -4.517,-3.583 -10.667,-5.814 -18.287,-6.627 l -58.798,-6.27 c -4.423,-0.473 -8.868,-1.209 -13.19,-2.186 l -14.445,-3.199 -33.778,26.439 c 1.791,3.381 5.159,8.896 10.331,14.125 10.752,10.871 23.812,15.128 38.814,12.65 7.804,-1.288 15.901,-1.501 24.069,-0.63 l 38.645,4.122 c 6.94,0.74 9.433,-5.075 9.812,-8.626 0.278,-2.596 -0.293,-5.154 -1.563,-7.022 -1.378,-2.022 -3.519,-3.201 -6.361,-3.504 l -33.641,-3.587 c -2.697,-0.289 -4.65,-2.709 -4.362,-5.407 0.288,-2.697 2.707,-4.65 5.404,-4.362 l 33.641,3.588 c 5.678,0.605 10.45,3.356 13.438,7.744 2.486,3.647 3.639,8.219 3.273,12.935 l 28.438,34.851 c 4.06,5.029 11.281,4.646 15.644,1.406 C 0.818,9.558 4.004,5.873 0,0 m -163.617,-118.686 -54.989,42.208 23.914,30.787 54.763,-42.867 z M 4.419,19.121 c -4.082,3.031 -9.363,4.61 -14.491,4.331 -5.823,-0.318 -11.028,-2.961 -14.636,-7.434 L -49.4,-14.242 c -0.647,0.887 -1.365,1.712 -2.153,2.466 -3.826,3.67 -9.029,5.36 -14.649,4.76 l -38.645,-4.122 c -7.287,-0.776 -14.496,-0.59 -21.426,0.554 -18.07,2.983 -34.459,-2.351 -47.399,-15.433 -5.262,-5.319 -8.921,-10.885 -11.182,-14.901 l -7.646,5.985 c -1.006,0.787 -2.294,1.158 -3.565,1.023 -0.012,-0.002 -0.021,-0.003 -0.033,-0.004 -1.315,-0.149 -2.53,-0.833 -3.342,-1.878 l -29.954,-38.561 c -0.802,-1.032 -1.158,-2.341 -0.991,-3.638 0.167,-1.298 0.842,-2.475 1.879,-3.271 l 62.757,-48.171 c 1.041,-0.798 2.301,-1.118 3.512,-0.989 1.271,0.136 2.489,0.766 3.341,1.849 l 29.718,37.795 c 0.811,1.032 1.18,2.365 1.016,3.669 -0.161,1.286 -0.834,2.47 -1.854,3.27 l -3.206,2.508 6.571,1.458 c 3.972,0.896 8.039,1.57 12.088,2.002 l 58.797,6.271 c 9.555,1.019 17.447,3.974 23.458,8.784 0.05,0.04 0.099,0.082 0.148,0.123 2.139,1.852 4.033,3.98 5.627,6.32 l 34.65,50.84 c 5.931,8.7 4.445,18.608 -3.698,24.654" /></g><g
           transform="translate(384.7734,254.9755)"
           id="g48"><path
             id="path50"
             style="fill:none;stroke:#032e61;stroke-width:4;stroke-linecap:butt;stroke-linejoin:miter;stroke-miterlimit:10;stroke-dasharray:none;stroke-opacity:1"
             d="m 0,0 -34.65,-50.842 c -1.1,-1.613 -2.401,-3.082 -3.871,-4.365 -4.517,-3.583 -10.667,-5.814 -18.287,-6.627 l -58.798,-6.27 c -4.423,-0.473 -8.868,-1.209 -13.19,-2.186 l -14.445,-3.199 -33.778,26.439 c 1.791,3.381 5.159,8.896 10.331,14.125 10.752,10.871 23.812,15.128 38.814,12.65 7.804,-1.288 15.901,-1.501 24.069,-0.63 l 38.645,4.122 c 6.94,0.74 9.433,-5.075 9.812,-8.626 0.278,-2.596 -0.293,-5.154 -1.563,-7.022 -1.378,-2.022 -3.519,-3.201 -6.361,-3.504 l -33.641,-3.587 c -2.697,-0.289 -4.65,-2.709 -4.362,-5.407 0.288,-2.697 2.707,-4.65 5.404,-4.362 l 33.641,3.588 c 5.678,0.605 10.45,3.356 13.438,7.744 2.486,3.647 3.639,8.219 3.273,12.935 l 28.438,34.851 c 4.06,5.029 11.281,4.646 15.644,1.406 C 0.818,9.558 4.004,5.873 0,0 Z m -163.617,-118.686 -54.989,42.208 23.914,30.787 54.763,-42.867 z M 4.419,19.121 c -4.082,3.031 -9.363,4.61 -14.491,4.331 -5.823,-0.318 -11.028,-2.961 -14.636,-7.434 L -49.4,-14.242 c -0.647,0.887 -1.365,1.712 -2.153,2.466 -3.826,3.67 -9.029,5.36 -14.649,4.76 l -38.645,-4.122 c -7.287,-0.776 -14.496,-0.59 -21.426,0.554 -18.07,2.983 -34.459,-2.351 -47.399,-15.433 -5.262,-5.319 -8.921,-10.885 -11.182,-14.901 l -7.646,5.985 c -1.006,0.787 -2.294,1.158 -3.565,1.023 -0.012,-0.002 -0.021,-0.003 -0.033,-0.004 -1.315,-0.149 -2.53,-0.833 -3.342,-1.878 l -29.954,-38.561 c -0.802,-1.032 -1.158,-2.341 -0.991,-3.638 0.167,-1.298 0.842,-2.475 1.879,-3.271 l 62.757,-48.171 c 1.041,-0.798 2.301,-1.118 3.512,-0.989 1.271,0.136 2.489,0.766 3.341,1.849 l 29.718,37.795 c 0.811,1.032 1.18,2.365 1.016,3.669 -0.161,1.286 -0.834,2.47 -1.854,3.27 l -3.206,2.508 6.571,1.458 c 3.972,0.896 8.039,1.57 12.088,2.002 l 58.797,6.271 c 9.555,1.019 17.447,3.974 23.458,8.784 0.05,0.04 0.099,0.082 0.148,0.123 2.139,1.852 4.033,3.98 5.627,6.32 l 34.65,50.84 c 5.931,8.7 4.445,18.608 -3.698,24.654 z" /></g></g></g></g></svg>