<svg xmlns="http://www.w3.org/2000/svg" viewBox="0 0 64 64"><defs><style>.cls-1{fill:none;}.cls-2{fill:#00a1e0;}.cls-3{fill:#fff;}.cls-4{fill:#032e61;}</style></defs><title>trailhead-day</title><g id="invisi-border"><rect class="cls-1" width="64" height="64"/></g><g id="icon"><path class="cls-2" d="M6,50a48.31,48.31,0,0,0,26,8,48.31,48.31,0,0,0,26-8V46C58,26,46,12,32,6,18,12,6,26,6,46v4"/><polyline class="cls-3" points="41 40 28 21 15 40"/><path class="cls-4" d="M41,42a2,2,0,0,1-1.65-.87L28,24.54,16.65,41.13a2,2,0,0,1-3.3-2.26l13-19a2,2,0,0,1,3.3,0l13,19A2,2,0,0,1,41,42Z"/><polyline class="cls-3" points="49 40 40 27 31 40"/><path class="cls-4" d="M49,42a2,2,0,0,1-1.65-.86L40,30.51,32.64,41.14a2,2,0,1,1-3.29-2.28l9-13a2,2,0,0,1,3.29,0l9,13A2,2,0,0,1,49,42Z"/><path class="cls-3" d="M33,60a2,2,0,0,1-1.73-3l2.23-3.9a1.23,1.23,0,0,0-.57-1.74l-1.83-.81a5.23,5.23,0,0,1-1.89-8.13l2.26-2.71a2,2,0,1,1,3.07,2.56L32.27,45a1.23,1.23,0,0,0,.45,1.91l1.83.81A5.23,5.23,0,0,1,37,55.1L34.74,59A2,2,0,0,1,33,60Z"/><path class="cls-4" d="M57,43H7a2,2,0,0,1,0-4H57a2,2,0,0,1,0,4Z"/><path class="cls-4" d="M32,60A50,50,0,0,1,4.82,51.62,2,2,0,0,1,4,50V46A44.75,44.75,0,0,1,31.21,4.16a2,2,0,0,1,1.58,0A44.75,44.75,0,0,1,60,46v4a2,2,0,0,1-.82,1.62A50,50,0,0,1,32,60ZM8,48.93A47,47,0,0,0,32,56a47,47,0,0,0,24-7.07V46A40.79,40.79,0,0,0,32,8.19,40.79,40.79,0,0,0,8,46ZM6,50H6Z"/></g></svg>