<?xml version="1.0" encoding="UTF-8" standalone="no"?>
<svg
   xmlns:dc="http://purl.org/dc/elements/1.1/"
   xmlns:cc="http://creativecommons.org/ns#"
   xmlns:rdf="http://www.w3.org/1999/02/22-rdf-syntax-ns#"
   xmlns:svg="http://www.w3.org/2000/svg"
   xmlns="http://www.w3.org/2000/svg"
   viewBox="0 0 682.66669 682.66669"
   height="682.66669"
   width="682.66669"
   xml:space="preserve"
   id="svg2"
   version="1.1"><metadata
     id="metadata8"><rdf:RDF><cc:Work
         rdf:about=""><dc:format>image/svg+xml</dc:format><dc:type
           rdf:resource="http://purl.org/dc/dcmitype/StillImage" /></cc:Work></rdf:RDF></metadata><defs
     id="defs6"><clipPath
       id="clipPath18"
       clipPathUnits="userSpaceOnUse"><path
         id="path16"
         d="M 0,512 H 512 V 0 H 0 Z" /></clipPath></defs><g
     transform="matrix(1.3333333,0,0,-1.3333333,0,682.66667)"
     id="g10"><g
       id="g12"><g
         clip-path="url(#clipPath18)"
         id="g14"><g
           transform="translate(175.9995,299.537)"
           id="g20"><path
             id="path22"
             style="fill:#fcd370;fill-opacity:1;fill-rule:nonzero;stroke:none"
             d="M 0,0 19.908,16.457 34.842,33.71 56.157,46.319 61.622,40.27 80.958,33.554 c 0,0 13.965,4.98 20.254,-0.923 6.29,-5.902 24.871,-1.798 24.871,-1.798 L 144.089,46.319 176.841,19.775 201.069,0 l -22.241,-23.173 4.324,-27.486 -9.29,-14.506 2.979,-9.29 -1.868,-6.396 c 0,0 5.525,-0.295 5.525,-4.581 0,-4.286 -8.627,-15.885 -8.627,-15.885 l 1.327,-9.081 -6.636,-14.49 -14.584,-4.093 -17.551,-11.531 -15.195,7.278 -18.023,2.725 -31.138,-3.67 -24.698,6.454 -16.175,12.511 -7.963,23.491 -1.327,12.582 11.951,9.331 -12.615,19.062 -3.318,30.286 L 0,-9.452 Z" /></g><g
           transform="translate(356.6826,281.8177)"
           id="g24"><path
             id="path26"
             style="fill:#cc9629;fill-opacity:1;fill-rule:nonzero;stroke:none"
             d="M 0,0 C -1.451,-1.418 -2.141,-3.444 -1.855,-5.454 -0.062,-18.073 -2.587,-31.033 -8.82,-41.998 L -53.313,2.494 c 2.937,1.801 5.697,3.954 8.204,6.462 2.488,2.488 2.488,6.522 0,9.01 -2.488,2.488 -6.523,2.488 -9.011,0 -9.532,-9.532 -24.105,-12.036 -36.263,-6.229 -2.435,1.163 -5.343,0.666 -7.252,-1.244 l -28.57,-28.57 c -2.484,-2.485 -6.525,-2.485 -9.011,0 -1.203,1.203 -1.867,2.803 -1.867,4.505 0,1.702 0.664,3.302 1.867,4.506 7.453,7.452 28.669,28.669 36.043,36.042 0,0.001 0.001,0.002 0.001,0.002 12.792,12.79 30.51,18.8 48.665,16.22 1.982,-0.281 3.985,0.386 5.402,1.803 l 13.53,13.531 45.389,-45.036 z m -5.71,-72.141 c -2.484,-2.484 -6.526,-2.484 -9.01,0 h -10e-4 l -45.052,45.054 c -2.489,2.488 -6.523,2.488 -9.011,0 -2.488,-2.489 -2.488,-6.523 0,-9.011 l 54.064,-54.064 c 2.485,-2.484 2.485,-6.526 0,-9.01 -2.484,-2.486 -6.526,-2.485 -9.011,0 -2.979,2.978 -50.882,50.882 -54.064,54.063 -2.488,2.488 -6.522,2.488 -9.011,0 -2.488,-2.488 -2.488,-6.521 0,-9.01 l 45.058,-45.057 c 2.485,-2.491 2.486,-6.517 -0.004,-9.007 -2.49,-2.49 -6.52,-2.49 -9.012,0 l -45.052,45.053 c -2.488,2.488 -6.522,2.488 -9.011,0 -2.488,-2.489 -2.488,-6.523 0,-9.011 l 34.364,-34.363 c -2.068,-2.07 -1.136,-1.153 -4.433,-4.348 -0.025,-0.023 -0.048,-0.047 -0.072,-0.07 -1.204,-1.204 -2.804,-1.868 -4.506,-1.868 -1.702,0 -3.301,0.664 -4.504,1.867 -0.024,0.024 -0.047,0.047 -0.072,0.07 -3.79,3.673 -52.755,52.669 -56.82,56.733 -12.875,12.875 -18.787,30.613 -16.221,48.665 0.285,2.01 -0.404,4.036 -1.856,5.455 l -13.814,13.496 45.39,45.036 13.53,-13.531 c 1.417,-1.417 3.418,-2.085 5.402,-1.803 3.13,0.445 6.294,0.622 9.45,0.548 -3.249,-2.297 -6.32,-4.883 -9.195,-7.759 -7.864,-7.864 -29.142,-29.142 -36.043,-36.043 -7.47,-7.47 -7.471,-19.561 0,-27.031 3.727,-3.727 8.622,-5.59 13.516,-5.59 4.895,0 9.79,1.863 13.516,5.59 l 25.562,25.561 c 8.336,-2.97 17.245,-3.328 25.601,-1.282 L -5.71,-63.131 c 2.491,-2.491 2.491,-6.52 0,-9.01 m -102.474,-36.042 c -2.485,-2.484 -6.526,-2.484 -9.011,0 -1.203,1.203 -1.866,2.803 -1.866,4.505 0,1.702 0.663,3.302 1.866,4.505 10e-4,0 10e-4,0.001 10e-4,0.001 l 1.678,1.677 9.011,-9.009 z m -27.032,9.01 c -2.49,-2.49 -6.52,-2.49 -9.011,0 -2.49,2.491 -2.49,6.52 0,9.011 l 10.69,10.69 9.011,-9.011 z m -18.021,27.032 c -2.485,2.485 -2.485,6.527 0,9.012 l 1.708,1.708 c 0.54,-0.577 1.088,-1.147 1.649,-1.708 l 7.332,-7.333 -1.679,-1.679 c -2.484,-2.484 -6.525,-2.484 -9.01,0 M 29.267,13.436 c 0.006,1.708 -0.672,3.345 -1.884,4.548 l -54.488,54.064 c -2.492,2.471 -6.512,2.464 -8.994,-0.018 L -51.933,56.195 c -9.251,0.877 -18.688,-0.097 -27.538,-2.844 -8.862,2.75 -18.281,3.723 -27.543,2.844 l -15.834,15.834 c -2.482,2.482 -6.502,2.49 -8.993,0.018 L -186.33,17.984 c -1.212,-1.203 -1.89,-2.841 -1.883,-4.548 0.006,-1.707 0.698,-3.34 1.919,-4.532 l 16.201,-15.829 c -0.894,-9.512 0.162,-19.224 3.095,-28.286 1.854,-5.726 4.394,-11.096 7.581,-16.078 l -2.831,-2.83 c -7.452,-7.453 -7.452,-19.579 0,-27.032 1.759,-1.76 3.781,-3.098 5.938,-4.026 -4.173,-7.299 -3.151,-16.781 3.073,-23.006 6.261,-6.261 15.73,-7.252 22.999,-3.083 0.945,-2.185 2.3,-4.194 4.033,-5.928 7.458,-7.458 19.585,-7.447 27.032,0 l 1.679,1.679 3.89,-3.891 c 0.214,-0.214 0.441,-0.41 0.676,-0.587 3.603,-3.572 8.378,-5.539 13.455,-5.539 5.088,0 9.871,1.975 13.478,5.56 3.562,3.452 2.3,2.213 4.544,4.457 2.213,-2.213 6.662,-7.277 15.195,-7.277 5.106,0 9.905,1.988 13.516,5.598 1.734,1.735 3.091,3.746 4.035,5.932 7.326,-4.182 16.791,-3.127 22.997,3.079 6.225,6.225 7.246,15.707 3.073,23.006 2.157,0.928 4.178,2.266 5.938,4.026 7.47,7.47 7.47,19.561 0,27.032 l -2.844,2.843 c 8.33,13.079 12.145,28.825 10.687,44.351 L 27.35,8.904 c 1.219,1.192 1.911,2.825 1.917,4.532" /></g></g></g></g></svg>