<?xml version="1.0" encoding="UTF-8" standalone="no"?>
<svg
   xmlns:dc="http://purl.org/dc/elements/1.1/"
   xmlns:cc="http://creativecommons.org/ns#"
   xmlns:rdf="http://www.w3.org/1999/02/22-rdf-syntax-ns#"
   xmlns:svg="http://www.w3.org/2000/svg"
   xmlns="http://www.w3.org/2000/svg"
   viewBox="0 0 682.66669 682.66669"
   height="682.66669"
   width="682.66669"
   xml:space="preserve"
   id="svg2"
   version="1.1"><metadata
     id="metadata8"><rdf:RDF><cc:Work
         rdf:about=""><dc:format>image/svg+xml</dc:format><dc:type
           rdf:resource="http://purl.org/dc/dcmitype/StillImage" /></cc:Work></rdf:RDF></metadata><defs
     id="defs6"><clipPath
       id="clipPath26"
       clipPathUnits="userSpaceOnUse"><path
         id="path24"
         d="M 0,512 H 512 V 0 H 0 Z" /></clipPath></defs><g
     transform="matrix(1.3333333,0,0,-1.3333333,0,682.66667)"
     id="g10"><g
       transform="translate(241.1382,164.5009)"
       id="g12"><path
         id="path14"
         style="fill:#fcac63;fill-opacity:1;fill-rule:nonzero;stroke:none"
         d="m 0,0 -28.594,10.881 13.561,35.637 28.594,-10.88 z" /></g><g
       transform="translate(319.9268,180.0194)"
       id="g16"><path
         id="path18"
         style="fill:#fcac63;fill-opacity:1;fill-rule:nonzero;stroke:none"
         d="m 0,0 -34.901,-15.354 -15.355,34.902 34.902,15.354 z" /></g><g
       id="g20"><g
         clip-path="url(#clipPath26)"
         id="g22"><g
           transform="translate(334.9951,276.454)"
           id="g28"><path
             id="path30"
             style="fill:#fcac63;fill-opacity:1;fill-rule:nonzero;stroke:none"
             d="m 0,0 c 0,-37.382 -30.304,-67.687 -67.687,-67.687 -37.381,0 -67.686,30.305 -67.686,67.687 0,37.382 30.305,67.687 67.686,67.687 C -30.304,67.687 0,37.382 0,0" /></g><g
           transform="translate(290.6367,276.8451)"
           id="g32"><path
             id="path34"
             style="fill:#ffffff;fill-opacity:1;fill-rule:nonzero;stroke:none"
             d="m 0,0 c 0,-14.165 -11.482,-25.647 -25.647,-25.647 -14.165,0 -25.647,11.482 -25.647,25.647 0,14.165 11.482,25.647 25.647,25.647 C -11.482,25.647 0,14.165 0,0" /></g><g
           transform="translate(290.6367,276.8451)"
           id="g36"><path
             id="path38"
             style="fill:none;stroke:#ce6200;stroke-width:7;stroke-linecap:butt;stroke-linejoin:miter;stroke-miterlimit:10;stroke-dasharray:none;stroke-opacity:1"
             d="m 0,0 c 0,-14.165 -11.482,-25.647 -25.647,-25.647 -14.165,0 -25.647,11.482 -25.647,25.647 0,14.165 11.482,25.647 25.647,25.647 C -11.482,25.647 0,14.165 0,0 Z" /></g><g
           transform="translate(233.1318,176.7635)"
           id="g40"><path
             id="path42"
             style="fill:#ce6200;fill-opacity:1;fill-rule:nonzero;stroke:none"
             d="m 0,0 c -1.054,2.385 -3.804,3.511 -6.225,2.553 l -15.85,-6.267 16.005,39.04 0.89,-0.219 c 1.947,-0.479 3.767,-1.435 5.267,-2.763 l 3.841,-3.403 c 4.093,-3.627 9.329,-5.567 14.677,-5.566 1.482,0 2.972,0.158 4.449,0.462 L 6.892,-15.589 Z M 69.939,2.553 C 67.517,3.511 64.769,2.385 63.715,0 L 56.823,-15.589 40.661,23.836 c 6.811,-1.399 13.9,0.474 19.126,5.104 l 3.842,3.404 c 1.499,1.329 3.32,2.284 5.267,2.763 l 0.889,0.22 16.005,-39.04 z M 91.877,70.34 88.036,66.938 C 85.364,64.571 83.283,61.557 82.018,58.219 L 80.198,53.42 C 78.75,49.603 75.519,46.739 71.554,45.763 L 66.57,44.534 C 63.105,43.681 59.862,41.979 57.19,39.611 L 53.35,36.208 C 50.292,33.501 46.1,32.468 42.137,33.445 l -4.983,1.228 c -3.465,0.854 -7.129,0.853 -10.593,0 l -4.984,-1.229 c -3.965,-0.977 -8.156,0.057 -11.212,2.764 l -3.841,3.403 c -2.672,2.368 -5.915,4.069 -9.379,4.923 l -4.984,1.229 c -3.965,0.976 -7.196,3.84 -8.644,7.657 l -1.82,4.799 c -1.265,3.338 -3.346,6.352 -6.018,8.718 l -3.841,3.403 c -3.057,2.707 -4.587,6.744 -4.095,10.797 l 0.619,5.094 c 0.43,3.543 -0.012,7.18 -1.277,10.518 l -1.82,4.797 c -1.448,3.818 -0.928,8.103 1.393,11.464 l 2.913,4.223 c 2.029,2.937 3.328,6.362 3.759,9.907 l 0.618,5.093 c 0.492,4.055 2.945,7.608 6.56,9.505 l 4.544,2.385 c 3.159,1.658 5.902,4.087 7.93,7.025 l 2.914,4.223 c 2.32,3.36 6.143,5.367 10.226,5.367 h 5.132 c 3.568,0 7.125,0.877 10.286,2.535 l 4.544,2.385 c 3.615,1.898 7.932,1.897 11.548,0 l 4.544,-2.385 c 3.161,-1.658 6.718,-2.535 10.286,-2.535 h 5.132 c 4.083,0 7.905,-2.007 10.224,-5.366 l 2.915,-4.225 c 2.029,-2.937 4.771,-5.366 7.931,-7.024 l 4.544,-2.385 c 3.615,-1.897 6.067,-5.45 6.56,-9.504 l 0.618,-5.094 c 0.43,-3.544 1.729,-6.969 3.758,-9.906 l 2.915,-4.224 c 2.319,-3.361 2.839,-7.646 1.392,-11.463 L 96.63,96.749 C 95.365,93.411 94.924,89.774 95.354,86.233 l 0.619,-5.095 c 0.491,-4.054 -1.039,-8.09 -4.096,-10.797 z m 15.651,27.764 c 2.579,6.801 1.652,14.436 -2.48,20.422 l -2.915,4.224 c -1.139,1.648 -1.867,3.571 -2.109,5.56 l -0.618,5.095 c -0.878,7.221 -5.246,13.55 -11.687,16.93 l -4.544,2.385 c -1.774,0.931 -3.313,2.295 -4.451,3.944 l -2.915,4.223 c -4.132,5.987 -10.942,9.561 -18.216,9.561 h -5.132 c -2.004,0 -4,0.492 -5.774,1.423 l -4.543,2.385 c -6.441,3.38 -14.131,3.381 -20.573,0 l -4.544,-2.385 c -1.775,-0.931 -3.771,-1.423 -5.774,-1.423 H 6.121 c -7.273,0 -14.084,-3.574 -18.216,-9.561 l -2.914,-4.222 c -1.139,-1.65 -2.678,-3.013 -4.452,-3.945 l -4.544,-2.385 c -6.44,-3.38 -10.809,-9.709 -11.687,-16.931 l -0.619,-5.093 c -0.241,-1.99 -0.97,-3.912 -2.108,-5.561 l -2.915,-4.224 c -4.132,-5.986 -5.059,-13.621 -2.48,-20.422 l 1.82,-4.797 c 0.71,-1.874 0.958,-3.915 0.716,-5.904 l -0.618,-5.094 c -0.878,-7.221 1.85,-14.412 7.295,-19.235 l 3.841,-3.403 c 1.5,-1.328 2.668,-3.021 3.379,-4.895 l 1.819,-4.797 c 1.914,-5.046 5.58,-9.153 10.228,-11.649 l -20.048,-48.905 c -0.738,-1.8 -0.33,-3.867 1.037,-5.253 1.368,-1.385 3.43,-1.818 5.239,-1.103 l 22.111,8.741 9.614,-21.747 c 0.778,-1.759 2.52,-2.891 4.439,-2.891 h 0.067 c 1.945,0.026 3.687,1.212 4.425,3.013 l 20.306,49.532 20.306,-49.532 c 0.738,-1.801 2.481,-2.987 4.426,-3.013 h 0.066 c 1.92,0 3.661,1.133 4.44,2.891 l 9.613,21.747 22.112,-8.741 c 1.808,-0.715 3.871,-0.282 5.239,1.103 1.367,1.386 1.776,3.453 1.037,5.253 L 79.047,38.33 c 4.648,2.496 8.314,6.603 10.227,11.649 l 1.82,4.797 c 0.711,1.874 1.879,3.568 3.379,4.896 l 3.84,3.402 c 5.446,4.824 8.172,12.015 7.296,19.235 l -0.619,5.095 c -0.242,1.989 0.007,4.031 0.716,5.903 z" /></g><g
           transform="translate(233.1318,176.7635)"
           id="g44"><path
             id="path46"
             style="fill:none;stroke:#c96200;stroke-width:5;stroke-linecap:butt;stroke-linejoin:miter;stroke-miterlimit:10;stroke-dasharray:none;stroke-opacity:1"
             d="m 0,0 c -1.054,2.385 -3.804,3.511 -6.225,2.553 l -15.85,-6.267 16.005,39.04 0.89,-0.219 c 1.947,-0.479 3.767,-1.435 5.267,-2.763 l 3.841,-3.403 c 4.093,-3.627 9.329,-5.567 14.677,-5.566 1.482,0 2.972,0.158 4.449,0.462 L 6.892,-15.589 Z M 69.939,2.553 C 67.517,3.511 64.769,2.385 63.715,0 L 56.823,-15.589 40.661,23.836 c 6.811,-1.399 13.9,0.474 19.126,5.104 l 3.842,3.404 c 1.499,1.329 3.32,2.284 5.267,2.763 l 0.889,0.22 16.005,-39.04 z M 91.877,70.34 88.036,66.938 C 85.364,64.571 83.283,61.557 82.018,58.219 L 80.198,53.42 C 78.75,49.603 75.519,46.739 71.554,45.763 L 66.57,44.534 C 63.105,43.681 59.862,41.979 57.19,39.611 L 53.35,36.208 C 50.292,33.501 46.1,32.468 42.137,33.445 l -4.983,1.228 c -3.465,0.854 -7.129,0.853 -10.593,0 l -4.984,-1.229 c -3.965,-0.977 -8.156,0.057 -11.212,2.764 l -3.841,3.403 c -2.672,2.368 -5.915,4.069 -9.379,4.923 l -4.984,1.229 c -3.965,0.976 -7.196,3.84 -8.644,7.657 l -1.82,4.799 c -1.265,3.338 -3.346,6.352 -6.018,8.718 l -3.841,3.403 c -3.057,2.707 -4.587,6.744 -4.095,10.797 l 0.619,5.094 c 0.43,3.543 -0.012,7.18 -1.277,10.518 l -1.82,4.797 c -1.448,3.818 -0.928,8.103 1.393,11.464 l 2.913,4.223 c 2.029,2.937 3.328,6.362 3.759,9.907 l 0.618,5.093 c 0.492,4.055 2.945,7.608 6.56,9.505 l 4.544,2.385 c 3.159,1.658 5.902,4.087 7.93,7.025 l 2.914,4.223 c 2.32,3.36 6.143,5.367 10.226,5.367 h 5.132 c 3.568,0 7.125,0.877 10.286,2.535 l 4.544,2.385 c 3.615,1.898 7.932,1.897 11.548,0 l 4.544,-2.385 c 3.161,-1.658 6.718,-2.535 10.286,-2.535 h 5.132 c 4.083,0 7.905,-2.007 10.224,-5.366 l 2.915,-4.225 c 2.029,-2.937 4.771,-5.366 7.931,-7.024 l 4.544,-2.385 c 3.615,-1.897 6.067,-5.45 6.56,-9.504 l 0.618,-5.094 c 0.43,-3.544 1.729,-6.969 3.758,-9.906 l 2.915,-4.224 c 2.319,-3.361 2.839,-7.646 1.392,-11.463 L 96.63,96.749 C 95.365,93.411 94.924,89.774 95.354,86.233 l 0.619,-5.095 c 0.491,-4.054 -1.039,-8.09 -4.096,-10.797 z m 15.651,27.764 c 2.579,6.801 1.652,14.436 -2.48,20.422 l -2.915,4.224 c -1.139,1.648 -1.867,3.571 -2.109,5.56 l -0.618,5.095 c -0.878,7.221 -5.246,13.55 -11.687,16.93 l -4.544,2.385 c -1.774,0.931 -3.313,2.295 -4.451,3.944 l -2.915,4.223 c -4.132,5.987 -10.942,9.561 -18.216,9.561 h -5.132 c -2.004,0 -4,0.492 -5.774,1.423 l -4.543,2.385 c -6.441,3.38 -14.131,3.381 -20.573,0 l -4.544,-2.385 c -1.775,-0.931 -3.771,-1.423 -5.774,-1.423 H 6.121 c -7.273,0 -14.084,-3.574 -18.216,-9.561 l -2.914,-4.222 c -1.139,-1.65 -2.678,-3.013 -4.452,-3.945 l -4.544,-2.385 c -6.44,-3.38 -10.809,-9.709 -11.687,-16.931 l -0.619,-5.093 c -0.241,-1.99 -0.97,-3.912 -2.108,-5.561 l -2.915,-4.224 c -4.132,-5.986 -5.059,-13.621 -2.48,-20.422 l 1.82,-4.797 c 0.71,-1.874 0.958,-3.915 0.716,-5.904 l -0.618,-5.094 c -0.878,-7.221 1.85,-14.412 7.295,-19.235 l 3.841,-3.403 c 1.5,-1.328 2.668,-3.021 3.379,-4.895 l 1.819,-4.797 c 1.914,-5.046 5.58,-9.153 10.228,-11.649 l -20.048,-48.905 c -0.738,-1.8 -0.33,-3.867 1.037,-5.253 1.368,-1.385 3.43,-1.818 5.239,-1.103 l 22.111,8.741 9.614,-21.747 c 0.778,-1.759 2.52,-2.891 4.439,-2.891 h 0.067 c 1.945,0.026 3.687,1.212 4.425,3.013 l 20.306,49.532 20.306,-49.532 c 0.738,-1.801 2.481,-2.987 4.426,-3.013 h 0.066 c 1.92,0 3.661,1.133 4.44,2.891 l 9.613,21.747 22.112,-8.741 c 1.808,-0.715 3.871,-0.282 5.239,1.103 1.367,1.386 1.776,3.453 1.037,5.253 L 79.047,38.33 c 4.648,2.496 8.314,6.603 10.227,11.649 l 1.82,4.797 c 0.711,1.874 1.879,3.568 3.379,4.896 l 3.84,3.402 c 5.446,4.824 8.172,12.015 7.296,19.235 l -0.619,5.095 c -0.242,1.989 0.007,4.031 0.716,5.903 z" /></g><g
           transform="translate(264.9893,302.4926)"
           id="g48"><path
             id="path50"
             style="fill:#ce6200;fill-opacity:1;fill-rule:nonzero;stroke:none"
             d="M 0,0 C 14.142,0 25.647,-11.505 25.647,-25.647 25.647,-39.79 14.143,-51.294 0,-51.294 c -14.142,0 -25.647,11.504 -25.647,25.647 C -25.647,-11.505 -14.142,0 0,0 m 0,-57.015 c 17.297,0 31.368,14.072 31.368,31.368 0,17.296 -14.071,31.368 -31.368,31.368 -17.296,0 -31.368,-14.072 -31.368,-31.368 0,-17.296 14.072,-31.368 31.368,-31.368" /></g><g
           transform="translate(264.9893,302.4926)"
           id="g52"><path
             id="path54"
             style="fill:none;stroke:#ce6200;stroke-width:7;stroke-linecap:butt;stroke-linejoin:miter;stroke-miterlimit:10;stroke-dasharray:none;stroke-opacity:1"
             d="M 0,0 C 14.142,0 25.647,-11.505 25.647,-25.647 25.647,-39.79 14.143,-51.294 0,-51.294 c -14.142,0 -25.647,11.504 -25.647,25.647 C -25.647,-11.505 -14.142,0 0,0 Z m 0,-57.015 c 17.297,0 31.368,14.072 31.368,31.368 0,17.296 -14.071,31.368 -31.368,31.368 -17.296,0 -31.368,-14.072 -31.368,-31.368 0,-17.296 14.072,-31.368 31.368,-31.368 z" /></g></g></g></g></svg>