<svg width="211" height="299" viewBox="0 0 211 299" fill="none" xmlns="http://www.w3.org/2000/svg">
<path d="M95.7126 232.1C95.6274 232.1 95.5437 232.077 95.4701 232.035C95.3965 231.992 95.3357 231.93 95.2938 231.856L74.7739 195.864C74.7425 195.809 74.7224 195.748 74.7145 195.686C74.7066 195.623 74.7111 195.559 74.7278 195.498C74.7445 195.437 74.7731 195.38 74.8119 195.33C74.8507 195.28 74.8989 195.238 74.9539 195.207C75.0089 195.175 75.0695 195.155 75.1323 195.147C75.1951 195.139 75.2588 195.144 75.3199 195.16C75.3809 195.177 75.4381 195.206 75.4881 195.245C75.5381 195.283 75.5799 195.332 75.6113 195.387L96.1312 231.377C96.1732 231.451 96.1953 231.534 96.1951 231.618C96.1949 231.703 96.1725 231.786 96.1301 231.859C96.0877 231.932 96.0268 231.993 95.9535 232.035C95.8802 232.078 95.7971 232.1 95.7126 232.1" fill="#740016"/>
<path d="M82.2699 255.081C82.1866 255.082 82.1047 255.06 82.0321 255.019C81.9594 254.979 81.8986 254.92 81.8556 254.848C81.8126 254.777 81.789 254.696 81.7868 254.612C81.7846 254.529 81.804 254.447 81.8433 254.373L94.5673 230.285C94.6289 230.175 94.7309 230.094 94.8517 230.058C94.9725 230.023 95.1023 230.036 95.2137 230.094C95.325 230.153 95.409 230.253 95.4476 230.373C95.4863 230.493 95.4766 230.623 95.4206 230.736L82.6953 254.825C82.6545 254.903 82.5933 254.967 82.5183 255.012C82.4433 255.058 82.3574 255.081 82.2699 255.081V255.081ZM121.459 255.081C121.359 255.081 121.262 255.05 121.181 254.992C121.099 254.934 121.038 254.853 121.005 254.758L112.874 231.659C112.853 231.599 112.844 231.536 112.847 231.472C112.851 231.409 112.867 231.347 112.894 231.29C112.921 231.233 112.96 231.182 113.007 231.14C113.054 231.097 113.109 231.065 113.169 231.044C113.228 231.023 113.292 231.014 113.355 231.017C113.418 231.021 113.48 231.037 113.537 231.064C113.594 231.091 113.645 231.13 113.687 231.177C113.73 231.224 113.762 231.279 113.783 231.339L121.915 254.44C121.941 254.513 121.95 254.591 121.939 254.667C121.929 254.744 121.9 254.817 121.855 254.88C121.81 254.943 121.751 254.995 121.682 255.03C121.613 255.065 121.537 255.083 121.459 255.082" fill="#740016"/>
<path d="M81.4034 253.3C82.35 251.721 121.297 252.649 124.333 253.3C127.367 253.949 129.753 262.405 129.97 266.958C130.186 271.512 129.97 295.144 129.97 295.144H86.8233C86.8233 295.144 80.1007 255.466 81.4034 253.3" fill="#6F5093"/>
<path d="M87.1552 267.476C87.0819 267.475 87.0096 267.458 86.9438 267.426C86.878 267.394 86.8204 267.347 86.7752 267.289C86.73 267.232 86.6985 267.164 86.6831 267.093C86.6676 267.021 86.6685 266.947 86.6858 266.876L95.2458 232.476C95.2608 232.414 95.2879 232.356 95.3254 232.305C95.3629 232.254 95.4102 232.211 95.4645 232.178C95.5188 232.145 95.579 232.124 95.6417 232.114C95.7044 232.105 95.7684 232.108 95.8299 232.124C95.9541 232.155 96.0609 232.235 96.1268 232.345C96.1928 232.454 96.2125 232.586 96.1818 232.71L87.6245 267.11C87.5981 267.215 87.5376 267.307 87.4526 267.374C87.3676 267.44 87.2629 267.476 87.1552 267.476ZM115.824 231.61C115.74 231.611 115.656 231.589 115.583 231.547C115.509 231.505 115.448 231.444 115.406 231.37C115.363 231.297 115.341 231.214 115.341 231.129C115.341 231.044 115.363 230.961 115.406 230.888L135.926 194.897C135.956 194.84 135.998 194.79 136.048 194.75C136.098 194.709 136.156 194.679 136.217 194.661C136.279 194.643 136.344 194.638 136.408 194.645C136.472 194.653 136.534 194.673 136.59 194.705C136.646 194.737 136.695 194.78 136.734 194.831C136.774 194.882 136.802 194.941 136.819 195.003C136.835 195.066 136.838 195.131 136.829 195.194C136.82 195.258 136.798 195.319 136.764 195.375L116.242 231.366C116.2 231.44 116.139 231.502 116.065 231.545C115.992 231.588 115.908 231.61 115.823 231.61" fill="#740016"/>
<path d="M130.058 280.726H124.548C124.548 280.726 122.814 253.841 124.332 253.3C125.85 252.756 129.94 258.094 130.683 266.548C130.832 275.653 130.056 280.726 130.056 280.726" fill="#8963AD"/>
<path d="M130.348 267.441C130.253 267.441 130.159 267.413 130.08 267.36C130 267.307 129.938 267.232 129.902 267.144L115.376 232.29C115.334 232.174 115.338 232.045 115.387 231.931C115.437 231.816 115.529 231.726 115.644 231.678C115.759 231.63 115.888 231.628 116.004 231.672C116.12 231.717 116.215 231.805 116.268 231.917L130.794 266.772C130.823 266.845 130.835 266.925 130.827 267.003C130.819 267.082 130.792 267.158 130.748 267.224C130.704 267.289 130.645 267.344 130.575 267.381C130.505 267.419 130.427 267.439 130.348 267.44" fill="#740016"/>
<path d="M86.6604 265.926C86.6604 265.926 82.1618 254.816 81.4031 253.3C80.6431 251.781 81.0164 288.693 81.2351 290.806C81.4564 292.921 86.1724 297.798 86.6617 297.798C87.1471 297.798 87.4711 267.924 86.6617 265.926" fill="#8963AD"/>
<path d="M118.695 231.499C118.695 232.761 117.571 233.785 116.185 233.785H95.1872C93.8006 233.785 92.6765 232.761 92.6765 231.499C92.6765 230.236 93.8005 229.211 95.1859 229.211H116.183C117.57 229.211 118.694 230.236 118.694 231.499" fill="#DD7300"/>
<path d="M188.362 32.5617C188.362 32.5617 223.537 59.7069 204.641 113.729C191.038 152.625 154.662 180.708 122.378 219.395H120.071C120.071 219.395 172.895 150.997 185.92 122.1C198.944 93.2042 201.387 64.3082 188.362 32.5617Z" fill="#FBDB65"/>
<path d="M164.554 18.0337C172.082 18.2377 196.57 28.0404 202.45 61.175C206.536 84.2149 202.45 111.536 171.676 153.156C164.268 163.173 124.058 213.095 121.31 219.403L115.205 219.395C115.205 219.395 168.247 139.503 178.188 97.8056C191.61 41.5057 164.554 18.0337 164.554 18.0337Z" fill="#FC8C00"/>
<path d="M141.966 8.14172C158.652 6.92039 180.63 18.035 188.363 50.4696C195.855 81.8962 175.984 125.977 157.024 156.696C141.584 181.711 117.75 219.372 117.75 219.372L110.83 219.393C110.83 219.393 142.678 143.264 154.276 89.8468C165.876 36.427 141.966 8.14172 141.966 8.14172" fill="#FBDB65"/>
<path d="M122.836 4.98836C137.183 0.104376 161.603 7.73505 166.487 47.4176C171.37 87.0975 153.666 128.612 142.372 153.644C131.079 178.673 112.763 219.395 112.763 219.395H106.811C106.811 219.395 128.127 83.0295 128.942 50.0616C129.755 17.0964 122.835 4.98836 122.835 4.98836H122.836ZM22.7979 32.5617C22.7979 32.5617 -12.3779 59.7069 6.51802 113.729C20.1233 152.625 56.4992 180.708 88.7818 219.395H91.0911C91.0911 219.395 38.2646 150.997 25.2406 122.1C12.2167 93.2042 9.77401 64.3082 22.7993 32.5617" fill="#FC8C00"/>
<path d="M46.6073 18.0337C39.078 18.2377 14.5901 28.0404 8.71143 61.175C4.62344 84.2149 8.71145 111.536 39.4847 153.156C46.8914 163.173 87.1033 213.095 89.8513 219.403L95.9553 219.395C95.9553 219.395 42.9141 139.503 32.9728 97.8056C19.5501 41.5057 46.6073 18.0337 46.6073 18.0337Z" fill="#FBDB65"/>
<path d="M69.1952 8.14172C52.5073 6.92039 30.5299 18.035 22.798 50.4696C15.3047 81.8962 35.1766 125.977 54.1366 156.696C69.5766 181.711 93.4112 219.372 93.4112 219.372L100.331 219.393C100.331 219.393 68.4832 143.264 56.8846 89.8468C45.2846 36.427 69.1952 8.14172 69.1952 8.14172" fill="#FC8C00"/>
<path d="M88.3231 4.98836C73.9765 0.104376 49.5579 7.73505 44.6739 47.4176C39.7899 87.0975 57.4939 128.612 68.7885 153.644C80.0818 178.673 98.3977 219.395 98.3977 219.395H104.35C104.35 219.395 83.0325 83.0295 82.2192 50.0616C81.4058 17.0964 88.3231 4.98836 88.3231 4.98836" fill="#FBDB65"/>
<path d="M106.41 4.52971C106.41 4.52971 118.697 -3.10095 130.128 3.98837C140.652 10.515 147.808 42.8256 144.896 74.8895C139.81 130.924 111.37 209.599 111.37 219.395C106.486 219.423 104.806 219.372 104.806 219.372C104.806 219.372 85.1206 17.8083 106.41 4.52971Z" fill="#FBDB65"/>
<path d="M105.375 4.83641C105.375 4.83641 94.7619 -2.50626 84.2166 3.98839C73.6727 10.4817 72.5927 45.2683 75.5047 77.3322C80.5913 133.365 102.975 209.599 102.975 219.393C107.859 219.423 107.709 219.372 107.709 219.372C107.709 219.372 122.105 18.0337 105.375 4.83506" fill="#FC8C00"/>
<path d="M89.3872 235.948C89.4485 233.626 90.1379 231.473 91.1832 229.421C91.7565 228.292 92.3939 227.197 93.1992 226.21C93.2872 226.104 93.2965 226.006 93.2805 225.874C93.1098 224.494 92.9605 223.113 93.0792 221.718C93.1272 221.138 93.2139 220.564 93.4099 220.01C93.8992 218.626 94.8912 218.086 96.3192 218.44C97.5019 218.733 98.5099 219.373 99.4859 220.073C100.101 220.513 100.69 220.988 101.242 221.506C101.298 221.564 101.367 221.606 101.444 221.631C101.52 221.655 101.602 221.661 101.681 221.646C104.335 221.348 106.992 221.193 109.659 221.486C110.502 221.571 111.34 221.705 112.167 221.889C112.262 221.919 112.363 221.923 112.461 221.9C112.558 221.878 112.647 221.83 112.719 221.761C113.914 220.761 115.17 219.852 116.616 219.244C117.174 219.008 117.748 218.841 118.363 218.83C119.306 218.817 119.962 219.254 120.359 220.09C120.654 220.708 120.766 221.37 120.806 222.049C120.895 223.537 120.726 225.008 120.47 226.469C120.455 226.542 120.456 226.618 120.474 226.69C120.492 226.763 120.526 226.83 120.574 226.888C122.04 228.897 123.255 231.037 123.958 233.44C125.271 237.941 124.323 241.933 121.231 245.433C120.092 246.72 118.778 247.802 117.365 248.772C117.275 248.834 117.118 248.85 117.135 249.02C116.961 249.246 116.696 249.35 116.458 249.477C114.795 250.356 113.016 250.864 111.162 251.129C110.363 251.244 109.562 251.288 108.755 251.326C107.441 251.397 106.124 251.315 104.828 251.084C102.651 250.683 100.591 249.802 98.7965 248.505C97.9539 247.905 97.1592 247.25 96.4752 246.47C96.1872 246.166 96.0112 245.782 95.7499 245.457C95.7579 245.169 95.9699 244.969 96.0699 244.72C96.1286 244.57 96.2059 244.426 96.2846 244.285C96.3392 244.189 96.3925 244.088 96.5259 244.085C96.6552 244.121 96.7219 244.23 96.8005 244.321C98.4565 246.254 100.566 247.448 102.99 248.137C104.598 248.585 106.271 248.749 107.935 248.622C111.018 248.406 113.791 247.366 116.136 245.31C116.923 244.622 117.603 243.833 118.131 242.921C118.575 242.408 118.803 241.782 119.039 241.161C119.414 240.186 119.582 239.166 119.61 238.133C119.639 236.942 119.387 235.761 118.875 234.685C117.923 232.637 116.531 230.956 114.634 229.712C114.039 229.324 113.38 229.069 112.723 228.812C111.558 228.358 110.368 227.994 109.127 227.817C107.391 227.578 105.624 227.69 103.932 228.146C102.03 228.646 100.231 229.386 98.6152 230.526C96.5592 231.976 95.2712 233.94 94.7619 236.404C94.5245 237.56 94.4286 238.728 94.5726 239.906C94.5832 239.998 94.6032 240.088 94.6299 240.176C94.4712 240.4 94.2018 240.449 93.9472 240.3C93.7312 240.173 93.6272 239.97 93.5486 239.74C93.2904 238.954 92.8919 238.221 92.3726 237.577C92.0742 237.215 91.7094 236.912 91.2978 236.686C91.1752 236.617 91.0312 236.569 90.9885 236.41C90.7672 234.522 90.9526 232.676 91.5659 230.926C91.5819 230.836 91.5139 230.884 91.5539 230.872C91.5699 230.868 91.5766 230.877 91.5699 230.898C91.3552 231.609 91.0806 232.304 90.8899 233.022C90.6379 233.972 90.4405 234.928 90.4045 235.914C90.4005 236.016 90.4019 236.118 90.3366 236.205C89.9899 236.229 89.6472 236.241 89.3872 235.949" fill="#8D735F"/>
<path d="M95.7792 245.465C95.8818 245.468 95.9698 245.524 95.9925 245.61C96.0831 245.929 96.3232 246.14 96.5125 246.384C96.5032 246.416 96.4992 246.446 96.5206 246.472C97.5059 247.632 98.4738 248.805 99.7725 249.65C100.902 250.382 102.127 250.874 103.419 251.214C104.825 251.576 106.261 251.804 107.71 251.893C110.195 252.069 112.688 251.693 115.01 250.792C115.804 250.491 116.563 250.106 117.275 249.644C117.402 249.56 117.518 249.45 117.683 249.442C118.801 250.234 119.829 251.144 120.75 252.158C120.875 252.294 120.996 252.433 121.118 252.57C121.211 252.65 121.304 252.73 121.358 252.844C121.994 254.14 122.291 255.473 121.836 256.901C121.466 258.07 120.716 258.873 119.579 259.32C119.216 259.461 118.858 259.608 118.486 259.724C118.16 259.826 117.851 259.945 117.612 260.202C117.14 259.416 116.69 258.616 116.083 257.922C115.922 257.736 115.75 257.562 115.584 257.382C115.451 257.24 115.291 257.182 115.116 257.273C114.908 257.38 114.896 257.566 114.938 257.776C115.162 258.894 115.363 260.018 115.604 261.133C115.975 262.836 116.227 264.562 116.635 266.257L116.815 266.997C116.762 267.046 116.695 267.077 116.623 267.084C116.39 267.104 116.159 267.16 115.923 267.156C114.036 267.112 112.15 267.218 110.264 267.226C109.04 267.233 107.818 267.29 106.594 267.28C106.44 267.271 106.286 267.297 106.144 267.357C105.744 267.164 105.358 267.248 104.977 267.418C104.101 267.405 103.226 267.372 102.35 267.449C101.811 267.497 101.268 267.462 100.727 267.462C99.1272 267.461 97.5272 267.546 95.9245 267.538C95.4085 267.536 94.8872 267.588 94.3646 267.585C94.2352 267.584 94.1005 267.592 93.9751 267.536C93.9178 267.506 93.8952 267.456 93.8899 267.396C93.9872 266.737 94.1685 266.094 94.2445 265.43C94.2645 265.249 94.2738 265.068 94.2805 264.884C94.4085 264.022 94.4339 263.15 94.4832 262.281C94.5765 261.968 94.4938 261.648 94.5232 261.33C94.4912 259.874 94.6285 258.418 94.5739 256.96C94.5712 256.869 94.5632 256.776 94.6125 256.692C94.6778 256.652 94.6632 256.585 94.6632 256.528C94.6725 255.712 94.6765 254.893 94.6925 254.077C94.6978 253.804 94.5298 253.712 94.3178 253.628C92.2405 252.806 90.3979 251.622 88.8366 250.018C88.3303 249.513 87.8789 248.956 87.4899 248.356C87.4739 248.289 87.5139 248.272 87.5672 248.266C87.6512 248.276 87.7166 248.326 87.7846 248.373C88.5366 248.9 89.3845 249.114 90.2912 249.125C90.8512 249.13 91.4112 249.152 91.9659 249.021C93.0459 248.764 93.8779 248.132 94.5632 247.288C94.9432 246.821 95.2472 246.301 95.5152 245.76C95.5725 245.644 95.5898 245.472 95.7792 245.465" fill="#8D735F"/>
<path d="M95.7792 245.465C95.4725 245.958 95.2418 246.492 94.9045 246.969C94.1538 248.026 93.2272 248.862 91.9178 249.1C90.5418 249.35 89.1765 249.313 87.9218 248.56C87.7938 248.482 87.6792 248.378 87.5578 248.286C87.4218 248.256 87.3938 248.102 87.2805 248.046C86.1512 246.7 85.1659 245.27 84.6432 243.566C84.1725 242.029 84.0472 240.481 84.6165 238.944C85.1352 237.549 85.9925 236.47 87.5098 236.068C88.0631 235.921 88.6232 235.941 89.1832 235.97C89.2538 235.974 89.3232 236.002 89.3872 235.949C89.6778 236.106 90.0125 236.1 90.3178 236.201C90.4507 236.192 90.5842 236.209 90.7105 236.251C90.8368 236.293 90.9535 236.36 91.0538 236.448C91.2898 236.626 91.5698 236.728 91.8045 236.914C92.7498 237.674 93.2712 238.7 93.6578 239.812C93.8245 240.289 94.1418 240.418 94.6125 240.198C94.9312 239.558 95.4325 239.13 96.1058 238.897C96.6285 238.846 97.0098 239.124 97.3325 239.473C97.8098 239.985 98.0218 240.593 97.8738 241.302C97.6565 242.354 97.1351 243.257 96.5125 244.112C96.2858 244.329 96.2112 244.636 96.0632 244.897C95.9565 245.081 95.8725 245.276 95.7792 245.465" fill="#9D9E9E"/>
<path d="M94.6739 257.017C94.684 256.905 94.6627 256.792 94.6126 256.692C92.8113 255.221 90.69 254.489 88.4166 253.984C88.666 254.356 88.8912 254.682 89.1072 255.016C89.3526 255.392 89.6046 255.765 89.7739 256.182C89.9019 256.489 89.8086 256.613 89.4806 256.552C89.2708 256.512 89.066 256.449 88.8699 256.365C88.1406 256.045 87.5206 255.562 86.9593 255.004C85.6526 253.706 84.7726 252.141 84.118 250.436C84.01 250.156 83.9086 249.872 83.7912 249.553C83.7432 249.654 83.7099 249.717 83.6819 249.78C82.5566 252.286 82.454 254.869 83.1113 257.506C83.1913 257.822 83.2606 258.142 83.3233 258.462C83.3673 258.685 83.254 258.762 83.042 258.722C82.826 258.682 82.6419 258.57 82.4646 258.452C81.8552 258.048 81.3313 257.549 80.838 257.012C80.7713 256.938 80.726 256.821 80.5873 256.822C80.5566 256.946 80.6473 257.02 80.6753 257.11C81.1646 258.745 81.9993 260.2 83.0086 261.56C84.2606 263.246 85.7646 264.676 87.4353 265.933C87.4686 265.958 87.5019 265.966 87.5326 265.996L87.5859 266.049L87.6113 266.07C87.6873 266.126 87.8166 266.174 87.806 266.27C87.91 266.377 88.0086 266.493 88.1126 266.6C88.7881 267.113 89.3585 267.751 89.7926 268.48C91.0385 268.696 92.3125 268.695 93.5579 268.476C93.8752 268.22 93.9046 267.853 93.9379 267.488V267.366C93.9499 267.173 93.7819 267.146 93.6659 267.082C93.5246 267.002 93.4046 266.921 93.4086 266.738C93.4152 266.41 93.3152 266.09 93.3419 265.762C93.3619 265.534 93.2619 265.373 93.0673 265.256C92.8126 265.106 92.5606 264.948 92.3046 264.802C92.1206 264.698 92.0806 264.57 92.1446 264.37C92.2939 263.914 92.4139 263.448 92.5686 262.993C92.6153 262.87 92.6316 262.737 92.6161 262.606C92.6005 262.475 92.5536 262.35 92.4793 262.241C92.146 261.702 91.8339 261.153 91.5059 260.61C91.4246 260.477 91.398 260.381 91.6113 260.39C91.878 260.404 92.1366 260.316 92.4033 260.326C92.6166 260.337 92.7099 260.222 92.7486 260.02C92.7979 259.75 92.8352 259.473 92.9152 259.212C93.0246 258.842 92.9366 258.561 92.646 258.312C92.4273 258.128 92.2166 257.916 92.1606 257.621C92.0265 256.93 91.9109 256.236 91.8139 255.538C91.8126 255.516 91.8326 255.501 91.8713 255.494C92.0286 255.529 92.1753 255.628 92.3379 255.676C92.7486 255.796 92.9753 256.052 92.986 256.489C93.0046 257.2 93.3459 257.694 93.9899 257.993C94.2139 258.098 94.2779 258.276 94.2112 258.526C94.0988 258.94 94.009 259.36 93.9419 259.784C93.8459 260.428 94.2432 260.882 94.5819 261.356C94.5846 261.36 94.6006 261.353 94.6113 261.352C94.6299 260.692 94.6153 260.032 94.6606 259.372C94.7126 258.59 94.6726 257.802 94.6739 257.017" fill="#735E50"/>
<path d="M117.611 260.201C117.674 259.912 117.918 259.841 118.147 259.758C118.77 259.533 119.401 259.332 119.994 259.032C121.13 258.458 121.69 257.478 121.903 256.282C122.134 254.994 121.807 253.8 121.165 252.682C121.145 252.646 121.134 252.608 121.118 252.569C121.921 252.862 122.641 253.309 123.325 253.812C124.965 255.018 126.161 256.541 126.591 258.576C126.81 259.602 126.79 260.622 126.394 261.616C125.861 262.944 124.683 263.384 123.399 262.733C123.07 262.565 122.773 262.346 122.478 262.128C122.099 261.849 121.735 261.928 121.509 262.337C120.858 263.513 119.329 263.63 118.545 262.544C118.041 261.846 117.781 261.04 117.611 260.201" fill="#9D9E9E"/>
<path d="M118.905 274.604C118.391 275.846 117.407 276.578 116.206 277.061C114.829 277.612 113.387 277.677 111.931 277.577C110.982 277.514 110.046 277.372 109.163 276.99C108.257 276.597 107.561 275.99 107.226 275.028C107.206 274.97 107.199 274.909 107.186 274.852C107.186 274.72 107.295 274.714 107.379 274.705C107.602 274.676 107.823 274.63 108.049 274.629C109.466 274.625 110.882 274.596 112.299 274.577C114.134 274.553 115.969 274.46 117.805 274.504C118.041 274.509 118.269 274.437 118.505 274.448C118.655 274.454 118.819 274.434 118.905 274.604V274.604ZM104.13 274.925C103.69 275.841 102.899 276.341 101.994 276.685C100.611 277.216 99.1673 277.272 97.714 277.149C96.5793 277.053 95.482 276.8 94.4633 276.265C93.9206 275.978 93.41 275.646 93.014 275.165C92.958 274.949 93.1314 274.949 93.25 274.946C93.618 274.941 93.982 274.866 94.3473 274.874C96.378 274.91 98.406 274.813 100.435 274.792C101.525 274.782 102.615 274.758 103.706 274.754C103.855 274.754 104.066 274.676 104.13 274.925Z" fill="#6C5A4B"/>
<path d="M93.5579 268.476C93.7553 268.173 93.7847 267.806 93.938 267.488C95.5566 267.482 97.1767 267.445 98.7953 267.405C99.946 267.378 101.098 267.432 102.246 267.352C103.039 267.298 103.831 267.322 104.625 267.304C104.753 267.301 104.898 267.265 104.977 267.417C104.527 267.834 104.377 268.392 104.239 268.958C104.122 269.068 103.973 269.058 103.834 269.058C102.099 269.032 100.367 269.114 98.6339 269.138C97.4019 269.154 96.1673 269.158 94.9353 269.188C94.57 269.197 94.2047 269.266 93.8367 269.238C93.6633 269.225 93.4859 269.229 93.3633 269.076C93.3993 268.866 93.5553 268.697 93.5579 268.476ZM106.145 267.357C106.153 267.264 106.198 267.204 106.291 267.186C106.342 267.18 106.393 267.178 106.445 267.181C108.109 267.228 109.771 267.13 111.434 267.109C112.965 267.092 114.495 267.054 116.026 267.054C116.287 267.054 116.549 266.969 116.815 266.997L117.325 268.404C117.361 268.506 117.431 268.598 117.426 268.716C117.298 268.83 117.141 268.809 116.99 268.812C115.51 268.834 114.03 268.852 112.553 268.892C111.39 268.922 110.227 268.901 109.063 268.941C108.557 268.958 108.047 269.012 107.537 268.997C107.383 268.998 107.235 269.055 107.119 269.157C107.046 268.906 106.978 268.653 106.895 268.402C106.757 267.976 106.518 267.616 106.145 267.357" fill="#8B715D"/>
<path d="M117.683 249.442C117.027 249.976 116.27 250.332 115.51 250.673C114.23 251.248 112.886 251.598 111.506 251.821C111.038 251.898 110.559 251.921 110.086 251.968C109.651 252.015 109.213 252.035 108.775 252.029C106.353 251.965 103.982 251.621 101.709 250.742C99.9886 250.078 98.5579 249.013 97.3846 247.596C97.0993 247.252 96.8193 246.905 96.5353 246.56C96.4913 246.506 96.4233 246.456 96.514 246.386C97.154 247.134 97.9086 247.752 98.6966 248.333C100.447 249.626 102.458 250.523 104.59 250.961C105.404 251.139 106.235 251.232 107.069 251.241C107.625 251.241 108.179 251.26 108.739 251.248C110.726 251.197 112.657 250.872 114.537 250.226C115.387 249.933 116.199 249.556 116.969 249.088C117.019 249.058 117.079 249.041 117.135 249.021C117.335 249.137 117.513 249.285 117.682 249.442" fill="#7F6555"/>
<path d="M93.362 269.076C93.8553 269.186 94.3513 269.092 94.8459 269.096C96.5926 269.108 98.3339 269.014 100.078 269.021C101.466 269.026 102.851 268.914 104.238 268.96C104.177 269.489 104.174 270.021 104.169 270.552C104.125 270.549 104.082 270.53 104.075 270.489C104.022 270.129 103.762 270.136 103.502 270.174C103.116 270.221 102.727 270.237 102.339 270.221C100.473 270.194 98.6086 270.274 96.7419 270.305C95.5299 270.324 94.3166 270.318 93.1033 270.345C92.9926 270.349 92.8793 270.368 92.7739 270.31C92.9686 269.897 93.166 269.488 93.362 269.076" fill="#886E5B"/>
<path d="M92.774 270.309C92.874 270.245 92.986 270.244 93.0994 270.246C95.242 270.29 97.3833 270.196 99.5233 270.166C100.717 270.149 101.91 270.156 103.101 270.121C103.334 270.114 103.562 270.062 103.798 270.056C104.05 270.048 104.161 270.122 104.122 270.381C104.113 270.442 104.121 270.504 104.17 270.552L104.231 271.348C104.007 271.198 103.754 271.204 103.499 271.202C101.714 271.189 99.93 271.26 98.1447 271.285C97.034 271.301 95.9207 271.285 94.8114 271.334C94.1487 271.364 93.4874 271.396 92.8247 271.388C92.6434 271.382 92.4514 271.401 92.3247 271.224C92.43 270.896 92.5967 270.601 92.774 270.309" fill="#856C59"/>
<path d="M107.121 269.157C107.102 268.962 107.182 268.898 107.383 268.893C108.818 268.858 110.257 268.866 111.69 268.821C112.922 268.784 114.154 268.83 115.383 268.76C116.066 268.721 116.746 268.738 117.426 268.714C117.589 269.041 117.749 269.368 117.91 269.696C117.821 269.84 117.67 269.834 117.533 269.856C116.851 269.958 116.166 269.912 115.482 269.913C113.881 269.917 112.279 269.973 110.678 269.996C109.71 270.009 108.741 270.025 107.771 270.036C107.553 270.037 107.371 270.082 107.242 270.264L107.121 269.157" fill="#876E5B"/>
<path d="M92.3247 271.224C92.9914 271.356 93.6634 271.288 94.3341 271.264C94.4514 271.26 94.574 271.229 94.694 271.229C95.582 271.229 96.4727 271.272 97.3567 271.218C98.6007 271.144 99.846 271.232 101.085 271.153C102.013 271.096 102.938 271.144 103.863 271.101C104.071 271.09 104.185 271.154 104.231 271.349L104.298 271.905C104.222 271.981 104.121 271.998 104.019 272.02C103.88 272.05 103.737 272.064 103.594 272.062C101.799 272.02 100.007 272.114 98.2127 272.136C96.7554 272.152 95.2967 272.177 93.8407 272.196C93.3527 272.204 92.8647 272.253 92.3754 272.249C92.2634 272.248 92.15 272.265 92.0447 272.209C92.0753 271.862 92.1647 271.533 92.3247 271.224" fill="#816957"/>
<path d="M107.014 273.498C106.987 273.249 107.034 273.005 107.075 272.761C107.126 272.654 107.221 272.626 107.326 272.613C107.398 272.604 107.47 272.601 107.542 272.602C109.594 272.645 111.646 272.548 113.698 272.525C114.911 272.509 116.127 272.512 117.341 272.47C117.81 272.456 118.277 272.409 118.747 272.418C118.89 272.421 119.037 272.416 119.155 272.516C119.247 272.756 119.225 273.005 119.209 273.253C119.131 273.329 119.03 273.349 118.929 273.368C118.788 273.399 118.645 273.414 118.502 273.413C116.553 273.372 114.603 273.469 112.653 273.489C111.369 273.504 110.082 273.512 108.795 273.546C108.338 273.558 107.879 273.606 107.421 273.596C107.278 273.593 107.13 273.612 107.014 273.498" fill="#796352"/>
<path d="M119.155 272.516C117.583 272.542 116.011 272.554 114.441 272.598C113.317 272.63 112.193 272.574 111.074 272.65C109.829 272.734 108.583 272.674 107.341 272.701C107.248 272.695 107.155 272.717 107.074 272.762C107.114 272.496 107.15 272.229 107.187 271.966C107.305 271.86 107.454 271.868 107.594 271.868C109.215 271.878 110.838 271.814 112.461 271.788C113.682 271.768 114.907 271.793 116.129 271.73C116.915 271.69 117.698 271.696 118.483 271.684C118.646 271.681 118.813 271.674 118.954 271.781C119.071 272.009 119.139 272.259 119.155 272.514" fill="#7E6755"/>
<path d="M107.242 270.264C107.218 270.025 107.299 269.925 107.564 269.936C108.991 269.99 110.416 269.876 111.843 269.88C113.563 269.884 115.286 269.781 117.008 269.813C117.308 269.817 117.608 269.736 117.91 269.696L118.347 270.554C118.275 270.654 118.166 270.68 118.054 270.697C117.973 270.71 117.891 270.715 117.81 270.713C115.88 270.674 113.955 270.772 112.028 270.793C110.764 270.804 109.499 270.826 108.235 270.84C108.072 270.841 107.913 270.881 107.75 270.889C107.577 270.897 107.399 270.925 107.251 270.798L107.242 270.265" fill="#866D5A"/>
<path d="M118.905 274.604C118.714 274.497 118.498 274.516 118.307 274.553C117.951 274.624 117.597 274.606 117.241 274.6C115.326 274.576 113.411 274.654 111.494 274.685C110.325 274.704 109.154 274.685 107.985 274.733C107.718 274.744 107.441 274.74 107.185 274.853C107.087 274.644 107.051 274.424 107.058 274.194C107.031 274.134 107.025 274.077 107.077 274.025C107.194 273.945 107.329 273.95 107.461 273.953C109.433 273.993 111.401 273.894 113.37 273.873C114.594 273.861 115.819 273.862 117.043 273.817C117.593 273.798 118.143 273.764 118.694 273.769C118.834 273.77 118.983 273.753 119.098 273.869C119.113 274.128 119.046 274.385 118.906 274.604" fill="#715D4E"/>
<path d="M104.478 273.07C104.494 273.38 104.531 273.692 104.431 273.994C104.306 273.82 104.131 273.772 103.925 273.78C102.447 273.833 100.966 273.82 99.4899 273.86C98.7259 273.881 97.9605 273.893 97.1965 273.902C95.7179 273.918 94.2392 274.001 92.7606 273.965C92.5939 273.961 92.4406 274.005 92.2819 274.048C92.1611 273.819 92.0813 273.571 92.0459 273.314C92.1419 273.217 92.2686 273.228 92.3899 273.217C93.4579 273.124 94.5312 273.19 95.6006 273.148C96.9272 273.092 98.2539 273.144 99.5779 273.078C100.618 273.029 101.659 273.046 102.698 273.037C103.158 273.032 103.613 272.937 104.073 272.97C104.214 272.982 104.362 272.957 104.478 273.07" fill="#786252"/>
<path d="M104.13 274.925C104.049 274.81 103.927 274.849 103.821 274.849C102.931 274.846 102.041 274.8 101.157 274.86C99.9927 274.94 98.8287 274.84 97.6714 274.921C96.5194 275.002 95.3687 274.928 94.218 274.977C93.874 274.992 93.5314 275.045 93.1847 275.032C93.0901 275.029 93.0247 275.064 93.0141 275.165C92.7971 274.978 92.6221 274.748 92.5007 274.489C92.6274 274.309 92.8207 274.345 93.0007 274.326C93.8541 274.233 94.71 274.35 95.5607 274.317C96.0674 274.297 96.5781 274.293 97.0834 274.225C97.2341 274.194 97.3873 274.198 97.5407 274.2C99.4033 274.23 101.267 274.094 103.13 274.137C103.427 274.144 103.717 274.068 104.014 274.081C104.134 274.088 104.262 274.07 104.357 274.174C104.403 274.461 104.267 274.694 104.13 274.925" fill="#715D4E"/>
<path d="M92.0445 272.209C92.115 272.166 92.1968 272.145 92.2792 272.149C93.0739 272.192 93.8659 272.069 94.6619 272.084C96.5099 272.12 98.3566 272.036 100.205 272.006C101.357 271.986 102.511 271.994 103.662 271.968C103.877 271.962 104.079 271.868 104.297 271.904L104.417 272.576C104.353 272.609 104.28 272.623 104.209 272.616C103.005 272.581 101.802 272.674 100.599 272.672C98.7925 272.666 96.9872 272.742 95.1819 272.754C94.2859 272.761 93.3872 272.784 92.4899 272.801C92.3606 272.802 92.2232 272.784 92.1139 272.889C92.0902 272.919 92.0589 272.943 92.0232 272.957C91.9472 272.705 92.0072 272.458 92.0445 272.21" fill="#7F6755"/>
<path d="M107.251 270.8C108.545 270.71 109.842 270.793 111.135 270.724C112.258 270.662 113.382 270.744 114.499 270.668C115.653 270.59 116.806 270.641 117.955 270.613C118.089 270.61 118.217 270.576 118.346 270.554C118.455 270.704 118.54 270.87 118.597 271.046C118.451 271.142 118.285 271.145 118.122 271.14C116.417 271.102 114.714 271.206 113.007 271.214C111.589 271.22 110.169 271.276 108.75 271.273C108.385 271.272 108.018 271.346 107.65 271.326C107.506 271.321 107.361 271.33 107.242 271.229L107.251 270.8Z" fill="#836A58"/>
<path d="M118.954 271.781C118.25 271.781 117.54 271.741 116.842 271.79C115.618 271.877 114.394 271.776 113.175 271.856C112.063 271.926 110.951 271.838 109.844 271.914C108.958 271.976 108.074 271.946 107.188 271.966L107.2 271.717C107.235 271.636 107.194 271.517 107.316 271.476C107.404 271.446 107.496 271.434 107.588 271.44C108.782 271.466 109.974 271.378 111.166 271.381C112.991 271.385 114.815 271.292 116.64 271.302C117.218 271.305 117.8 271.254 118.38 271.253C118.492 271.253 118.606 271.236 118.711 271.293C118.731 271.485 118.934 271.588 118.954 271.781Z" fill="#806956"/>
<path d="M104.478 273.07C103.022 273.146 101.56 273.081 100.107 273.148C98.9872 273.2 97.8632 273.126 96.7472 273.201C95.5539 273.281 94.3619 273.21 93.1712 273.265C92.7979 273.278 92.4219 273.316 92.0459 273.316L92.0232 272.956L92.0419 272.941C92.1499 272.842 92.2859 272.846 92.4179 272.85C94.0632 272.89 95.7059 272.788 97.3512 272.776C98.8006 272.766 100.251 272.748 101.7 272.709C102.466 272.69 103.23 272.673 103.997 272.665C104.15 272.662 104.306 272.654 104.436 272.758C104.498 272.857 104.486 272.964 104.478 273.07" fill="#7C6554"/>
<path d="M119.097 273.869C117.443 273.862 115.791 273.922 114.137 273.949C113.251 273.962 112.363 273.946 111.477 273.992C110.01 274.066 108.539 274.045 107.07 274.053C107.023 273.762 107.07 273.694 107.325 273.656C107.375 273.648 107.427 273.645 107.478 273.646C108.673 273.686 109.865 273.57 111.059 273.582C112.783 273.598 114.507 273.516 116.233 273.505C117.035 273.5 117.843 273.472 118.649 273.461C118.761 273.458 118.875 273.457 118.985 273.478C119.145 273.509 119.225 273.59 119.154 273.758C119.167 273.812 119.155 273.853 119.097 273.869" fill="#766050"/>
<path d="M118.711 271.293C118.641 271.335 118.56 271.355 118.478 271.353C117.682 271.309 116.891 271.425 116.095 271.413C114.166 271.384 112.239 271.472 110.31 271.493C109.292 271.506 108.272 271.505 107.252 271.537C107.196 271.45 107.214 271.361 107.242 271.27C107.23 271.257 107.23 271.244 107.242 271.229C108.698 271.149 110.157 271.22 111.611 271.153C112.772 271.098 113.935 271.18 115.091 271.096C116.242 271.008 117.391 271.101 118.539 271.026C118.558 271.025 118.576 271.04 118.596 271.045C118.66 271.116 118.711 271.192 118.711 271.293Z" fill="#836A58"/>
<path d="M92.282 274.048C92.2914 273.942 92.3446 273.878 92.454 273.87C92.5046 273.866 92.5553 273.866 92.606 273.866C94.7073 273.846 96.81 273.864 98.9086 273.79C100.081 273.748 101.254 273.801 102.422 273.732C102.982 273.698 103.541 273.708 104.099 273.678C104.349 273.665 104.467 273.736 104.431 273.994V273.992C104.33 274.077 104.207 274.081 104.085 274.08C103.523 274.077 102.963 274.089 102.402 274.093C100.853 274.098 99.3033 274.144 97.754 274.166C96.898 274.18 96.0407 274.2 95.186 274.193C94.3687 274.186 93.558 274.301 92.742 274.26C92.5993 274.253 92.454 274.274 92.3287 274.18C92.27 274.15 92.282 274.097 92.282 274.048" fill="#756050"/>
<path d="M119.154 273.758C119.167 273.533 119.007 273.556 118.863 273.561C118.016 273.585 117.174 273.549 116.326 273.608C115.44 273.669 114.546 273.581 113.659 273.63C112.394 273.701 111.126 273.625 109.864 273.697C109.038 273.742 108.214 273.724 107.389 273.74C107.162 273.744 107.028 273.797 107.07 274.053L107.058 274.194C106.972 273.968 107.007 273.732 107.014 273.498C108.565 273.472 110.115 273.465 111.663 273.418C112.826 273.384 113.99 273.445 115.147 273.365C116.3 273.285 117.454 273.344 118.603 273.316C118.806 273.31 119 273.218 119.207 273.253C119.215 273.424 119.236 273.597 119.154 273.76" fill="#766050"/>
<path d="M104.438 272.758C102.578 272.74 100.722 272.814 98.8646 272.842C97.6819 272.862 96.4952 272.818 95.3152 272.897C94.2232 272.97 93.1326 272.92 92.0419 272.941C92.0166 272.778 92.0646 272.68 92.2499 272.701C92.2713 272.704 92.2926 272.701 92.3126 272.701C94.1899 272.73 96.0686 272.648 97.9446 272.621C99.1379 272.604 100.334 272.644 101.523 272.564C102.371 272.51 103.216 272.545 104.062 272.517C104.183 272.513 104.307 272.504 104.417 272.576L104.436 272.758" fill="#7C6554"/>
<path d="M92.3301 274.178C93.9207 274.165 95.5114 274.133 97.1007 274.094C98.3021 274.064 99.5087 274.118 100.706 274.04C101.95 273.958 103.191 274.026 104.431 273.992C104.459 274.074 104.381 274.112 104.357 274.174C103.045 274.261 101.73 274.182 100.421 274.25C99.3021 274.309 98.1847 274.264 97.0661 274.297C96.3821 274.256 95.6967 274.261 95.0141 274.268C94.5141 274.273 94.0167 274.325 93.5181 274.353C93.3101 274.365 93.1101 274.321 92.9061 274.322C92.7531 274.313 92.6006 274.348 92.4661 274.421L92.3301 274.178" fill="#746050"/>
<path d="M92.4646 274.421C92.4779 274.256 92.5926 274.246 92.7246 274.232C93.0126 274.202 93.2873 274.322 93.5727 274.296C94.4793 274.218 95.3859 274.133 96.3006 274.172C96.5619 274.184 96.818 274.218 97.066 274.297C97.0327 274.317 96.998 274.35 96.9633 274.35C96.15 274.362 95.3326 274.51 94.5273 274.401C93.9393 274.321 93.374 274.468 92.7966 274.425C92.7006 274.417 92.6007 274.465 92.5007 274.49C92.4899 274.467 92.4783 274.444 92.466 274.421" fill="#745F50"/>
<path d="M87.2805 248.045C87.4139 248.076 87.4885 248.178 87.5579 248.286L87.4912 248.354C87.3845 248.276 87.3379 248.156 87.2805 248.045Z" fill="#A09085"/>
<path d="M107.243 271.27L107.254 271.537C107.246 271.6 107.262 271.67 107.201 271.717C107.197 271.566 107.181 271.414 107.243 271.27" fill="#836A58"/>
<path d="M96.5127 244.112C96.6233 243.78 96.8487 243.512 97.0167 243.212C97.41 242.509 97.7926 241.792 97.8433 240.973C97.8833 240.324 97.5954 239.773 97.0954 239.348C96.7994 239.097 96.4727 238.925 96.0674 238.962C95.954 238.772 95.9953 238.561 96.01 238.362C96.0407 237.956 96.1114 237.552 96.2434 237.162C96.3181 236.938 96.414 236.724 96.5807 236.549C96.8607 236.256 97.0901 236.257 97.3474 236.561C97.5874 236.845 97.8634 237.085 98.174 237.285C98.274 237.35 98.386 237.452 98.5074 237.388C98.6247 237.325 98.578 237.184 98.5767 237.077C98.5533 236.31 98.6213 235.544 98.7793 234.793C98.93 234.104 99.2114 233.482 99.7154 232.964C100.009 232.661 100.286 232.621 100.673 232.765C102.139 233.312 103.635 233.764 105.177 234.05C105.719 234.15 106.263 234.234 106.819 234.22C107.026 234.214 107.229 234.196 107.427 234.146C107.614 234.1 107.873 234.072 107.898 233.866C107.923 233.662 107.651 233.669 107.506 233.6C106.942 233.33 106.395 233.03 105.906 232.641C105.611 232.409 105.378 232.13 105.301 231.748C105.258 231.532 105.337 231.39 105.535 231.306C105.698 231.236 105.869 231.218 106.042 231.21C107.574 231.14 108.935 231.638 110.21 232.434C111.553 233.276 112.529 234.452 113.263 235.84C113.338 235.977 113.365 236.193 113.561 236.194C113.765 236.194 113.866 236.004 113.954 235.845C114.253 235.309 114.401 234.728 114.465 234.122C114.482 233.96 114.503 233.798 114.545 233.64C114.577 233.529 114.622 233.424 114.751 233.396C114.889 233.364 114.987 233.436 115.069 233.536C115.219 233.72 115.325 233.93 115.418 234.146C115.774 234.984 116.077 235.841 116.342 236.712C116.515 237.289 116.694 237.865 116.855 238.446C116.927 238.702 116.999 238.726 117.215 238.569C117.426 238.417 117.595 238.225 117.758 238.028C117.827 237.941 117.907 237.83 118.031 237.864C118.149 237.897 118.189 238.025 118.207 238.134C118.261 238.457 118.311 238.78 118.313 239.108C118.315 239.996 118.329 240.886 118.306 241.774C118.293 242.166 118.309 242.57 118.169 242.95C118.009 243.404 117.694 243.756 117.395 244.112C115.449 246.429 112.935 247.774 110.007 248.417C108.63 248.715 107.217 248.81 105.813 248.7C102.97 248.493 100.381 247.568 98.1434 245.762C97.5414 245.273 96.9946 244.72 96.5127 244.112Z" fill="#D0B089"/>
<path d="M118.168 242.95C118.224 241.705 118.258 240.46 118.228 239.212C118.223 238.845 118.187 238.478 118.122 238.117C118.107 238.036 118.1 237.928 118.022 237.906C117.928 237.88 117.894 237.986 117.847 238.05C117.666 238.299 117.445 238.517 117.194 238.694C116.996 238.83 116.879 238.854 116.796 238.556C116.426 237.229 116.034 235.909 115.53 234.625C115.412 234.298 115.262 233.984 115.083 233.686C115.009 233.57 114.943 233.398 114.771 233.438C114.623 233.474 114.621 233.641 114.601 233.769C114.521 234.273 114.478 234.782 114.304 235.269C114.187 235.597 114.063 235.922 113.811 236.176C113.582 236.408 113.431 236.376 113.286 236.082C112.115 233.722 110.306 232.129 107.73 231.454C107.127 231.29 106.499 231.236 105.876 231.294C105.343 231.35 105.226 231.588 105.499 232.057C105.672 232.354 105.93 232.572 106.206 232.769C106.736 233.134 107.306 233.438 107.904 233.676C108.151 233.781 108.109 233.874 107.945 234.005C107.658 234.234 107.312 234.284 106.964 234.297C105.89 234.337 104.855 234.097 103.824 233.838C102.687 233.549 101.566 233.198 100.47 232.78C100.243 232.696 100.091 232.734 99.9191 232.882C99.2098 233.493 98.9352 234.314 98.7845 235.197C98.6736 235.893 98.6356 236.6 98.6712 237.304C98.6818 237.556 98.5912 237.584 98.3885 237.496C97.9339 237.3 97.5979 236.957 97.2752 236.6C97.0272 236.324 96.8912 236.314 96.6405 236.592C96.3152 236.952 96.2378 237.412 96.1552 237.864C96.0917 238.226 96.0623 238.594 96.0672 238.962C95.4405 239.206 95.0245 239.7 94.6125 240.198C94.5032 240.182 94.4991 240.1 94.4925 240.016C94.2351 237.06 94.8419 234.349 96.8032 232.04C97.5978 231.104 98.5618 230.362 99.6365 229.776C101.459 228.782 103.382 228.056 105.445 227.749C107.701 227.416 109.898 227.685 112.031 228.472C113.069 228.853 114.115 229.208 115.018 229.87C117.202 231.477 118.776 233.524 119.463 236.173C119.948 238.046 119.654 239.876 118.942 241.65C118.806 242.003 118.635 242.342 118.432 242.661C118.362 242.773 118.294 242.888 118.168 242.95" fill="#222120"/>
<path d="M120.191 223.861C120.24 224.533 120.106 225.258 119.876 225.97C119.554 226.97 118.754 227.337 117.864 227.233C116.762 227.105 115.884 226.505 115.184 225.673C114.642 225.029 114.644 224.27 114.947 223.516C115.228 222.82 115.654 222.205 116.175 221.669C116.588 221.249 116.95 220.756 117.483 220.482C118.5 219.958 119.132 220.136 119.696 221.173C120.138 221.984 120.212 222.876 120.191 223.861ZM96.1512 226.754C94.8978 226.754 94.2725 226.285 94.0152 225.37C93.8266 224.715 93.742 224.035 93.7645 223.353C93.8072 222.38 93.9259 221.414 94.4312 220.54C95.0539 219.46 96.1379 219.566 96.8579 220.208C97.6245 220.893 98.3338 221.648 98.8005 222.581C99.2218 223.422 99.4938 224.31 98.8418 225.141C98.0912 226.097 97.1045 226.689 96.1512 226.754" fill="#7E6555"/>
<path d="M91.0539 236.448L90.3179 236.2C90.3365 234.276 90.8792 232.477 91.6632 230.74L91.3325 232.025C91.0179 233.257 90.9552 234.516 90.9992 235.781C91.0072 236.002 91.0712 236.222 91.0539 236.448Z" fill="#7F6555"/>
<path d="M106.155 252.704C107.25 252.678 108.25 252.824 109.198 253.25C110.482 253.828 111.131 254.888 111.417 256.213C111.605 257.102 111.664 258.014 111.594 258.92C111.445 260.994 110.621 262.733 108.807 263.854C107.263 264.81 105.627 264.886 104.017 263.994C102.285 263.037 101.357 261.509 101.123 259.574C100.925 257.966 101.054 256.374 101.777 254.894C102.366 253.684 103.399 253.056 104.701 252.822C105.203 252.732 105.707 252.677 106.155 252.704" fill="#805D32"/>
<path d="M93.9379 267.365C93.9326 267.357 93.9299 267.341 93.9246 267.338C93.1912 267.092 93.2618 266.462 93.2738 265.894C93.2805 265.558 93.1632 265.361 92.8739 265.234C92.8072 265.208 92.7539 265.158 92.6925 265.118C92.4552 264.968 92.0765 264.897 92.0165 264.645C91.9579 264.405 92.1406 264.106 92.2219 263.833C92.2553 263.716 92.2792 263.59 92.3392 263.486C92.7952 262.689 92.3152 262.088 91.9298 261.464C91.7058 261.104 91.4899 260.734 91.2312 260.308C91.6552 260.348 92.0152 260.238 92.3859 260.252C92.5539 260.257 92.6352 260.224 92.6632 260.028C92.7126 259.668 92.8059 259.31 92.8859 258.953C92.9286 258.761 92.8459 258.628 92.7126 258.497C92.4472 258.233 92.1326 258.001 92.0632 257.6C91.9432 256.9 91.8339 256.2 91.7086 255.501C91.6752 255.314 91.7486 255.33 91.8686 255.381C92.1859 255.518 92.5019 255.661 92.8206 255.796C92.9166 255.837 92.9472 255.909 92.9672 256.006C93.0392 256.386 93.1326 256.761 93.1952 257.141C93.204 257.221 93.2316 257.299 93.2759 257.366C93.3201 257.434 93.3798 257.49 93.4499 257.53C93.6845 257.673 93.9072 257.837 94.1365 257.986C94.3059 258.097 94.3792 258.213 94.3166 258.441C94.1846 258.93 94.0992 259.432 93.9912 259.928C93.9739 260.008 93.9392 260.077 93.9859 260.162C94.2019 260.554 94.3552 260.978 94.6125 261.35C94.5779 261.658 94.6845 261.973 94.5512 262.274C94.5272 261.821 94.1726 261.764 93.8406 261.685C93.6726 261.645 93.5152 261.574 93.3072 261.534C93.4979 261.868 93.7032 262.157 93.8939 262.454C93.9551 262.542 93.9939 262.643 94.0069 262.748C94.0199 262.854 94.0068 262.962 93.9686 263.061C93.8859 263.302 93.8112 263.548 93.7299 263.788C93.6552 264.006 93.6925 264.176 93.8659 264.337C94.0525 264.51 94.2525 264.673 94.3659 264.91C94.3227 265.742 94.1795 266.566 93.9392 267.364" fill="#7E6555"/>
<path d="M94.366 264.91L93.662 264.237C93.5754 264.157 93.5661 264.074 93.6087 263.964C93.6754 263.772 93.694 263.558 93.7874 263.384C94.034 262.928 93.9207 262.544 93.6221 262.162C93.4366 261.933 93.284 261.679 93.1687 261.408C93.6114 261.538 94.0314 261.64 94.4367 261.788C94.6673 261.872 94.5047 262.112 94.5513 262.274C94.557 263.156 94.4951 264.038 94.366 264.91Z" fill="#735E50"/>
<path d="M89.4846 256.814H89.6499C90.3126 256.814 90.3059 256.812 90.1792 257.45C90.0366 258.166 89.9046 258.885 89.7726 259.602C89.7392 259.773 89.8059 259.914 89.9033 260.057C90.3886 260.764 90.8593 261.476 91.3473 262.178C91.4846 262.376 91.4686 262.46 91.2273 262.514C90.9379 262.578 90.6619 262.689 90.3739 262.749C90.1539 262.794 90.2099 262.861 90.3139 262.977C90.6073 263.302 90.8872 263.64 91.1832 263.96C91.2792 264.062 91.254 264.122 91.1873 264.217C90.95 264.56 90.7219 264.91 90.4806 265.249C90.4046 265.356 90.3979 265.422 90.4699 265.542C90.9339 266.32 91.3859 267.106 91.8352 267.893C91.8859 267.982 92.0086 268.09 91.9206 268.189C91.8486 268.27 91.7072 268.222 91.5966 268.21C91.0832 268.153 90.5699 268.082 90.0566 268.046C89.8566 268.033 89.7593 267.956 89.7099 267.776C89.4739 266.922 89.2379 266.07 88.9979 265.22C88.9579 265.068 88.9686 264.953 89.0752 264.826C89.2779 264.586 89.4459 264.314 89.6552 264.08C89.8339 263.88 89.866 263.716 89.726 263.464C89.3073 262.717 88.8326 262.006 88.358 261.293C88.3113 261.222 88.2072 261.154 88.2526 261.054C88.3072 260.934 88.4339 260.992 88.5272 260.988C88.7406 260.974 89.0419 261.061 89.1339 260.892C89.2286 260.718 88.9606 260.537 88.854 260.36C88.6984 260.098 88.5292 259.844 88.3473 259.6C88.2273 259.437 88.2153 259.277 88.3699 259.169C88.9406 258.773 88.9606 258.325 88.5739 257.784C88.4286 257.58 88.3606 257.322 88.2473 257.094C88.1753 256.949 88.1726 256.857 88.3699 256.874C88.7699 256.91 89.1579 256.752 89.4846 256.813" fill="#7E6555"/>
<path d="M86.0939 254.768C86.7112 255.449 87.2738 256.074 87.8418 256.696C87.9258 256.789 87.8685 256.836 87.8111 256.898C87.5538 257.173 87.3098 257.462 87.0392 257.722C86.8578 257.897 86.7992 258.056 86.8698 258.313C87.0925 259.134 87.2645 259.97 87.4099 260.81C87.4232 260.88 87.4632 260.962 87.3938 261.008C87.3178 261.058 87.2658 260.968 87.2111 260.932C87.0325 260.814 86.8591 260.692 86.6831 260.569C86.6431 260.54 86.5939 260.492 86.5525 260.534C86.5232 260.564 86.5205 260.629 86.5258 260.676C86.5752 261.097 86.6245 261.518 86.6831 261.94C86.6991 262.053 86.6459 262.105 86.5632 262.158C86.3992 262.262 86.2498 262.396 86.0778 262.478C85.8485 262.592 85.8671 262.721 85.9711 262.914C86.2605 263.45 86.5338 263.994 86.7685 264.578C86.4285 264.301 86.0885 264.025 85.7499 263.746C85.2965 263.373 84.8472 262.99 84.3899 262.622C84.2179 262.485 84.1538 262.37 84.3072 262.172C84.5618 261.842 84.7658 261.469 85.0405 261.16C85.2805 260.889 85.2405 260.613 85.1965 260.312C85.1218 259.792 85.0405 259.272 84.9859 258.746C84.9499 258.41 84.9765 258.406 85.2832 258.526C85.5538 258.633 85.8298 258.726 86.1685 258.846L85.1831 256.568H85.8378C86.2205 256.568 86.2605 256.561 86.1952 256.177C86.1339 255.813 86.2005 255.444 86.0965 255.086C86.0751 255.012 86.0939 254.926 86.0939 254.768" fill="#7F6555"/>
<path d="M99.7524 241.532C99.7524 240.893 99.8871 240.38 100.256 239.948C100.736 239.388 101.416 239.433 101.824 240.046C102.331 240.804 102.232 242.096 101.62 242.768C101.135 243.301 100.468 243.249 100.074 242.645C99.8564 242.315 99.7448 241.927 99.7538 241.532H99.7524ZM113.396 242.044C113.396 242.604 113.267 243.12 112.894 243.548C112.392 244.122 111.72 244.068 111.311 243.429C110.828 242.682 110.922 241.425 111.507 240.756C111.992 240.2 112.664 240.24 113.078 240.85C113.288 241.165 113.395 241.564 113.396 242.044" fill="#222120"/>
<path d="M130.535 297.8C129.891 298.938 87.7687 298.66 86.67 297.8C85.57 296.94 85.354 267.717 86.67 265.928C87.9847 264.14 129.862 265.234 130.86 265.884C131.858 266.536 131.181 296.661 130.535 297.8" fill="#A77BCA"/>
</svg>
