<svg xmlns="http://www.w3.org/2000/svg" height="1229.109" width="1501.32"><defs><clipPath id="a" clipPathUnits="userSpaceOnUse"><path d="M0 921.832h1125.989V0H0z"/></clipPath></defs><g clip-path="url(#a)" transform="matrix(1.33333 0 0 -1.33333 0 1229.11)"><path d="M741.72 286.862c4.972 0 9.943-.019 14.914.01 1.759.01 3.792-.467 3.835 2.464.04 2.72-1.643 2.78-3.61 2.774-9.942-.024-19.885-.028-29.827.002-1.993.006-3.645-.105-3.593-2.798.056-2.926 2.119-2.428 3.864-2.44 4.805-.035 9.61-.012 14.417-.012m.019 57.33c-4.804 0-9.61 0-14.413-.002-1.856 0-3.79.164-3.883-2.57-.091-2.673 1.638-2.818 3.623-2.813 9.939.022 19.879.027 29.817-.003 1.993-.006 3.664.104 3.589 2.801-.076 2.777-1.968 2.587-3.825 2.586-4.97-.002-9.94 0-14.908 0m22.419-100.957c-5.16 0-10.318-.014-15.477.007-1.765.007-3.332-.01-3.435-2.466-.108-2.61 1.324-2.974 3.453-2.963 9.985.054 19.97.024 29.956.027 1.737.001 3.432.054 3.548 2.445.126 2.597-1.51 2.971-3.567 2.96-4.825-.029-9.651-.01-14.478-.01m-21.07 138.908c.339-2.34 2.226-1.596 3.526-1.605 9.798-.07 19.598-.036 29.398-.037 2.049 0 4.069-.135 4.15 2.885.088 3.246-1.971 3.287-4.29 3.281-9.632-.026-19.266.033-28.9-.056-1.416-.013-3.547.92-3.901-1.74.005-.91.01-1.82.017-2.728m87.236-208.838c-8.143-2.199-16.542-1.518-24.796-1.8-31.825-1.09-63.536.786-95.218 4.032-32.128 3.291-64.008 8.191-95.731 14.011-29.097 5.337-58 11.746-86.983 17.681 3.293 2.167 7.186 2.59 10.845 3.622 37.684 10.64 75.193 21.75 110.769 38.48 22.193 10.436 17.55 23.978 30.83 44.265 8.616 13.162 15.37-3.237 0 0-.49.103.07 17.545-.425 17.615-27.242 3.86-41.853-10.52-69.333-10.05-26.663.454-54.677-5.715-81.255-7.565-14.93-1.039-41.198.886-56.016-1.483-5.1-.815-62.23-64.512-37.288-9.647-32.056-46.805-22.805-11.032-23.927-11.32-20.966-5.396 10.138 35.488-10.79 29.954-3.885-1.027-4.926-.344-3.72 3.653 2.115 7.012 3.983 14.101 5.908 21.171 2.836 10.415 2.842 10.287-7.768 8.446-21.481-3.729-43.001-7.236-64.478-10.988-3.772-.66-4.523.423-3.495 3.852 1.817 6.062 3.494 12.165 5.188 18.263.43 1.551 1.666 3.263.38 4.72-1.323 1.502-3.115.45-4.67.005a85138.155 85138.155 0 01-114.303-32.769c-1.328-.382-2.985-.354-4.093-2.326 10.57 0 20.823-.098 31.072.021 17.318.203 34.636.474 51.95.875 4.235.1 5.295-1.274 3.998-5.322-2.234-6.973-3.955-14.109-6.193-21.08-1.235-3.85-.075-4.737 3.647-4.33 22.824 2.494 45.665 4.832 68.486 7.345 3.405.375 4.174-.643 3.373-3.84-1.455-5.806-4.005-11.327-4.526-17.37-12.64-5.972-26.012-9.973-39.24-14.316-7.056-2.317-13.896-5.568-21.48-6.082-34.186 4.514-68.491 7.19-103 7.382-9.161.051-18.197 2.051-26.646 5.864-16.29 7.352-24.644 20.585-26.191 37.867-2.417 26.997 4.994 52.008 16.98 75.89 21.095-4.193 42.329-6.89 63.889-7.348 30.442-.645 60.483 2.828 90.41 7.768 10.328 1.704 20.587 3.825 30.876 5.756 13.062 2.311 26.113 4.681 39.187 6.922 26.493 4.54 52.945 9.338 79.605 12.853 4.436.584 8.837 1.44 13.256 2.17.747-1.833 1.55-3.644 2.227-5.502 3.232-8.875 9.075-15.62 16.854-20.805 1.204-.86 2.339-1.846 3.625-2.56 16.983-9.456 35.414-11.234 54.373-10.174 3.489.02 7.005-.246 10.46.102 29.763 3 58.586 10.095 86.685 20.236 8.265 2.982 16.612 5.821 23.913 10.931 5.899 2.294 11.067 5.646 15.203 10.494 8.574 6.881 9.104 14.581 1.54 22.257-1.504 1.526-2.99 3.072-4.483 4.61 23.032 3.518 46.27 4.758 69.475 6.474 23.75 1.756 47.53 1.336 71.302 1.634.229-4.786-.87-9.327-2.537-13.765-13.321-9.784-21.623-23.402-28-38.138-14.96-34.568-19.518-70.646-13.955-107.905 3.499-23.432 8.292-46.578 19.615-67.717 5.415-10.11 11.68-19.74 21.102-26.787 1.968-5.238 2.234-10.845 3.517-16.232" fill="#184e84"/><path d="M713.491 774.879c5.354 11.309 13.745 18.64 25.982 21.77-6.246 1.37-12.538 3.018-18.17-.838-7.225-4.947-7.824-12.857-7.812-20.932m-110.319-98.483c4.778-.055 7.967 2.783 11.55 4.699 8.655 4.63 16.956 9.866 23.736 17.135 3.036 3.255 3.277 7.123.268 8.439-7.13 3.118-14.588 2.674-22.474 1.88 1.088-1.854 2.354-1.915 3.392-2.36 6.434-2.756 7.555-6.328 3.858-12.064-2.01-3.121-4.565-5.703-7.482-7.945-4.267-3.281-8.564-6.525-12.848-9.784m151.642-2.94c-21.883 12.914-70.609 2.967-75.2-15.707 23.483 14.246 48.57 18.765 75.2 15.708M740.34 812.385c-19.816 4.057-38.17.348-54.708-10.634-18.036-11.977-29.673-29.284-37.876-49.31 23.394 31.602 53.767 52.26 92.584 59.944m-181.726-44.296c-14.242 4.079-26.26 1.522-38.32-7.436 6.672.268 11.96.844 17.21-.09 11.004-1.955 19.976-7.932 28.414-14.762 3.444-2.787 4.548-2.56 5.35 1.986 3.822 21.668 18.341 32.558 38.585 37.226 5.533 1.276 11.25 1.753 17.683 2.717-4.81 2.797-9.397 2.288-13.697 2.657-16.844 1.445-32.66-.64-44.097-15.056-1.725-2.175-3.407-2.052-5.654-1.437-3.782 1.034-7.623 1.874-11.617.424.99-2.937 4.222-2.943 6.143-6.23m109.845 31.847c3.471-2.865 5.307.794 7.018 2.289 7.878 6.882 16.513 12.3 26.518 15.433 19.123 5.988 37.713 3.909 55.916-3.774.895-.378 2.073-.676 2.236-1.761.227-1.515-1.268-1.725-2.21-2.305-.423-.26-.903-.424-1.336-.671-2.438-1.396-6.027-2.246-7.038-4.338-1.566-3.242 3.347-3.531 4.607-5.882.852-1.591 2.593-3.1 1.865-4.86-.744-1.797-2.945-.922-4.509-.977-8.204-.283-16.385-6.566-19.198-14.398-1.782-4.958 3.206-2.906 4.42-4.69.222-1.268 1.116-1.94 2.142-2.575 14.021-8.682 24.16-21.184 32.857-34.77 9.564-14.935 17.591-30.74 24.243-47.253 1.555-3.86 1.983-8.443 5.428-11.472.121-.484.23-.972.365-1.452 1.634-5.79 1.15-6.467-4.808-5.297-11.798 2.317-22.024-.437-30.547-9-1.692-1.7-3.388-2.314-5.806-1.685-3.309.86-6.706 1.064-10.602-.245 3.103-3 6.671-3.5 9.902-4.167 15.691-3.245 23.55-13.992 27.535-28.373 2.09-7.54 2.93-15.306 2.73-23.173-.092-3.582-1.365-5.291-5.172-4.42-2.425.556-4.917.825-7.353 1.34-5.59 1.182-6.418.353-5.37-5.488.112-.628.075-1.286.07-1.93-.003-.121-.185-.242-.697-.867l-19.717 18.9-1.285-.85c2.284-6.03 4.994-11.988 3.587-19.385-5.967 9.32-14.57 12.453-26.082 12.877 5.76-5.824 10.062-11.006 12.822-17.264.928-2.102 2.967-4.908 1.21-6.372-1.965-1.637-3.996 1.359-5.592 2.689-8.375 6.98-17.416 12.748-27.77 16.324 5.494 2.14 11.175.317 17.331.3-11.796 9.84-24.678 13.177-37.448 4.582l-.323 13.975c17.638 5.873 34.34 3.115 50.386-5.506 1.005-.54 1.947-1.723 3.075-.782 1.363 1.137.317 2.504-.279 3.603-3.405 6.28-8.619 10.459-15.349 12.72-3.13 1.052-6.335 1.885-9.506 2.816 10.75 2.73 20.563-.362 30.085-4.721.49 1.804-.065 2.49-.7 2.989-8.244 6.476-17.362 10.726-27.937 12.005-11.172 1.35-21.266-2.815-31.715-5.278-1.112 3.452-2.21 6.908-3.34 10.354-1.11 3.386-2.547 7.38-6.457 7.215-3.623-.154-5.122-4.027-6.177-7.378-.846-.432-1.792-.74-2.52-1.318-3.36-2.673-4.879-1.462-5.249 2.376-.259 9.178-3.236 17.597-7.202 25.738.96.64 1.861 1.404 2.89 1.905 9.606 4.672 19.68 8.003 29.99 10.767 8.043 2.156 16.11 4.115 24.321 5.498 1.545.26 4.022-.05 3.967 2-.047 1.824-2.556 1.638-4.076 2.06-5.23 1.453-10.529 1.289-15.838.479-1.406-.215-2.868-1.036-4.69.95 4.502 2.89 9.003 5.655 12.34 9.765 3.55 4.376 5.927 9.234 6.305 14.929.467 7.022-.525 11.475-3.734 15.412-.198-4.983-.497-9.412-2.238-13.578-5.304-12.695-16.079-19.968-26.779-27.383-9.658-6.691-20.47-10.995-31.195-15.503-1.89.003-3.446-.98-5.103-1.7-4.21-1.825-7.952-4.706-12.57-5.615-7.712-2.285-15.366-4.794-23.152-6.787-7.244-1.855-14.52-4.401-22.188-2.006l9.862 6.117c1.703.945 6.641-1.503 4.09 3.9.948 1.157 1.933 2.284 2.84 3.472 1.451 1.903 2.816 4.059 1.664 6.414-1.248 2.549-3.969 2.176-6.228 1.906-5.307-.635-10.374-2.164-15.317-4.27-19.506-8.31-31.03-23.778-38.724-42.75-4.124 4.245-3.476 9.447-2.852 14.597 1.283 10.593 3.53 20.946 7.194 31.014 3.85 10.58 8.664 20.48 16.797 28.535 3.928 3.892 8.365 7.002 13.183 9.693-10.3-.557-18.44-5.5-24.94-12.895-9.143-10.406-13.37-23.072-15.8-36.558-.794-4.404.35-9.298-2.903-14.041-8.046 19.563-9.748 39.115-6.304 60.216-13.533-8.563-10.127-21.253-10.424-33.072-12.302 6.39-22.576 14.525-31.156 24.56-5.235 6.123-8.962 13.252-8 21.89.581 5.224 2.911 9.114 7.943 11.114 2.397.953 4.796 1.9 7.607 3.014-11.42 3.654-24.738-4.357-22.225-19.05 1.397-8.17 2.307-16.498 7.027-23.722.77-1.178 1.71-2.907.746-4.203-1.142-1.535-3.05-.746-4.663-.474-10.688 1.803-20.896.472-30.396-4.904-3.42-1.935-6.586-4.276-7.52-8.536 1.657-.794 2.955-.103 4.145.248 11.052 3.256 22.268 3.858 33.542 1.754 23.306-4.347 39.78-17.383 49.088-39.294-1.434-8.507-2.81-17.025-4.319-25.52-1.867-10.503-1.915-10.494-10.993-4.723-.679 1.475-2.038 1.404-3.37 1.613-9.175 1.44-18.436 2.456-27.323 5.373-7.213 2.368-12.13 7.082-15.109 14.088-2.764 6.5-4.047 13.32-5.169 20.212-.15.927.133 2.3-1.162 2.417-1.607.146-1.639-1.346-1.78-2.458-.943-7.397-3.148-14.915-1.79-22.214 1.17-6.294-1.476-7.943-6.38-9.733-14.589-5.326-23.533-15.61-25.924-31.193-.165-1.068-.466-1.921-1.545-2.32-.764 12.98-1.478 25.933 6.854 37.274 1.111 1.513 3.09 2.62 2.936 5.34-5.63-1.188-9.15-5.853-14.059-7.93-.29.082-.582.148-.877.2l-.007 2.863c.281.175.713.283.821.533 5.45 12.518 9.936 25.61 22.024 34.71-5.248 1.658-8.44-.412-11.274-2.955-3.79-3.402-5.9-7.956-7.818-12.591-.667-1.612-.54-3.733-2.654-4.506 3.014 19.679 9 37.977 25.034 52.222-3.779.763-5.53-1.284-7.423-2.783-6.173-4.887-9.669-11.697-13.129-18.522l-1.39-.127c.058 2.328.118 4.656.18 6.985 1.002.794 1.215 1.902 1.357 3.097 1.081 9.14 3.322 17.99 6.995 26.438 3.793 8.724 8.49 16.676 18.323 19.85 2.644.855 3.922 2.768 4.652 5.382 2.256 8.094 5.4 15.734 11.774 21.616.62.572 2 1.322.875 2.355-.8.735-1.873.084-2.633-.662-4.732-.718-9.493-1.294-14.186-2.21-2.573-.503-2.637.3-1.689 2.195 2.85.614 4.41 2.957 6.145 4.889 8.35 9.29 18.47 16.379 29.29 22.209 16.174 8.714 33.625 13.242 52.161 12.98 1.44-.02 3.237-.64 4.561 1.497-5.673.472-10.964 1.503-16.183 1.215-8.93-.492-17.849-1.458-26.56-3.857-15.847-4.365-29.185-12.53-39.786-25.186-2.06-2.462-3.31-5.896-6.948-6.794 11.317 27.79 31.051 45.805 61.058 50.734 17.582 2.889 35.108.896 52.142-4.59.715-3.825-1.709-7.544-.43-12.64 4.937 15.305 8.431 29.822 14.77 43.402 3.872 8.3 7.896 16.432 13.637 23.6 1.37 1.71 2.748 3.332 3.02 5.597 4.938 2.744 5.334 2.539 5.835-2.998.09-.993.2-1.984.325-2.974.126-.998.24-2.185 1.217-2.59 1.522-.63 1.828.988 2.57 1.765.574.6 1.125 1.224 1.718 1.804 5.857 5.739 6.222 5.652 8.378-1.947-.012-9.66-.058-19.32-.013-28.978.014-3.067-.729-5.841-1.98-8.65-4.906-11.012-12.819-19.702-21.146-28.12-1.274-1.29-3.212-2.275-3.295-5.497 12.637 7.998 25.313 14.535 35.948 24.194 2.556 2.322 4.301 5.344 4.94 8.535 1.227 6.122 2.104 12.274 6.797 18.236-4.396-1.16-5.949-4.95-9.538-5.134-.633 10.939 1.874 21.219 6.264 30.893 2.338 5.15 4.72 10.8 10.501 13.517l-.485-6.554c5.4 6.515 11.56 8.686 17.95 10.398-.316-.758-.45-1.685-.975-2.25-9.269-9.993-9.847-21.974-8.316-34.612 1.525-12.58 5.934-24.235 11.22-35.536 3.34-7.145 5.886-14.874 11.806-20.59" fill="#f8f9fa"/><path d="M678.731 292.995c-1.127-.763-2.407-.925-3.725-1.163-7.48-1.356-14.52-4.07-21.412-7.204-11.133-3.583-22.389-6.803-33.176-11.396-15.944-5.132-31.9-10.226-47.83-15.4-72.64-23.59-145.287-47.179-219.223-66.478-35.686-9.315-71.775-16.169-108.927-15.49-8.683.158-17.18 2.001-25.833 2.262-.408.885-.867 1.672-2.053 1.087l-2.944.753c-2.384 1.356-4.904 2.247-8.892 2.81 3.072-2.953 5.33-4.694 8.47-4.988 12.357-5.235 25.481-6.165 38.615-6.329 33.681-.42 66.636 5.401 99.378 12.51 50.501 10.964 99.576 26.873 148.46 43.391 40.964 13.843 81.71 28.312 122.091 43.784l32.988 12.161c8.211 2.703 16.534 5.131 23.973 9.735l1.35.556-1.31-.6m-211.41 24.953c5.22.125 9.938 2.49 15.037 3.305 14.818 2.37 29.76 3.553 44.69 4.591 26.579 1.85 53.196 3.357 79.859 2.902 27.48-.47 54.89-2.145 82.13-6.004.495-.07.99-.147 1.477-.25 15.372-3.238 20.08-13.25 11.464-26.41-13.278-20.288-30.575-36.317-52.767-46.753-35.577-16.73-73.085-27.84-110.77-38.48-3.66-1.032-7.552-1.455-10.845-3.622-23.913-5.74-47.766-11.73-71.75-17.154-22.197-5.018-44.499-9.588-66.813-14.064-24.75-4.964-49.609-9.404-74.346-14.433-22.299-4.533-44.774-6.575-67.463-5.354-19.886 1.07-39.354 4.296-56.918 14.628-6.09 3.582-11.329 8.137-15.552 13.837-4.668 6.303-4.273 14.41 1.344 19.977 8.505 8.433 19.444 12.801 30.352 16.773 25.159 9.163 50.973 16.285 76.706 23.644 6.029 1.724 12.158 3.256 17.884 5.945 7.586.514 14.426 3.765 21.483 6.082 13.228 4.343 26.6 8.344 39.24 14.315 1.744.54 3.537.953 5.224 1.633 32.69 13.171 65.019 27.181 96.907 42.202 1.33.627 2.824 1.107 3.427 2.69M347.36 384.206c-10.29-1.93-20.548-4.052-30.875-5.756-29.928-4.939-59.97-8.413-90.412-7.767-21.56.457-42.793 3.154-63.887 7.347 14.369 32.956 29.208 65.654 51.723 94.125 5.387 6.811 11.41 12.97 18.726 17.786 14.615 9.623 28.646 8.481 41.92-3.126 14.408-12.596 24.103-28.714 33.945-44.722 9.757-15.868 19.009-32.05 29.91-47.193 2.724-3.783 5.557-7.472 8.95-10.694" fill="#994799"/><path d="M663.193 606.954c-.032 3.706-.729 6.521-2.354 8.988-1.708 2.592-3.853 4.737-7.22 4.431-3.336-.304-5.302-2.669-6.385-5.575-1.1-2.947-1.592-6.019-.97-9.25 1.334-6.956 5.07-11.187 9.664-10.654 4.303.498 7.321 5.508 7.265 12.06m-82.999-.69c.16 3.763-.726 7.273-2.859 10.352-3.722 5.37-9.645 5.02-12.66-.753-2.268-4.339-2.413-8.928-.697-13.47 1.512-4.007 3.612-7.877 8.68-7.423 5.057.452 6.311 4.69 7.3 8.827.19.795.163 1.643.236 2.466m-28.562 31.002c-4.01-.639-7.366-1.509-9.63-4.54-.809-1.082-1.895-2.586-.078-3.262 3.078-1.143 1.943-2.048.406-3.623-2.327-2.386-2.257-5.089-.058-7.559 2.321-2.608 4.427-1.853 6.74.358 2.575 2.461 6.04 3.376 9.397 4.361 5.766 1.692 11.762 1.975 17.656 2.873 1.947.297 3.39.603 3.77 3.032 1.285 8.19-5.156 17.766-13.022 16.452-5.852-.977-12.756-.102-17.879-4.626-.595-.525-1.475-.857-1.335-2.016.88-1.17 2.504-.276 4.033-1.45m103.88 36.518c3.966-8.14 6.943-16.56 7.202-25.739-4.648.035-6.915-4.043-10.062-6.192-2.299 1.547 2.762 4.405-.94 4.761-3.284.317-5.167-2.738-6.068-5.705-.943-3.108-2.045-6.394.443-9.38.256-.307.935-.388 1.411-.37 9.42.354 16.784-4.507 24.17-9.398 3.86-2.557 6.49-1.552 7.828 2.85.593 1.95.516 3.95-.034 5.907-.376 1.34-.819 2.701 1.043 3.234 5.4 1.546 1.59 2.842.006 4.455-.83.848-4.11.376-2.37 2.413 1.938 2.268.215 2.517-.92 3.135-2.184 1.19-4.485 2.168-6.738 3.233 1.055 3.351 2.554 7.224 6.177 7.378 3.91.166 5.346-3.829 6.456-7.216 1.13-3.445 2.228-6.9 3.344-10.35.152-6.003.68-11.966 1.937-17.849l.323-13.975c.053-2.667-.505-5.395.415-8.208 2.506 1.034 4.071 2.958 6.452 3.18-1.837-10.943-5.11-21.307-12.114-30.176-2.488-3.15-5.186-6.059-8.89-7.82-.506 1.917-1.039 3.83-1.515 5.754-4.976 20.138-20.335 27.383-38.742 18.063-4.574-2.315-8.725-5.453-13.168-8.044-6.003-3.502-11.695-3.654-17.6.868-5.956 4.562-12.913 6.526-20.6 5.76-14.184-1.417-25.085-9.138-35.33-18.109-1.682-1.473-4.078-2.745-4.23-6.142 2.984.586 5.546 1.161 8.136 1.568 1.531.242 3.74.175 2.088-2.088-2.036-2.792-2.466-6.63-5.67-8.61-9.946 3.187-19.236 7.772-28.149 13.164l.03-.109-.946.86c-3.539 4.911-8.71 8.386-11.932 13.585-1.278 2.063-3.127 3.811-3.42 6.398 1.752-.8 3.462-1.71 5.265-2.365 1.177-.427 1.933-.012 1.225 1.425l-4.338 29.044c.29 2.154-.229 4.44 1.04 6.435 9.077-5.77 9.125-5.78 10.991 4.724 1.51 8.494 2.886 17.012 4.318 25.522 1.783.987 1.921 2.987 2.811 4.527.628 1.088.521 3.03 2.068 3.072 1.945.054 1.867-2.047 2.313-3.328 1.637-4.704 3.501-9.32 6.568-13.25 1.505-1.93 3.521-4.683 6.153-.909 7.693 18.971 19.218 34.44 38.724 42.75 4.943 2.105 10.01 3.634 15.316 4.27 2.26.27 4.981.642 6.228-1.907 1.153-2.355-.212-4.51-1.664-6.414-.906-1.188-1.89-2.316-2.84-3.47-1.683-.966-2.999-2.316-4.089-3.902l-9.863-6.118c-1.633-2.306.455-2.928 1.807-3.585 2.594-1.263 5.375-1.466 8.257-1.057 7.781 1.103 15.22 3.523 22.331 6.645 4.422 1.942 9.757 2.422 12.945 6.791 4.62.91 8.36 3.79 12.571 5.616 1.657.718 3.211 1.702 5.103 1.698l8.736-7.3" fill="#fbd7a6"/><path d="M519.806 564.13c0-.03.01-.07.02-.1h.01z" fill="#825a35"/><path d="M563.176 405.16c-4.08-.02-8.19 3.96-8.16 7.88.03 4.42 4.9 9.61 9.14 9.75 3.97.12 8.22-3.77 8.4-7.69.2-4.63-4.8-9.92-9.38-9.94m-10.93-.14c-1.03-2.95-.95-6.61-6.29-5.28-6.46 1.6-12.52 4.61-19.22 5.24-6.66 3.01-13.32 6.02-19.99 9.02-.15-.57-.19-1.24-.99-1.29-.1 0-.3.2-.3.3.05.8.72.84 1.29.99.66 2.01 1.31 4.01 1.97 6.01-1.01 1.36-.08 1.72 1.02 1.99.03.31.05.62.06.92 1.26.75 2.36.59 3.71-.1 11-5.67 22.71-9.44 34.62-12.64 2.76-.75 5.45-1.33 4.12-5.16m-19.37-35.51c-10.12 3.01-20.34 5.76-29.82 10.6-1 .5-2.19.64-3.29.95-2.3 3-7.69 4.32-5.21 10.61 3.59-8.55 11.58-10.29 18.43-13.54 3.73-1.77 7.82-2.78 11.75-4.13 3.71-2.18 8.19-1.99 12.33-3.84-1.43-1.57-2.86-1.04-4.19-.65m-23.15 132.5c.03 1.7.2 3.37 1.06 4.89 2.86-2.92.7-6.13.21-9.05-.57-3.37-2.1-6.58-3.21-9.87-1.54-3.38-3.18-6.69-6.06-9.31 1.54 7.43 5.34 14.03 7.08 21.3-1.11 1.32-.23 1.74.92 2.04m119.375-62.155c-2.969 1.18-6.295 8.082-7.315 10.392-7.73 17.64-7.64 9.32-14.48 27.32-1.03 2.678 29.341 7.987 34.162 8.367-1.29 4.71-28.136 5.785-24.176 4.885 2.06-.47-26.824 4.55-24.704 4.368-4.5 4.89 28.535 2.801 34.745 2.748 69.152-.584-12.04 17.922-10.04 21.132 6.13 9.83-63.357 10.593-62.727 22.233-2.59-.9-4.01-3.15-5.99-5.43-1.71 3.52-.54 6.9-.86 10.11-8.7 1.28-16.78 3.98-23.46 10.04-2.42 2.21-3.99 4.78-4.43 8.01-.34 0-.66.01-.99.01-2.7.6-5.4.26-8.09-.1-11.62-1.28-20.76-7.02-26.98-16.64-7.79-12.03-12.54-25.66-18.99-38.41 3.71-13.24 1.6-25.91-3.81-38.23-1.34-3.04-2.98-5.92-6.01-7.68 5.35-17.78 15.6-31.46 32.89-39.23 4.55 9.43 9.02 18.87 10.53 29.41.65 4.55.13 9.11.74 13.62 3.12-12.56 1.98-24.75-3.81-36.37-1.44-2.89-1.71-7.15-6.35-7.44 1.36-1.88.33-3.48-.73-4.94-2.89-4-5.87-7.92-8.82-11.88.75-1.83 1.55-3.64 2.23-5.5 3.23-8.88 9.07-15.62 16.85-20.8 1.21-.87 2.34-1.85 3.63-2.57 16.98-9.45 35.41-11.23 54.37-10.17 8.53 10.09 47.606 24.948 51.446 37.588-.14 7.9 21.31 27.257 21.17 35.157" fill="#825a35"/><path d="M554.564 541.296c-2.583-.893-4.005-3.15-5.985-5.427-1.718 3.522-.545 6.898-.866 10.113.73 1.632.214 3.323.238 4.988 3.205 1.98 3.634 5.82 5.671 8.611 1.652 2.263-.557 2.33-2.087 2.088-2.59-.408-5.152-.982-8.136-1.568.152 3.397 2.548 4.67 4.23 6.142 10.245 8.97 21.145 16.692 35.33 18.108 7.687.767 14.644-1.198 20.6-5.76 5.905-4.522 11.597-4.37 17.6-.868 4.443 2.592 8.594 5.73 13.168 8.045 18.407 9.32 33.766 2.075 38.742-18.063.475-1.926 1.009-3.837 1.514-5.756l-.001-19.463c-.586.031-1.016-.075-1.163.082-1.756 1.87-2.982 5.272-6.075 4.22-3.005-1.022-1.207-4.369-1.64-6.663-.214-1.137-.061-2.374-.428-3.445-.588-1.712-1.223-3.857-3.225-4.113-2.351-.3-1.858 2.296-2.672 3.582-.175.277-.257.612-.406.91-1.272 2.553-2.604 5.567-5.748 5.57-2.813.002-4.425-2.566-5.504-5.11l-2.105-3.47c-1.877-1.29-3.346-2.914-4.148-5.08-1.174-.07-2.238-.358-3.241-1.07-6.381-4.53-6.312-4.498-7.774 2.77-.397 1.97-.384 4.9-3.213 4.927-2.948.027-3.32-2.739-3.773-5.048-1.861-.755-2.513-2.56-3.466-4.074-3.311-5.26-3.737-5.36-7.51-.74-1.563 1.914-2.798 4.095-4.22 6.13-.613.88-.893 2.416-2.462 1.858-1.205-.429-1.724-1.686-1.73-2.81-.006-1.279.483-2.56.756-3.84-4.583.042-7.987 2.194-10.12 6.125-2.015 3.714-4.004 2.94-6.657.676-2.806-2.392-3.773-5.656-4.804-9.317-2.131 1.274-3.336 2.763-4.472 4.4-1.772 2.55-.85 7.69-3.5 7.95-3.016.298-3.513-5.157-6.539-6.803-.145-.836-.468-1.73-1.338-1.815-1.191-.116-.98 1.087-1.088 1.76-.703 4.36-1.318 8.736-1.971 13.105-.41 2.747-1.498 3.62-3.704 1.31-2.3-.53-4.362-1.516-6.077-3.167" fill="#eaeaea"/><path d="M641.468 528.968c.802 2.167 2.27 3.791 4.146 5.081 15.544-15.426 23.739-35.258 32.457-54.869.794 9.73-.701 19.073-1.438 28.463l5.008 2.198c1.005-5.106 3.723-9.365 6.687-13.5-.75-3.028.916-5.482 2.045-7.995 5.336-11.874 14.712-19.897 25.556-26.482.17-3.194-1.558-5.293-4.084-6.836-6.471-3.95-12.773-8.257-19.55-11.595-3.81-1.878-4.935-3.805-3.487-7.54l3.94-27.02c-4.136-4.848-9.304-8.2-15.201-10.49.186 3.58-48.032-3.26-47.85.315 1.572 9.655 16.24 14.57 14.87 24.094-3.372 23.455-14.078 33.655-24.49 54.774-2.685 5.447 3.709 15.99-.893 20.37-.363 3.46 23.81 28.151 22.284 31.032" fill="#825a35"/><path d="M706.75 501.427c.802-2.296-.537-5.766 3.44-6.182 2.152-.224 8.077 4.587 7.9 6.139-.079.7-8.195 7.317-8.817 6.993-2.918-1.522-1.75-4.56-2.524-6.95m31.655 26.76c2.713.097 6.991 5.864 5.902 7.77-2.633 4.615-5.535 9.082-8.482 13.505-1.394 2.09-3.296 2.229-4.954.218-2.326-2.82-4.446-5.813-6.8-8.608-2.223-2.64-1.257-3.921 1.541-5.122 3.976-1.708 7.84-3.688 11.135-6.592.597-.526 1.304-.924 1.658-1.171m7.63-38.31c-8.032 1.937-15.686 4.563-22.735 8.709-1.469.863-2.924.319-4.099-.813-2.17-2.091-4.442-3.978-7.365-4.994-1.954-.68-1.809-1.925-.8-3.522 7.46-11.823 27.435-11.741 34.998.62m-36.52 48.988c3.08.857 7.344-1.858 10.374 1.34 3.51 3.709 6.41 7.987 9.687 11.924 1.85 2.22 1.26 3.947-.775 5.45-5.557 4.107-11.586 6.369-18.632 4.689-1.526-.363-2.987-.77-3.543-2.345-1.052-2.982-3.125-4.08-6.158-3.812-1.22.108-2.405-.317-3.03-1.381-2.696-4.592-5.259-9.23-4.687-14.884.235-2.318 1.133-3.535 3.507-2.47 4.105 1.844 8.428 1.494 13.256 1.489M683.94 511.83c.695-8.861 8.89-17.161 17.384-17.747 2.714-.188 3.816 1.003 3.31 3.5-.853 4.197-.04 8.272.672 12.346.285 1.63.063 2.9-1.047 4.117-2.463 2.695-4.87 5.44-7.3 8.165-.765 1.44-1.42 2.95-2.313 4.307-2.812 4.279-3.873 4.209-6.706-.133-2.893-4.437-3.6-9.447-4-14.555m45.766 18.893c-8.914 5.279-10.108 4.946-14.768-4.151-.759-1.48-1.489-2.975-2.22-4.47-4.118-8.411-4.14-8.44 2.775-14.44 1.688-1.462 3.485-4.28 5.756-2.921 2.337 1.398 4.85 3.683 4.162 7.277.328 2.44 1.224 4.564 3.912 5.034 4.228.739 6.6 4.08 6.923 7.373.331 3.356-3.336 5.19-6.54 6.298m17.21-21.583c-.73 4.469-2.747 8.305-5.466 11.9-1.502 1.987-2.342 1.5-3.766 0-2.907-3.062-4.365-6.412-3.01-10.624-1.796-.81-3.338-2.047-5.366-2.501-2.677-.598-4.292-2.94-4.78-5.265-.523-2.493 2.443-2.681 4.035-3.551 4.818-2.631 9.95-4.38 15.35-5.562 3.805-.833 4.804.708 4.912 3.976.132 4.009-.11 7.942-1.909 11.627m12.782-1.973c-3.363 6.593-6.658 13.223-10.135 19.756-.94 1.768-2.06 4.364-4.825 2.395-2.06-1.47-3.927-3.388-1.73-6.183 3.51-4.47 5.506-9.716 7.713-14.858 1.123-4.047 1.083-8.184.968-12.33-.046-1.713-.052-3.495 2.2-3.79 5.661-.738 10.9.422 15.445 3.965 1.52 1.184 2.118 2.812-.185 3.859-3.712 1.688-6.29 4.809-9.45 7.186m-60.125 17.552c.625-2.17 2.548-3.403 3.73-5.168 2.153-3.217 4.044-3.241 5.385.523 1.784 5 4.723 9.406 7.03 14.135-3.562 4.599-8.342 2.34-12.692 2.147-2.98-.133-6.899-.498-7.773-3.338-.983-3.195 1.632-6.141 4.32-8.3m-11.245-28.378c-2.965 4.136-5.683 8.394-6.687 13.5-.272 8.815 1.656 16.839 8.235 23.238 1.362 1.326 1.11 3.177.85 4.748-1.59 9.523 3.804 16.89 7.521 24.763.375.796 1.546 1.888 2.177 1.786 5.495-.887 10.771 1.276 16.216.96 5.232-.302 9.677-2.475 13.516-5.745 2.596-2.211 4.52-2.297 7.324-.298 5.586 3.983 12.042 3.015 18.324 2.268.974-.116 2.367-.434 2.606-2.347-2.922-.933-5.52 1.594-8.39.918-1.425-.337-3 .023-4.478-.166-8.892-1.137-10.52-4.871-5.462-12.031 1.814-2.568 3.298-5.375 4.832-8.13 1.37-2.462 2.67-3.586 5.285-1.13 1.93 1.813 4.626 6.205 6.18 4.338 2.003-2.41-2.899-4.042-4.56-6.19-1.526-1.974-3-3.64-1.542-6.175 4.051-7.04 6.781-14.762 11.824-21.323 3.11-4.046 7.4-4.872 11.655-5.994 2.43-.641 2.87 1.773 3.315 3.494 2.183 8.428-.312 16.43-2.195 24.519-.508 2.186-3.72 5.157-.88 6.384 1.932.835 1.912-3.484 2.704-5.466 3.653-9.138 5.22-18.545 2.58-28.264-1.066-3.918 1.578-3.311 3.645-3.05 17.441 2.2 27.036 23.877 17.074 38.5-3.964 5.818-9.12 10-16.118 11.64-.999.235-2.829-.127-2.334 1.677.398 1.454 1.928.802 3.033.619 10.65-1.765 21.201-13.18 21.951-23.737 1.233-17.334-8.65-29.44-25.922-31.753-2.353.137-4.522.03-6.446-1.811-5.586-5.345-12.358-7.612-20.043-6.995-2.937.235-5.02-.797-6.844-3.111-2.268-2.882-5.043-5.206-8.62-6.501-11.417-4.133-21.222-1.567-29.652 7.785-1.284 1.425-2.067 3.846-4.385 3.706-6.195-.373-11.118 2.812-16.289 5.374" fill="#f8f9fa"/><path d="M688.328 496.34c5.171-2.562 10.094-5.746 16.29-5.374 2.316.14 3.1-2.28 4.384-3.706 8.43-9.352 18.235-11.918 29.651-7.785 3.578 1.295 6.353 3.62 8.621 6.501 1.824 2.314 3.907 3.346 6.844 3.111 7.685-.616 14.457 1.65 20.043 6.996 1.924 1.84 4.093 1.948 6.446 1.811 6.636-16.34-4.675-28.54-20.787-32.72-12.722-3.302-25.768-4.3-38.926-3.25-1.643.132-3.31-.03-4.966-.059-10.843 6.584-20.219 14.607-25.555 26.481-1.129 2.513-2.794 4.967-2.045 7.994" fill="#fbd7a6"/><path d="M927.973 184.394c1.484 19.419 6.346 38.303 9.106 57.52.404 2.806 1.828 3.626 4.498 2.752 5.873-1.92 11.188-.213 16.188 2.813 5.858 3.547 11.35 7.602 15.915 12.756 1.152 1.302 2.552 2.07 4.006 2.85-5.356-24.37-14.058-47.14-31.54-65.681-5.2-5.517-11.534-9.485-18.173-13.01" fill="#883c87"/><path d="M506.727 619.408c-1.27-1.996-.75-4.281-1.04-6.435-20.56 5.866-41.026 6.434-61.044-1.973-5.943-2.496-12.75-4.26-15.902-11.01-3.118-1.95-6.567-3.3-9.1-6.255-2.05-2.394-1.945.41-2.47 1.457 1.083.4 1.384 1.254 1.548 2.32 2.39 15.584 11.336 25.868 25.925 31.194 4.904 1.79 7.55 3.439 6.379 9.733-1.357 7.3.848 14.818 1.79 22.214.142 1.112.173 2.604 1.78 2.459 1.296-.118 1.01-1.491 1.162-2.418 1.122-6.89 2.406-13.712 5.169-20.212 2.979-7.006 7.897-11.72 15.11-14.088 8.886-2.917 18.148-3.932 27.323-5.373 1.33-.21 2.69-.137 3.37-1.613M637.258 889.079c-5.781-2.715-8.163-8.367-10.501-13.517-4.39-9.674-6.897-19.953-6.264-30.893 3.589.184 5.142 3.974 9.538 5.135-4.693-5.963-5.57-12.115-6.796-18.237-.64-3.191-2.384-6.213-4.941-8.535-10.634-9.66-23.31-16.196-35.948-24.193.084 3.22 2.02 4.207 3.296 5.496 8.326 8.418 16.239 17.108 21.145 28.12 1.25 2.81 1.994 5.583 1.98 8.65-.045 9.659.002 19.318.013 28.978 5.58 11.142 14.91 17.532 26.592 20.88.877.25 2.165 1.643 2.828-.24.137-.388-.605-1.087-.942-1.644M668.458 799.935c-5.92 5.716-8.466 13.445-11.807 20.59-5.285 11.302-9.694 22.957-11.218 35.536-1.532 12.639-.954 24.62 8.315 34.612.524.566.66 1.492.975 2.25 1.7.816 3.281.924 2.482-1.59-3.749-11.786-.126-23.376 1.061-34.948 1.801-17.581 5.518-34.876 9.78-52.036.352-1.418.284-2.94.412-4.414" fill="#eaeaea"/><path d="M428.74 599.991c3.153 6.748 9.96 8.513 15.902 11.008 20.018 8.407 40.484 7.84 61.046 1.974l4.336-29.043c-2.968 1.584-5.382 3.843-7.856 6.09-10.13 9.193-21.964 15.582-34.888 19.735-11.917 3.83-22.162-.658-31.557-7.82-2.606.35-4.527-1.756-6.983-1.944" fill="#f8f9fa"/><path d="M801.417 677.931c-3.444 3.028-3.873 7.612-5.428 11.472-6.652 16.512-14.678 32.318-24.243 47.254-8.698 13.585-18.836 26.087-32.856 34.77-1.027.634-1.92 1.306-2.144 2.575 16.277-2.505 27.315-12.924 36.928-25.07 12.486-15.78 19.496-34.143 24.093-53.565 1.37-5.787 3.595-11.377 3.65-17.436M435.723 601.935c9.395 7.162 19.64 11.65 31.557 7.82 12.924-4.153 24.758-10.542 34.888-19.736 2.474-2.246 4.888-4.504 7.856-6.088.71-1.439-.047-1.854-1.224-1.427-1.803.654-3.513 1.564-5.264 2.365-12.888 5.9-26.596 9.32-40.115 13.313-1.115.33-2.295.48-3.369.905-6.674 2.642-13.04 2.596-19.338-1.358-5.403-3.392-3.29 2.82-4.99 4.206" fill="#eaeaea"/><path d="M676.633 507.644c.737-9.39 2.232-18.734 1.437-28.463-8.717 19.61-16.912 39.442-32.455 54.868l2.106 3.47c7.812-2.583 13.719-8.275 20.479-12.575.249-.158.53-.571.496-.824-.827-6.121 3.638-9.398 7.066-13.231l.463-1.73.408-1.515" fill="#683723"/><path d="M457.735 763.981c.76.746 1.833 1.397 2.633.662 1.124-1.033-.255-1.783-.875-2.355-6.374-5.882-9.518-13.522-11.775-21.615-.729-2.615-2.007-4.528-4.65-5.38-9.835-3.177-14.53-11.129-18.324-19.853-3.673-8.447-5.914-17.296-6.995-26.438-.142-1.195-.355-2.302-1.357-3.097-1.58 13.143 1.061 25.631 5.826 37.801 3.802 9.71 9.467 17.781 19.262 22.312.584.271 1.423.66 1.552 1.15 1.942 7.395 8.13 10.947 13.558 15.203.498.39.77 1.067 1.145 1.61" fill="#eaeaea"/><path d="M464.78 508.89c3.71-13.239 1.596-25.909-3.814-38.227-1.336-3.042-2.98-5.927-6.01-7.685-6.259 17.343-4.726 33.02 9.823 45.912" fill="#683723"/><path d="M444.54 770.92c3.637.898 4.887 4.332 6.948 6.793 10.601 12.657 23.94 20.822 39.786 25.186 8.711 2.4 17.63 3.366 26.56 3.858 5.22.287 10.51-.743 16.184-1.215-1.325-2.137-3.123-1.517-4.56-1.497-18.538.262-35.989-4.267-52.163-12.98-10.819-5.83-20.94-12.919-29.29-22.21-1.735-1.932-3.296-4.275-6.145-4.888.18 2.592 1.854 4.61 2.68 6.952M588.736 877.023c-.271-2.265-1.648-3.886-3.02-5.597-5.74-7.168-9.763-15.3-13.637-23.6-6.338-13.58-9.831-28.097-14.768-43.401-1.28 5.095 1.145 8.814.429 12.64 2.218 6.03.566 12.462 2.12 18.64 4.405 17.5 12.168 32.49 28.876 41.318" fill="#eaeaea"/><path d="M772.567 550.055c-.39 2.61-1.86 4.238-4.602 4.094-2.461-.13-4.017-1.662-3.974-4.187.048-2.783 1.803-4.281 4.495-4.158 2.45.11 3.822 1.697 4.08 4.25m5.801.136c.137-5.263-4.715-10.44-9.94-10.604-5.14-.16-10.256 4.828-10.395 10.14-.139 5.285 4.683 10.455 9.93 10.646 5.044.184 10.268-4.927 10.405-10.182" fill="#1f97d3"/><path d="M695.587 599.946c-2.381-.22-3.945-2.145-6.451-3.18-.92 2.814-.362 5.543-.415 8.209 12.769 8.595 25.651 5.259 37.447-4.582-6.155.017-11.837 1.84-17.331-.3-4.428.946-8.849 1.266-13.25-.147M413.12 648.13c2.114.774 1.987 2.895 2.654 4.507 1.918 4.635 4.028 9.189 7.818 12.59 2.834 2.544 6.027 4.614 11.275 2.956-12.089-9.1-16.575-22.192-22.025-34.71-.108-.25-.54-.358-.82-.533-.36 5.116-.477 10.215 1.098 15.19" fill="#eaeaea"/><path d="M692.748 408.873l-3.94 27.021.996-.155c1.495-1.536 2.98-3.082 4.484-4.609 7.564-7.676 7.033-15.376-1.54-22.257" fill="#15385f"/><path d="M487.849 423.75c4.549 9.43 9.017 18.866 10.525 29.411.65 4.551.128 9.106.744 13.616 3.118-12.56 1.982-24.752-3.814-36.371-1.441-2.89-1.703-7.143-6.347-7.437l-1.108.781" fill="#683723"/><path d="M925.317 349.73c1.17 2.37 2.479 4.75 4.1 6.82 10.349 13.23 18.94 14.5 31.08 4.46 17.44-14.42 31.679-31.76 45.62-49.41 1.429-1.81 1.16-3.16-.16-4.84-13.661-17.44-27.73-34.53-44.92-48.71-4.191-3.46-8.491-7.09-14.3-7.17-6.7.23-11.4 3.84-15.32 8.56-8.371 10.07-12.13 22.12-13.84 34.79-2.571 19.16-1.01 37.87 7.74 55.5m106.96-69.7c-.41-10.8-.271-21.6-1.271-32.38-.29-3.08-1.27-6.26-.1-9.39-.28-1.13-.72-2.24-.81-3.38a418.505 418.505 0 00-14.66-80.17c-6.41-22.51-14.79-44.18-27.05-64.11-9-14.64-19.65-27.95-35.03-36.78-10.55-6.06-21.75-8.08-33.61-6.66-2.12.25-5.87-.17-5.59 4.06.26 3.97.45 7.95.84 11.92 2.3 23.29 3.31 46.68 6.32 69.92 2.22 17.11 3.69 34.32 6.66 51.33 1.48 19.42 6.34 38.31 9.1 57.52.41 2.81 1.83 3.63 4.5 2.76 5.87-1.92 11.19-.22 16.19 2.81 5.86 3.55 11.35 7.6 15.91 12.75 1.16 1.31 2.56 2.07 4.01 2.86-.03 1.17.91 1.67 1.6 2.37 12.44 12.75 24.19 26.06 34.58 40.57 1.93 2.7 1.77 4.38-.15 6.92-9.99 13.31-20.85 25.88-32.17 38.06-2.17 2.33-2.81 4.31-1.46 7.48 11.8 27.67 23.41 55.43 35.13 83.14.49 1.16 1 2.94 2.39 2.9 1.84-.04 1.89-2.04 2.24-3.42 3.42-13.39 5.67-26.99 7.78-40.62 1.08-7.04 1.89-14.12 2.82-21.17.77.68.92 1.3.95 1.93.98 16.69-.73 33.27-3.09 49.69-4.44 30.94-12.97 60.73-27.45 88.64-9.22 17.75-20.28 34.09-36.64 46-19.45 14.16-40.47 16.72-62.61 6.6-20.98-9.6-34.77-26.32-44.82-46.41-11.02-22.02-16.64-45.9-22.71-69.58-1.07-4.15-1.07-8.58-3.49-12.34.22-4.79-.87-9.33-2.54-13.77-.16-6.41-1.44-12.68-2.86-18.9a16.876 16.876 0 01-.43-4.34c.69-.56.72-1.12 0-1.68-.14-1.71-.28-3.41-.41-5.12.42-.38.85-.76 1.28-1.14 2.63 12.39 5.37 24.76 9.18 36.86-.22 3.16 1.16 5.75 2.95 8.19-.29 4.98 1.94 9.39 3.41 13.91 7.3 22.39 16.5 43.99 29.58 63.63 10.55 15.85 23.28 29.66 42.42 35.37 15.63 4.66 30.27 1.97 44.02-6.56 10.49-6.5 18.79-15.26 26.12-25.05 1.44-1.92 1.95-3.81 1.66-6.43a1304.137 1304.137 0 00-8.18-60.74c-3.02-19.02-6.77-37.93-10.36-56.86-.39-2.06.03-4.4-1.51-6.2-1.41-6.97-2.91-13.93-4.19-20.92-.58-3.09-1.6-3.86-4.58-2.21-8.63 4.78-16.81 2.99-24.21-2.71-11.76-9.06-16.85-22.08-19.84-35.94-4.48-20.77-3.48-41.34 4-61.39.67-1.8 1.03-3.43.34-5.29-9.49-25.55-18.96-51.11-28.44-76.66-1.45-3.96-2.91-7.92-4.36-11.87-4.11-13.69-9.59-26.88-14.45-40.3-2.94-8.12-5.97-16.22-8.98-24.32-.44-1.19-.29-3.08-1.89-3.19-1.78-.13-2.21 1.74-2.85 3.06-4.18 8.69-7.77 17.65-10.67 26.82-3.44 10.89-7.39 21.69-8.85 33.13-1.72 2.96-2.53 6.19-2.88 9.56-5.43 29.84-8.88 59.9-9.73 90.24-.03.98-.25 1.96-.39 3.02-1.33-.76-.85-1.92-.88-2.84-1.12-26.22.38-52.29 4.47-78.21.29-1.79.19-3.64.27-5.46 1.97-5.24 2.23-10.85 3.52-16.24 5.26-23.51 10.91-46.9 19.32-69.56 8.8-23.73 21.14-44.64 43.22-58.56 22.25-14.03 45.2-15.29 67.51-.74 22.35 14.56 35.44 36.51 46.06 60.09 9.4 20.88 14.67 42.95 18.67 65.5 4.11 23.15 5.65 46.47 7.29 69.83.94 13.39-.03 26.77-.12 40.17" fill="#fcfbfc"/><path d="M416.211 678.921l1.392.127c.057-1.365-.42-2.543-1.298-3.68-.991 1.204-.503 2.38-.094 3.553" fill="#eaeaea"/><path d="M676.225 509.16c-.154.576-.31 1.152-.463 1.728.698-.432.754-1.034.463-1.729" fill="#825a35"/><path d="M519.833 564.026l-.995.018a1.2 1.2 0 01.05.84l.945-.858" fill="#683723"/><path d="M412.028 630.077c.295-.052.587-.118.877-.199-.393-.38-.714-.44-.877.2" fill="#eaeaea"/><path d="M887.998 189.895l-4.36-11.866c-2.919-.573-5.816-1.356-8.762-1.683-8.006-.889-15.903-3.773-24.105-1.46-6.273 1.804-11.64 5.638-17.708 7.905-5.423 29.843-8.875 59.9-9.729 90.235-.028.983-.245 1.961-.385 3.02-1.335-.752-.848-1.919-.888-2.838a393.444 393.444 0 014.48-78.21c.282-1.79.186-3.637.265-5.459-9.42 7.043-15.686 16.673-21.1 26.784-11.324 21.138-16.117 44.285-19.616 67.717-5.564 37.258-1.004 73.336 13.955 107.905 6.377 14.736 14.68 28.354 28 38.137-.162-6.417-1.44-12.68-2.859-18.9a16.999 16.999 0 01-.426-4.345c-.5-.558-.6-1.119 0-1.68-.14-1.705-.28-3.41-.418-5.115-2.137-3.428-1.469-6.997-.07-10.673l1.352 9.527c2.635 12.393 5.373 24.76 9.181 36.863 9.942 4.096 20.134 6.198 31.011 5.14 12.353-1.202 24.76-1.827 37.144-2.702-1.16-1.312-2.714-1.785-4.349-2.252-6-1.715-11.357-4.767-16.086-8.749-17.569-14.803-27.429-34.459-33.767-55.939-3.606-12.217-6.19-24.708-7.37-37.574-1.708-18.623-1.72-37.175.762-55.58 3.081-22.846 9.791-44.692 21.835-64.642 4.87-8.068 11.067-14.947 18.178-21.036 1.626-1.39 3.5-2.592 5.835-2.53" fill="#994799"/><path d="M467.32 317.95c-.603-1.584-2.096-2.064-3.427-2.69-31.887-15.022-64.216-29.032-96.907-42.204-1.687-.679-3.48-1.093-5.224-1.632.521 6.045 3.071 11.565 4.525 17.37.802 3.198.032 4.217-3.372 3.842-22.822-2.514-45.662-4.852-68.486-7.346-3.722-.407-4.883.48-3.647 4.33 2.237 6.971 3.96 14.107 6.192 21.08 1.297 4.048.238 5.421-3.997 5.322-17.314-.4-34.633-.672-51.95-.875-10.25-.119-20.5-.02-31.073-.02 1.11 1.971 2.765 1.943 4.093 2.325a85564.12 85564.12 0 00114.303 32.77c1.556.444 3.347 1.497 4.672-.005 1.284-1.457.05-3.17-.38-4.72-1.696-6.099-3.372-12.202-5.19-18.264-1.028-3.429-.277-4.512 3.495-3.852 21.477 3.753 42.997 7.26 64.478 10.988 10.61 1.841 10.604 1.97 7.77-8.446-1.927-7.07-3.794-14.159-5.91-21.17-1.205-3.998-.165-4.68 3.72-3.654 20.93 5.534 41.905 10.891 62.87 16.288 1.122.29 2.296.38 3.445.562" fill="#1f97d3"/><path d="M678.098 409.114c-.183-3.576-.365-7.15-.551-10.73-7.303-5.115-15.65-7.954-23.915-10.936-28.098-10.14-56.922-17.237-86.685-20.236-3.455-.348-6.971-.083-10.46-.102 8.529 10.093 14.723 21.458 18.562 34.103 18.166-1.847 36.279-3.563 54.65-2.515 16.785.958 33.022 3.413 48.399 10.416" fill="#342213"/><path d="M764.158 243.234c4.826 0 9.652-.02 14.478.01 2.057.011 3.693-.364 3.567-2.96-.116-2.39-1.812-2.445-3.549-2.446-9.985-.002-19.97.028-29.955-.026-2.13-.01-3.562.352-3.453 2.963.102 2.456 1.67 2.473 3.434 2.466 5.16-.02 10.32-.007 15.478-.007M741.738 344.191c4.97 0 9.94-.002 14.908 0 1.858.001 3.75.19 3.825-2.586.076-2.697-1.595-2.808-3.588-2.8-9.939.03-19.878.024-29.818.002-1.984-.005-3.714.14-3.623 2.813.094 2.734 2.027 2.57 3.884 2.57 4.804.002 9.608.001 14.412.001M741.72 286.862c-4.806 0-9.612-.023-14.417.012-1.745.012-3.808-.486-3.864 2.44-.052 2.693 1.6 2.804 3.593 2.798 9.942-.03 19.885-.026 29.828-.002 1.966.005 3.649-.054 3.609-2.774-.043-2.93-2.076-2.454-3.835-2.464-4.971-.029-9.942-.01-14.914-.01" fill="#eaeaea"/><path d="M743.07 384.87c.354 2.66 2.485 1.728 3.902 1.74 9.633.09 19.267.03 28.901.056 2.317.006 4.377-.035 4.29-3.28-.082-3.02-2.103-2.886-4.152-2.886-9.799.001-19.599-.032-29.398.037-1.3.01-3.187-.735-3.526 1.605 10.77-.077 21.541-.17 32.311-.209 1.242-.004 3.076-.26 3.062 1.6-.014 1.823-1.83 1.613-3.085 1.607-10.769-.06-21.536-.173-32.305-.27" fill="#acbbc4"/><path d="M743.07 384.87c10.77.097 21.536.21 32.305.27 1.255.006 3.071.216 3.085-1.607.014-1.86-1.82-1.604-3.062-1.6-10.77.038-21.54.132-32.31.21l-.018 2.726" fill="#fcfbfc"/><path d="M541.95 639.766c-2.633-3.774-4.648-1.021-6.154.908-3.067 3.93-4.93 8.548-6.568 13.25-.446 1.282-.368 3.383-2.313 3.33-1.547-.042-1.44-1.985-2.068-3.072-.89-1.541-1.027-3.541-2.81-4.528-9.308 21.908-25.78 34.944-49.087 39.292-11.274 2.103-22.49 1.5-33.542-1.755-1.19-.35-2.488-1.042-4.145-.247.934 4.259 4.1 6.6 7.52 8.535 9.5 5.376 19.708 6.707 30.396 4.904 1.612-.272 3.521-1.06 4.663.474.964 1.296.024 3.025-.746 4.203-4.72 7.225-5.63 15.554-7.027 23.724-2.513 14.69 10.804 22.702 22.225 19.048-2.81-1.113-5.21-2.061-7.607-3.013-5.032-2-7.362-5.89-7.944-11.115-.96-8.638 2.766-15.767 8.001-21.89 8.58-10.035 18.854-18.17 31.156-24.56.297 11.819-3.109 24.509 10.424 33.072-3.444-21.101-1.742-40.652 6.304-60.216 3.253 4.743 2.11 9.637 2.902 14.04 2.431 13.487 6.658 26.153 15.801 36.559 6.5 7.395 14.64 12.339 24.94 12.895-4.818-2.691-9.255-5.801-13.183-9.692-8.133-8.056-12.947-17.955-16.797-28.536-3.664-10.068-5.91-20.421-7.194-31.013-.624-5.151-1.272-10.353 2.852-14.597M558.613 768.089c-1.92 3.286-5.153 3.292-6.143 6.229 3.994 1.45 7.835.61 11.617-.424 2.247-.615 3.93-.738 5.654 1.437 11.436 14.416 27.253 16.5 44.097 15.056 4.3-.37 8.886.14 13.697-2.657-6.433-.964-12.15-1.441-17.683-2.717-20.244-4.668-34.763-15.558-38.585-37.226-.802-4.546-1.906-4.773-5.35-1.986-8.438 6.83-17.41 12.807-28.415 14.763-5.25.933-10.537.358-17.21.089 12.061 8.958 24.08 11.515 38.321 7.436M688.398 618.95c-1.257 5.883-1.785 11.846-1.937 17.848 10.446 2.461 20.54 6.627 31.71 5.276 10.576-1.28 19.694-5.529 27.938-12.005.635-.499 1.19-1.185.7-2.989-9.521 4.36-19.334 7.452-30.084 4.721 3.17-.932 6.375-1.764 9.506-2.816 6.73-2.262 11.943-6.439 15.349-12.72.595-1.099 1.642-2.466.279-3.604-1.128-.94-2.07.244-3.075.783-16.047 8.62-32.748 11.38-50.386 5.506M655.512 673.783l-8.736 7.3c10.724 4.51 21.537 8.813 31.194 15.504 10.7 7.415 21.476 14.688 26.779 27.383 1.742 4.167 2.04 8.595 2.239 13.578 3.209-3.936 4.2-8.39 3.734-15.411-.38-5.696-2.757-10.554-6.307-14.93-3.336-4.11-7.837-6.874-12.34-9.765 1.824-1.986 3.286-1.165 4.692-.95 5.308.81 10.607.974 15.838-.48 1.519-.42 4.028-.235 4.076-2.058.055-2.051-2.423-1.741-3.968-2.001-8.211-1.382-16.277-3.341-24.321-5.498-10.311-2.764-20.384-6.094-29.99-10.767-1.03-.501-1.93-1.264-2.89-1.905M740.339 812.385c-38.816-7.684-69.19-28.342-92.584-59.943 8.203 20.025 19.84 37.331 37.876 49.308 16.538 10.983 34.893 14.691 54.708 10.635M670.484 646.987c2.253-1.065 4.554-2.043 6.738-3.233 1.135-.618 2.858-.867.92-3.135-1.74-2.037 1.539-1.566 2.37-2.413 1.583-1.614 5.394-2.909-.006-4.455-1.862-.533-1.42-1.894-1.043-3.234.55-1.958.627-3.957.034-5.908-1.338-4.4-3.97-5.407-7.83-2.85-7.384 4.892-14.75 9.752-24.168 9.4-.476-.019-1.155.061-1.411.37-2.488 2.985-1.386 6.27-.443 9.38.9 2.966 2.784 6.02 6.067 5.704 3.703-.356-1.358-3.214.94-4.76 3.148 2.148 5.415 6.226 10.062 6.191.37-3.837 1.889-5.049 5.249-2.376.729.58 1.675.886 2.52 1.32M754.814 673.457c-26.63 3.057-51.717-1.462-75.2-15.708 4.591 18.674 53.317 28.621 75.2 15.708M603.172 676.395c4.284 3.26 8.58 6.503 12.849 9.784 2.917 2.243 5.47 4.824 7.48 7.945 3.698 5.736 2.577 9.31-3.856 12.064-1.038.445-2.305.507-3.393 2.362 7.887.792 15.343 1.236 22.475-1.882 3.008-1.315 2.767-5.183-.27-8.439-6.778-7.269-15.08-12.505-23.735-17.134-3.582-1.916-6.772-4.754-11.55-4.7M713.491 774.879c-.012 8.075.587 15.985 7.812 20.932 5.632 3.856 11.924 2.208 18.17.838-12.237-3.13-20.628-10.461-25.982-21.77M629.102 673.769c-3.188-4.369-8.523-4.849-12.945-6.791-7.112-3.122-14.551-5.542-22.331-6.645-2.882-.409-5.663-.206-8.258 1.057-1.351.657-3.44 1.279-1.806 3.586 7.668-2.395 14.944.15 22.189 2.005 7.786 1.994 15.44 4.503 23.15 6.788M593.625 671.093c1.09 1.586 2.406 2.936 4.088 3.901 2.553-5.404-2.385-2.957-4.088-3.9" fill="#eaeaea"/><path d="M621.726 271.14c-40.38-15.47-81.12-29.94-122.09-43.78-48.88-16.52-97.96-32.43-148.46-43.39-32.74-7.11-65.69-12.93-99.37-12.51-13.14.16-26.26 1.09-38.62 6.33-3.14.29-5.4 2.03-8.47 4.99 3.99-.57 6.51-1.46 8.89-2.81.98-.26 1.96-.51 2.94-.76.31-1.07 1.06-1.32 2.06-1.08 8.65-.26 17.15-2.11 25.83-2.27 37.15-.67 73.24 6.18 108.93 15.49 73.94 19.3 146.58 42.89 219.22 66.48 15.93 5.18 31.89 10.27 47.83 15.4.44-.69.88-1.39 1.31-2.09" fill="#fff"/><path d="M621.73 271.144l-1.312 2.088c10.787 4.593 22.043 7.812 33.174 11.394l1.126-1.321-32.988-12.16" fill="#eaeaea"/><path d="M654.719 283.305c-.376.44-.752.88-1.126 1.322 6.894 3.135 13.934 5.85 21.414 7.205 1.317.239 2.598.4 3.725 1.163l-.041.046c-7.44-4.604-15.761-7.033-23.972-9.736" fill="#eaeaea"/><path d="M678.731 292.995l1.31.601-1.35-.556.04-.045" fill="#acbbc4"/><path d="M887.998 189.895c-2.336-.062-4.209 1.14-5.835 2.53-7.11 6.09-13.308 12.968-18.178 21.036-12.044 19.95-18.754 41.796-21.835 64.641-2.482 18.407-2.47 36.959-.762 55.582 1.18 12.866 3.764 25.357 7.37 37.574 6.338 21.48 16.198 41.136 33.767 55.939 4.73 3.982 10.085 7.034 16.086 8.749 1.635.467 3.19.94 4.346 2.25l12.142-.524 5.587-.481-.192-.001c12.43-3.478 22.026-10.998 30.283-20.68 5.632-6.601 9.34-14.388 14.137-21.494-1.41-6.968-2.904-13.921-4.192-20.912-.572-3.096-1.599-3.86-4.578-2.21-8.63 4.78-16.81 2.99-24.21-2.714-11.754-9.061-16.85-22.082-19.838-35.94-4.478-20.771-3.48-41.34 4.003-61.391.671-1.8 1.027-3.433.338-5.288-9.494-25.55-18.963-51.108-28.439-76.665" fill="#883c87"/><path d="M946.734 250.877c-6.698.233-11.396 3.839-15.32 8.563-8.365 10.074-12.133 22.117-13.835 34.791-2.574 19.162-1.016 37.872 7.732 55.5 1.178 2.374 2.484 4.747 4.11 6.824 10.342 13.221 18.937 14.498 31.073 4.46 17.442-14.428 31.684-31.768 45.62-49.416 1.428-1.809 1.157-3.157-.157-4.835-13.665-17.446-27.735-34.53-44.916-48.71-4.194-3.461-8.493-7.093-14.307-7.177" fill="#f69724"/><path d="M837.758 443.95c10.724-.94 21.494-.848 32.239-1.463 15.154-.867 30.122-3.033 45.126-4.824-4.072.183-8.12.357-12.166.533-12.381.877-24.788 1.501-37.14 2.703-10.877 1.058-21.07-1.044-31.012-5.139-.22 3.162 1.164 5.75 2.953 8.19M850.771 174.887c-4.903-.906-9.814-1.743-14.829-1.654-1.714 2.96-2.526 6.19-2.879 9.56 6.066-2.268 11.435-6.102 17.708-7.906" fill="#184e84"/><path d="M825.624 398.897c-.45-3.176-.9-6.352-1.353-9.527-1.398 3.676-2.066 7.245.071 10.673.427-.383.854-.765 1.282-1.146M824.759 405.157c-.6.562-.5 1.122 0 1.681.683-.563.719-1.122 0-1.68" fill="#acbbc4"/><path d="M551.633 637.265c-1.53 1.174-3.153.28-4.034 1.45-.14 1.159.74 1.492 1.335 2.016 5.123 4.524 12.027 3.65 17.88 4.627 7.866 1.313 14.306-8.262 13.022-16.452-.381-2.43-1.824-2.735-3.77-3.032-5.894-.9-11.89-1.181-17.656-2.873-3.358-.986-6.823-1.9-9.398-4.361-2.313-2.211-4.42-2.967-6.74-.36-2.198 2.47-2.268 5.175.059 7.56 1.537 1.575 2.67 2.48-.406 3.624-1.818.675-.731 2.179.077 3.26 2.265 3.033 5.619 3.903 9.63 4.54" fill="#eaeaea"/><path d="M580.194 606.263c-.073-.823-.046-1.67-.236-2.466-.989-4.137-2.243-8.375-7.3-8.827-5.068-.454-7.168 3.416-8.68 7.422-1.716 4.543-1.57 9.132.696 13.471 3.016 5.773 8.94 6.122 12.661.753 2.133-3.079 3.02-6.589 2.86-10.353M663.193 606.954c.056-6.552-2.962-11.562-7.265-12.06-4.594-.533-8.33 3.698-9.665 10.654-.62 3.231-.129 6.303.971 9.25 1.083 2.906 3.05 5.271 6.384 5.575 3.368.306 5.513-1.839 7.221-4.43 1.625-2.468 2.322-5.283 2.354-8.989" fill="#342213"/><path d="M547.951 550.97c-.024-1.665.492-3.355-.237-4.988-8.702 1.278-16.777 3.975-23.455 10.035-2.455 2.228-4.024 4.833-4.456 8.118 8.913-5.392 18.204-9.977 28.148-13.164" fill="#683723"/><path d="M678.098 409.114c-15.377-7.003-31.614-9.458-48.4-10.416-18.37-1.048-36.483.668-54.65 2.515-.143 7.901-.29 15.8-.435 23.701.115 1.678.369 3.372-.623 4.908-.81 24.418-1.308 48.853-2.591 73.246-.48 9.118-.167 18.282-1.325 27.365 2.378.323 2.43-1.858 3.16-3.117 5.662-9.776 11.21-19.619 16.858-29.404.612-1.06.849-2.826 2.496-2.725 1.35.084 1.45 1.691 1.979 2.65 2.085 3.783 4.037 7.64 6.038 11.47 4.343-.922 5.464-5.588 8.85-7.62 4.659-5.187 9.402-10.3 13.945-15.587 2.83-3.295 4.703-2.206 6.299.987 2.469 4.94 4.027 10.16 4.592 15.668.619 1.115-.316 2.925 1.56 3.473l5.665-6.287c2.683 6.847 3.718 13.517 4.32 20.282 4.603-4.382 6.57-10.388 9.256-15.836 10.41-21.118 18.652-43.042 22.025-66.497 1.37-9.525 2.552-19.12.98-28.776" fill="#15385f"/><path d="M570.074 530.433c1.158-9.083.845-18.247 1.325-27.365 1.283-24.393 1.78-48.827 2.589-73.243-.403.71-1.015 1.372-1.176 2.13-2.821 13.333-7.22 26.204-12.082 38.872-2.647 6.896-4.273 14.348-9.053 20.33-1.287 4.708.94 5.354 4.903 4.45 2.052-.468 4.227-.4 6.345-.575 3.855.058 4.523 1.421 1.846 4.326-2.836 3.08-6.05 5.67-9.811 7.488-4.135 1.998-4.911 4.548-2.6 8.706 4.978 8.953 6.798 18.905 8.282 28.911 2.206 2.31 3.293 1.438 3.703-1.309.653-4.37 1.269-8.745 1.972-13.107.108-.672-.103-1.874 1.089-1.759.87.085 1.193.98 1.337 1.814l1.33.331M506.749 414.002l1.967 6.012 1.018 1.987c.03.307.052.615.06.923 1.265.745 2.364.59 3.715-.106 11.002-5.663 22.71-9.44 34.614-12.642 2.759-.743 5.456-1.328 4.123-5.159-1.025-2.946-.948-6.608-6.294-5.278-6.451 1.605-12.514 4.607-19.212 5.242l-19.992 9.021z" fill="#683723"/><path d="M551.676 491.156c4.78-5.981 6.406-13.433 9.053-20.33 4.863-12.667 9.262-25.538 12.083-38.871.16-.758.772-1.42 1.176-2.13.993-1.538.74-3.233.624-4.91-2.966 1.179-2.98 4.254-3.995 6.567-7.736 17.638-14.553 35.65-21.396 53.648-1.02 2.685-2.368 5.653 2.455 6.026M560.642 544.463c-1.483-10.006-3.304-19.958-8.282-28.912-2.311-4.157-1.535-6.707 2.6-8.706 3.762-1.818 6.975-4.407 9.81-7.487 2.678-2.905 2.01-4.268-1.845-4.326-4.495 4.892-10.906 6.04-16.69 8.31-3.398 1.331-3.921 2.5-1.92 5.706 6.135 9.836 9.622 20.612 10.25 32.248 1.715 1.651 3.778 2.636 6.077 3.167M564.153 422.787c3.975.127 8.228-3.766 8.4-7.691.204-4.622-4.793-9.912-9.38-9.933-4.075-.018-8.187 3.954-8.16 7.88.03 4.415 4.901 9.608 9.14 9.744" fill="#342213"/><path d="M499.769 381.06c-2.305 3.003-7.693 4.317-5.208 10.609 3.587-8.546 11.579-10.286 18.427-13.538 3.73-1.771 7.823-2.78 11.752-4.133 3.706-2.18 8.184-1.99 12.322-3.835-1.423-1.57-2.852-1.044-4.183-.65-10.128 3.005-20.342 5.76-29.825 10.593-.998.508-2.185.645-3.285.954M507.789 487.985c-1.542-3.38-3.187-6.694-6.065-9.312 1.54 7.428 5.343 14.022 7.08 21.3l.92 2.035c.028 1.702.199 3.372 1.062 4.89 2.864-2.92.705-6.126.212-9.046-.568-3.373-2.097-6.585-3.21-9.867" fill="#683723"/><path d="M500.273 401.668c.122 3.145.827 4.597 2.803 6.061.163-2.43-.766-3.772-2.803-6.061M506.747 414.002c-.155-.568-.192-1.239-.996-1.289-.096-.006-.298.197-.292.293.05.805.721.841 1.29.996zM509.733 422c-.339-.662-.678-1.325-1.018-1.986-1.005 1.351-.08 1.713 1.018 1.986M509.725 502.008l-.921-2.036c-1.106 1.317-.223 1.736.92 2.036" fill="#825a35"/><path d="M570.074 530.433l-1.331-.33c3.027 1.646 3.524 7.101 6.539 6.804 2.65-.262 1.728-5.4 3.5-7.95 1.136-1.637 2.34-3.127 4.472-4.4 1.03 3.661 1.997 6.924 4.803 9.316 2.654 2.263 4.643 3.04 6.658-.675 2.132-3.932 5.536-6.083 10.12-6.126l3.098-2.282c-.563-6.05-4.628-10.444-7.328-15.483-2.001-3.83-3.953-7.686-6.038-11.47-.53-.959-.63-2.566-1.98-2.65-1.646-.1-1.883 1.664-2.495 2.725-5.648 9.785-11.196 19.628-16.858 29.404-.73 1.26-.783 3.44-3.16 3.117" fill="#f8f9fa"/><path d="M607.933 524.79l-3.098 2.282c-.274 1.28-.762 2.561-.756 3.84.005 1.125.524 2.381 1.729 2.81 1.57.558 1.85-.978 2.464-1.858 1.42-2.035 2.656-4.216 4.219-6.131 3.773-4.619 4.199-4.519 7.509.741.954 1.514 1.606 3.319 3.467 4.075-.023-1.548-.273-3.096-1.645-3.985-3.01-1.949-1.518-3.798-.035-5.706l.623-1.071c.14-.261.312-.501.51-.72 3.17-5.871 6.277-11.786 11.37-16.315-.564-5.504-2.122-10.726-4.591-15.665-1.596-3.193-3.468-4.282-6.3-.986-4.542 5.285-9.285 10.399-13.941 15.584.08 6.276.199 12.554.214 18.832.004 1.596.179 3.398-1.74 4.273" fill="#1f97d3"/><path d="M622.921 519.067c-.199.219-.37.459-.511.719l-.624 1.073c-1.482 1.907-2.974 3.756.035 5.705 1.372.889 1.622 2.438 1.646 3.985.453 2.309.824 5.075 3.772 5.047 2.829-.026 2.817-2.956 3.213-4.927 1.462-7.268 1.394-7.3 7.775-2.77 1.003.713 2.066 1 3.241 1.069 1.527-2.88 4.005-5.288 4.368-8.747-.603-6.762-1.638-13.433-4.32-20.28l-5.665 6.287c-4.41 4.179-7.486 9.702-12.93 12.839" fill="#f8f9fa"/><path d="M696.958 522.211c2.43-2.725 4.837-5.47 7.3-8.165 1.11-1.215 1.332-2.486 1.047-4.117-.712-4.074-1.525-8.148-.673-12.346.507-2.497-.595-3.687-3.309-3.5-8.495.586-16.689 8.886-17.385 17.75 5.135 2.464 8.285 7.416 13.02 10.378M746.033 489.877c-7.563-12.361-27.538-12.443-34.999-.62-1.008 1.597-1.153 2.842.801 3.521 2.923 1.016 5.194 2.904 7.365 4.995 1.175 1.131 2.63 1.676 4.1.812 7.047-4.145 14.702-6.771 22.733-8.708M725.41 512.019c.687-3.594-1.825-5.879-4.162-7.277-2.272-1.358-4.068 1.459-5.756 2.922-6.916 6-6.894 6.027-2.775 14.439.731 1.495 1.461 2.99 2.22 4.47 4.66 9.096 5.854 9.43 14.77 4.153.265-5.488 1.17-11.135-6.062-13.413-2.005-.632-5.602-1.624-4.895-4.015.793-2.686 4.318-1.055 6.66-1.279M746.915 509.14c1.798-3.684 2.041-7.617 1.91-11.626-.109-3.268-1.108-4.81-4.914-3.976-5.4 1.183-10.53 2.93-15.349 5.562-1.592.87-4.558 1.059-4.036 3.55.49 2.327 2.104 4.668 4.781 5.266 2.028.454 3.57 1.692 5.365 2.497 4.082-.426 8.162-.85 12.243-1.272M759.697 507.168c3.161-2.377 5.738-5.498 9.451-7.186 2.303-1.047 1.704-2.674.185-3.858-4.545-3.543-9.784-4.704-15.447-3.964-2.25.294-2.245 2.075-2.198 3.79.114 4.144.155 8.28-.968 12.326 2.994-.371 5.985-.74 8.977-1.108M699.573 524.72c5.112 3.62 9.762 8.027 16.145 9.487-2.307-4.726-5.247-9.13-7.03-14.133-1.342-3.763-3.232-3.739-5.386-.522-1.18 1.765-3.104 2.998-3.729 5.168M706.75 501.427c.773 2.39-.395 5.428 2.523 6.95.622.324 8.738-6.292 8.817-6.993.177-1.552-5.748-6.363-7.9-6.14-3.977.417-2.638 3.887-3.44 6.183" fill="#fbd7a6"/><path d="M772.567 550.055c-.26-2.554-1.631-4.141-4.081-4.251-2.692-.123-4.447 1.375-4.495 4.158-.043 2.525 1.513 4.058 3.974 4.187 2.743.144 4.212-1.483 4.602-4.094" fill="#acbbc4"/><path d="M920.687 437.19s-.192.003-.192.001.192 0 .192 0" fill="#184e84"/><path d="M607.933 524.79c1.918-.875 1.743-2.677 1.739-4.273-.015-6.278-.133-12.556-.214-18.832-3.39 2.035-4.51 6.7-8.853 7.622 2.7 5.039 6.765 9.432 7.328 15.483M622.921 519.067c5.444-3.137 8.52-8.66 12.93-12.84-1.876-.546-.941-2.356-1.56-3.472-5.095 4.526-8.201 10.44-11.37 16.312M621.786 520.858l.624-1.072-.624 1.072" fill="#acbbc4"/></g></svg>