<svg width="1186" height="1147" viewBox="0 0 1186 1147" fill="none" xmlns="http://www.w3.org/2000/svg">
<path d="M796.958 809.628C803.587 809.628 810.215 809.654 816.843 809.615C819.188 809.602 821.899 810.238 821.956 806.33C822.009 802.703 819.765 802.623 817.143 802.631C803.887 802.663 790.63 802.668 777.374 802.628C774.716 802.62 772.514 802.768 772.583 806.359C772.658 810.26 775.408 809.596 777.735 809.612C784.142 809.659 790.548 809.628 796.958 809.628V809.628ZM796.983 733.189C790.578 733.189 784.17 733.189 777.766 733.191C775.291 733.191 772.712 732.973 772.588 736.618C772.467 740.182 774.772 740.375 777.419 740.369C790.671 740.339 803.924 740.333 817.175 740.373C819.832 740.381 822.06 740.234 821.96 736.638C821.859 732.935 819.336 733.189 816.86 733.19C810.233 733.193 803.607 733.19 796.983 733.19V733.189ZM826.875 867.799C819.995 867.799 813.118 867.818 806.239 867.79C803.886 867.78 801.796 867.803 801.659 871.078C801.515 874.558 803.424 875.043 806.263 875.028C819.576 874.956 832.889 874.996 846.204 874.992C848.52 874.991 850.78 874.92 850.935 871.732C851.103 868.27 848.921 867.771 846.179 867.786C839.745 867.824 833.311 867.799 826.875 867.799V867.799ZM798.782 682.589C799.234 685.709 801.75 684.717 803.483 684.729C816.547 684.822 829.613 684.777 842.68 684.778C845.412 684.778 848.105 684.958 848.213 680.931C848.331 676.603 845.585 676.549 842.493 676.557C829.651 676.591 816.805 676.513 803.96 676.631C802.072 676.649 799.231 675.405 798.759 678.951C798.766 680.165 798.772 681.378 798.782 682.589V682.589ZM915.096 961.039C904.239 963.971 893.04 963.063 882.035 963.439C839.601 964.892 797.32 962.391 755.078 958.063C712.24 953.675 669.734 947.141 627.437 939.381C588.641 932.265 550.103 923.72 511.46 915.807C515.85 912.917 521.041 912.353 525.92 910.977C576.165 896.791 626.177 881.978 673.611 859.671C703.202 845.756 697.011 827.7 714.718 800.651C726.206 783.102 735.211 804.967 714.718 800.651C714.064 800.514 714.811 777.258 714.151 777.164C677.828 772.018 658.347 791.191 621.707 790.564C586.157 789.959 548.805 798.184 513.368 800.651C493.461 802.036 458.437 799.47 438.68 802.628C431.88 803.715 355.707 888.644 388.963 815.491C346.221 877.898 358.556 830.2 357.06 830.584C329.105 837.779 370.577 783.267 342.673 790.646C337.493 792.015 336.105 791.104 337.713 785.775C340.533 776.426 343.024 766.974 345.591 757.547C349.372 743.661 349.38 743.831 335.233 746.286C306.592 751.258 277.899 755.934 249.263 760.936C244.234 761.816 243.232 760.372 244.603 755.801C247.026 747.718 249.262 739.581 251.52 731.45C252.094 729.382 253.742 727.099 252.027 725.157C250.263 723.154 247.874 724.557 245.8 725.15C194.989 739.678 144.188 754.242 93.3966 768.842C91.6259 769.351 89.4166 769.314 87.9393 771.943C102.033 771.943 115.703 772.074 129.369 771.915C152.459 771.644 175.55 771.283 198.635 770.748C204.282 770.615 205.695 772.447 203.966 777.844C200.987 787.142 198.692 796.656 195.708 805.951C194.062 811.084 195.608 812.267 200.571 811.724C231.003 808.399 261.458 805.282 291.885 801.931C296.425 801.431 297.451 802.788 296.383 807.051C294.443 814.792 291.043 822.154 290.348 830.211C273.495 838.174 255.666 843.508 238.028 849.299C228.62 852.388 219.5 856.723 209.388 857.408C163.807 851.39 118.067 847.822 72.0553 847.566C59.8407 847.498 47.7927 844.831 36.5274 839.747C14.8075 829.944 3.66883 812.3 1.60617 789.258C-1.61649 753.262 8.26481 719.914 24.2461 688.071C52.3727 693.662 80.6846 697.258 109.431 697.869C150.02 698.729 190.075 694.098 229.978 687.511C243.748 685.239 257.427 682.411 271.145 679.837C288.561 676.755 305.963 673.595 323.395 670.607C358.719 664.554 393.988 658.157 429.534 653.47C435.449 652.691 441.317 651.55 447.209 650.577C448.205 653.021 449.276 655.435 450.178 657.913C454.488 669.746 462.278 678.739 472.65 685.653C474.256 686.799 475.769 688.114 477.484 689.066C500.128 701.674 524.702 704.045 549.981 702.631C554.633 702.605 559.321 702.959 563.927 702.495C603.611 698.495 642.042 689.035 679.507 675.514C690.527 671.538 701.656 667.753 711.391 660.939C719.256 657.881 726.147 653.411 731.662 646.947C743.094 637.773 743.8 627.506 733.715 617.271C731.71 615.237 729.728 613.176 727.738 611.125C758.447 606.434 789.431 604.781 820.371 602.493C852.037 600.152 883.744 600.712 915.44 600.314C915.745 606.696 914.28 612.75 912.057 618.667C894.296 631.713 883.227 649.87 874.724 669.518C854.777 715.609 848.7 763.712 856.117 813.391C860.783 844.634 867.173 875.495 882.271 903.68C889.491 917.16 897.844 930 910.407 939.396C913.031 946.38 913.385 953.856 915.096 961.039" fill="#184E84"/>
<path d="M759.319 158.941C766.458 143.862 777.646 134.087 793.961 129.914C785.634 128.087 777.244 125.89 769.735 131.031C760.102 137.627 759.303 148.174 759.319 158.941ZM612.227 290.251C618.598 290.324 622.85 286.54 627.627 283.986C639.167 277.812 650.235 270.831 659.275 261.139C663.323 256.799 663.644 251.642 659.632 249.887C650.126 245.73 640.182 246.322 629.667 247.38C631.118 249.852 632.806 249.934 634.19 250.527C642.768 254.202 644.263 258.964 639.334 266.612C636.654 270.774 633.247 274.216 629.358 277.206C623.669 281.58 617.939 285.906 612.227 290.251V290.251ZM814.416 294.171C785.239 276.952 720.271 290.215 714.15 315.114C745.46 296.119 778.91 290.094 814.416 294.17V294.171ZM795.117 108.933C768.696 103.523 744.224 108.469 722.174 123.111C698.126 139.081 682.61 162.157 671.672 188.858C702.864 146.722 743.362 119.178 795.117 108.933V108.933ZM552.817 167.994C533.827 162.555 517.803 165.965 501.724 177.909C510.619 177.551 517.67 176.783 524.67 178.029C539.342 180.635 551.305 188.604 562.555 197.711C567.147 201.427 568.619 201.124 569.689 195.063C574.785 166.173 594.143 151.653 621.135 145.429C628.513 143.727 636.135 143.091 644.713 141.806C638.299 138.077 632.183 138.755 626.45 138.263C603.991 136.337 582.903 139.117 567.654 158.338C565.354 161.238 563.111 161.074 560.115 160.254C555.073 158.875 549.951 157.755 544.626 159.689C545.946 163.605 550.255 163.613 552.817 167.995V167.994ZM699.276 125.533C703.904 129.353 706.352 124.474 708.634 122.481C719.138 113.305 730.651 106.081 743.991 101.903C769.488 93.9194 794.275 96.6914 818.545 106.935C819.739 107.439 821.309 107.837 821.527 109.283C821.829 111.303 819.836 111.583 818.58 112.357C818.016 112.703 817.376 112.922 816.799 113.251C813.548 115.113 808.763 116.246 807.415 119.035C805.327 123.358 811.877 123.743 813.557 126.878C814.693 128.999 817.015 131.011 816.044 133.358C815.052 135.754 812.117 134.587 810.032 134.661C799.093 135.038 788.185 143.415 784.435 153.858C782.059 160.469 788.709 157.733 790.328 160.111C790.624 161.802 791.816 162.698 793.184 163.545C811.879 175.121 825.397 191.79 836.993 209.904C849.745 229.818 860.448 250.891 869.317 272.908C871.391 278.055 871.961 284.166 876.555 288.204C876.716 288.85 876.861 289.5 877.041 290.14C879.22 297.86 878.575 298.763 870.631 297.203C854.9 294.114 841.265 297.786 829.901 309.203C827.645 311.47 825.384 312.288 822.16 311.45C817.748 310.303 813.219 310.031 808.024 311.776C812.161 315.776 816.919 316.443 821.227 317.332C842.148 321.659 852.627 335.988 857.94 355.163C860.727 365.216 861.847 375.571 861.58 386.06C861.457 390.836 859.76 393.115 854.684 391.953C851.451 391.212 848.128 390.853 844.88 390.167C837.427 388.591 836.323 389.696 837.72 397.484C837.869 398.321 837.82 399.199 837.813 400.057C837.809 400.219 837.567 400.38 836.884 401.213L810.595 376.013L808.881 377.147C811.927 385.187 815.54 393.131 813.664 402.993C805.708 390.567 794.237 386.389 778.888 385.824C786.568 393.589 792.304 400.499 795.984 408.843C797.221 411.645 799.94 415.387 797.597 417.339C794.977 419.521 792.269 415.527 790.141 413.753C778.975 404.447 766.92 396.756 753.115 391.988C760.44 389.135 768.015 391.565 776.223 391.588C760.495 378.468 743.319 374.019 726.292 385.479L725.862 366.845C749.379 359.015 771.648 362.692 793.043 374.187C794.383 374.907 795.639 376.484 797.143 375.229C798.96 373.713 797.565 371.891 796.771 370.425C792.231 362.052 785.279 356.48 776.306 353.465C772.132 352.063 767.859 350.952 763.631 349.711C777.964 346.071 791.048 350.193 803.744 356.005C804.397 353.6 803.657 352.685 802.811 352.02C791.819 343.386 779.661 337.719 765.561 336.014C750.666 334.214 737.207 339.767 723.275 343.051C721.792 338.448 720.328 333.84 718.822 329.245C717.342 324.731 715.426 319.406 710.212 319.626C705.382 319.831 703.383 324.995 701.976 329.463C700.848 330.039 699.587 330.449 698.616 331.22C694.136 334.784 692.111 333.17 691.618 328.052C691.272 315.815 687.303 304.59 682.015 293.735C683.295 292.882 684.496 291.863 685.868 291.195C698.676 284.966 712.108 280.524 725.855 276.839C736.579 273.964 747.335 271.352 758.283 269.508C760.343 269.162 763.646 269.575 763.572 266.842C763.51 264.41 760.164 264.658 758.138 264.095C751.164 262.158 744.099 262.376 737.02 263.456C735.146 263.743 733.196 264.838 730.767 262.19C736.77 258.336 742.771 254.65 747.22 249.17C751.954 243.335 755.123 236.858 755.627 229.264C756.25 219.902 754.927 213.964 750.648 208.715C750.384 215.359 749.986 221.264 747.664 226.819C740.592 243.746 726.226 253.443 711.959 263.33C699.082 272.251 684.666 277.99 670.366 284C667.846 283.996 665.771 285.307 663.562 286.267C657.948 288.7 652.959 292.542 646.802 293.754C636.519 296.8 626.314 300.146 615.933 302.803C606.274 305.276 596.573 308.671 586.349 305.478L599.498 297.322C601.769 296.062 608.353 299.326 604.951 292.122C606.215 290.579 607.529 289.076 608.738 287.492C610.673 284.955 612.493 282.08 610.957 278.94C609.293 275.542 605.665 276.039 602.653 276.399C595.577 277.246 588.821 279.284 582.23 282.092C556.222 293.172 540.857 313.796 530.598 339.092C525.099 333.432 525.963 326.496 526.795 319.63C528.506 305.506 531.502 291.702 536.387 278.278C541.521 264.171 547.939 250.971 558.783 240.231C564.021 235.042 569.937 230.895 576.361 227.307C562.627 228.05 551.774 234.64 543.107 244.5C530.917 258.375 525.281 275.263 522.041 293.244C520.982 299.116 522.507 305.642 518.17 311.966C507.442 285.882 505.173 259.812 509.765 231.678C491.721 243.095 496.262 260.015 495.866 275.774C479.464 267.254 465.765 256.407 454.325 243.027C447.345 234.863 442.376 225.358 443.658 213.84C444.433 206.875 447.54 201.688 454.249 199.022C457.445 197.751 460.644 196.489 464.392 195.003C449.165 190.131 431.408 200.812 434.758 220.403C436.621 231.296 437.834 242.4 444.128 252.032C445.154 253.603 446.408 255.908 445.122 257.636C443.6 259.683 441.056 258.631 438.905 258.268C424.654 255.864 411.044 257.639 398.377 264.807C393.817 267.387 389.596 270.508 388.35 276.188C390.56 277.247 392.29 276.326 393.877 275.858C408.613 271.516 423.568 270.714 438.6 273.519C469.674 279.315 491.64 296.696 504.05 325.911C502.138 337.253 500.303 348.611 498.291 359.937C495.802 373.941 495.738 373.929 483.634 366.235C482.729 364.268 480.917 364.363 479.141 364.084C466.908 362.164 454.56 360.809 442.71 356.92C433.093 353.763 426.537 347.477 422.565 338.136C418.88 329.47 417.169 320.376 415.673 311.187C415.473 309.951 415.85 308.12 414.124 307.964C411.981 307.77 411.938 309.759 411.75 311.242C410.493 321.104 407.553 331.128 409.364 340.86C410.924 349.252 407.396 351.451 400.857 353.837C381.405 360.939 369.48 374.651 366.292 395.428C366.072 396.852 365.67 397.989 364.232 398.521C363.213 381.215 362.261 363.944 373.37 348.823C374.852 346.805 377.49 345.329 377.285 341.703C369.778 343.287 365.085 349.507 358.54 352.276C358.153 352.167 357.764 352.079 357.371 352.009L357.361 348.192C357.736 347.959 358.312 347.815 358.456 347.481C365.722 330.791 371.704 313.335 387.821 301.202C380.824 298.991 376.568 301.751 372.789 305.142C367.736 309.678 364.923 315.75 362.365 321.929C361.476 324.079 361.645 326.907 358.827 327.938C362.845 301.699 370.826 277.302 392.205 258.308C387.166 257.291 384.832 260.02 382.308 262.019C374.077 268.535 369.416 277.615 364.803 286.715L362.949 286.884C363.027 283.78 363.107 280.676 363.189 277.571C364.525 276.512 364.809 275.035 364.999 273.442C366.44 261.255 369.428 249.455 374.325 238.191C379.382 226.559 385.645 215.956 398.756 211.724C402.281 210.584 403.985 208.034 404.958 204.549C407.966 193.757 412.158 183.57 420.657 175.727C421.484 174.965 423.324 173.965 421.824 172.587C420.757 171.607 419.326 172.475 418.313 173.47C412.004 174.427 405.656 175.195 399.398 176.417C395.968 177.087 395.882 176.017 397.146 173.49C400.946 172.671 403.026 169.547 405.34 166.971C416.473 154.585 429.966 145.133 444.393 137.359C465.958 125.741 489.226 119.703 513.941 120.053C515.861 120.079 518.257 120.906 520.022 118.057C512.458 117.427 505.404 116.053 498.445 116.437C486.538 117.093 474.646 118.381 463.032 121.579C441.902 127.399 424.118 138.286 409.984 155.161C407.237 158.443 405.57 163.022 400.72 164.219C415.809 127.166 442.121 103.146 482.13 96.5741C505.573 92.7221 528.941 95.3794 551.653 102.694C552.606 107.794 549.374 112.753 551.079 119.547C557.662 99.1407 562.321 79.7848 570.773 61.6782C575.935 50.6115 581.301 39.7688 588.955 30.2115C590.782 27.9315 592.619 25.7689 592.982 22.7489C599.566 19.0902 600.094 19.3636 600.762 26.7462C600.882 28.0702 601.029 29.3915 601.195 30.7115C601.363 32.0422 601.515 33.6249 602.818 34.1649C604.847 35.0049 605.255 32.8475 606.245 31.8115C607.01 31.0115 607.745 30.1795 608.535 29.4062C616.345 21.7542 616.831 21.8702 619.706 32.0022C619.69 44.8822 619.629 57.7622 619.689 70.6395C619.707 74.7288 618.717 78.4274 617.049 82.1727C610.507 96.8554 599.957 108.442 588.854 119.666C587.155 121.386 584.571 122.699 584.461 126.995C601.31 116.331 618.211 107.615 632.391 94.7368C635.799 91.6408 638.126 87.6114 638.978 83.3567C640.614 75.1941 641.783 66.9915 648.04 59.0422C642.179 60.5889 640.109 65.6421 635.323 65.8875C634.479 51.3022 637.822 37.5955 643.675 24.6969C646.792 17.8302 649.968 10.297 657.676 6.67432L657.03 15.4129C664.23 6.72626 672.443 3.83166 680.963 1.549C680.542 2.55967 680.363 3.79566 679.663 4.549C667.304 17.873 666.534 33.8476 668.575 50.6982C670.608 67.4715 676.487 83.0114 683.535 98.0794C687.988 107.606 691.383 117.911 699.276 125.533" fill="#F8F9FA"/>
<path d="M712.972 801.451C711.47 802.468 709.763 802.684 708.006 803.002C698.032 804.81 688.646 808.428 679.456 812.607C664.613 817.384 649.605 821.678 635.222 827.802C613.963 834.644 592.689 841.436 571.449 848.335C474.596 879.788 377.733 911.24 279.152 936.972C231.571 949.392 183.452 958.531 133.916 957.625C122.339 957.415 111.01 954.957 99.4726 954.609C98.9286 953.429 98.3166 952.38 96.7353 953.16L92.8099 952.156C89.6313 950.348 86.2713 949.16 80.954 948.409C85.05 952.347 88.0606 954.668 92.2473 955.06C108.723 962.04 126.222 963.28 143.734 963.499C188.642 964.059 232.582 956.297 276.237 946.819C343.572 932.2 409.005 910.988 474.184 888.964C528.802 870.507 583.13 851.215 636.971 830.586L680.955 814.371C691.903 810.767 703 807.53 712.919 801.391L714.719 800.65L712.972 801.45V801.451ZM431.093 768.179C438.053 768.012 444.344 764.859 451.142 763.772C470.9 760.612 490.822 759.035 510.729 757.651C546.167 755.184 581.657 753.175 617.207 753.782C653.847 754.408 690.394 756.642 726.714 761.787C727.374 761.88 728.034 761.983 728.683 762.12C749.179 766.438 755.456 779.787 743.968 797.334C726.264 824.384 703.202 845.756 673.612 859.671C626.177 881.977 576.166 896.791 525.919 910.977C521.04 912.353 515.85 912.917 511.46 915.807C479.576 923.46 447.772 931.447 415.793 938.679C386.197 945.369 356.461 951.463 326.709 957.431C293.709 964.049 260.564 969.969 227.582 976.675C197.85 982.719 167.883 985.441 137.631 983.813C111.117 982.387 85.1593 978.085 61.7407 964.309C53.6207 959.533 46.6354 953.46 41.0047 945.86C34.7807 937.456 35.3074 926.647 42.7967 919.224C54.1367 907.98 68.722 902.156 83.2659 896.86C116.811 884.643 151.23 875.147 185.54 865.335C193.579 863.036 201.751 860.994 209.386 857.408C219.5 856.723 228.62 852.388 238.03 849.299C255.667 843.508 273.496 838.174 290.349 830.212C292.675 829.492 295.065 828.942 297.315 828.035C340.901 810.474 384.007 791.794 426.524 771.766C428.297 770.93 430.289 770.29 431.093 768.179V768.179ZM271.145 679.837C257.426 682.41 243.748 685.239 229.979 687.511C190.075 694.097 150.019 698.729 109.43 697.867C80.6833 697.258 52.3727 693.662 24.2474 688.071C43.4061 644.13 63.1913 600.533 93.2113 562.572C100.394 553.49 108.425 545.278 118.179 538.857C137.666 526.026 156.374 527.549 174.072 543.025C193.283 559.82 206.21 581.31 219.332 602.654C232.342 623.811 244.678 645.387 259.212 665.578C262.844 670.622 266.621 675.541 271.145 679.837" fill="#994799"/>
<path d="M692.255 382.84C692.212 377.899 691.283 374.145 689.116 370.856C686.839 367.4 683.979 364.54 679.49 364.948C675.042 365.353 672.42 368.507 670.976 372.381C669.51 376.311 668.854 380.407 669.683 384.715C671.462 393.989 676.443 399.631 682.568 398.92C688.306 398.256 692.33 391.576 692.255 382.84V382.84ZM581.59 383.76C581.803 378.743 580.622 374.063 577.778 369.957C572.815 362.797 564.918 363.264 560.898 370.961C557.874 376.747 557.681 382.865 559.969 388.921C561.985 394.264 564.785 399.424 571.542 398.819C578.285 398.216 579.957 392.565 581.275 387.049C581.529 385.989 581.493 384.859 581.59 383.761V383.76ZM543.507 342.425C538.161 343.277 533.686 344.437 530.667 348.479C529.589 349.921 528.141 351.927 530.563 352.828C534.667 354.352 533.154 355.559 531.105 357.659C528.002 360.84 528.095 364.444 531.027 367.737C534.122 371.215 536.93 370.208 540.014 367.26C543.447 363.979 548.067 362.759 552.543 361.445C560.231 359.189 568.226 358.812 576.085 357.615C578.681 357.219 580.605 356.811 581.111 353.572C582.825 342.652 574.237 329.884 563.749 331.636C555.946 332.939 546.741 331.772 539.91 337.804C539.117 338.504 537.943 338.947 538.13 340.492C539.303 342.052 541.469 340.86 543.507 342.425V342.425ZM682.014 293.735C687.302 304.588 691.271 315.815 691.616 328.053C685.419 328.007 682.396 333.444 678.2 336.309C675.135 334.247 681.883 330.436 676.947 329.961C672.568 329.539 670.058 333.612 668.856 337.568C667.599 341.712 666.13 346.093 669.447 350.075C669.788 350.484 670.694 350.592 671.328 350.568C683.888 350.096 693.707 356.577 703.555 363.099C708.702 366.508 712.208 365.168 713.992 359.299C714.783 356.699 714.68 354.032 713.947 351.423C713.446 349.636 712.855 347.821 715.338 347.111C722.538 345.049 717.458 343.321 715.346 341.171C714.239 340.04 709.866 340.669 712.186 337.953C714.77 334.929 712.472 334.597 710.959 333.773C708.047 332.187 704.979 330.883 701.975 329.463C703.382 324.995 705.38 319.831 710.211 319.625C715.424 319.404 717.339 324.731 718.819 329.247C720.326 333.84 721.79 338.447 723.278 343.047C723.48 351.051 724.184 359.001 725.86 366.845L726.291 385.479C726.362 389.035 725.618 392.672 726.844 396.423C730.186 395.044 732.272 392.479 735.447 392.183C732.998 406.773 728.634 420.592 719.295 432.417C715.978 436.617 712.38 440.496 707.442 442.844C706.767 440.288 706.056 437.737 705.422 435.172C698.787 408.321 678.308 398.661 653.766 411.088C647.667 414.175 642.132 418.359 636.208 421.813C628.204 426.483 620.615 426.685 612.742 420.656C604.801 414.573 595.525 411.955 585.275 412.976C566.363 414.865 551.829 425.16 538.169 437.121C535.926 439.085 532.731 440.781 532.529 445.31C536.507 444.529 539.923 443.762 543.377 443.22C545.418 442.897 548.363 442.986 546.161 446.004C543.446 449.726 542.873 454.844 538.601 457.484C525.339 453.234 512.953 447.121 501.069 439.932L501.109 440.077L499.847 438.931C495.129 432.383 488.234 427.749 483.938 420.817C482.234 418.067 479.769 415.736 479.378 412.287C481.714 413.353 483.994 414.567 486.398 415.44C487.967 416.009 488.975 415.456 488.031 413.54L482.248 374.815C482.634 371.943 481.942 368.895 483.634 366.235C495.737 373.928 495.801 373.941 498.289 359.936C500.302 348.611 502.137 337.253 504.046 325.907C506.423 324.591 506.607 321.924 507.794 319.871C508.631 318.42 508.489 315.831 510.551 315.775C513.145 315.703 513.041 318.504 513.635 320.212C515.818 326.484 518.303 332.639 522.393 337.879C524.399 340.452 527.087 344.123 530.597 339.091C540.854 313.796 556.221 293.171 582.229 282.091C588.819 279.284 595.575 277.246 602.65 276.398C605.663 276.038 609.291 275.542 610.954 278.94C612.491 282.08 610.671 284.953 608.735 287.492C607.527 289.076 606.215 290.58 604.949 292.119C602.705 293.407 600.95 295.207 599.497 297.321L586.346 305.479C584.169 308.554 586.953 309.383 588.755 310.259C592.214 311.943 595.922 312.213 599.765 311.668C610.139 310.197 620.058 306.971 629.539 302.808C635.435 300.219 642.548 299.579 646.799 293.754C652.959 292.54 657.946 288.7 663.56 286.266C665.77 285.308 667.842 283.996 670.364 284.002L682.012 293.735" fill="#FBD7A6"/>
<path d="M501.073 439.938C501.073 439.978 501.086 440.032 501.1 440.072H501.113L501.073 439.938Z" fill="#825A35"/>
<path d="M558.899 651.898C553.459 651.925 547.979 646.618 548.019 641.391C548.059 635.498 554.553 628.578 560.206 628.391C565.499 628.231 571.166 633.418 571.406 638.645C571.673 644.818 565.006 651.871 558.899 651.898ZM544.326 652.085C542.953 656.018 543.059 660.898 535.939 659.125C527.326 656.991 519.246 652.978 510.313 652.138C501.433 648.125 492.553 644.111 483.66 640.111C483.46 640.871 483.406 641.765 482.34 641.831C482.206 641.831 481.94 641.565 481.94 641.431C482.006 640.365 482.9 640.311 483.66 640.111C484.54 637.431 485.406 634.765 486.286 632.098C484.94 630.285 486.18 629.805 487.646 629.445C487.686 629.031 487.713 628.618 487.726 628.218C489.406 627.218 490.873 627.431 492.673 628.351C507.34 635.911 522.953 640.938 538.833 645.205C542.513 646.205 546.099 646.978 544.326 652.085ZM518.499 699.431C505.006 695.418 491.38 691.751 478.74 685.298C477.406 684.631 475.82 684.445 474.353 684.031C471.286 680.031 464.1 678.271 467.406 669.885C472.193 681.285 482.846 683.605 491.98 687.938C496.953 690.298 502.406 691.645 507.646 693.445C512.593 696.351 518.566 696.098 524.086 698.565C522.179 700.658 520.273 699.951 518.499 699.431V699.431ZM487.633 522.765C487.673 520.498 487.9 518.272 489.046 516.245C492.86 520.138 489.98 524.418 489.326 528.312C488.566 532.805 486.526 537.085 485.046 541.472C482.993 545.978 480.806 550.392 476.966 553.885C479.02 543.978 484.086 535.178 486.406 525.485C484.926 523.725 486.1 523.165 487.633 522.765ZM646.799 605.638C642.841 604.065 638.406 594.862 637.046 591.782C626.739 568.262 626.859 579.356 617.739 555.356C616.366 551.785 656.861 544.706 663.289 544.2C661.569 537.92 625.774 536.486 631.054 537.686C633.801 538.313 595.289 531.62 598.115 531.862C592.115 525.342 636.162 528.128 644.442 528.198C736.644 528.977 628.389 504.302 631.055 500.022C639.229 486.916 546.579 485.898 547.419 470.379C543.966 471.579 542.073 474.578 539.433 477.618C537.153 472.925 538.713 468.419 538.286 464.139C526.686 462.432 515.913 458.832 507.006 450.752C503.78 447.805 501.686 444.379 501.1 440.072C500.646 440.072 500.22 440.059 499.78 440.059C496.18 439.259 492.58 439.712 488.993 440.192C473.5 441.899 461.313 449.552 453.02 462.379C442.633 478.418 436.3 496.592 427.7 513.592C432.646 531.245 429.833 548.138 422.62 564.565C420.833 568.618 418.646 572.458 414.606 574.805C421.74 598.511 435.406 616.751 458.46 627.111C464.526 614.538 470.486 601.951 472.5 587.898C473.366 581.832 472.673 575.752 473.486 569.738C477.646 586.485 476.126 602.738 468.406 618.231C466.486 622.085 466.126 627.765 459.94 628.151C461.753 630.658 460.38 632.791 458.966 634.738C455.113 640.071 451.14 645.298 447.206 650.578C448.206 653.018 449.273 655.431 450.18 657.911C454.486 669.751 462.273 678.738 472.646 685.645C474.26 686.805 475.766 688.111 477.486 689.071C500.126 701.671 524.7 704.045 549.979 702.631C561.353 689.178 613.454 669.367 618.574 652.514C618.387 641.981 646.987 616.171 646.801 605.638" fill="#825A35"/>
<path d="M547.417 470.384C543.973 471.574 542.077 474.584 539.437 477.62C537.146 472.924 538.71 468.422 538.282 464.136C539.256 461.96 538.568 459.705 538.6 457.485C542.873 454.845 543.445 449.725 546.161 446.004C548.364 442.986 545.418 442.897 543.378 443.22C539.925 443.764 536.509 444.529 532.53 445.31C532.733 440.781 535.928 439.084 538.17 437.121C551.83 425.161 566.364 414.865 585.277 412.977C595.526 411.955 604.802 414.575 612.743 420.657C620.617 426.687 628.206 426.484 636.21 421.815C642.134 418.359 647.669 414.175 653.767 411.088C678.31 398.661 698.789 408.321 705.423 435.172C706.056 437.74 706.769 440.288 707.442 442.847L707.44 468.797C706.659 468.756 706.086 468.897 705.89 468.688C703.549 466.194 701.914 461.658 697.79 463.061C693.783 464.424 696.181 468.886 695.603 471.945C695.318 473.461 695.522 475.11 695.033 476.538C694.249 478.821 693.402 481.681 690.733 482.022C687.598 482.422 688.255 478.961 687.17 477.246C686.937 476.877 686.827 476.43 686.629 476.033C684.933 472.629 683.157 468.61 678.965 468.606C675.214 468.604 673.065 472.028 671.626 475.42L668.819 480.046C666.317 481.766 664.358 483.932 663.289 486.82C661.723 486.913 660.305 487.297 658.967 488.246C650.459 494.286 650.551 494.244 648.602 484.553C648.073 481.926 648.09 478.02 644.318 477.984C640.387 477.948 639.891 481.636 639.287 484.714C636.806 485.721 635.937 488.128 634.666 490.146C630.251 497.16 629.683 497.293 624.653 491.133C622.569 488.581 620.922 485.673 619.026 482.96C618.209 481.786 617.835 479.738 615.743 480.482C614.137 481.054 613.445 482.73 613.437 484.229C613.429 485.934 614.081 487.642 614.445 489.349C608.334 489.293 603.795 486.424 600.951 481.182C598.265 476.23 595.613 477.262 592.075 480.281C588.334 483.47 587.045 487.822 585.67 492.704C582.829 491.005 581.222 489.02 579.707 486.837C577.345 483.437 578.574 476.584 575.041 476.237C571.02 475.84 570.357 483.113 566.322 485.308C566.129 486.422 565.698 487.614 564.538 487.728C562.95 487.882 563.232 486.278 563.088 485.381C562.15 479.568 561.33 473.733 560.46 467.908C559.913 464.245 558.462 463.081 555.521 466.161C552.454 466.868 549.705 468.182 547.418 470.384" fill="#EAEAEA"/>
<path d="M663.289 486.821C664.358 483.932 666.315 481.766 668.817 480.046C689.542 500.614 700.468 527.057 712.092 553.205C713.151 540.232 711.158 527.774 710.175 515.254L716.852 512.324C718.192 519.132 721.816 524.81 725.768 530.324C724.768 534.361 726.99 537.633 728.495 540.984C735.61 556.816 748.111 567.513 762.57 576.293C762.796 580.552 760.492 583.35 757.124 585.407C748.496 590.674 740.094 596.417 731.058 600.867C725.978 603.371 724.478 605.941 726.408 610.921L731.662 646.947C726.147 653.411 719.256 657.881 711.394 660.934C711.642 656.161 647.351 665.281 647.594 660.514C649.69 647.641 669.247 641.087 667.421 628.389C662.925 597.115 648.65 583.516 634.767 555.357C631.187 548.094 639.713 534.037 633.577 528.197C633.093 523.584 665.323 490.662 663.289 486.821" fill="#825A35"/>
<path d="M750.331 523.542C751.4 526.604 749.615 531.23 754.918 531.785C757.787 532.084 765.687 525.669 765.451 523.6C765.346 522.666 754.524 513.844 753.695 514.276C749.804 516.305 751.362 520.356 750.33 523.542H750.331ZM792.536 487.862C796.153 487.733 801.857 480.044 800.405 477.503C796.895 471.349 793.025 465.393 789.096 459.496C787.237 456.709 784.701 456.524 782.491 459.205C779.389 462.965 776.563 466.956 773.424 470.683C770.46 474.203 771.748 475.911 775.479 477.512C780.78 479.789 785.932 482.429 790.325 486.301C791.121 487.003 792.064 487.533 792.536 487.862V487.862ZM802.709 538.942C792 536.36 781.795 532.858 772.396 527.33C770.438 526.18 768.498 526.905 766.931 528.414C764.038 531.202 761.008 533.718 757.111 535.073C754.506 535.98 754.699 537.64 756.044 539.769C765.991 555.533 792.624 555.424 802.708 538.942H802.709ZM754.015 473.625C758.122 472.483 763.807 476.103 767.847 471.839C772.527 466.893 776.393 461.189 780.763 455.94C783.229 452.98 782.443 450.677 779.73 448.673C772.32 443.197 764.282 440.181 754.887 442.421C752.852 442.905 750.904 443.448 750.163 445.548C748.76 449.524 745.996 450.988 741.952 450.631C740.326 450.487 738.746 451.053 737.912 452.472C734.318 458.595 730.9 464.779 731.663 472.317C731.976 475.408 733.174 477.031 736.339 475.611C741.812 473.152 747.576 473.619 754.014 473.625H754.015ZM719.918 509.672C720.844 521.486 731.771 532.553 743.096 533.334C746.715 533.585 748.184 531.997 747.51 528.668C746.372 523.072 747.456 517.638 748.406 512.206C748.786 510.033 748.49 508.34 747.01 506.717C743.726 503.124 740.516 499.464 737.276 495.83C736.256 493.91 735.383 491.897 734.192 490.088C730.443 484.383 729.028 484.476 725.251 490.265C721.394 496.181 720.451 502.861 719.918 509.672V509.672ZM780.939 484.481C769.054 477.443 767.462 477.887 761.248 490.016C760.236 491.989 759.263 493.983 758.288 495.976C752.798 507.19 752.768 507.229 761.988 515.229C764.239 517.178 766.635 520.936 769.663 519.124C772.779 517.26 776.13 514.213 775.212 509.421C775.65 506.168 776.844 503.336 780.428 502.709C786.065 501.724 789.228 497.269 789.659 492.879C790.1 488.404 785.211 485.958 780.939 484.481V484.481ZM803.885 513.258C802.912 507.3 800.223 502.185 796.597 497.392C794.595 494.743 793.475 495.392 791.576 497.392C787.7 501.475 785.756 505.941 787.563 511.557C785.168 512.637 783.112 514.286 780.408 514.892C776.839 515.689 774.686 518.812 774.035 521.912C773.338 525.236 777.292 525.486 779.415 526.646C785.839 530.154 792.682 532.486 799.881 534.062C804.955 535.173 806.287 533.118 806.431 528.761C806.607 523.416 806.284 518.172 803.885 513.258V513.258ZM820.928 515.889C816.444 507.098 812.051 498.259 807.415 489.548C806.161 487.191 804.668 483.729 800.981 486.355C798.235 488.315 795.745 490.872 798.675 494.598C803.355 500.558 806.016 507.553 808.959 514.409C810.456 519.805 810.403 525.321 810.249 530.849C810.188 533.133 810.18 535.509 813.183 535.902C820.731 536.886 827.716 535.34 833.776 530.616C835.803 529.037 836.6 526.866 833.529 525.47C828.58 523.22 825.143 519.058 820.929 515.889H820.928ZM740.763 492.487C741.596 495.38 744.16 497.024 745.736 499.377C748.607 503.666 751.128 503.699 752.916 498.68C755.295 492.013 759.214 486.139 762.29 479.833C757.54 473.701 751.167 476.713 745.367 476.971C741.394 477.148 736.168 477.635 735.003 481.421C733.692 485.681 737.179 489.609 740.763 492.488V492.487ZM725.77 530.325C721.816 524.81 718.192 519.133 716.854 512.325C716.491 500.572 719.062 489.873 727.834 481.341C729.65 479.573 729.314 477.105 728.967 475.011C726.847 462.313 734.039 452.491 738.995 441.993C739.495 440.932 741.056 439.476 741.898 439.612C749.224 440.795 756.259 437.911 763.519 438.332C770.495 438.735 776.421 441.632 781.54 445.992C785.001 448.94 787.567 449.055 791.305 446.389C798.753 441.079 807.361 442.369 815.737 443.365C817.036 443.52 818.893 443.944 819.212 446.495C815.316 447.739 811.852 444.369 808.025 445.271C806.125 445.72 804.025 445.24 802.055 445.492C790.199 447.008 788.028 451.987 794.772 461.533C797.191 464.957 799.169 468.7 801.215 472.373C803.041 475.656 804.775 477.155 808.261 473.88C810.835 471.463 814.429 465.607 816.501 468.096C819.172 471.309 812.636 473.485 810.421 476.349C808.387 478.981 806.421 481.203 808.365 484.583C813.767 493.969 817.407 504.265 824.131 513.013C828.277 518.408 833.997 519.509 839.671 521.005C842.911 521.86 843.497 518.641 844.091 516.346C847.001 505.109 843.675 494.44 841.164 483.654C840.487 480.74 836.204 476.779 839.991 475.143C842.567 474.029 842.54 479.788 843.596 482.431C848.467 494.615 850.556 507.157 847.036 520.116C845.615 525.34 849.14 524.53 851.896 524.182C875.151 521.249 887.944 492.346 874.661 472.849C869.376 465.092 862.501 459.516 853.171 457.329C851.839 457.016 849.399 457.499 850.059 455.093C850.589 453.155 852.629 454.024 854.103 454.268C868.303 456.621 882.371 471.841 883.371 485.917C885.015 509.029 871.837 525.17 848.808 528.254C845.671 528.072 842.779 528.214 840.213 530.669C832.765 537.796 823.736 540.818 813.489 539.996C809.573 539.682 806.796 541.058 804.364 544.144C801.34 547.986 797.64 551.085 792.871 552.812C777.648 558.322 764.575 554.901 753.335 542.432C751.623 540.532 750.579 537.304 747.488 537.49C739.228 537.988 732.664 533.741 725.77 530.325" fill="#F8F9FA"/>
<path d="M725.768 530.325C732.663 533.741 739.227 537.986 747.488 537.49C750.576 537.304 751.622 540.53 753.334 542.432C764.574 554.901 777.647 558.322 792.868 552.812C797.639 551.085 801.339 547.985 804.363 544.144C806.795 541.058 809.572 539.682 813.488 539.996C823.735 540.817 832.764 537.796 840.212 530.668C842.778 528.214 845.67 528.07 848.807 528.253C857.655 550.04 842.574 566.306 821.091 571.88C804.128 576.282 786.734 577.613 769.19 576.213C766.999 576.037 764.776 576.253 762.568 576.292C748.111 567.513 735.61 556.816 728.495 540.984C726.99 537.633 724.77 534.361 725.768 530.325" fill="#FBD7A6"/>
<path d="M1045.29 946.252C1047.27 920.36 1053.76 895.181 1057.44 869.559C1057.97 865.817 1059.87 864.724 1063.43 865.889C1071.26 868.449 1078.35 866.173 1085.02 862.139C1092.83 857.409 1100.15 852.003 1106.24 845.131C1107.77 843.395 1109.64 842.371 1111.58 841.331C1104.44 873.824 1092.83 904.184 1069.52 928.905C1062.59 936.261 1054.15 941.552 1045.29 946.252" fill="#883C87"/>
<path d="M483.634 366.235C481.941 368.896 482.634 371.943 482.248 374.815C454.834 366.993 427.546 366.236 400.856 377.445C392.932 380.773 383.856 383.125 379.653 392.125C375.496 394.725 370.897 396.525 367.52 400.465C364.787 403.657 364.927 399.919 364.227 398.523C365.671 397.989 366.072 396.851 366.291 395.429C369.477 374.651 381.405 360.939 400.857 353.837C407.396 351.451 410.924 349.252 409.362 340.86C407.553 331.127 410.493 321.103 411.749 311.241C411.938 309.759 411.98 307.769 414.122 307.963C415.85 308.12 415.469 309.951 415.672 311.187C417.168 320.373 418.88 329.469 422.564 338.136C426.536 347.477 433.093 353.763 442.71 356.92C454.558 360.809 466.908 362.163 479.141 364.084C480.914 364.364 482.728 364.267 483.634 366.235V366.235ZM657.675 6.67419C649.967 10.2942 646.791 17.8301 643.674 24.6968C637.821 37.5954 634.478 51.3007 635.322 65.8873C640.107 65.642 642.178 60.5887 648.039 59.0407C641.782 66.9913 640.613 75.194 638.978 83.3566C638.125 87.6113 635.799 91.6406 632.39 94.7366C618.211 107.617 601.31 116.331 584.459 126.994C584.571 122.701 587.153 121.385 588.854 119.666C599.955 108.442 610.506 96.8553 617.047 82.1726C618.714 78.426 619.706 74.7287 619.687 70.6394C619.627 57.7607 619.69 44.8821 619.705 32.0021C627.145 17.1461 639.585 8.62615 655.161 4.16216C656.33 3.82882 658.047 1.97148 658.931 4.48214C659.114 4.99948 658.125 5.93153 657.675 6.67419V6.67419ZM699.275 125.533C691.382 117.911 687.987 107.606 683.532 98.0792C676.486 83.0099 670.607 67.4701 668.575 50.6981C666.532 33.8461 667.303 17.8715 679.662 4.54887C680.36 3.79421 680.542 2.55955 680.962 1.54888C683.228 0.460885 685.336 0.31684 684.271 3.66883C679.272 19.3835 684.103 34.8368 685.686 50.266C688.087 73.7073 693.043 96.7673 698.726 119.647C699.195 121.538 699.104 123.567 699.275 125.533" fill="#EAEAEA"/>
<path d="M379.652 392.124C383.856 383.127 392.932 380.773 400.854 377.447C427.545 366.237 454.833 366.993 482.249 374.815L488.03 413.539C484.073 411.427 480.854 408.415 477.556 405.419C464.049 393.161 448.27 384.643 431.038 379.105C415.149 373.999 401.489 379.983 388.963 389.532C385.488 389.065 382.927 391.873 379.652 392.124" fill="#F8F9FA"/>
<path d="M876.553 288.204C871.961 284.167 871.389 278.055 869.316 272.908C860.447 250.892 849.745 229.818 836.992 209.903C825.395 191.79 811.878 175.12 793.184 163.543C791.815 162.698 790.624 161.802 790.326 160.11C812.028 163.45 826.745 177.342 839.563 193.536C856.211 214.576 865.557 239.06 871.687 264.956C873.513 272.672 876.48 280.126 876.553 288.204V288.204ZM388.963 389.532C401.489 379.983 415.149 373.999 431.038 379.105C448.27 384.643 464.049 393.161 477.556 405.42C480.854 408.415 484.073 411.425 488.03 413.537C488.977 415.456 487.968 416.009 486.398 415.44C483.994 414.568 481.714 413.355 479.38 412.287C462.196 404.42 443.918 399.86 425.893 394.536C424.406 394.096 422.833 393.896 421.401 393.329C412.502 389.807 404.014 389.868 395.617 395.14C388.413 399.663 391.231 391.38 388.964 389.532" fill="#EAEAEA"/>
<path d="M710.175 515.253C711.158 527.773 713.151 540.232 712.091 553.204C700.468 527.057 689.542 500.614 668.818 480.046L671.626 475.42C682.042 478.864 689.918 486.453 698.931 492.186C699.263 492.397 699.638 492.948 699.592 493.285C698.49 501.446 704.443 505.816 709.014 510.926L709.631 513.233L710.175 515.253Z" fill="#683723"/>
<path d="M418.312 173.471C419.325 172.477 420.756 171.609 421.822 172.589C423.321 173.966 421.482 174.966 420.656 175.729C412.157 183.571 407.965 193.758 404.956 204.549C403.984 208.035 402.28 210.586 398.756 211.722C385.643 215.958 379.383 226.56 374.324 238.192C369.427 249.455 366.439 261.254 364.997 273.443C364.808 275.036 364.524 276.512 363.188 277.572C361.081 260.048 364.603 243.398 370.956 227.171C376.025 214.224 383.579 203.463 396.639 197.422C397.417 197.06 398.536 196.542 398.708 195.888C401.297 186.028 409.548 181.293 416.785 175.618C417.449 175.098 417.812 174.195 418.312 173.471" fill="#EAEAEA"/>
<path d="M427.705 513.592C432.652 531.244 429.833 548.137 422.62 564.561C420.838 568.617 418.646 572.464 414.606 574.808C406.261 551.684 408.305 530.781 427.704 513.592" fill="#683723"/>
<path d="M400.718 164.219C405.568 163.022 407.234 158.443 409.982 155.162C424.117 138.286 441.902 127.399 463.03 121.581C474.645 118.381 486.537 117.093 498.444 116.437C505.404 116.054 512.457 117.427 520.022 118.057C518.256 120.906 515.858 120.079 513.942 120.053C489.225 119.703 465.957 125.742 444.392 137.359C429.966 145.133 416.472 154.585 405.338 166.973C403.025 169.549 400.944 172.673 397.145 173.49C397.385 170.034 399.617 167.343 400.718 164.221V164.219ZM592.979 22.7489C592.618 25.7689 590.782 27.9302 588.953 30.2115C581.299 39.7688 575.935 50.6115 570.77 61.6781C562.319 79.7848 557.662 99.1407 551.079 119.546C549.373 112.753 552.606 107.794 551.651 102.693C554.609 94.6527 552.406 86.0767 554.478 77.8394C560.351 54.5061 570.702 34.5195 592.979 22.7489" fill="#EAEAEA"/>
<path d="M838.087 458.705C837.567 455.225 835.607 453.054 831.951 453.246C828.669 453.42 826.595 455.462 826.652 458.829C826.716 462.54 829.056 464.537 832.645 464.373C835.912 464.226 837.741 462.11 838.085 458.706L838.087 458.705ZM845.82 458.525C846.003 465.542 839.533 472.445 832.567 472.664C825.713 472.877 818.892 466.226 818.707 459.144C818.521 452.097 824.951 445.204 831.947 444.949C838.672 444.704 845.637 451.518 845.82 458.525" fill="#1F97D3"/>
<path d="M735.447 392.184C732.272 392.477 730.187 395.044 726.846 396.424C725.619 392.672 726.363 389.033 726.292 385.479C743.318 374.019 760.494 378.467 776.222 391.588C768.015 391.565 760.439 389.135 753.114 391.988C747.21 390.727 741.315 390.3 735.447 392.184ZM358.825 327.939C361.644 326.907 361.475 324.079 362.364 321.929C364.921 315.749 367.735 309.678 372.788 305.143C376.567 301.751 380.824 298.991 387.821 301.202C371.703 313.335 365.721 330.791 358.455 347.481C358.311 347.815 357.735 347.959 357.361 348.192C356.881 341.371 356.725 334.572 358.825 327.939Z" fill="#EAEAEA"/>
<path d="M731.662 646.947L726.408 610.919L727.736 611.126C729.73 613.174 731.71 615.235 733.715 617.271C743.8 627.506 743.092 637.773 731.662 646.947" fill="#15385F"/>
<path d="M458.464 627.111C464.529 614.538 470.486 601.957 472.497 587.897C473.364 581.829 472.668 575.756 473.489 569.742C477.646 586.489 476.132 602.745 468.404 618.237C466.482 622.09 466.133 627.761 459.941 628.153L458.464 627.111Z" fill="#683723"/>
<path d="M1041.75 725.804C1043.31 722.644 1045.06 719.471 1047.22 716.711C1061.02 699.071 1072.47 697.378 1088.66 710.765C1111.91 729.991 1130.9 753.111 1149.49 776.644C1151.39 779.058 1151.03 780.858 1149.27 783.098C1131.06 806.351 1112.3 829.138 1089.38 848.044C1083.79 852.657 1078.06 857.497 1070.31 857.604C1061.38 857.297 1055.11 852.484 1049.89 846.191C1038.73 832.764 1033.71 816.698 1031.43 799.804C1028.01 774.258 1030.09 749.311 1041.75 725.804V725.804ZM1184.37 818.738C1183.82 833.138 1184 847.538 1182.67 861.911C1182.28 866.017 1180.98 870.257 1182.54 874.431C1182.16 875.937 1181.58 877.417 1181.46 878.937C1178.44 915.12 1171.89 950.92 1161.91 985.83C1153.36 1015.84 1142.19 1044.74 1125.84 1071.31C1113.84 1090.83 1099.64 1108.58 1079.14 1120.35C1065.07 1128.43 1050.14 1131.12 1034.33 1129.23C1031.5 1128.9 1026.5 1129.46 1026.87 1123.82C1027.22 1118.52 1027.47 1113.22 1027.99 1107.92C1031.06 1076.87 1032.41 1045.68 1036.42 1014.7C1039.38 991.884 1041.34 968.937 1045.3 946.257C1047.27 920.364 1053.75 895.177 1057.43 869.564C1057.98 865.817 1059.87 864.724 1063.43 865.884C1071.26 868.444 1078.35 866.177 1085.02 862.137C1092.83 857.404 1100.15 852.004 1106.23 845.137C1107.78 843.391 1109.64 842.378 1111.58 841.324C1111.54 839.764 1112.79 839.098 1113.71 838.164C1130.3 821.164 1145.96 803.418 1159.82 784.071C1162.39 780.471 1162.18 778.231 1159.62 774.844C1146.3 757.098 1131.82 740.338 1116.72 724.098C1113.83 720.991 1112.98 718.351 1114.78 714.125C1130.51 677.231 1145.99 640.218 1161.62 603.271C1162.27 601.725 1162.95 599.351 1164.8 599.405C1167.26 599.458 1167.32 602.125 1167.79 603.965C1172.35 621.818 1175.35 639.951 1178.16 658.125C1179.6 667.511 1180.68 676.951 1181.92 686.351C1182.95 685.445 1183.15 684.618 1183.19 683.778C1184.5 661.525 1182.22 639.418 1179.07 617.525C1173.15 576.272 1161.78 536.552 1142.47 499.338C1130.18 475.672 1115.43 453.885 1093.62 438.005C1067.68 419.125 1039.66 415.712 1010.14 429.205C982.165 442.005 963.779 464.298 950.379 491.085C935.685 520.445 928.192 552.285 920.099 583.858C918.672 589.391 918.672 595.298 915.445 600.311C915.739 606.698 914.285 612.751 912.059 618.671C911.845 627.218 910.139 635.578 908.245 643.871C907.805 645.767 907.612 647.712 907.672 649.658C908.592 650.405 908.632 651.151 907.672 651.898C907.485 654.178 907.299 656.445 907.125 658.725C907.685 659.231 908.259 659.738 908.832 660.245C912.339 643.725 915.992 627.231 921.072 611.098C920.779 606.885 922.619 603.431 925.005 600.178C924.619 593.538 927.592 587.658 929.552 581.632C939.285 551.778 951.552 522.978 968.992 496.792C983.058 475.658 1000.03 457.245 1025.55 449.632C1046.39 443.419 1065.91 447.005 1084.24 458.378C1098.23 467.045 1109.3 478.725 1119.07 491.778C1120.99 494.338 1121.67 496.858 1121.28 500.352C1118.28 527.429 1114.65 554.432 1110.38 581.338C1106.35 606.698 1101.35 631.911 1096.56 657.151C1096.04 659.898 1096.6 663.018 1094.55 665.418C1092.67 674.711 1090.67 683.991 1088.96 693.311C1088.19 697.431 1086.83 698.458 1082.86 696.258C1071.35 689.885 1060.44 692.271 1050.58 699.871C1034.9 711.951 1028.11 729.311 1024.13 747.791C1018.15 775.484 1019.49 802.911 1029.46 829.644C1030.35 832.044 1030.83 834.218 1029.91 836.698C1017.26 870.764 1004.63 904.844 991.992 938.911C990.058 944.191 988.112 949.471 986.179 954.737C980.699 972.991 973.392 990.577 966.912 1008.47C962.992 1019.3 958.952 1030.1 954.939 1040.9C954.352 1042.48 954.552 1045 952.419 1045.15C950.045 1045.32 949.472 1042.83 948.619 1041.07C943.045 1029.48 938.259 1017.54 934.392 1005.31C929.805 990.79 924.539 976.391 922.592 961.137C920.299 957.191 919.219 952.884 918.752 948.391C911.512 908.604 906.912 868.524 905.779 828.071C905.739 826.764 905.445 825.458 905.259 824.044C903.485 825.058 904.125 826.604 904.085 827.831C902.592 862.791 904.592 897.551 910.045 932.111C910.432 934.497 910.299 936.964 910.405 939.391C913.032 946.377 913.379 953.857 915.099 961.044C922.112 992.39 929.645 1023.58 940.859 1053.79C952.592 1085.43 969.045 1113.31 998.485 1131.87C1028.15 1150.58 1058.75 1152.26 1088.5 1132.86C1118.3 1113.44 1135.75 1084.18 1149.91 1052.74C1162.44 1024.9 1169.47 995.47 1174.8 965.404C1180.28 934.537 1182.34 903.444 1184.52 872.297C1185.78 854.444 1184.48 836.604 1184.36 818.738" fill="#FCFBFC"/>
<path d="M362.947 286.884L364.803 286.715C364.879 288.535 364.243 290.106 363.072 291.622C361.751 290.016 362.401 288.448 362.947 286.884Z" fill="#EAEAEA"/>
<path d="M709.631 513.232C709.426 512.464 709.218 511.696 709.014 510.928C709.944 511.504 710.019 512.306 709.631 513.233" fill="#825A35"/>
<path d="M501.109 440.077L499.782 440.053C499.939 439.7 499.963 439.302 499.849 438.933L501.109 440.077" fill="#683723"/>
<path d="M357.369 352.009C357.763 352.079 358.152 352.167 358.539 352.275C358.015 352.781 357.587 352.861 357.369 352.008" fill="#EAEAEA"/>
<path d="M991.994 938.917L986.181 954.739C982.289 955.503 978.426 956.547 974.498 956.983C963.824 958.168 953.295 962.013 942.359 958.929C933.995 956.524 926.839 951.412 918.748 948.389C911.517 908.599 906.915 868.523 905.776 828.076C905.739 826.766 905.449 825.462 905.263 824.05C903.483 825.052 904.132 826.608 904.079 827.834C902.596 862.706 904.597 897.639 910.052 932.113C910.428 934.5 910.3 936.963 910.405 939.392C897.845 930.001 889.491 917.161 882.272 903.68C867.173 875.496 860.783 844.633 856.117 813.391C848.699 763.714 854.779 715.61 874.724 669.518C883.227 649.87 894.297 631.713 912.057 618.669C911.841 627.225 910.137 635.575 908.245 643.869C907.808 645.767 907.617 647.714 907.677 649.662C907.011 650.406 906.877 651.154 907.677 651.902C907.491 654.175 907.304 656.449 907.12 658.722C904.271 663.293 905.161 668.051 907.027 672.953L908.829 660.25C912.343 643.726 915.993 627.237 921.071 611.099C934.327 605.638 947.916 602.835 962.418 604.246C978.889 605.849 995.432 606.682 1011.94 607.849C1010.4 609.598 1008.33 610.229 1006.15 610.851C998.145 613.138 991.002 617.207 984.697 622.517C961.272 642.254 948.125 668.462 939.675 697.102C934.867 713.391 931.421 730.046 929.848 747.2C927.571 772.031 927.555 796.767 930.864 821.307C934.972 851.768 943.919 880.896 959.977 907.496C966.47 918.253 974.733 927.425 984.214 935.544C986.382 937.397 988.881 939 991.994 938.917" fill="#994799"/>
<path d="M431.092 768.178C430.288 770.29 428.297 770.93 426.522 771.764C384.007 791.794 340.901 810.474 297.313 828.036C295.064 828.942 292.673 829.493 290.348 830.212C291.043 822.152 294.443 814.792 296.381 807.052C297.451 802.788 296.424 801.43 291.886 801.93C261.456 805.282 231.003 808.399 200.571 811.724C195.608 812.267 194.06 811.084 195.708 805.951C198.691 796.656 200.988 787.142 203.964 777.844C205.694 772.447 204.282 770.616 198.635 770.748C175.55 771.282 152.458 771.644 129.369 771.915C115.702 772.074 102.035 771.942 87.938 771.942C89.418 769.314 91.6246 769.351 93.3953 768.842C144.186 754.242 194.988 739.678 245.799 725.148C247.874 724.556 250.262 723.152 252.028 725.155C253.74 727.098 252.095 729.382 251.522 731.448C249.26 739.58 247.026 747.718 244.602 755.8C243.231 760.372 244.232 761.816 249.262 760.936C277.898 755.932 306.591 751.256 335.232 746.286C349.379 743.831 349.371 743.659 345.592 757.547C343.023 766.974 340.533 776.426 337.712 785.774C336.105 791.104 337.492 792.014 342.672 790.646C370.579 783.267 398.545 776.124 426.498 768.928C427.994 768.542 429.56 768.422 431.092 768.179" fill="#1F97D3"/>
<path d="M712.128 646.626C711.884 651.394 711.642 656.159 711.394 660.933C701.656 667.753 690.527 671.538 679.507 675.514C642.043 689.034 603.611 698.497 563.927 702.495C559.321 702.959 554.633 702.606 549.981 702.631C561.353 689.174 569.611 674.021 574.73 657.161C598.951 659.623 623.102 661.911 647.596 660.514C669.976 659.237 691.626 655.963 712.128 646.626" fill="#342213"/>
<path d="M826.875 867.799C833.309 867.799 839.744 867.825 846.179 867.785C848.921 867.771 851.103 868.271 850.935 871.732C850.78 874.919 848.519 874.992 846.203 874.993C832.889 874.996 819.576 874.956 806.263 875.028C803.423 875.041 801.513 874.559 801.659 871.077C801.795 867.803 803.885 867.78 806.237 867.789C813.117 867.816 819.997 867.799 826.875 867.799V867.799ZM796.981 733.19C803.608 733.19 810.235 733.192 816.859 733.19C819.336 733.188 821.859 732.936 821.959 736.638C822.06 740.234 819.832 740.382 817.175 740.371C803.923 740.331 790.671 740.339 777.418 740.368C774.772 740.375 772.466 740.182 772.587 736.618C772.712 732.972 775.29 733.191 777.765 733.191C784.171 733.188 790.576 733.19 796.981 733.19V733.19ZM796.957 809.628C790.549 809.628 784.141 809.659 777.735 809.612C775.408 809.596 772.658 810.26 772.583 806.359C772.514 802.768 774.716 802.62 777.373 802.628C790.629 802.668 803.887 802.663 817.144 802.631C819.765 802.624 822.009 802.703 821.956 806.33C821.899 810.236 819.188 809.602 816.843 809.615C810.215 809.654 803.587 809.628 796.957 809.628" fill="#EAEAEA"/>
<path d="M798.758 678.951C799.23 675.405 802.071 676.647 803.96 676.631C816.804 676.511 829.649 676.591 842.495 676.557C845.584 676.549 848.331 676.603 848.215 680.93C848.105 684.957 845.411 684.778 842.679 684.778C829.613 684.777 816.547 684.821 803.482 684.729C801.748 684.715 799.232 685.709 798.78 682.589C813.14 682.691 827.502 682.815 841.861 682.867C843.517 682.873 845.963 683.214 845.944 680.734C845.925 678.303 843.504 678.583 841.831 678.591C827.472 678.671 813.116 678.822 798.758 678.951" fill="#ACBBC4"/>
<path d="M798.758 678.951C813.118 678.822 827.472 678.671 841.831 678.591C843.504 678.583 845.925 678.303 845.944 680.734C845.963 683.214 843.517 682.873 841.861 682.867C827.502 682.817 813.142 682.691 798.782 682.587L798.758 678.953" fill="#FCFBFC"/>
<path d="M530.598 339.091C527.088 344.123 524.401 340.452 522.393 337.88C518.304 332.64 515.82 326.483 513.636 320.213C513.041 318.504 513.145 315.703 510.552 315.773C508.489 315.829 508.632 318.42 507.794 319.869C506.608 321.924 506.425 324.591 504.048 325.907C491.637 296.696 469.674 279.315 438.598 273.518C423.567 270.714 408.612 271.518 393.876 275.858C392.289 276.324 390.559 277.247 388.349 276.187C389.595 270.508 393.816 267.387 398.376 264.807C411.043 257.639 424.653 255.864 438.904 258.268C441.053 258.631 443.598 259.682 445.121 257.636C446.406 255.908 445.153 253.603 444.126 252.032C437.833 242.399 436.62 231.294 434.757 220.4C431.406 200.814 449.162 190.131 464.39 195.003C460.644 196.487 457.444 197.751 454.248 199.02C447.538 201.687 444.432 206.874 443.656 213.84C442.376 225.358 447.344 234.863 454.324 243.027C465.764 256.407 479.462 267.254 495.865 275.774C496.261 260.015 491.72 243.095 509.764 231.678C505.172 259.812 507.441 285.88 518.169 311.966C522.506 305.642 520.982 299.116 522.038 293.246C525.28 275.263 530.916 258.375 543.106 244.5C551.773 234.64 562.626 228.048 576.359 227.307C569.935 230.895 564.019 235.042 558.782 240.23C547.938 250.971 541.52 264.17 536.386 278.278C531.501 291.702 528.506 305.506 526.794 319.628C525.962 326.496 525.098 333.432 530.597 339.091H530.598ZM552.815 167.994C550.255 163.613 545.945 163.605 544.625 159.689C549.95 157.755 555.071 158.875 560.114 160.254C563.11 161.074 565.354 161.238 567.653 158.338C582.901 139.117 603.99 136.338 626.449 138.263C632.182 138.757 638.297 138.077 644.711 141.806C636.134 143.091 628.511 143.727 621.134 145.429C594.142 151.653 574.783 166.173 569.687 195.063C568.618 201.124 567.146 201.427 562.554 197.711C551.303 188.604 539.341 180.635 524.668 178.027C517.668 176.783 510.618 177.55 501.721 177.908C517.802 165.965 533.828 162.555 552.815 167.994V167.994ZM725.862 366.845C724.186 359.001 723.482 351.051 723.279 343.048C737.207 339.767 750.666 334.212 765.559 336.013C779.66 337.72 791.818 343.385 802.81 352.02C803.656 352.685 804.396 353.6 803.743 356.005C791.048 350.192 777.964 346.069 763.631 349.711C767.858 350.953 772.131 352.063 776.306 353.465C785.279 356.481 792.23 362.051 796.771 370.425C797.564 371.891 798.96 373.713 797.143 375.231C795.639 376.484 794.383 374.905 793.043 374.187C771.647 362.693 749.379 359.013 725.862 366.845V366.845ZM682.014 293.735L670.366 284.002C684.665 277.988 699.082 272.251 711.958 263.33C726.224 253.443 740.592 243.746 747.663 226.819C749.986 221.263 750.383 215.359 750.648 208.715C754.927 213.963 756.248 219.902 755.627 229.263C755.12 236.858 751.951 243.335 747.218 249.17C742.77 254.65 736.768 258.335 730.764 262.19C733.196 264.838 735.146 263.743 737.02 263.456C744.098 262.376 751.163 262.158 758.138 264.096C760.163 264.656 763.508 264.41 763.572 266.84C763.646 269.575 760.342 269.162 758.282 269.508C747.334 271.351 736.579 273.963 725.854 276.839C712.106 280.524 698.675 284.964 685.867 291.195C684.494 291.863 683.294 292.88 682.014 293.735ZM795.116 108.933C743.362 119.178 702.863 146.722 671.671 188.856C682.609 162.157 698.124 139.082 722.172 123.113C744.223 108.469 768.696 103.525 795.116 108.933ZM701.976 329.463C704.98 330.883 708.048 332.187 710.96 333.773C712.474 334.597 714.771 334.929 712.187 337.953C709.867 340.669 714.239 340.041 715.347 341.171C717.458 343.323 722.539 345.049 715.339 347.111C712.856 347.821 713.446 349.636 713.948 351.423C714.682 354.033 714.784 356.699 713.994 359.3C712.21 365.167 708.7 366.509 703.554 363.1C693.708 356.577 683.887 350.097 671.33 350.567C670.695 350.592 669.79 350.485 669.449 350.073C666.131 346.093 667.601 341.713 668.858 337.567C670.058 333.612 672.57 329.54 676.947 329.962C681.884 330.436 675.137 334.247 678.2 336.308C682.398 333.444 685.42 328.007 691.616 328.053C692.11 333.169 694.135 334.785 698.615 331.221C699.587 330.448 700.848 330.04 701.975 329.462L701.976 329.463ZM814.416 294.17C778.91 290.094 745.46 296.119 714.15 315.113C720.271 290.215 785.239 276.952 814.416 294.17ZM612.227 290.252C617.939 285.906 623.667 281.582 629.359 277.207C633.249 274.216 636.653 270.775 639.333 266.614C644.263 258.966 642.769 254.2 634.191 250.528C632.807 249.935 631.118 249.852 629.667 247.379C640.183 246.323 650.125 245.731 659.634 249.888C663.645 251.642 663.323 256.799 659.274 261.14C650.237 270.832 639.167 277.814 627.627 283.986C622.851 286.54 618.598 290.324 612.227 290.252V290.252ZM759.319 158.941C759.303 148.174 760.102 137.627 769.735 131.031C777.244 125.89 785.634 128.087 793.962 129.914C777.646 134.087 766.458 143.862 759.319 158.941ZM646.801 293.754C642.55 299.579 635.437 300.219 629.541 302.808C620.058 306.971 610.139 310.198 599.766 311.668C595.923 312.214 592.215 311.943 588.755 310.259C586.954 309.383 584.169 308.554 586.347 305.478C596.571 308.671 606.273 305.278 615.933 302.804C626.314 300.146 636.519 296.8 646.799 293.754H646.801ZM599.498 297.322C600.951 295.207 602.706 293.407 604.949 292.12C608.353 299.326 601.769 296.063 599.498 297.32" fill="#EAEAEA"/>
<path d="M636.966 830.591C583.126 851.217 528.806 870.511 474.18 888.964C409.006 910.991 343.567 932.204 276.233 946.817C232.58 956.297 188.647 964.057 143.74 963.497C126.221 963.284 108.727 962.044 92.2473 955.057C88.0606 954.67 85.0473 952.35 80.954 948.404C86.274 949.164 89.634 950.35 92.8073 952.15C94.1139 952.497 95.4206 952.83 96.7273 953.164C97.1406 954.59 98.1406 954.924 99.4739 954.604C111.007 954.95 122.341 957.417 133.914 957.63C183.447 958.524 231.567 949.39 279.153 936.977C377.74 911.244 474.593 879.791 571.446 848.337C592.686 841.431 613.966 834.644 635.219 827.804C635.806 828.724 636.393 829.657 636.966 830.591" fill="white"/>
<path d="M636.971 830.585L635.222 827.801C649.605 821.677 664.612 817.385 679.454 812.61L680.955 814.371L636.971 830.584" fill="#EAEAEA"/>
<path d="M680.956 814.371C680.455 813.784 679.954 813.197 679.455 812.608C688.647 808.428 698.034 804.808 708.007 803.002C709.763 802.683 711.471 802.468 712.974 801.451L712.919 801.39C702.999 807.528 691.904 810.767 680.956 814.371Z" fill="#EAEAEA"/>
<path d="M712.972 801.451L714.719 800.65L712.919 801.391L712.972 801.451" fill="#ACBBC4"/>
<path d="M991.994 938.917C988.88 939 986.383 937.397 984.215 935.544C974.735 927.424 966.471 918.253 959.977 907.496C943.919 880.896 934.972 851.768 930.864 821.308C927.555 796.766 927.571 772.03 929.848 747.199C931.421 730.045 934.867 713.39 939.675 697.101C948.125 668.461 961.272 642.253 984.697 622.515C991.004 617.206 998.144 613.137 1006.15 610.85C1008.33 610.227 1010.4 609.597 1011.94 607.85L1028.13 608.549L1035.58 609.19L1035.32 609.191C1051.9 613.829 1064.69 623.855 1075.7 636.765C1083.21 645.566 1088.15 655.949 1094.55 665.423C1092.67 674.714 1090.68 683.985 1088.96 693.306C1088.2 697.434 1086.83 698.453 1082.86 696.253C1071.35 689.879 1060.44 692.266 1050.58 699.871C1034.9 711.953 1028.11 729.314 1024.13 747.791C1018.15 775.486 1019.49 802.911 1029.46 829.646C1030.36 832.046 1030.83 834.223 1029.91 836.696C1017.25 870.763 1004.63 904.84 991.994 938.916" fill="#883C87"/>
<path d="M1070.31 857.608C1061.38 857.297 1055.11 852.489 1049.88 846.191C1038.73 832.759 1033.7 816.702 1031.44 799.803C1028 774.254 1030.08 749.307 1041.74 725.803C1043.32 722.638 1045.06 719.474 1047.22 716.705C1061.01 699.077 1072.47 697.374 1088.66 710.758C1111.91 729.995 1130.9 753.115 1149.48 776.646C1151.39 779.058 1151.02 780.855 1149.27 783.092C1131.05 806.354 1112.29 829.132 1089.38 848.039C1083.79 852.654 1078.06 857.496 1070.31 857.608" fill="#F69724"/>
<path d="M925.008 600.178C939.306 601.431 953.666 601.309 967.993 602.129C988.198 603.285 1008.16 606.173 1028.16 608.561C1022.73 608.317 1017.33 608.085 1011.94 607.85C995.432 606.681 978.889 605.849 962.42 604.246C947.917 602.835 934.326 605.638 921.07 611.098C920.777 606.882 922.622 603.431 925.008 600.178V600.178ZM942.358 958.928C935.821 960.136 929.273 961.252 922.586 961.133C920.301 957.187 919.218 952.88 918.748 948.387C926.836 951.411 933.994 956.523 942.358 958.928Z" fill="#184E84"/>
<path d="M908.829 660.249C908.229 664.483 907.629 668.718 907.025 672.951C905.161 668.05 904.271 663.291 907.12 658.721C907.689 659.231 908.259 659.741 908.829 660.249V660.249ZM907.676 651.902C906.876 651.153 907.009 650.406 907.676 649.661C908.587 650.411 908.635 651.157 907.676 651.901" fill="#ACBBC4"/>
<path d="M543.509 342.425C541.469 340.86 539.305 342.052 538.13 340.492C537.944 338.947 539.117 338.503 539.91 337.804C546.741 331.772 555.946 332.937 563.75 331.635C574.238 329.884 582.825 342.651 581.113 353.571C580.605 356.811 578.681 357.217 576.086 357.613C568.228 358.813 560.233 359.188 552.545 361.444C548.068 362.759 543.448 363.977 540.014 367.259C536.93 370.207 534.121 371.215 531.028 367.739C528.097 364.445 528.004 360.839 531.106 357.659C533.156 355.559 534.666 354.352 530.565 352.827C528.141 351.927 529.59 349.921 530.668 348.48C533.688 344.436 538.16 343.276 543.508 342.427" fill="#EAEAEA"/>
<path d="M581.59 383.761C581.493 384.859 581.529 385.988 581.275 387.049C579.957 392.565 578.285 398.216 571.542 398.819C564.785 399.424 561.985 394.264 559.969 388.923C557.681 382.865 557.875 376.747 560.897 370.961C564.918 363.264 572.817 362.799 577.778 369.957C580.622 374.063 581.805 378.743 581.591 383.761H581.59ZM692.255 382.84C692.33 391.576 688.306 398.256 682.568 398.92C676.443 399.631 671.462 393.989 669.682 384.715C668.855 380.407 669.51 376.311 670.976 372.381C672.42 368.507 675.043 365.353 679.488 364.948C683.979 364.54 686.839 367.4 689.116 370.855C691.283 374.145 692.212 377.899 692.255 382.84" fill="#342213"/>
<path d="M538.599 457.485C538.567 459.705 539.255 461.958 538.283 464.136C526.681 462.432 515.914 458.836 507.01 450.756C503.737 447.785 501.645 444.312 501.069 439.932C512.953 447.121 525.341 453.234 538.599 457.484" fill="#683723"/>
<path d="M712.128 646.626C691.626 655.963 669.976 659.237 647.595 660.514C623.102 661.911 598.951 659.623 574.729 657.161C574.538 646.626 574.342 636.094 574.149 625.559C574.302 623.322 574.641 621.063 573.318 619.015C572.238 586.458 571.574 553.878 569.863 521.354C569.223 509.197 569.641 496.978 568.097 484.868C571.267 484.437 571.337 487.345 572.31 489.024C579.859 502.058 587.257 515.182 594.787 528.229C595.603 529.642 595.919 531.997 598.115 531.862C599.915 531.75 600.049 529.608 600.754 528.329C603.534 523.285 606.137 518.142 608.805 513.036C614.595 514.265 616.09 520.486 620.605 523.196C626.817 530.112 633.141 536.929 639.198 543.978C642.971 548.372 645.468 546.92 647.596 542.662C650.888 536.076 652.966 529.116 653.719 521.772C654.545 520.285 653.298 517.872 655.799 517.141L663.352 525.524C666.93 516.394 668.31 507.501 669.112 498.481C675.25 504.324 677.872 512.332 681.454 519.596C695.334 547.753 706.323 576.985 710.82 608.258C712.647 620.958 714.223 633.751 712.127 646.626" fill="#15385F"/>
<path d="M568.097 484.868C569.641 496.978 569.223 509.197 569.863 521.354C571.574 553.878 572.237 586.457 573.315 619.011C572.778 618.065 571.962 617.182 571.748 616.171C567.986 598.394 562.121 581.233 555.638 564.342C552.109 555.148 549.941 545.212 543.568 537.236C541.852 530.958 544.821 530.097 550.105 531.302C552.841 531.926 555.741 531.836 558.565 532.069C563.705 531.992 564.596 530.174 561.026 526.301C557.245 522.194 552.96 518.741 547.945 516.317C542.432 513.653 541.397 510.253 544.478 504.709C551.116 492.772 553.542 479.502 555.521 466.161C558.462 463.081 559.911 464.244 560.458 467.906C561.329 473.733 562.15 479.566 563.088 485.382C563.232 486.278 562.95 487.881 564.54 487.728C565.7 487.614 566.13 486.421 566.322 485.309L568.095 484.868H568.097ZM483.664 640.109L486.286 632.093L487.644 629.443C487.684 629.034 487.713 628.623 487.724 628.213C489.41 627.219 490.876 627.426 492.677 628.354C507.346 635.905 522.957 640.941 538.829 645.21C542.508 646.201 546.104 646.981 544.326 652.089C542.96 656.017 543.062 660.899 535.934 659.126C527.333 656.986 519.249 652.983 510.318 652.137L483.662 640.109H483.664Z" fill="#683723"/>
<path d="M543.566 537.237C549.939 545.212 552.107 555.148 555.637 564.344C562.121 581.233 567.986 598.394 571.747 616.171C571.961 617.182 572.777 618.065 573.315 619.011C574.639 621.062 574.302 623.322 574.147 625.558C570.193 623.986 570.174 619.886 568.821 616.802C558.506 593.285 549.417 569.269 540.293 545.272C538.933 541.692 537.136 537.734 543.566 537.237V537.237ZM555.521 466.161C553.543 479.502 551.115 492.772 544.478 504.71C541.397 510.253 542.431 513.653 547.945 516.318C552.961 518.742 557.245 522.194 561.025 526.301C564.595 530.174 563.705 531.992 558.565 532.069C552.571 525.546 544.023 524.016 536.311 520.989C531.781 519.214 531.083 517.656 533.751 513.381C541.931 500.266 546.581 485.898 547.418 470.384C549.705 468.182 552.455 466.869 555.521 466.161V466.161ZM560.202 628.395C565.502 628.226 571.173 633.417 571.402 638.65C571.674 644.813 565.011 651.866 558.895 651.894C553.462 651.918 547.979 646.622 548.015 641.387C548.055 635.501 554.55 628.577 560.202 628.395" fill="#342213"/>
<path d="M474.357 684.031C471.284 680.027 464.1 678.275 467.413 669.886C472.196 681.281 482.852 683.601 491.982 687.936C496.956 690.298 502.413 691.643 507.652 693.447C512.593 696.354 518.564 696.1 524.081 698.56C522.184 700.654 520.278 699.952 518.504 699.427C505 695.42 491.381 691.747 478.737 685.303C477.406 684.626 475.824 684.443 474.357 684.031V684.031ZM485.05 541.465C482.994 545.972 480.801 550.39 476.964 553.881C479.017 543.977 484.088 535.185 486.404 525.481L487.63 522.768C487.668 520.498 487.896 518.272 489.046 516.248C492.865 520.141 489.986 524.416 489.329 528.309C488.572 532.806 486.533 537.089 485.049 541.465" fill="#683723"/>
<path d="M475.029 656.554C475.192 652.361 476.132 650.425 478.766 648.473C478.984 651.713 477.745 653.502 475.029 656.554ZM483.661 640.109C483.454 640.866 483.405 641.761 482.333 641.827C482.205 641.835 481.936 641.565 481.944 641.437C482.01 640.363 482.905 640.315 483.664 640.109H483.661ZM487.642 629.445C487.19 630.327 486.738 631.211 486.285 632.093C484.945 630.291 486.178 629.809 487.642 629.445ZM487.632 522.768L486.404 525.482C484.929 523.726 486.106 523.168 487.63 522.768" fill="#825A35"/>
<path d="M568.097 484.868L566.322 485.308C570.358 483.113 571.021 475.84 575.041 476.236C578.574 476.585 577.345 483.436 579.707 486.836C581.222 489.018 582.827 491.005 585.67 492.702C587.043 487.821 588.333 483.47 592.074 480.281C595.613 477.264 598.265 476.228 600.951 481.181C603.794 486.424 608.333 489.292 614.445 489.349L618.575 492.392C617.825 500.458 612.405 506.317 608.805 513.036C606.137 518.142 603.534 523.284 600.754 528.329C600.047 529.608 599.914 531.75 598.114 531.862C595.919 531.996 595.603 529.644 594.787 528.229C587.257 515.182 579.859 502.058 572.31 489.024C571.337 487.344 571.266 484.437 568.097 484.868Z" fill="#F8F9FA"/>
<path d="M618.575 492.392L614.445 489.349C614.079 487.642 613.429 485.934 613.437 484.229C613.443 482.729 614.135 481.054 615.742 480.482C617.835 479.738 618.209 481.786 619.027 482.96C620.921 485.673 622.569 488.581 624.653 491.134C629.683 497.293 630.251 497.16 634.665 490.146C635.937 488.128 636.806 485.721 639.287 484.713C639.257 486.777 638.923 488.841 637.094 490.026C633.081 492.625 635.07 495.09 637.047 497.634L637.878 499.062C638.065 499.41 638.294 499.73 638.558 500.022C642.785 507.85 646.927 515.737 653.718 521.776C652.966 529.114 650.888 536.077 647.597 542.662C645.469 546.92 642.973 548.372 639.197 543.977C633.141 536.93 626.817 530.112 620.609 523.198C620.715 514.83 620.874 506.46 620.894 498.089C620.899 495.961 621.133 493.558 618.574 492.392" fill="#1F97D3"/>
<path d="M638.559 500.022C638.294 499.73 638.066 499.41 637.878 499.064L637.046 497.633C635.07 495.09 633.081 492.625 637.093 490.026C638.922 488.841 639.255 486.776 639.287 484.713C639.891 481.634 640.386 477.946 644.317 477.984C648.089 478.018 648.073 481.925 648.601 484.553C650.55 494.244 650.459 494.286 658.967 488.246C660.305 487.296 661.722 486.913 663.289 486.821C665.325 490.661 668.629 493.872 669.113 498.484C668.309 507.5 666.929 516.394 663.353 525.524L655.799 517.141C649.919 511.569 645.818 504.205 638.559 500.022" fill="#F8F9FA"/>
<path d="M737.275 495.83C740.515 499.464 743.724 503.124 747.008 506.717C748.488 508.337 748.784 510.032 748.404 512.206C747.455 517.638 746.371 523.07 747.507 528.668C748.183 531.997 746.714 533.584 743.095 533.334C731.768 532.553 720.843 521.486 719.915 509.668C726.762 506.382 730.962 499.78 737.275 495.83ZM802.708 538.942C792.624 555.424 765.991 555.533 756.043 539.769C754.699 537.64 754.506 535.98 757.111 535.074C761.008 533.72 764.036 531.202 766.931 528.414C768.498 526.906 770.438 526.18 772.398 527.332C781.794 532.858 792 536.36 802.708 538.942ZM775.211 509.42C776.127 514.212 772.778 517.258 769.662 519.122C766.632 520.933 764.238 517.177 761.987 515.226C752.766 507.226 752.795 507.19 758.287 495.974C759.262 493.981 760.235 491.988 761.247 490.014C767.46 477.887 769.052 477.441 780.94 484.477C781.294 491.794 782.5 499.324 772.858 502.361C770.184 503.204 765.388 504.526 766.331 507.714C767.388 511.296 772.088 509.121 775.211 509.42V509.42ZM803.884 513.258C806.281 518.17 806.606 523.414 806.431 528.76C806.286 533.117 804.954 535.173 799.879 534.061C792.679 532.484 785.839 530.154 779.414 526.645C777.291 525.485 773.336 525.233 774.032 521.912C774.686 518.809 776.838 515.688 780.407 514.89C783.111 514.285 785.167 512.634 787.56 511.561C793.003 512.129 798.443 512.694 803.884 513.257V513.258ZM820.927 515.888C825.141 519.057 828.577 523.218 833.528 525.469C836.599 526.865 835.8 529.034 833.775 530.613C827.715 535.337 820.729 536.885 813.179 535.898C810.179 535.506 810.185 533.132 810.248 530.845C810.4 525.32 810.455 519.805 808.957 514.41C812.949 514.905 816.938 515.397 820.927 515.888V515.888ZM740.762 492.485C747.578 487.659 753.778 481.783 762.288 479.836C759.212 486.137 755.292 492.009 752.915 498.68C751.126 503.697 748.606 503.665 745.734 499.376C744.16 497.022 741.595 495.378 740.762 492.485V492.485ZM750.331 523.542C751.362 520.356 749.804 516.305 753.695 514.276C754.524 513.844 765.346 522.665 765.451 523.6C765.687 525.669 757.787 532.084 754.918 531.786C749.615 531.23 751.4 526.604 750.331 523.542Z" fill="#FBD7A6"/>
<path d="M838.087 458.705C837.74 462.11 835.912 464.226 832.646 464.373C829.056 464.537 826.716 462.54 826.652 458.829C826.595 455.462 828.67 453.418 831.951 453.246C835.608 453.054 837.567 455.224 838.087 458.705Z" fill="#ACBBC4"/>
<path d="M1035.58 609.191C1035.58 609.191 1035.32 609.187 1035.32 609.19C1035.32 609.193 1035.58 609.19 1035.58 609.19" fill="#184E84"/>
<path d="M618.575 492.392C621.133 493.558 620.899 495.961 620.894 498.089C620.874 506.46 620.717 514.83 620.609 523.198C616.089 520.485 614.595 514.265 608.805 513.036C612.405 506.317 617.825 500.46 618.575 492.392ZM638.559 500.022C645.818 504.205 649.919 511.569 655.799 517.142C653.298 517.87 654.545 520.284 653.719 521.772C646.926 515.737 642.785 507.852 638.559 500.022ZM637.046 497.634L637.878 499.064L637.046 497.634Z" fill="#ACBBC4"/>
</svg>
