<?xml version="1.0" encoding="UTF-8"?> <svg xmlns="http://www.w3.org/2000/svg" width="500" height="116.022" viewBox="0 0 500 116.022"><defs><clipPath id="a"><path d="M0 0h792v594H0V0z"></path></clipPath></defs><g transform="matrix(2.22627 0 0 -2.22627 -893.462 1083.468)" clip-path="url(#a)"><path d="M624.093 469.507l-.643-7.716h-3.151c-5.031 0-7.646-4.033-7.646-7.898v-17.427h-8.917v33.04h8.446l.192-4.123c1.772 2.828 4.873 4.124 8.697 4.124h3.022zm-61.82-33.041h-8.925v17.467c0 3.658-.316 8.262-5.461 8.262-4.955 0-6.93-3.576-6.93-7.74v-17.99h-8.921v33.042h8.272l.189-4.224c1.773 2.828 5.075 5.03 9.946 5.03 8.992 0 11.83-6.42 11.83-13.101v-20.746zm-34.129 7.718l-.624-7.518c-2.14-.574-4.04-.78-6.339-.78-8.409 0-10.848 3.856-10.848 11.606v31.332h8.924v-9.318h8.88l-.617-7.715h-8.263v-13.628c0-3.11.853-4.79 4.043-4.79 1.387 0 2.93.167 4.844.811m-20.741 25.323l-.691-7.716h-2.425c-5.021 0-7.518-4.028-7.518-7.898v-17.427h-8.925v33.04h8.45l.176-4.123c1.782 2.828 4.883 4.124 8.712 4.124h2.22zm-59.832-29.38c-6.053-3.239-12.099-5.107-20.085-4.875-14.805.452-25.486 9.645-25.486 25.173 0 15.46 10.784 25.338 25.493 25.57 7.456.114 14.128-1.778 19.343-6.38l-6.282-6.355c-3.227 2.751-7.975 4.36-13.649 4.102-9.257-.43-14.835-7.158-14.958-16.407-.12-10.02 6.024-16.927 15.63-17.179 4.52-.113 7.758.494 10.56 1.752v10.243h-9.984l.674 8.401h18.744v-24.046zm152.18 9.72h-24.467c.697-4.223 4.016-6.763 8.149-6.878 4.018-.109 6.266 1.105 9.205 4.081l5.823-4.44c-4.138-5.097-9.104-6.952-14.761-6.952-9.95 0-17.404 6.957-17.404 17.33 0 10.36 7.417 17.325 17.032 17.325 10.597 0 16.423-6.42 16.423-17.816v-2.65zm-8.94 6.907c-.274 4.174-3.401 6.813-7.708 6.645-4.335-.164-7.221-2.987-7.82-6.645h15.528zm-108.585 1.348v-21.636h-7.868l-.195 3.258c-2.414-2.99-6.333-4.066-10.368-4.066-6.076 0-11.817 2.996-11.937 9.974-.181 10.968 12.344 11.747 20.21 11.747h1.572v.434c0 3.627-2.4 5.586-6.92 5.586-3.243 0-6.445-1.301-8.813-3.521l-5.15 5.231c4.676 3.79 9.54 5.204 14.722 5.204 10.235 0 14.747-4.73 14.747-12.211m-8.586-7.227h-1.241c-4.225-.009-11.646-.217-11.618-4.635.04-6.224 12.859-4.246 12.859 3.26v1.375zm143.492-10.566c0 2.103 1.587 3.688 3.622 3.688 2.01 0 3.6-1.585 3.6-3.688 0-2.14-1.59-3.72-3.6-3.72-2.035 0-3.622 1.58-3.622 3.72m3.622-4.459c2.423 0 4.49 1.882 4.49 4.46 0 2.55-2.067 4.428-4.49 4.428-2.445 0-4.514-1.878-4.514-4.429 0-2.577 2.069-4.459 4.514-4.459m-.941 4.103h.895l1.349-2.22h.872l-1.457 2.256c.753.092 1.328.496 1.328 1.413 0 1.01-.6 1.458-1.811 1.458h-1.95v-5.128h.774v2.221zm0 .661v1.585h1.057c.542 0 1.118-.117 1.118-.752 0-.787-.588-.833-1.244-.833h-.931z" fill="#069"></path></g></svg> 