<svg width="1334" height="935" viewBox="0 0 1334 935" fill="none" xmlns="http://www.w3.org/2000/svg">
<path d="M555.516 102.735C598.517 57.9356 658.385 30.1397 724.598 30.1397C812.607 30.1397 889.404 79.2155 930.284 152.082C965.836 136.194 1005.17 127.363 1046.55 127.363C1205.3 127.363 1334 257.18 1334 417.332C1334 577.478 1205.3 707.301 1046.55 707.301C1027.17 707.301 1008.24 705.354 989.924 701.661C953.923 765.878 885.29 809.28 806.531 809.28C773.559 809.28 742.371 801.674 714.605 788.12C678.106 873.996 593.038 934.204 493.925 934.204C390.691 934.204 302.706 868.891 268.954 777.288C253.912 780.463 238.58 782.06 223.207 782.054C100.3 782.054 0.666504 681.375 0.666504 557.192C0.666504 473.956 45.4251 401.289 111.946 362.419C98.2489 330.892 90.6423 296.12 90.6423 259.568C90.6423 116.737 206.587 0.9464 349.606 0.9464C433.576 0.9464 508.2 40.8663 555.516 102.734" fill="white"/>
<path d="M193.785 484.915C192.945 487.101 194.085 487.554 194.354 487.941C196.857 489.754 199.402 491.066 201.967 492.54C215.562 499.74 228.413 501.849 241.833 501.849C269.183 501.849 286.176 487.311 286.176 463.892V463.433C286.176 441.78 266.998 433.909 249.023 428.231L246.674 427.476C233.121 423.073 221.419 419.267 221.419 410.337V409.88C221.419 402.233 228.259 396.612 238.857 396.612C250.641 396.612 264.601 400.531 273.603 405.501C273.603 405.501 276.259 407.215 277.226 404.655C277.746 403.268 282.302 391.009 282.784 389.68C283.307 388.245 282.394 387.164 281.459 386.604C271.174 380.341 256.975 376.079 242.273 376.079L239.539 376.088C214.51 376.088 197.029 391.225 197.029 412.888V413.352C197.029 436.183 216.309 443.608 234.374 448.765L237.273 449.665C250.43 453.703 261.787 457.189 261.787 466.443V466.907C261.787 475.38 254.406 481.675 242.517 481.675C237.903 481.675 223.189 481.599 207.286 471.537C205.363 470.417 204.262 469.609 202.779 468.705C201.993 468.225 200.035 467.371 199.183 469.94L193.785 484.915ZM594.182 484.915C593.345 487.101 594.48 487.554 594.756 487.941C597.254 489.754 599.798 491.066 602.362 492.54C615.96 499.74 628.81 501.849 642.229 501.849C669.58 501.849 686.573 487.311 686.573 463.892V463.433C686.573 441.78 667.4 433.909 649.42 428.231L647.074 427.476C633.516 423.073 621.814 419.267 621.814 410.337V409.88C621.814 402.233 628.656 396.612 639.258 396.612C651.037 396.612 664.996 400.531 674 405.501C674 405.501 676.656 407.215 677.621 404.655C679.482 399.666 681.336 394.675 683.181 389.68C683.702 388.245 682.789 387.164 681.856 386.604C671.57 380.341 657.37 376.079 642.669 376.079L639.937 376.088C614.906 376.088 597.425 391.225 597.425 412.888V413.352C597.425 436.183 616.705 443.608 634.772 448.765L637.669 449.665C650.825 453.703 662.189 457.189 662.189 466.443V466.907C662.189 475.38 654.802 481.675 642.917 481.675C638.301 481.675 623.585 481.599 607.686 471.537C605.758 470.417 604.634 469.643 603.176 468.705C602.678 468.389 600.372 467.491 599.582 469.94L594.182 484.915ZM867.52 439.037C867.52 452.265 865.051 462.711 860.2 470.072C855.378 477.373 848.104 480.923 837.96 480.923C827.814 480.923 820.578 477.379 815.837 470.083C811.05 462.715 808.617 452.265 808.617 439.037C808.617 425.819 811.049 415.408 815.831 408.121C820.578 400.895 827.812 397.388 837.959 397.388C848.106 397.388 855.378 400.899 860.2 408.127C865.06 415.408 867.52 425.82 867.52 439.037V439.037ZM890.36 414.509C888.111 406.923 884.614 400.243 879.968 394.675C875.308 389.085 869.415 384.599 862.43 381.344C855.454 378.087 847.22 376.437 837.959 376.437C828.696 376.437 820.458 378.087 813.479 381.344C806.502 384.599 800.603 389.085 795.943 394.683C791.298 400.261 787.797 406.931 785.558 414.509C783.327 422.04 782.199 430.292 782.199 439.037C782.199 447.788 783.327 456.051 785.559 463.565C787.797 471.14 791.289 477.813 795.949 483.405C800.607 489 806.522 493.453 813.488 496.624C820.472 499.801 828.707 501.418 837.959 501.418C847.215 501.418 855.439 499.801 862.42 496.624C869.395 493.453 875.3 489 879.968 483.405C884.614 477.833 888.111 471.153 890.359 463.565C892.586 456.036 893.714 447.779 893.714 439.037C893.714 430.301 892.584 422.044 890.359 414.509" fill="#1F97D4"/>
<path fill-rule="evenodd" clip-rule="evenodd" d="M1077.83 477.383C1077.08 475.163 1074.91 476 1074.91 476C1071.59 477.273 1068.07 478.445 1064.3 479.033C1060.5 479.633 1056.29 479.933 1051.78 479.933C1040.75 479.933 1031.95 476.641 1025.68 470.149C1019.37 463.648 1015.83 453.141 1015.87 438.937C1015.91 426.021 1019.03 416.295 1024.63 408.873C1030.19 401.507 1038.67 397.727 1049.96 397.727C1059.38 397.727 1066.57 398.817 1074.1 401.181C1074.1 401.181 1075.88 401.961 1076.74 399.601C1078.74 394.052 1080.23 390.1 1082.36 384.006C1082.97 382.264 1081.48 381.527 1080.93 381.316C1077.98 380.164 1070.98 378.27 1065.71 377.47C1060.77 376.714 1055.01 376.323 1048.58 376.323C1038.99 376.323 1030.44 377.964 1023.13 381.216C1015.83 384.466 1009.65 388.952 1004.74 394.531C999.841 400.124 996.109 406.797 993.64 414.371C991.163 421.905 989.914 430.177 989.914 438.947C989.914 457.883 995.023 473.179 1005.1 484.388C1015.21 495.635 1030.38 501.348 1050.18 501.348C1061.87 501.348 1073.87 498.983 1082.51 495.581C1082.51 495.581 1084.16 494.788 1083.44 492.869L1077.83 477.383ZM1117.78 426.356C1118.87 419.001 1120.88 412.892 1124.02 408.123C1128.75 400.893 1135.97 396.913 1146.12 396.913C1156.27 396.913 1162.95 400.899 1167.78 408.127C1170.96 412.903 1172.35 419.267 1172.89 426.365L1117.78 426.356ZM1194.63 410.205C1192.69 402.884 1187.9 395.493 1184.75 392.109C1179.77 386.752 1174.91 383 1170.07 380.931C1163.78 378.227 1156.21 376.438 1147.94 376.438C1138.3 376.438 1129.53 378.064 1122.42 381.398C1115.31 384.738 1109.32 389.307 1104.63 394.976C1099.94 400.645 1096.41 407.389 1094.17 415.047C1091.91 422.653 1090.77 430.948 1090.77 439.704C1090.77 448.611 1091.96 456.917 1094.28 464.381C1096.63 471.911 1100.4 478.523 1105.48 484.024C1110.56 489.544 1117.1 493.876 1124.91 496.893C1132.69 499.903 1142.13 501.467 1152.97 501.435C1175.29 501.363 1187.04 496.381 1191.89 493.701C1192.75 493.224 1193.55 492.395 1192.54 490.008L1187.49 475.861C1186.71 473.748 1184.58 474.513 1184.58 474.513C1179.04 476.58 1171.19 480.269 1152.85 480.229C1140.87 480.212 1131.99 476.669 1126.41 471.136C1120.7 465.481 1117.9 457.171 1117.43 445.436L1194.69 445.493C1194.69 445.493 1196.73 445.473 1196.94 443.483C1197.03 442.661 1199.59 427.608 1194.63 410.205H1194.63ZM498.843 426.356C499.933 419.001 501.952 412.892 505.087 408.123C509.827 400.893 517.033 396.913 527.184 396.913C537.336 396.913 544.024 400.899 548.847 408.127C552.023 412.903 553.416 419.267 553.961 426.365L498.843 426.356ZM575.7 410.205C573.763 402.884 568.964 395.493 565.82 392.109C560.847 386.752 555.98 383 551.144 380.931C544.837 378.227 537.279 376.438 529.012 376.438C519.367 376.438 510.603 378.064 503.493 381.398C496.373 384.738 490.395 389.307 485.696 394.976C481.007 400.645 477.485 407.389 475.229 415.047C472.98 422.653 471.845 430.948 471.845 439.704C471.845 448.611 473.019 456.917 475.352 464.381C477.699 471.911 481.467 478.523 486.541 484.024C491.628 489.544 498.163 493.876 505.981 496.893C513.76 499.903 523.195 501.467 534.036 501.435C556.357 501.363 568.108 496.381 572.959 493.701C573.812 493.224 574.625 492.395 573.609 490.008L568.557 475.861C567.779 473.748 565.644 474.513 565.644 474.513C560.108 476.58 552.263 480.269 533.916 480.229C521.94 480.212 513.056 476.669 507.479 471.136C501.775 465.481 498.967 457.171 498.493 445.436L575.763 445.493C575.763 445.493 577.803 445.473 578.011 443.483C578.097 442.661 580.661 427.608 575.7 410.205" fill="#1F97D4"/>
<path d="M331.799 476.961C328.764 474.543 328.343 473.948 327.339 472.379C325.808 470.011 325.023 466.639 325.023 462.324C325.023 455.54 327.276 450.649 331.922 447.368C331.875 447.377 338.582 441.579 354.336 441.784C365.407 441.924 375.315 443.569 375.315 443.569V478.7H375.324C375.324 478.7 365.502 480.809 354.446 481.473C338.731 482.42 331.75 476.948 331.798 476.963L331.799 476.961ZM362.551 422.653C359.412 422.423 355.355 422.307 350.486 422.307C343.863 422.307 337.463 423.131 331.454 424.747C325.415 426.376 319.987 428.896 315.316 432.231C310.651 435.562 306.815 439.923 304.107 444.976C301.366 450.075 299.969 456.069 299.969 462.787C299.969 469.639 301.159 475.573 303.515 480.427C305.878 485.311 309.264 489.381 313.59 492.525C317.886 495.655 323.187 497.945 329.334 499.348C335.406 500.731 342.284 501.435 349.796 501.435C357.734 501.435 365.627 500.768 373.271 499.477C380.859 498.184 390.155 496.296 392.739 495.697C395.312 495.104 398.155 494.324 398.155 494.324C400.068 493.841 399.92 491.799 399.92 491.799L399.878 421.121C399.878 405.62 395.744 394.139 387.598 387.005C379.487 379.911 367.546 376.323 352.102 376.323C346.299 376.323 336.984 377.107 331.386 378.227C331.386 378.227 314.519 381.499 307.566 386.943C307.566 386.943 306.041 387.886 306.873 390.015L312.346 404.712C313.026 406.616 314.88 405.965 314.88 405.965C314.88 405.965 315.464 405.736 316.154 405.329C331.014 397.248 349.824 397.488 349.824 397.488C358.168 397.488 364.603 399.176 368.923 402.483C373.143 405.72 375.283 410.597 375.283 420.896V424.163C368.656 423.208 362.551 422.653 362.551 422.653" fill="#1F97D4"/>
<path fill-rule="evenodd" clip-rule="evenodd" d="M985.871 382.839C986.464 381.092 985.221 380.245 984.713 380.052C983.393 379.556 976.825 378.169 971.757 377.852C962.047 377.251 956.659 378.887 951.832 381.059C947.039 383.221 941.732 386.712 938.776 390.695L938.767 381.268C938.767 379.977 937.847 378.935 936.547 378.935H916.735C915.448 378.935 914.521 379.977 914.521 381.268V496.553C914.521 497.845 915.567 498.898 916.864 498.898H937.173C938.464 498.898 939.512 497.845 939.512 496.552V438.965C939.512 431.231 940.368 423.523 942.067 418.677C943.741 413.883 946.019 410.06 948.843 407.313C951.656 404.573 954.875 402.644 958.387 401.573C961.979 400.477 965.951 400.113 968.753 400.113C972.791 400.113 977.24 401.152 977.24 401.152C978.733 401.315 979.561 400.405 980.064 399.061C981.393 395.532 985.153 384.941 985.871 382.839V382.839ZM795.29 329.414C792.82 328.654 790.583 328.147 787.65 327.6C784.676 327.064 781.148 326.787 777.148 326.787C763.172 326.787 752.155 330.739 744.421 338.538C736.735 346.278 731.507 358.071 728.89 373.587L727.942 378.82H710.398C710.398 378.82 708.255 378.733 707.806 381.068L704.926 397.139C704.723 398.675 705.383 399.636 707.446 399.627H724.521L707.193 496.346C705.838 504.137 704.283 510.542 702.566 515.398C700.869 520.192 699.213 523.78 697.174 526.388C695.203 528.908 693.327 530.77 690.103 531.852C687.434 532.745 684.367 533.158 681.009 533.158C679.138 533.158 676.649 532.846 674.814 532.478C672.977 532.114 672.019 531.704 670.641 531.124C670.641 531.124 668.637 530.364 667.847 532.368C667.206 534.008 662.657 546.528 662.117 548.074C661.57 549.606 662.341 550.812 663.307 551.154C665.579 551.968 667.273 552.49 670.37 553.221C674.67 554.237 678.297 554.298 681.689 554.298C688.802 554.298 695.285 553.298 700.657 551.357C706.069 549.404 710.775 545.997 714.937 541.39C719.439 536.416 722.27 531.21 724.981 524.106C727.663 517.064 729.946 508.328 731.773 498.142L749.183 399.627H774.64C774.64 399.627 776.783 399.707 777.227 397.379L780.107 381.308C780.31 379.773 779.653 378.811 777.587 378.82H752.881C753.006 378.26 754.125 369.572 756.961 361.391C758.173 357.897 760.45 355.082 762.382 353.144C764.275 351.244 766.459 349.885 768.851 349.117C771.305 348.321 774.094 347.924 777.147 347.924C779.472 347.924 781.759 348.202 783.494 348.564C785.892 349.071 786.819 349.344 787.447 349.531C789.967 350.297 790.303 349.555 790.8 348.335L796.707 332.108C797.316 330.366 795.834 329.628 795.288 329.414H795.29ZM450.035 496.553C450.035 497.846 449.115 498.9 447.824 498.9H427.329C426.033 498.9 425.109 497.846 425.109 496.553V331.615C425.109 330.327 426.033 329.284 427.329 329.284H447.823C449.116 329.284 450.035 330.327 450.035 331.615V496.553Z" fill="#1F97D4"/>
</svg>
