<svg width="51" height="96" viewBox="0 0 51 96" fill="none" xmlns="http://www.w3.org/2000/svg">
<path d="M46.0795 59.9865C48.6008 57.7465 49.6795 53.6265 49.6541 53.6399C49.6408 53.6265 47.1075 53.9332 44.8141 56.2132C43.1608 57.8665 41.9461 60.0399 41.3595 61.1332C42.2261 58.5065 42.8928 55.7999 43.3328 53.0665C43.8395 52.9999 46.0941 52.6932 47.9061 50.3732C50.0128 47.7332 50.3741 43.4799 50.3461 43.4932C50.3328 43.4799 47.8808 44.2265 46.0128 46.8932C44.6661 48.8132 43.8395 51.1732 43.4528 52.3465C43.8275 49.7865 44.0261 47.2132 44.0261 44.6265C44.5195 44.4799 46.6928 43.7999 48.1075 41.2132C49.7608 38.2532 49.4128 33.9732 49.3861 33.9999C49.3741 33.9865 47.0795 35.1465 45.6661 38.0932C44.6408 40.2132 44.2141 42.6799 44.0128 43.9065C43.9741 41.2799 43.7461 38.6665 43.3075 36.0665C43.7608 35.8399 45.7995 34.7999 46.7608 31.9865C47.8928 28.7732 46.7995 24.5865 46.7741 24.6132C46.7461 24.5999 44.6928 26.1332 43.8141 29.3065C43.1728 31.5865 43.1728 34.1065 43.1728 35.3465C42.7075 32.7999 42.0408 30.2665 41.1728 27.7999C41.5875 27.4932 43.4128 26.1199 43.8808 23.1732C44.4408 19.7865 42.5875 15.7999 42.5595 15.8265C42.5341 15.8132 40.7861 17.6932 40.4808 20.9865C40.2541 23.3599 40.6928 25.8665 40.9208 27.1065C39.9461 24.4665 38.7461 21.9065 37.3075 19.4265C37.6541 19.0532 39.2008 17.3599 39.0661 14.3332C38.9461 10.8532 36.2395 7.18655 36.2261 7.22655C36.2008 7.22655 34.8675 9.41322 35.2541 12.7599C35.5341 15.1732 36.4661 17.5999 36.9341 18.7865C35.5475 16.4932 33.9595 14.2932 32.1475 12.2132C32.4128 11.7865 33.6261 9.83989 32.8675 6.82655C32.0408 3.35989 28.5061 0.106551 28.4941 0.146551C28.4661 0.146551 27.6008 2.55989 28.6928 5.86655C29.4808 8.25322 30.9208 10.5199 31.6261 11.6399C30.7328 10.6399 29.7995 9.66655 28.8141 8.73322C28.2261 7.54655 26.8675 5.38655 24.5195 3.66655C20.9995 1.07988 16.9741 0.733214 17.0128 0.746547C17.0261 0.75988 19.4808 3.71988 22.7075 6.09322C24.9061 7.69322 27.0795 8.73322 28.2928 9.27988C29.2675 10.1999 30.2008 11.1599 31.0661 12.1465C30.0661 11.3199 27.8275 9.81322 25.4661 9.47988C22.2008 9.01322 20.2261 10.7732 20.2395 10.7599C20.2675 10.7599 23.2675 12.6265 26.3075 13.2265C28.9995 13.7465 31.0941 12.9599 31.5728 12.7465C33.3461 14.7999 34.9208 16.9732 36.2795 19.2265C35.4808 18.2665 33.6128 16.4532 31.4128 15.7732C28.3741 14.8265 26.1328 16.2132 26.1475 16.1999C26.1728 16.1999 28.6541 18.4532 31.4808 19.5065C33.9741 20.4265 36.1608 20.0132 36.6661 19.8665C38.0941 22.3065 39.2675 24.8265 40.2261 27.4265C39.6261 26.3599 38.1608 24.2799 36.1728 23.2532C33.4128 21.8132 30.9741 22.7865 30.9875 22.7732C31.0128 22.7732 32.9461 25.3599 35.4808 26.8799C37.7328 28.1999 39.9461 28.1732 40.4661 28.1332C41.3208 30.5599 41.9741 33.0532 42.4408 35.5599C42.0408 34.4132 40.9595 32.1465 39.2008 30.8132C36.7608 28.9599 34.2008 29.5065 34.2141 29.4932C34.2395 29.5065 35.6541 32.3332 37.8928 34.2265C39.8808 35.8932 42.0528 36.2265 42.5728 36.2665C42.9995 38.8265 43.2395 41.3999 43.2675 43.9865C43.0528 42.7865 42.3741 40.3865 40.8675 38.7865C38.7741 36.5732 36.1728 36.6799 36.1861 36.6532C36.2008 36.6665 37.1075 39.6665 38.9875 41.9065C40.6541 43.8665 42.7461 44.5732 43.2541 44.7065C43.2541 47.2532 43.0661 49.7999 42.6928 52.3199C42.6795 51.1065 42.3995 48.6265 41.1728 46.7999C39.4808 44.2665 36.8928 43.9465 36.9208 43.9332C36.9341 43.9465 37.3328 47.0532 38.8275 49.5599C40.1608 51.7732 42.1075 52.8132 42.5875 53.0265C42.1475 55.7199 41.4941 58.3732 40.6408 60.9732C40.8275 59.7732 40.9741 57.2799 40.0795 55.2665C38.8395 52.4799 36.3595 51.6932 36.3861 51.6799C36.3995 51.6932 36.2675 54.8132 37.3075 57.5732C38.2395 59.9865 39.9741 61.3732 40.4128 61.6665C39.5875 64.0665 38.5728 66.4132 37.3861 68.6799C37.7741 67.5199 38.3208 65.0799 37.7741 62.9332C36.9995 59.9599 34.6795 58.7865 34.7075 58.7732C34.7195 58.7865 34.0795 61.8532 34.6541 64.7465C35.1728 67.2932 36.6661 68.9465 37.0408 69.3065C35.7741 71.6532 34.3075 73.8932 32.6661 76.0132C33.2541 74.9332 34.2261 72.6132 34.0528 70.3865C33.8141 67.3199 31.7195 65.7465 31.7461 65.7332C31.7608 65.7465 30.6008 68.6799 30.6661 71.6399C30.7328 74.2532 31.9061 76.1465 32.2141 76.5732C30.6008 78.5865 28.8275 80.4799 26.8928 82.2399C27.6795 81.2665 29.0661 79.1332 29.2795 76.9065C29.5728 73.8265 27.7741 71.9199 27.7995 71.9199C27.7995 71.9465 26.1608 74.6399 25.6941 77.5865C25.2928 80.1865 26.1075 82.2532 26.3461 82.7332C24.2261 84.5865 21.9341 86.2665 19.4408 87.7465C20.4408 86.9332 22.2675 85.0532 22.9208 82.8932C23.8275 79.8932 22.3995 77.6932 22.4275 77.6932C22.4275 77.7199 20.2675 80.0945 19.1861 82.9332C18.2541 85.4279 18.6408 87.6265 18.7861 88.1332C16.4408 89.4932 13.9341 90.6665 11.2675 91.6399C12.4528 90.9999 14.7075 89.4532 15.7995 87.4279C17.3075 84.6132 16.2928 82.1999 16.3208 82.1999C16.3208 82.2265 13.6795 84.2132 11.9995 86.8399C10.5341 89.1479 10.4808 91.3865 10.5195 91.9065C7.54747 92.9465 4.38613 93.7332 1.0408 94.2532C0.679467 94.3065 0.412799 94.5199 0.440799 94.7199C0.466133 94.9332 0.786134 95.0532 1.1608 94.9999C4.55947 94.4812 7.77413 93.6799 10.7861 92.6265C11.1075 93.0265 12.5728 94.8399 15.7195 95.1999C19.3461 95.6532 23.4275 93.6932 23.3995 93.6799C23.3995 93.6532 21.5061 91.9332 18.0795 91.7199C15.6128 91.5599 12.9208 92.0945 11.5595 92.3465C14.2675 91.3465 16.7995 90.1599 19.1861 88.7865C19.5595 89.1332 21.2928 90.6532 24.3608 90.5199C27.8808 90.3745 31.4408 87.7999 31.3995 87.7865C31.3995 87.7612 29.2395 86.3865 25.9341 86.7332C23.5475 86.9732 21.0941 87.9199 19.8675 88.3999C22.3861 86.8932 24.7328 85.1865 26.8675 83.3065C27.2928 83.5732 29.2541 84.7732 32.1728 84.0945C35.5195 83.3465 38.4808 80.1999 38.4408 80.1999C38.4408 80.1732 36.0795 79.2132 32.9341 80.1199C30.6661 80.7732 28.5061 82.1199 27.4275 82.7999C29.3995 81.0265 31.2008 79.0945 32.8275 77.0532C33.2928 77.2532 35.4128 78.0945 38.1328 76.9599C41.2675 75.6799 43.6261 72.1199 43.6008 72.1199C43.6008 72.0945 41.1075 71.5332 38.1861 72.9465C36.0795 73.9599 34.2141 75.6399 33.2795 76.4812C34.9461 74.3199 36.4275 72.0412 37.7195 69.6665C38.2141 69.7732 40.4408 70.2399 42.9061 68.6665C45.7608 66.8799 47.4808 62.9732 47.4528 62.9732C47.4408 62.9599 44.8928 62.8265 42.2675 64.7065C40.3741 66.0665 38.8275 68.0265 38.0661 68.9999C39.2675 66.7079 40.2928 64.3199 41.1475 61.8799C41.6261 61.8532 43.8928 61.9465 46.0795 59.9865Z" fill="#418FDE"/>
</svg>
