<svg width="1334" height="935" viewBox="0 0 1334 935" fill="none" xmlns="http://www.w3.org/2000/svg">
<path d="M555.517 102.732C598.519 57.9324 658.387 30.1377 724.6 30.1377C812.609 30.1377 889.407 79.2137 930.287 152.08C965.839 136.192 1005.17 127.362 1046.56 127.362C1205.3 127.362 1334 257.179 1334 417.331C1334 577.476 1205.3 707.3 1046.56 707.3C1027.17 707.3 1008.24 705.352 989.927 701.659C953.925 765.878 885.292 809.28 806.533 809.28C773.561 809.28 742.373 801.674 714.607 788.12C678.108 873.996 593.04 934.204 493.927 934.204C390.692 934.204 302.707 868.891 268.955 777.288C254.191 780.407 238.891 782.054 223.208 782.054C100.3 782.054 0.666687 681.375 0.666687 557.191C0.666687 473.955 45.4253 401.288 111.947 362.418C98.2493 330.891 90.6427 296.119 90.6427 259.567C90.6427 116.735 206.588 0.944392 349.607 0.944392C433.577 0.944392 508.201 40.8631 555.517 102.732Z" fill="white"/>
<path d="M193.785 484.913C192.946 487.099 194.085 487.553 194.354 487.941C196.857 489.754 199.402 491.065 201.969 492.538C215.562 499.738 228.413 501.847 241.833 501.847C269.184 501.847 286.177 487.309 286.177 463.89V463.431C286.177 441.778 266.998 433.907 249.024 428.229L246.674 427.474C233.121 423.071 221.42 419.265 221.42 410.335V409.878C221.42 402.231 228.26 396.61 238.857 396.61C250.641 396.61 264.601 400.529 273.605 405.499C273.605 405.499 276.26 407.213 277.226 404.653C277.748 403.266 282.302 391.007 282.785 389.678C283.308 388.243 282.394 387.162 281.46 386.602C271.174 380.339 256.976 376.077 242.273 376.077L239.541 376.086C214.51 376.086 197.029 391.223 197.029 412.886V413.35C197.029 436.181 216.309 443.606 234.374 448.763L237.273 449.663C250.43 453.701 261.788 457.187 261.788 466.441V466.905C261.788 475.378 254.406 481.673 242.517 481.673C237.905 481.673 223.189 481.597 207.286 471.535C205.364 470.417 204.262 469.607 202.78 468.703C201.994 468.225 200.036 467.369 199.184 469.938L193.785 484.913Z" fill="#1F97D4"/>
<path d="M594.183 484.913C593.346 487.099 594.481 487.553 594.758 487.941C597.255 489.754 599.799 491.065 602.363 492.538C615.961 499.738 628.811 501.847 642.231 501.847C669.582 501.847 686.575 487.309 686.575 463.89V463.431C686.575 441.778 667.401 433.907 649.422 428.229L647.077 427.474C633.518 423.071 621.817 419.265 621.817 410.335V409.878C621.817 402.231 628.658 396.61 639.261 396.61C651.039 396.61 664.998 400.529 674.002 405.499C674.002 405.499 676.658 407.213 677.623 404.653C678.146 403.266 682.701 391.007 683.183 389.678C683.705 388.243 682.791 387.162 681.858 386.602C671.573 380.339 657.373 376.077 642.671 376.077L639.939 376.086C614.909 376.086 597.427 391.223 597.427 412.886V413.35C597.427 436.181 616.707 443.606 634.773 448.763L637.671 449.663C650.827 453.701 662.19 457.187 662.19 466.441V466.905C662.19 475.378 654.803 481.673 642.919 481.673C638.303 481.673 623.587 481.597 607.689 471.535C605.761 470.417 604.637 469.641 603.178 468.703C602.681 468.387 600.374 467.489 599.585 469.938L594.183 484.913Z" fill="#1F97D4"/>
<path d="M867.523 439.036C867.523 452.264 865.054 462.71 860.203 470.071C855.38 477.372 848.107 480.922 837.962 480.922C827.815 480.922 820.58 477.378 815.839 470.08C811.051 462.714 808.619 452.264 808.619 439.036C808.619 425.818 811.051 415.407 815.834 408.12C820.58 400.892 827.815 397.386 837.962 397.386C848.107 397.386 855.38 400.898 860.203 408.126C865.063 415.407 867.523 425.818 867.523 439.036ZM890.362 414.508C888.114 406.92 884.616 400.242 879.971 394.674C875.311 389.084 869.418 384.598 862.432 381.343C855.456 378.086 847.223 376.436 837.962 376.436C828.699 376.436 820.46 378.086 813.48 381.343C806.504 384.598 800.606 389.084 795.946 394.682C791.3 400.26 787.799 406.93 785.56 414.508C783.33 422.039 782.202 430.291 782.202 439.036C782.202 447.787 783.33 456.05 785.56 463.564C787.799 471.139 791.291 477.812 795.951 483.404C800.61 488.999 806.524 493.452 813.491 496.623C820.475 499.8 828.71 501.418 837.962 501.418C847.218 501.418 855.442 499.8 862.423 496.623C869.398 493.452 875.302 488.999 879.971 483.404C884.616 477.832 888.114 471.152 890.362 463.564C892.587 456.035 893.716 447.778 893.716 439.036C893.716 430.3 892.587 422.043 890.362 414.508" fill="#1F97D4"/>
<path fill-rule="evenodd" clip-rule="evenodd" d="M1077.83 477.381C1077.08 475.161 1074.92 475.999 1074.92 475.999C1071.6 477.272 1068.07 478.444 1064.3 479.032C1060.5 479.631 1056.29 479.932 1051.79 479.932C1040.75 479.932 1031.96 476.64 1025.68 470.148C1019.38 463.647 1015.83 453.14 1015.87 438.936C1015.91 426.02 1019.03 416.293 1024.64 408.872C1030.19 401.505 1038.68 397.725 1049.96 397.725C1059.38 397.725 1066.57 398.816 1074.1 401.18C1074.1 401.18 1075.88 401.96 1076.75 399.6C1078.75 394.051 1080.23 390.099 1082.36 384.004C1082.97 382.263 1081.48 381.525 1080.94 381.315C1077.98 380.163 1070.98 378.268 1065.71 377.468C1060.78 376.712 1055.01 376.32 1048.58 376.32C1038.99 376.32 1030.44 377.963 1023.13 381.215C1015.84 384.464 1009.65 388.951 1004.75 394.529C999.844 400.123 996.112 406.796 993.643 414.369C991.165 421.904 989.916 430.176 989.916 438.945C989.916 457.881 995.025 473.177 1005.11 484.387C1015.22 495.633 1030.39 501.347 1050.18 501.347C1061.88 501.347 1073.87 498.981 1082.51 495.58C1082.51 495.58 1084.16 494.787 1083.44 492.868L1077.83 477.381Z" fill="#1F97D4"/>
<path fill-rule="evenodd" clip-rule="evenodd" d="M1117.78 426.354C1118.87 418.999 1120.88 412.89 1124.02 408.121C1128.76 400.891 1135.97 396.911 1146.12 396.911C1156.27 396.911 1162.96 400.897 1167.78 408.126C1170.96 412.901 1172.35 419.265 1172.9 426.363L1117.78 426.354ZM1194.64 410.203C1192.69 402.882 1187.9 395.491 1184.75 392.107C1179.78 386.75 1174.91 382.998 1170.07 380.929C1163.78 378.225 1156.21 376.437 1147.94 376.437C1138.3 376.437 1129.53 378.062 1122.42 381.397C1115.31 384.735 1109.33 389.305 1104.64 394.974C1099.94 400.643 1096.42 407.389 1094.17 415.045C1091.92 422.651 1090.78 430.946 1090.78 439.702C1090.78 448.609 1091.96 456.915 1094.28 464.379C1096.63 471.909 1100.4 478.521 1105.48 484.022C1110.56 489.543 1117.1 493.874 1124.92 496.891C1132.69 499.901 1142.14 501.466 1152.97 501.433C1175.29 501.361 1187.04 496.381 1191.89 493.701C1192.75 493.222 1193.56 492.394 1192.55 490.007L1187.49 475.861C1186.71 473.746 1184.58 474.511 1184.58 474.511C1179.04 476.578 1171.19 480.267 1152.85 480.227C1140.87 480.21 1131.99 476.669 1126.41 471.134C1120.71 465.479 1117.9 457.169 1117.43 445.434L1194.69 445.491C1194.69 445.491 1196.73 445.471 1196.94 443.481C1197.03 442.659 1199.6 427.606 1194.64 410.203" fill="#1F97D4"/>
<path fill-rule="evenodd" clip-rule="evenodd" d="M498.844 426.354C499.935 418.999 501.953 412.89 505.088 408.121C509.828 400.891 517.033 396.911 527.185 396.911C537.337 396.911 544.025 400.897 548.848 408.126C552.024 412.901 553.417 419.265 553.963 426.363L498.844 426.354ZM575.701 410.203C573.764 402.882 568.965 395.491 565.821 392.107C560.847 386.75 555.981 382.998 551.145 380.929C544.839 378.225 537.28 376.437 529.013 376.437C519.368 376.437 510.604 378.062 503.495 381.397C496.375 384.735 490.396 389.305 485.697 394.974C481.008 400.643 477.487 407.389 475.229 415.045C472.981 422.651 471.847 430.946 471.847 439.702C471.847 448.609 473.019 456.915 475.353 464.379C477.699 471.909 481.468 478.521 486.543 484.022C491.629 489.543 498.164 493.874 505.983 496.891C513.761 499.901 523.196 501.466 534.037 501.433C556.359 501.361 568.109 496.381 572.96 493.701C573.812 493.222 574.625 492.394 573.611 490.007L568.559 475.861C567.78 473.746 565.645 474.511 565.645 474.511C560.109 476.578 552.264 480.267 533.917 480.227C521.941 480.21 513.057 476.669 507.48 471.134C501.776 465.479 498.968 457.169 498.495 445.434L575.764 445.491C575.764 445.491 577.803 445.471 578.012 443.481C578.099 442.659 580.663 427.606 575.701 410.203" fill="#1F97D4"/>
<path d="M331.799 476.961C328.766 474.541 328.345 473.946 327.341 472.377C325.81 470.009 325.025 466.637 325.025 462.322C325.025 455.538 327.278 450.648 331.923 447.366C331.877 447.376 338.583 441.577 354.338 441.782C365.409 441.922 375.317 443.568 375.317 443.568V478.698H375.326C375.326 478.698 365.503 480.808 354.447 481.473C338.733 482.42 331.751 476.946 331.799 476.961ZM362.553 422.652C359.414 422.421 355.357 422.306 350.487 422.306C343.865 422.306 337.465 423.129 331.455 424.746C325.417 426.374 319.987 428.894 315.318 432.229C310.621 435.597 306.85 439.884 304.109 444.974C301.367 450.073 299.97 456.069 299.97 462.785C299.97 469.637 301.161 475.573 303.515 480.425C305.879 485.309 309.266 489.38 313.591 492.524C317.887 495.653 323.189 497.944 329.335 499.346C335.407 500.729 342.286 501.433 349.798 501.433C357.735 501.433 365.629 500.766 373.273 499.476C380.861 498.184 390.157 496.294 392.741 495.696C395.314 495.102 398.157 494.322 398.157 494.322C400.07 493.84 399.922 491.797 399.922 491.797L399.879 421.12C399.879 405.618 395.745 394.137 387.598 387.004C379.489 379.909 367.547 376.321 352.103 376.321C346.301 376.321 336.986 377.105 331.387 378.225C331.387 378.225 314.519 381.497 307.567 386.941C307.567 386.941 306.042 387.884 306.874 390.013L312.347 404.71C313.026 406.614 314.882 405.964 314.882 405.964C314.882 405.964 315.466 405.734 316.155 405.328C331.015 397.246 349.826 397.486 349.826 397.486C358.17 397.486 364.605 399.174 368.925 402.481C373.145 405.718 375.283 410.596 375.283 420.894V424.162C368.657 423.206 362.553 422.652 362.553 422.652" fill="#1F97D4"/>
<path fill-rule="evenodd" clip-rule="evenodd" d="M985.873 382.837C986.467 381.091 985.224 380.244 984.716 380.052C983.396 379.555 976.828 378.168 971.76 377.852C962.049 377.249 956.661 378.885 951.835 381.057C947.041 383.22 941.735 386.712 938.779 390.693L938.769 381.267C938.769 379.976 937.849 378.933 936.549 378.933H916.737C915.451 378.933 914.523 379.976 914.523 381.267V496.552C914.523 497.844 915.569 498.897 916.867 498.897H937.176C938.467 498.897 939.515 497.844 939.515 496.552V438.965C939.515 431.229 940.371 423.521 942.069 418.676C943.744 413.881 946.021 410.059 948.845 407.312C951.657 404.572 954.877 402.643 958.389 401.572C961.981 400.476 965.953 400.112 968.756 400.112C972.793 400.112 977.243 401.151 977.243 401.151C978.735 401.313 979.564 400.405 980.067 399.06C981.396 395.531 985.156 384.941 985.873 382.837Z" fill="#1F97D4"/>
<path fill-rule="evenodd" clip-rule="evenodd" d="M795.291 329.411C792.822 328.651 790.585 328.145 787.651 327.599C784.679 327.062 781.15 326.785 777.15 326.785C763.174 326.785 752.157 330.737 744.422 338.535C736.737 346.275 731.509 358.069 728.892 373.585L727.943 378.818H710.401C710.401 378.818 708.258 378.731 707.809 381.066L704.929 397.137C704.726 398.673 705.386 399.634 707.449 399.625H724.524L707.196 496.346C705.841 504.135 704.286 510.541 702.569 515.397C700.872 520.19 699.216 523.778 697.177 526.386C695.206 528.907 693.33 530.769 690.106 531.85C687.437 532.745 684.37 533.157 681.012 533.157C679.141 533.157 676.653 532.845 674.817 532.477C672.98 532.113 672.022 531.702 670.645 531.122C670.645 531.122 668.64 530.362 667.85 532.366C667.209 534.007 662.66 546.527 662.12 548.073C661.573 549.605 662.344 550.81 663.31 551.154C665.582 551.967 667.276 552.489 670.373 553.219C674.673 554.235 678.3 554.297 681.692 554.297C688.805 554.297 695.288 553.297 700.66 551.355C706.072 549.402 710.778 545.995 714.941 541.389C719.442 536.414 722.274 531.209 724.984 524.105C727.666 517.062 729.949 508.326 731.775 498.141L749.186 399.625H774.643C774.643 399.625 776.786 399.706 777.232 397.377L780.111 381.306C780.313 379.771 779.655 378.809 777.59 378.818H752.884C753.009 378.259 754.127 369.57 756.965 361.389C758.175 357.897 760.453 355.079 762.385 353.142C764.279 351.242 766.462 349.883 768.854 349.117C771.309 348.319 774.097 347.922 777.15 347.922C779.475 347.922 781.762 348.199 783.498 348.562C785.895 349.07 786.822 349.342 787.45 349.529C789.972 350.295 790.306 349.553 790.804 348.333L796.712 332.106C797.32 330.363 795.837 329.627 795.291 329.411Z" fill="#1F97D4"/>
<path fill-rule="evenodd" clip-rule="evenodd" d="M450.035 496.552C450.035 497.844 449.117 498.897 447.825 498.897H427.33C426.034 498.897 425.11 497.844 425.11 496.552V331.613C425.11 330.325 426.034 329.283 427.33 329.283H447.825C449.117 329.283 450.035 330.325 450.035 331.613V496.552Z" fill="#1F97D4"/>
</svg>
